<svg width="31" height="31" viewBox="0 0 31 31" fill="none" xmlns="http://www.w3.org/2000/svg">
<g clip-path="url(#clip0_402_491)">
<path d="M8.81013 9.61582L14.2701 15.8179C14.5776 16.1678 15.0228 16.3692 15.4999 16.3692C15.977 16.3692 16.4117 16.1678 16.7298 15.8179L22.0943 9.73244C22.0943 9.73244 22.1897 9.64762 22.2428 9.61582C22.0201 9.5204 21.7657 9.45679 21.5006 9.45679H9.48865C9.2342 9.45679 8.99036 9.5098 8.77832 9.59461C8.77832 9.59461 8.79952 9.61582 8.81013 9.61582Z" fill="white"/>
<path d="M23.0803 10.326C23.0591 10.3896 23.0273 10.4533 22.9743 10.5063L17.6097 16.5918C17.0796 17.1961 16.3163 17.5459 15.5106 17.5459C14.7048 17.5459 13.9415 17.1961 13.4114 16.5918L7.95139 10.3896C7.95139 10.3896 7.93019 10.3578 7.91959 10.3472C7.74996 10.6229 7.65454 10.9515 7.65454 11.3014V19.6875C7.65454 20.7159 8.48149 21.5429 9.50988 21.5429H21.5218C22.5502 21.5429 23.3772 20.7159 23.3772 19.6875V11.3014C23.3772 10.9409 23.2712 10.6017 23.0909 10.3154L23.0803 10.326Z" fill="white"/>
</g>
<defs>
<clipPath id="clip0_402_491">
<rect width="31" height="31" fill="white"/>
</clipPath>
</defs>
</svg>
