<svg width="34" height="34" viewBox="0 0 34 34" fill="none" xmlns="http://www.w3.org/2000/svg">
<path fill-rule="evenodd" clip-rule="evenodd" d="M7.47219 14.3454C7.08337 15.1908 7.08337 16.1525 7.08337 18.076V24.0832C7.08337 26.7545 7.08337 28.0902 7.91324 28.92C8.71233 29.7191 9.9804 29.7488 12.4584 29.7499V22.6667C12.4584 21.332 13.5404 20.25 14.875 20.25H19.125C20.4597 20.25 21.5417 21.332 21.5417 22.6667V29.7499C24.0197 29.7488 25.2877 29.7191 26.0868 28.92C26.9167 28.0902 26.9167 26.7545 26.9167 24.0832V18.076C26.9167 16.1525 26.9167 15.1908 26.5279 14.3454C26.1391 13.5 25.4089 12.8741 23.9484 11.6223L22.5318 10.4081C19.8921 8.14546 18.5722 7.01416 17 7.01416C15.4279 7.01416 14.108 8.14546 11.4683 10.4081L10.0516 11.6223C8.59123 12.8741 7.86101 13.5 7.47219 14.3454ZM19.5417 29.7499V22.6667C19.5417 22.4365 19.3552 22.25 19.125 22.25H14.875C14.6449 22.25 14.4584 22.4365 14.4584 22.6667V29.7499H19.5417Z" fill="#232536"/>
</svg>
