<svg width="29" height="29" viewBox="0 0 29 29" fill="none" xmlns="http://www.w3.org/2000/svg">
<g clip-path="url(#clip0_402_514)">
<path d="M8.42034 11.8022H11.2271V20.8275H8.42034V11.8022ZM9.82869 7.31934C10.7312 7.31934 11.4552 8.04334 11.4552 8.94588C11.4552 9.84841 10.7312 10.5724 9.82869 10.5724C8.92616 10.5724 8.20215 9.83849 8.20215 8.94588C8.20215 8.05326 8.92616 7.31934 9.82869 7.31934Z" fill="white"/>
<path d="M12.9926 11.8023H15.6803V13.0322H15.72C16.0969 12.3181 17.0093 11.5742 18.378 11.5742C21.2145 11.5742 21.7402 13.4388 21.7402 15.8687V20.8177H18.9334V16.434C18.9334 15.3827 18.9136 14.0438 17.4755 14.0438C16.0374 14.0438 15.7894 15.1843 15.7894 16.3646V20.8276H12.9827V11.8023H12.9926Z" fill="white"/>
</g>
<defs>
<clipPath id="clip0_402_514">
<rect width="29" height="29" fill="white"/>
</clipPath>
</defs>
</svg>
