<svg width="31" height="31" viewBox="0 0 31 31" fill="none" xmlns="http://www.w3.org/2000/svg">
<g clip-path="url(#clip0_402_496)">
<path fill-rule="evenodd" clip-rule="evenodd" d="M22.8046 18.4473C22.423 18.2565 20.5888 17.3554 20.239 17.2387C19.8997 17.1115 19.6453 17.0479 19.3908 17.4296C19.1364 17.8006 18.4154 18.6382 18.2034 18.882C17.9807 19.1365 17.7687 19.1577 17.387 18.9774C17.016 18.7866 15.8074 18.4049 14.3761 17.1327C13.2629 16.1573 12.5102 14.9381 12.2981 14.567C12.0861 14.196 12.2769 13.9945 12.4678 13.8037C12.6374 13.6341 12.8388 13.369 13.0297 13.157C13.0827 13.0934 13.1251 13.0404 13.1675 12.9768C13.2523 12.8389 13.3159 12.7117 13.4007 12.5315C13.5279 12.277 13.4643 12.065 13.3689 11.8848C13.2735 11.6939 12.5208 9.8704 12.2133 9.11766C11.9059 8.37553 11.5878 8.50275 11.3652 8.50275C11.1425 8.50275 10.8987 8.47095 10.6548 8.47095C10.411 8.47095 9.99751 8.56637 9.64765 8.93743C9.30838 9.3085 8.33301 10.2097 8.33301 12.0438C8.33301 12.4679 8.40722 12.9025 8.52384 13.3054C8.90551 14.6201 9.72186 15.6908 9.85968 15.8817C10.0505 16.1255 12.4466 20.0058 16.2526 21.5007C20.0693 22.985 20.0693 22.4867 20.7585 22.4231C21.4476 22.3701 22.9742 21.5325 23.2817 20.6525C23.5998 19.7832 23.5998 19.0411 23.5043 18.882C23.4089 18.7336 23.1651 18.6382 22.794 18.4473H22.8046Z" fill="white"/>
</g>
<defs>
<clipPath id="clip0_402_496">
<rect width="31" height="31" fill="white"/>
</clipPath>
</defs>
</svg>
