<svg width="31" height="31" viewBox="0 0 31 31" fill="none" xmlns="http://www.w3.org/2000/svg">
<g clip-path="url(#clip0_402_499)">
<path d="M24.0663 10.1884C23.5256 10.4322 22.9319 10.5806 22.3594 10.6761C22.6351 10.6336 23.0379 10.1354 23.197 9.93392C23.4408 9.62647 23.6529 9.2766 23.7695 8.89493C23.7801 8.86313 23.7907 8.83132 23.7695 8.81012C23.7377 8.79952 23.7059 8.81012 23.6741 8.81012C23.0273 9.15998 22.3594 9.40383 21.6491 9.58406C21.5855 9.59466 21.5431 9.58406 21.5113 9.55225C21.4477 9.48864 21.3947 9.42503 21.331 9.37202C21.0342 9.11757 20.7161 8.91614 20.3451 8.76771C19.868 8.57688 19.3485 8.49206 18.8396 8.52387C18.3413 8.55567 17.8536 8.6935 17.4083 8.92674C16.9631 9.15998 16.5708 9.47804 16.2527 9.87031C15.9241 10.2732 15.6908 10.7503 15.5636 11.2486C15.447 11.7362 15.4576 12.2133 15.5318 12.701C15.5424 12.7858 15.5318 12.7964 15.4576 12.7858C12.6693 12.3724 10.3687 11.3758 8.49212 9.2448C8.40731 9.14938 8.3649 9.14938 8.30129 9.2448C7.48494 10.4746 7.87721 12.4466 8.90559 13.422C9.04342 13.5492 9.18125 13.6764 9.32967 13.8036C9.27666 13.8142 8.59814 13.74 7.98323 13.422C7.89841 13.3689 7.85601 13.4007 7.85601 13.4962C7.85601 13.634 7.85601 13.7506 7.87721 13.899C8.03624 15.1395 8.89499 16.2951 10.0824 16.751C10.2202 16.8146 10.3793 16.857 10.5277 16.8888C10.2626 16.9524 9.97639 16.9948 9.21305 16.9312C9.11763 16.91 9.07523 16.963 9.11763 17.0478C9.70074 18.6275 10.9518 19.094 11.8847 19.3696C12.012 19.3908 12.1392 19.3908 12.2664 19.4226C12.2664 19.4332 12.2558 19.4332 12.2452 19.4438C11.9377 19.9209 10.8563 20.2708 10.3581 20.451C9.44629 20.7691 8.44971 20.9175 7.48494 20.8221C7.32591 20.8009 7.2941 20.8009 7.2517 20.8221C7.20929 20.8433 7.2517 20.8857 7.2941 20.9281C7.48494 21.0553 7.68638 21.1719 7.88781 21.278C8.50272 21.6066 9.13884 21.8611 9.80676 22.0413C13.263 22.9955 17.1433 22.2958 19.7408 19.7195C21.7763 17.6945 22.4866 14.9062 22.4866 12.1179C22.4866 12.0119 22.6139 11.9483 22.6881 11.8953C23.2182 11.4924 23.6423 11.0259 24.0345 10.4852C24.1193 10.3686 24.1193 10.2626 24.1193 10.2202C24.1193 10.1566 24.1193 10.1778 24.0451 10.2096L24.0663 10.1884Z" fill="white"/>
</g>
<defs>
<clipPath id="clip0_402_499">
<rect width="31" height="31" fill="white"/>
</clipPath>
</defs>
</svg>
