<svg xmlns="http://www.w3.org/2000/svg" width="24.244" height="16.17" viewBox="0 0 24.244 16.17">
  <path id="Icon_ionic-ios-arrow-round-forward" data-name="Icon ionic-ios-arrow-round-forward" d="M23.336,11.561a1.1,1.1,0,0,0-.008,1.549l5.12,5.128H8.961a1.095,1.095,0,0,0,0,2.189H28.439l-5.12,5.128a1.108,1.108,0,0,0,.008,1.549,1.09,1.09,0,0,0,1.541-.008l6.939-6.989h0a1.229,1.229,0,0,0,.227-.345,1.045,1.045,0,0,0,.084-.421,1.1,1.1,0,0,0-.312-.766l-6.939-6.989A1.073,1.073,0,0,0,23.336,11.561Z" transform="translate(-7.875 -11.252)" fill="#fff"/>
</svg>
