<svg xmlns="http://www.w3.org/2000/svg" width="34.502" height="34.502" viewBox="0 0 34.502 34.502">
  <g id="Icon_ionic-ios-arrow-dropdown" data-name="Icon ionic-ios-arrow-dropdown" transform="translate(34.502) rotate(90)">
    <path id="Path_205" data-name="Path 205" d="M.467.474a1.607,1.607,0,0,0,0,2.264L8.4,10.65a1.6,1.6,0,0,0,2.206.05l7.821-7.8A1.6,1.6,0,1,0,16.175.64L9.457,7.258,2.731.465A1.6,1.6,0,0,0,.467.474Z" transform="translate(7.794 13.02)" fill="#be1d2c"/>
    <path id="Path_206" data-name="Path 206" d="M0,17.251A17.251,17.251,0,1,0,17.251,0,17.251,17.251,0,0,0,0,17.251ZM27.568,6.934a14.591,14.591,0,1,1-20.635,0,14.59,14.59,0,0,1,20.635,0Z" fill="#be1d2c"/>
  </g>
</svg>
