<svg xmlns="http://www.w3.org/2000/svg" width="34.5" height="34.5" viewBox="0 0 34.5 34.5">
  <g id="Icon_ionic-ios-arrow-dropdown" data-name="Icon ionic-ios-arrow-dropdown" transform="translate(34.5) rotate(90)">
    <path id="Path_205" data-name="Path 205" d="M.469,10.568a1.581,1.581,0,0,1,0-2.248L8.452.464A1.623,1.623,0,0,1,10.67.414l7.866,7.741a1.576,1.576,0,0,1,.008,2.248,1.623,1.623,0,0,1-2.277,0L9.511,3.832,2.746,10.577a1.623,1.623,0,0,1-2.277-.009Z" transform="translate(7.739 10.399)" fill="#be1d2c"/>
    <path id="Path_206" data-name="Path 206" d="M0,17.25A17.25,17.25,0,1,1,17.25,34.5,17.25,17.25,0,0,1,0,17.25ZM27.567,27.567a14.59,14.59,0,1,0-20.634,0A14.59,14.59,0,0,0,27.567,27.567Z" fill="#be1d2c"/>
  </g>
</svg>
