<svg id="Group_1446" data-name="Group 1446" xmlns="http://www.w3.org/2000/svg" width="45" height="45" viewBox="0 0 45 45">
  <circle id="Ellipse_103" data-name="Ellipse 103" cx="22.5" cy="22.5" r="22.5" fill="#fee9e9"/>
  <path id="Path_3700" data-name="Path 3700" d="M.7,0a.366.366,0,0,1-.27-.108.366.366,0,0,1-.108-.27A.34.34,0,0,1,.342-.486L.378-.594,4.41-6.426.63-12.006a.479.479,0,0,1-.054-.216.366.366,0,0,1,.108-.27.366.366,0,0,1,.27-.108H2.79a.508.508,0,0,1,.342.108,1.316,1.316,0,0,1,.216.234L5.994-8.37l2.664-3.888a.831.831,0,0,1,.207-.234.545.545,0,0,1,.351-.108h1.746a.366.366,0,0,1,.27.108.366.366,0,0,1,.108.27.387.387,0,0,1-.072.216L7.506-6.426,11.538-.594a.454.454,0,0,1,.054.108.34.34,0,0,1,.018.108.352.352,0,0,1-.117.27A.376.376,0,0,1,11.232,0H9.324a.508.508,0,0,1-.342-.108,1.079,1.079,0,0,1-.2-.216L5.9-4.392,3.078-.324a1.079,1.079,0,0,1-.2.216A.537.537,0,0,1,2.52,0Z" transform="translate(17 28)" fill="#8f1616"/>
</svg>
