<svg xmlns="http://www.w3.org/2000/svg" width="27.955" height="18.87" viewBox="0 0 27.955 18.87">
  <path id="Icon_zocial-email" data-name="Icon zocial-email" d="M.072,21.267V5.739q0-.027.081-.512l9.139,7.818L.18,21.806a2.285,2.285,0,0,1-.108-.539ZM1.285,4.149a1.162,1.162,0,0,1,.458-.081H26.356a1.526,1.526,0,0,1,.485.081l-9.166,7.845-1.213.97-2.4,1.968-2.4-1.968-1.213-.97Zm.027,18.709L10.5,14.042l3.558,2.884,3.558-2.884,9.193,8.815a1.294,1.294,0,0,1-.458.081H1.743a1.221,1.221,0,0,1-.431-.081Zm17.523-9.813,9.112-7.818a1.609,1.609,0,0,1,.081.512V21.267a2.066,2.066,0,0,1-.081.539Z" transform="translate(-0.072 -4.068)" fill="#fff"/>
</svg>
