<svg xmlns="http://www.w3.org/2000/svg" width="65" height="65" viewBox="0 0 65 65">
  <g id="Group_3599" data-name="Group 3599" transform="translate(-976 -7706)">
    <g id="Ellipse_315" data-name="Ellipse 315" transform="translate(976 7706)" fill="none" stroke="#f01b1c" stroke-width="1">
      <circle cx="32.5" cy="32.5" r="32.5" stroke="none"/>
      <circle cx="32.5" cy="32.5" r="32" fill="none"/>
    </g>
    <g id="Icon_ionic-logo-instagram" data-name="Icon ionic-logo-instagram" transform="translate(990.5 7721.619)">
      <path id="Path_1483" data-name="Path 1483" d="M23.625,6.75a5.642,5.642,0,0,1,5.625,5.625v11.25a5.642,5.642,0,0,1-5.625,5.625H12.375A5.642,5.642,0,0,1,6.75,23.625V12.375A5.642,5.642,0,0,1,12.375,6.75h11.25m0-2.25H12.375A7.9,7.9,0,0,0,4.5,12.375v11.25A7.9,7.9,0,0,0,12.375,31.5h11.25A7.9,7.9,0,0,0,31.5,23.625V12.375A7.9,7.9,0,0,0,23.625,4.5Z" fill="#f01b1c"/>
      <path id="Path_1484" data-name="Path 1484" d="M25.313,12.375A1.688,1.688,0,1,1,27,10.688,1.683,1.683,0,0,1,25.313,12.375Z" fill="#f01b1c"/>
      <path id="Path_1485" data-name="Path 1485" d="M18,13.5A4.5,4.5,0,1,1,13.5,18,4.5,4.5,0,0,1,18,13.5m0-2.25A6.75,6.75,0,1,0,24.75,18,6.752,6.752,0,0,0,18,11.25Z" fill="#f01b1c"/>
    </g>
  </g>
</svg>
