<svg xmlns="http://www.w3.org/2000/svg" width="39.051" height="37.19" viewBox="0 0 39.051 37.19">
  <path id="Icon_simple-line" data-name="Icon simple-line" d="M31.509,15.976a1.026,1.026,0,0,1,0,2.052H28.654v1.831h2.856a1.024,1.024,0,1,1,0,2.049H27.627a1.027,1.027,0,0,1-1.02-1.023V13.12a1.028,1.028,0,0,1,1.025-1.025h3.882a1.025,1.025,0,0,1,0,2.05H28.654v1.831Zm-6.273,4.907a1.024,1.024,0,0,1-.7.97,1.051,1.051,0,0,1-.324.05,1.006,1.006,0,0,1-.83-.407l-3.975-5.4v4.784a1.023,1.023,0,1,1-2.045,0V13.12a1.02,1.02,0,0,1,.7-.968.947.947,0,0,1,.316-.054,1.052,1.052,0,0,1,.805.413l4.006,5.418V13.12a1.025,1.025,0,1,1,2.05,0v7.763Zm-9.341,0a1.023,1.023,0,1,1-2.047,0V13.12a1.023,1.023,0,1,1,2.047,0Zm-4.012,1.023H8a1.031,1.031,0,0,1-1.025-1.023V13.12a1.025,1.025,0,0,1,2.05,0v6.738h2.857a1.024,1.024,0,0,1,0,2.049m27.168-5.2C39.051,7.97,30.289.858,19.526.858S0,7.97,0,16.709C0,24.538,6.948,31.1,16.328,32.343c.636.133,1.5.42,1.721.96a3.975,3.975,0,0,1,.062,1.757l-.267,1.66c-.073.49-.391,1.93,1.707,1.049S30.8,31.134,34.905,26.42c2.805-3.074,4.146-6.222,4.146-9.711" transform="translate(0 -0.858)" fill="#fff"/>
</svg>
