<svg xmlns="http://www.w3.org/2000/svg" width="30.075" height="30.075" viewBox="0 0 30.075 30.075">
  <path id="Icon_ionic-ios-list-box" data-name="Icon ionic-ios-list-box" d="M3.375,5.883V30.942A2.509,2.509,0,0,0,5.883,33.45H30.942a2.509,2.509,0,0,0,2.508-2.508V5.883a2.509,2.509,0,0,0-2.508-2.508H5.883A2.5,2.5,0,0,0,3.375,5.883ZM9.83,27.357a1.443,1.443,0,1,1,1.243-1.243A1.439,1.439,0,0,1,9.83,27.357Zm0-7.517A1.443,1.443,0,1,1,11.073,18.6,1.439,1.439,0,0,1,9.83,19.84Zm0-7.517a1.443,1.443,0,1,1,1.243-1.243A1.439,1.439,0,0,1,9.83,12.323ZM27.711,26.938H14.7a1.015,1.015,0,0,1-1.012-1.012h0A1.015,1.015,0,0,1,14.7,24.914h13.01a1.015,1.015,0,0,1,1.012,1.012h0A1.015,1.015,0,0,1,27.711,26.938Zm0-7.517H14.7a1.015,1.015,0,0,1-1.012-1.012h0A1.015,1.015,0,0,1,14.7,17.4h13.01a1.015,1.015,0,0,1,1.012,1.012h0A1.015,1.015,0,0,1,27.711,19.421Zm0-7.517H14.7a1.015,1.015,0,0,1-1.012-1.012h0A1.015,1.015,0,0,1,14.7,9.88h13.01a1.015,1.015,0,0,1,1.012,1.012h0A1.015,1.015,0,0,1,27.711,11.9Z" transform="translate(-3.375 -3.375)" fill="#404040"/>
</svg>
