<svg xmlns="http://www.w3.org/2000/svg" width="22.366" height="22.405" viewBox="0 0 22.366 22.405">
  <path id="Icon_feather-phone-call" data-name="Icon feather-phone-call" d="M15.717,5.38a4.85,4.85,0,0,1,3.831,3.831M15.717,1.5a8.729,8.729,0,0,1,7.711,7.7m-.97,7.74v2.91a1.94,1.94,0,0,1-2.114,1.94,19.2,19.2,0,0,1-8.37-2.978,18.914,18.914,0,0,1-5.82-5.82A19.2,19.2,0,0,1,3.176,4.584,1.94,1.94,0,0,1,5.106,2.47h2.91a1.94,1.94,0,0,1,1.94,1.668,12.454,12.454,0,0,0,.679,2.725A1.94,1.94,0,0,1,10.2,8.91L8.966,10.142a15.519,15.519,0,0,0,5.82,5.82l1.232-1.232a1.94,1.94,0,0,1,2.047-.436,12.454,12.454,0,0,0,2.725.679A1.94,1.94,0,0,1,22.458,16.941Z" transform="translate(-2.167 -0.396)" fill="none" stroke="#fff" stroke-linecap="round" stroke-linejoin="round" stroke-width="2"/>
</svg>
