<svg xmlns="http://www.w3.org/2000/svg" width="132.242" height="20.852" viewBox="0 0 132.242 20.852">
  <g id="Group_4215" data-name="Group 4215" transform="translate(0 -2)">
    <path id="secure" d="M28.713,2.919a.662.662,0,0,0-.44-.563L20.781.025a.547.547,0,0,0-.327,0L12.963,2.356a.662.662,0,0,0-.44.563c-.043.35-1.035,8.608,1.508,12.716a11.963,11.963,0,0,0,6.444,5.2.548.548,0,0,0,.286,0,11.962,11.962,0,0,0,6.444-5.2C29.748,11.527,28.757,3.268,28.713,2.919ZM25.449,7.74l-5.11,5.716a.565.565,0,0,1-.861,0l-3.16-3.534a.74.74,0,0,1,0-.964l.627-.7a.565.565,0,0,1,.861,0l2.1,2.351,4.052-4.533a.565.565,0,0,1,.861,0l.627.7A.74.74,0,0,1,25.449,7.74Z" transform="translate(-12.296 2)" fill="#2bbe20"/>
    <path id="Path_3701" data-name="Path 3701" d="M-51.03.14a5.412,5.412,0,0,1-2.177-.385,3.186,3.186,0,0,1-1.33-1.008,2.355,2.355,0,0,1-.483-1.309.285.285,0,0,1,.084-.21.285.285,0,0,1,.21-.084h1.246a.414.414,0,0,1,.273.077.8.8,0,0,1,.161.189,1.417,1.417,0,0,0,.322.525,1.776,1.776,0,0,0,.651.427,2.789,2.789,0,0,0,1.043.168,2.712,2.712,0,0,0,1.505-.336,1.046,1.046,0,0,0,.5-.91.843.843,0,0,0-.266-.651,2.48,2.48,0,0,0-.819-.448,14.362,14.362,0,0,0-1.463-.427,8.15,8.15,0,0,1-1.757-.609,2.667,2.667,0,0,1-1.064-.9,2.486,2.486,0,0,1-.357-1.386,2.453,2.453,0,0,1,.441-1.442,2.958,2.958,0,0,1,1.26-.994A4.783,4.783,0,0,1-51.1-9.94a4.864,4.864,0,0,1,1.61.245,3.552,3.552,0,0,1,1.162.644,3.049,3.049,0,0,1,.707.854,2.009,2.009,0,0,1,.259.889.307.307,0,0,1-.077.2.269.269,0,0,1-.217.091h-1.3a.5.5,0,0,1-.224-.056.412.412,0,0,1-.182-.21,1.162,1.162,0,0,0-.546-.742A2.106,2.106,0,0,0-51.1-8.33a2.33,2.33,0,0,0-1.218.28.943.943,0,0,0-.462.868.942.942,0,0,0,.231.651,1.893,1.893,0,0,0,.742.455,13.935,13.935,0,0,0,1.351.42,9.808,9.808,0,0,1,1.946.616,2.545,2.545,0,0,1,1.106.889,2.46,2.46,0,0,1,.35,1.365,2.519,2.519,0,0,1-.5,1.575,3.137,3.137,0,0,1-1.393,1A5.713,5.713,0,0,1-51.03.14Zm8.554,0a3.359,3.359,0,0,1-2.464-.9A3.645,3.645,0,0,1-45.92-3.3q-.014-.14-.014-.357A3.273,3.273,0,0,1-45.92-4a4.143,4.143,0,0,1,.483-1.827,2.957,2.957,0,0,1,1.183-1.176,3.653,3.653,0,0,1,1.778-.413,3.6,3.6,0,0,1,1.9.469,2.969,2.969,0,0,1,1.162,1.3,4.474,4.474,0,0,1,.392,1.925v.294a.324.324,0,0,1-.1.238.341.341,0,0,1-.252.1h-4.648v.112a2.475,2.475,0,0,0,.189.9,1.563,1.563,0,0,0,.518.665,1.345,1.345,0,0,0,.819.252,1.61,1.61,0,0,0,.658-.119,1.611,1.611,0,0,0,.434-.273,1.792,1.792,0,0,0,.238-.252.667.667,0,0,1,.2-.2.584.584,0,0,1,.231-.035h1.2a.327.327,0,0,1,.231.084.235.235,0,0,1,.077.21,1.177,1.177,0,0,1-.231.546,2.726,2.726,0,0,1-.623.63,3.5,3.5,0,0,1-1.015.511A4.4,4.4,0,0,1-42.476.14Zm-1.54-4.41h3.094v-.042a2.36,2.36,0,0,0-.182-.959,1.452,1.452,0,0,0-.532-.644,1.49,1.49,0,0,0-.84-.231,1.49,1.49,0,0,0-.84.231,1.408,1.408,0,0,0-.525.644,2.442,2.442,0,0,0-.175.959ZM-34.384.14a3.942,3.942,0,0,1-1.771-.378,2.794,2.794,0,0,1-1.19-1.1,3.667,3.667,0,0,1-.469-1.743q-.014-.21-.014-.553t.014-.567a3.667,3.667,0,0,1,.469-1.743,2.794,2.794,0,0,1,1.19-1.1,3.942,3.942,0,0,1,1.771-.378,4.218,4.218,0,0,1,1.526.245,3.137,3.137,0,0,1,1.036.63,2.84,2.84,0,0,1,.609.8A1.907,1.907,0,0,1-31-5a.272.272,0,0,1-.091.245.363.363,0,0,1-.245.091h-1.232a.311.311,0,0,1-.217-.07.714.714,0,0,1-.147-.21,1.588,1.588,0,0,0-.553-.791,1.535,1.535,0,0,0-.875-.231,1.452,1.452,0,0,0-1.113.441A2.082,2.082,0,0,0-35.91-4.13a8.567,8.567,0,0,0,0,.98,2.076,2.076,0,0,0,.441,1.4,1.464,1.464,0,0,0,1.113.434,1.528,1.528,0,0,0,.882-.231,1.61,1.61,0,0,0,.546-.791.714.714,0,0,1,.147-.21.311.311,0,0,1,.217-.07h1.232a.363.363,0,0,1,.245.091A.272.272,0,0,1-31-2.282a1.931,1.931,0,0,1-.133.567,2.46,2.46,0,0,1-.378.644,3,3,0,0,1-.651.6,3.344,3.344,0,0,1-.945.441A4.417,4.417,0,0,1-34.384.14Zm7.546,0a2.753,2.753,0,0,1-1.477-.385,2.519,2.519,0,0,1-.959-1.092A3.863,3.863,0,0,1-29.61-3.01V-6.944a.324.324,0,0,1,.1-.238.324.324,0,0,1,.238-.1h1.232a.318.318,0,0,1,.245.1.337.337,0,0,1,.091.238v3.85q0,1.736,1.526,1.736a1.5,1.5,0,0,0,1.155-.462A1.8,1.8,0,0,0-24.6-3.094v-3.85a.324.324,0,0,1,.1-.238.324.324,0,0,1,.238-.1h1.232a.324.324,0,0,1,.238.1.324.324,0,0,1,.1.238V-.336a.324.324,0,0,1-.1.238.324.324,0,0,1-.238.1h-1.134a.318.318,0,0,1-.245-.1A.337.337,0,0,1-24.5-.336V-.91a2.686,2.686,0,0,1-.938.77A3.117,3.117,0,0,1-26.838.14ZM-20.51,0a.324.324,0,0,1-.238-.1.324.324,0,0,1-.1-.238V-6.93a.341.341,0,0,1,.1-.252.324.324,0,0,1,.238-.1h1.134a.348.348,0,0,1,.245.1.329.329,0,0,1,.1.252v.574a2.1,2.1,0,0,1,.833-.686A2.774,2.774,0,0,1-17.01-7.28h.574a.318.318,0,0,1,.245.1.337.337,0,0,1,.091.238v1.008a.337.337,0,0,1-.091.238.318.318,0,0,1-.245.1h-1.092a1.41,1.41,0,0,0-1.043.371,1.41,1.41,0,0,0-.371,1.043v3.85a.324.324,0,0,1-.1.238.341.341,0,0,1-.252.1Zm8.54.14a3.359,3.359,0,0,1-2.464-.9,3.645,3.645,0,0,1-.98-2.548q-.014-.14-.014-.357A3.274,3.274,0,0,1-15.414-4a4.143,4.143,0,0,1,.483-1.827,2.957,2.957,0,0,1,1.183-1.176A3.653,3.653,0,0,1-11.97-7.42a3.6,3.6,0,0,1,1.9.469A2.969,2.969,0,0,1-8.9-5.649a4.474,4.474,0,0,1,.392,1.925v.294a.324.324,0,0,1-.1.238.341.341,0,0,1-.252.1H-13.51v.112a2.475,2.475,0,0,0,.189.9,1.563,1.563,0,0,0,.518.665,1.345,1.345,0,0,0,.819.252,1.611,1.611,0,0,0,.658-.119,1.611,1.611,0,0,0,.434-.273,1.792,1.792,0,0,0,.238-.252.667.667,0,0,1,.2-.2.584.584,0,0,1,.231-.035h1.2a.327.327,0,0,1,.231.084.235.235,0,0,1,.077.21,1.177,1.177,0,0,1-.231.546,2.726,2.726,0,0,1-.623.63,3.5,3.5,0,0,1-1.015.511A4.4,4.4,0,0,1-11.97.14Zm-1.54-4.41h3.094v-.042a2.36,2.36,0,0,0-.182-.959,1.452,1.452,0,0,0-.532-.644,1.49,1.49,0,0,0-.84-.231,1.49,1.49,0,0,0-.84.231,1.408,1.408,0,0,0-.525.644,2.442,2.442,0,0,0-.175.959ZM-3.318,0a.324.324,0,0,1-.238-.1.324.324,0,0,1-.1-.238V-9.45a.341.341,0,0,1,.1-.252.324.324,0,0,1,.238-.1H.434a4.867,4.867,0,0,1,1.9.343A2.715,2.715,0,0,1,3.6-8.421a3.123,3.123,0,0,1,.448,1.729A3.08,3.08,0,0,1,3.6-4.963a2.7,2.7,0,0,1-1.26,1.015,4.957,4.957,0,0,1-1.9.336H-1.652V-.336A.337.337,0,0,1-1.743-.1a.318.318,0,0,1-.245.1ZM-1.68-5.166H.364A1.819,1.819,0,0,0,1.61-5.551a1.446,1.446,0,0,0,.434-1.141,1.568,1.568,0,0,0-.406-1.127A1.686,1.686,0,0,0,.364-8.246H-1.68ZM7.364.14A2.96,2.96,0,0,1,6.048-.147a2.413,2.413,0,0,1-.931-.77A1.829,1.829,0,0,1,4.774-2a1.834,1.834,0,0,1,.8-1.561A4.7,4.7,0,0,1,7.658-4.34l1.918-.28v-.294a1.3,1.3,0,0,0-.294-.91,1.319,1.319,0,0,0-1.008-.322,1.489,1.489,0,0,0-.819.2,1.249,1.249,0,0,0-.469.539.357.357,0,0,1-.322.182H5.558a.3.3,0,0,1-.231-.084A.319.319,0,0,1,5.25-5.53a1.384,1.384,0,0,1,.189-.546A2.218,2.218,0,0,1,5.971-6.7,3.071,3.071,0,0,1,6.9-7.21a4.048,4.048,0,0,1,1.386-.21A4.472,4.472,0,0,1,9.779-7.2a2.573,2.573,0,0,1,.973.581,2.2,2.2,0,0,1,.532.854,3.172,3.172,0,0,1,.168,1.036v4.4a.324.324,0,0,1-.1.238.324.324,0,0,1-.238.1H9.982a.318.318,0,0,1-.245-.1.337.337,0,0,1-.091-.238V-.882a2.43,2.43,0,0,1-.49.49,2.515,2.515,0,0,1-.749.385A3.308,3.308,0,0,1,7.364.14ZM7.84-1.19a1.879,1.879,0,0,0,.889-.21,1.493,1.493,0,0,0,.63-.651A2.385,2.385,0,0,0,9.59-3.164v-.294l-1.4.224a3.01,3.01,0,0,0-1.232.406.817.817,0,0,0-.406.686.772.772,0,0,0,.189.525,1.131,1.131,0,0,0,.483.322A1.818,1.818,0,0,0,7.84-1.19Zm6.524,3.85a.287.287,0,0,1-.28-.28.743.743,0,0,1,.007-.105.337.337,0,0,1,.049-.119l1.092-2.59L12.544-6.776a.642.642,0,0,1-.056-.2.372.372,0,0,1,.1-.217.274.274,0,0,1,.21-.091H13.93a.342.342,0,0,1,.252.084.581.581,0,0,1,.126.182L16.17-2.436l1.918-4.578a.481.481,0,0,1,.126-.189.362.362,0,0,1,.252-.077h1.12a.292.292,0,0,1,.2.084.259.259,0,0,1,.091.2.645.645,0,0,1-.056.224l-3.962,9.17a.643.643,0,0,1-.14.189.362.362,0,0,1-.252.077ZM21.42,0a.324.324,0,0,1-.238-.1.324.324,0,0,1-.1-.238V-6.944a.324.324,0,0,1,.1-.238.324.324,0,0,1,.238-.1h1.092a.324.324,0,0,1,.238.1.324.324,0,0,1,.1.238v.476a2.433,2.433,0,0,1,.791-.665,2.532,2.532,0,0,1,1.183-.287,2.222,2.222,0,0,1,2.226,1.246,2.409,2.409,0,0,1,.931-.9A2.705,2.705,0,0,1,29.33-7.42a2.643,2.643,0,0,1,1.323.336,2.336,2.336,0,0,1,.938,1.015,3.791,3.791,0,0,1,.343,1.715V-.336a.324.324,0,0,1-.1.238A.324.324,0,0,1,31.6,0H30.45a.324.324,0,0,1-.238-.1.324.324,0,0,1-.1-.238V-4.242a2.3,2.3,0,0,0-.182-1,1.1,1.1,0,0,0-.49-.525,1.512,1.512,0,0,0-.686-.154,1.367,1.367,0,0,0-.616.154,1.172,1.172,0,0,0-.5.525,2.155,2.155,0,0,0-.2,1V-.336a.324.324,0,0,1-.1.238A.324.324,0,0,1,27.1,0H25.956a.324.324,0,0,1-.238-.1.324.324,0,0,1-.1-.238V-4.242a2.155,2.155,0,0,0-.2-1,1.172,1.172,0,0,0-.5-.525,1.451,1.451,0,0,0-.658-.154,1.345,1.345,0,0,0-.63.161,1.221,1.221,0,0,0-.5.525,2.111,2.111,0,0,0-.2.994V-.336a.324.324,0,0,1-.1.238A.324.324,0,0,1,22.6,0ZM36.848.14a3.359,3.359,0,0,1-2.464-.9A3.645,3.645,0,0,1,33.4-3.3q-.014-.14-.014-.357A3.273,3.273,0,0,1,33.4-4a4.143,4.143,0,0,1,.483-1.827A2.957,2.957,0,0,1,35.07-7.007a3.653,3.653,0,0,1,1.778-.413,3.6,3.6,0,0,1,1.9.469,2.969,2.969,0,0,1,1.162,1.3,4.474,4.474,0,0,1,.392,1.925v.294a.324.324,0,0,1-.1.238.341.341,0,0,1-.252.1H35.308v.112a2.475,2.475,0,0,0,.189.9,1.563,1.563,0,0,0,.518.665,1.345,1.345,0,0,0,.819.252,1.61,1.61,0,0,0,.658-.119,1.611,1.611,0,0,0,.434-.273,1.792,1.792,0,0,0,.238-.252.667.667,0,0,1,.2-.2.584.584,0,0,1,.231-.035h1.2a.327.327,0,0,1,.231.084.235.235,0,0,1,.077.21,1.177,1.177,0,0,1-.231.546,2.726,2.726,0,0,1-.623.63,3.5,3.5,0,0,1-1.015.511A4.4,4.4,0,0,1,36.848.14Zm-1.54-4.41H38.4v-.042a2.36,2.36,0,0,0-.182-.959,1.452,1.452,0,0,0-.532-.644,1.49,1.49,0,0,0-.84-.231,1.49,1.49,0,0,0-.84.231,1.408,1.408,0,0,0-.525.644,2.442,2.442,0,0,0-.175.959ZM42.126,0a.324.324,0,0,1-.238-.1.324.324,0,0,1-.1-.238V-6.944a.324.324,0,0,1,.1-.238.324.324,0,0,1,.238-.1h1.148a.324.324,0,0,1,.238.1.324.324,0,0,1,.1.238v.574a2.981,2.981,0,0,1,.931-.749,2.975,2.975,0,0,1,1.407-.3,2.79,2.79,0,0,1,1.484.385,2.557,2.557,0,0,1,.973,1.085,3.785,3.785,0,0,1,.343,1.68V-.336a.324.324,0,0,1-.1.238.324.324,0,0,1-.238.1H47.18a.324.324,0,0,1-.238-.1.324.324,0,0,1-.1-.238v-3.85a1.886,1.886,0,0,0-.4-1.274,1.443,1.443,0,0,0-1.155-.462,1.518,1.518,0,0,0-1.162.462,1.787,1.787,0,0,0-.434,1.274v3.85a.324.324,0,0,1-.1.238.324.324,0,0,1-.238.1ZM53.732,0a3.078,3.078,0,0,1-1.414-.294,1.871,1.871,0,0,1-.854-.875,3.328,3.328,0,0,1-.28-1.449V-5.8H50.078a.324.324,0,0,1-.238-.1.341.341,0,0,1-.1-.252v-.8a.324.324,0,0,1,.1-.238.324.324,0,0,1,.238-.1h1.106V-9.6a.337.337,0,0,1,.091-.238.318.318,0,0,1,.245-.1h1.134a.324.324,0,0,1,.238.1.324.324,0,0,1,.1.238V-7.28h1.75a.324.324,0,0,1,.238.1.324.324,0,0,1,.1.238v.8a.341.341,0,0,1-.1.252.324.324,0,0,1-.238.1H52.99v3.038a1.676,1.676,0,0,0,.2.9.769.769,0,0,0,.707.322h.966a.324.324,0,0,1,.238.1.324.324,0,0,1,.1.238v.868a.324.324,0,0,1-.1.238.324.324,0,0,1-.238.1Z" transform="translate(77.04 17)" fill="#2bbe20"/>
  </g>
</svg>
