<svg width="24" height="25" viewBox="0 0 24 25" fill="none" xmlns="http://www.w3.org/2000/svg">
<path d="M21 3.73486V2.73486H22V3.73486H21ZM11.7071 14.442C11.3166 14.8325 10.6834 14.8325 10.2929 14.442C9.90237 14.0514 9.90237 13.4183 10.2929 13.0278L11.7071 14.442ZM20 11.7349V3.73486H22V11.7349H20ZM21 4.73486H13V2.73486H21V4.73486ZM21.7071 4.44197L11.7071 14.442L10.2929 13.0278L20.2929 3.02776L21.7071 4.44197Z" fill="#3D3A36"/>
<path d="M20 15.7349V15.7349C20 17.6041 20 18.5387 19.5981 19.2349C19.3348 19.6909 18.9561 20.0696 18.5 20.3329C17.8038 20.7349 16.8692 20.7349 15 20.7349H10C7.17157 20.7349 5.75736 20.7349 4.87868 19.8562C4 18.9775 4 17.5633 4 14.7349V9.73486C4 7.86563 4 6.93102 4.40192 6.23486C4.66523 5.77881 5.04394 5.40009 5.5 5.13679C6.19615 4.73486 7.13077 4.73486 9 4.73486V4.73486" stroke="#3D3A36" stroke-width="2" stroke-linecap="round"/>
</svg>
