<svg xmlns="http://www.w3.org/2000/svg" width="33" height="33" viewBox="0 0 33 33">
  <path id="Icon_awesome-user-circle" data-name="Icon awesome-user-circle" d="M16.5.563A16.5,16.5,0,1,0,33,17.062,16.5,16.5,0,0,0,16.5.563Zm0,6.387A5.855,5.855,0,1,1,10.645,12.8,5.855,5.855,0,0,1,16.5,6.95Zm0,22.887A12.749,12.749,0,0,1,6.753,25.3a7.418,7.418,0,0,1,6.553-3.979,1.628,1.628,0,0,1,.472.073,8.809,8.809,0,0,0,2.721.459,8.776,8.776,0,0,0,2.721-.459,1.628,1.628,0,0,1,.472-.073A7.418,7.418,0,0,1,26.247,25.3,12.749,12.749,0,0,1,16.5,29.837Z" transform="translate(0 -0.563)" fill="#1e4d99"/>
</svg>
