<svg xmlns="http://www.w3.org/2000/svg" width="23.887" height="31.352" viewBox="0 0 23.887 31.352">
  <path id="Icon_ionic-md-lock" data-name="Icon ionic-md-lock" d="M27.651,13.685H26.158V10.7a7.465,7.465,0,1,0-14.929,0v2.986H9.736A2.994,2.994,0,0,0,6.75,16.671V31.6a2.994,2.994,0,0,0,2.986,2.986H27.651A2.994,2.994,0,0,0,30.637,31.6V16.671A2.994,2.994,0,0,0,27.651,13.685ZM18.693,27.271a2.986,2.986,0,1,1,2.986-2.986A2.994,2.994,0,0,1,18.693,27.271Zm4.628-13.586H14.065V10.7a4.628,4.628,0,1,1,9.256,0Z" transform="translate(-6.75 -3.234)" fill="#1e4d99"/>
</svg>
