<svg xmlns="http://www.w3.org/2000/svg" width="64.997" height="65.001" viewBox="0 0 64.997 65.001">
  <g id="checked" transform="translate(0 0.001)">
    <path id="Path_1699" data-name="Path 1699" d="M4.062,32.5A28.422,28.422,0,0,1,48.022,8.687l-4.095,4.1a2.031,2.031,0,0,0,1.435,3.467H57.55a2.032,2.032,0,0,0,2.031-2.031V2.033A2.031,2.031,0,0,0,56.114.6L50.931,5.782A32.2,32.2,0,0,0,32.5,0,32.487,32.487,0,0,0,1.389,41.888a2.031,2.031,0,1,0,3.889-1.173A28.394,28.394,0,0,1,4.062,32.5Z" transform="translate(0 0)" fill="#0086e3"/>
    <path id="Path_1700" data-name="Path 1700" d="M60.192,9.447A2.031,2.031,0,1,0,56.3,10.62a28.425,28.425,0,0,1-27.22,36.65,28.2,28.2,0,0,1-15.5-4.6l4.076-4.122a2.033,2.033,0,0,0-1.443-3.461H4.031a2.022,2.022,0,0,0-1.443.6A2.044,2.044,0,0,0,2,37.136l.135,12.187A2.033,2.033,0,0,0,5.61,50.729L10.7,45.586a32.188,32.188,0,0,0,18.386,5.747A32.487,32.487,0,0,0,60.192,9.447Z" transform="translate(3.416 13.667)" fill="#0086e3"/>
    <g id="thai-baht" transform="translate(15.974 15.511)">
      <path id="Path_1695" data-name="Path 1695" d="M205.942,250.668h-3.274v2.7h3.274a1.351,1.351,0,1,0,0-2.7Zm0,0" transform="translate(-187.996 -232.521)" fill="#0086e3"/>
      <path id="Path_1696" data-name="Path 1696" d="M206.529,182.691a1.351,1.351,0,0,0-1.359-1.359h-2.5v2.7h2.5A1.348,1.348,0,0,0,206.529,182.691Zm0,0" transform="translate(-187.996 -168.204)" fill="#0086e3"/>
      <path id="Path_1697" data-name="Path 1697" d="M16.989,0A16.989,16.989,0,1,0,33.977,16.989,17,17,0,0,0,16.989,0Zm.958,23.166h-.186v.386a1.158,1.158,0,0,1-2.317,0v-.386h-1.93a1.167,1.167,0,0,1-1.158-1.158V11.969a1.167,1.167,0,0,1,1.158-1.158h1.93v-.386a1.158,1.158,0,0,1,2.317,0v.432a3.686,3.686,0,0,1,3.089,3.629,3.555,3.555,0,0,1-.68,2.1,3.66,3.66,0,0,1-2.224,6.579Zm0,0" fill="#0086e3"/>
    </g>
  </g>
</svg>
