<svg xmlns="http://www.w3.org/2000/svg" width="64.997" height="65" viewBox="0 0 64.997 65">
  <g id="checked" transform="translate(0 0.001)">
    <path id="Path_1701" data-name="Path 1701" d="M22.249,6A16.249,16.249,0,1,0,38.5,22.249,16.266,16.266,0,0,0,22.249,6ZM31,19.354l-8.8,9.479a2.709,2.709,0,0,1-3.9.07l-4.739-4.739a2.708,2.708,0,1,1,3.829-3.829l2.752,2.752,6.89-7.42A2.71,2.71,0,1,1,31,19.354Z" transform="translate(10.249 10.251)" fill="#0086e3"/>
    <path id="Path_1702" data-name="Path 1702" d="M4.062,32.5A28.422,28.422,0,0,1,48.022,8.687l-4.095,4.1a2.031,2.031,0,0,0,1.435,3.466H57.549A2.032,2.032,0,0,0,59.58,14.22V2.033A2.031,2.031,0,0,0,56.114.6L50.93,5.781A32.2,32.2,0,0,0,32.5,0,32.486,32.486,0,0,0,1.389,41.887a2.031,2.031,0,1,0,3.889-1.173A28.393,28.393,0,0,1,4.062,32.5Z" transform="translate(0 0)" fill="#0086e3"/>
    <path id="Path_1703" data-name="Path 1703" d="M60.191,9.447A2.031,2.031,0,1,0,56.3,10.62a28.425,28.425,0,0,1-27.22,36.65,28.2,28.2,0,0,1-15.5-4.6l4.076-4.122a2.033,2.033,0,0,0-1.443-3.461H4.031a2.022,2.022,0,0,0-1.443.6A2.044,2.044,0,0,0,2,37.136l.135,12.187A2.033,2.033,0,0,0,5.61,50.728L10.7,45.585a32.187,32.187,0,0,0,18.386,5.747A32.486,32.486,0,0,0,60.191,9.447Z" transform="translate(3.416 13.667)" fill="#0086e3"/>
  </g>
</svg>
