<svg id="thai-baht" xmlns="http://www.w3.org/2000/svg" width="65" height="65" viewBox="0 0 65 65">
  <path id="Path_1695" data-name="Path 1695" d="M208.932,250.668h-6.264v5.17h6.264a2.585,2.585,0,1,0,0-5.17Zm0,0" transform="translate(-174.6 -215.952)" fill="#0086e3"/>
  <path id="Path_1696" data-name="Path 1696" d="M210.054,183.932a2.585,2.585,0,0,0-2.6-2.6h-4.786V186.5h4.786A2.579,2.579,0,0,0,210.054,183.932Zm0,0" transform="translate(-174.6 -156.219)" fill="#0086e3"/>
  <path id="Path_1697" data-name="Path 1697" d="M32.5,0A32.5,32.5,0,1,0,65,32.5,32.519,32.519,0,0,0,32.5,0Zm1.832,44.318h-.355v.738a2.216,2.216,0,1,1-4.432,0v-.738H25.853A2.232,2.232,0,0,1,23.637,42.1V22.9a2.232,2.232,0,0,1,2.216-2.216h3.693v-.738a2.216,2.216,0,0,1,4.432,0v.827a7.052,7.052,0,0,1,5.909,6.943,6.8,6.8,0,0,1-1.3,4.019,7,7,0,0,1-4.254,12.586Zm0,0" fill="#0086e3"/>
</svg>
