<svg xmlns="http://www.w3.org/2000/svg" width="387.3" height="439.861" viewBox="0 0 387.3 439.861">
  <g id="Group_4482" data-name="Group 4482" transform="translate(-584.277 -120.331)" opacity="0.205">
    <path id="Path_1811" data-name="Path 1811" d="M730.185,172.874c14.545,7.92,30.946,11.581,46.918,15.957,51.534,14.121,102.708,38.094,135.557,80.236s42.429,105.549,11.462,149.094c-12.7,17.854-30.918,31.08-50.051,41.753-22.13,12.342-46.829,21.858-72.134,20.573-28.029-1.423-53.513-15.765-80.229-24.358-36.287-11.676-75.6-12.712-113.024-5.464-15.138,2.93-30.961,7.775-40.911,19.555s-10.667,32.347,2.165,40.892c9.347,6.225,22.485,3.9,31.454-2.859s14.541-17.041,19.047-27.326c4.6-10.5,7.791-24.275-.5-32.191-3.565-3.4-8.539-4.841-13.369-5.808a101.786,101.786,0,0,0-47.509,1.855" transform="translate(27.065 43.941)" fill="none" stroke="#00477c" stroke-linecap="round" stroke-miterlimit="10" stroke-width="3" stroke-dasharray="9.738"/>
    <g id="Group_4483" data-name="Group 4483" transform="translate(627.997 121.805)">
      <g id="Group_4480" data-name="Group 4480" transform="translate(43.829 172.812)">
        <path id="Path_1788" data-name="Path 1788" d="M621.462,232.18a63.531,63.531,0,0,0,15.492,53c12.878,14.057,30.591,25.235,59.178,18.016,43.352-10.947,39.833-43.751,30.57-88.506" transform="translate(-591.842 -214.694)" fill="none" stroke="#00477c" stroke-miterlimit="10" stroke-width="3"/>
        <path id="Path_1789" data-name="Path 1789" d="M634.378,231.037c-16.312,3.1-24.185,6.774-27.709,15.6a26.929,26.929,0,0,0-1.518,10.835c.253,8.225,7.2,28.84,21.815,27.6s21.467-5.611,26.978-8.96" transform="translate(-605.128 -200.632)" fill="none" stroke="#00477c" stroke-miterlimit="10" stroke-width="3"/>
        <path id="Path_1790" data-name="Path 1790" d="M651.7,267.487a17.041,17.041,0,0,0,1.2,11.728,5.555,5.555,0,0,0,1.756,2.251,6.135,6.135,0,0,0,3.161.77,42.768,42.768,0,0,0,19.458-3.71c3.693-1.663,7.371-4.121,8.792-7.914s-.6-8.982-4.61-9.516" transform="translate(-565.517 -174.769)" fill="none" stroke="#00477c" stroke-miterlimit="10" stroke-width="3"/>
        <path id="Path_1791" data-name="Path 1791" d="M661.342,272.659c2.21,6.684,4.126,16.346,4.143,23.385s-1.74,14.23-5.886,19.919c-1.6,2.19-3.92,4.294-6.619,4.063" transform="translate(-563.955 -164.82)" fill="none" stroke="#00477c" stroke-miterlimit="10" stroke-width="3"/>
        <path id="Path_1792" data-name="Path 1792" d="M664.486,270.988c2.136,12.954,9.107,27.8,18.459,37.007a12.076,12.076,0,0,0,3.961,2.876,4.7,4.7,0,0,0,4.668-.521" transform="translate(-554.054 -166.258)" fill="none" stroke="#00477c" stroke-miterlimit="10" stroke-width="3"/>
        <path id="Path_1793" data-name="Path 1793" d="M647.79,307.459c22.77-5.525,47.655-10.72,70.424-16.245q.151,3.656.3,7.313a3.471,3.471,0,0,1-.391,2.18,2.581,2.581,0,0,1-1.444.992c-10.037,2.543-55.9,11-67.766,12.362-.461-2.979-.664-3.624-1.127-6.6" transform="translate(-568.42 -148.855)" fill="none" stroke="#00477c" stroke-miterlimit="10" stroke-width="3"/>
        <path id="Path_1794" data-name="Path 1794" d="M629.64,234.826c-5.483,1.505-10.826,3.032-14.065,6.206-7.67,7.522-6.6,15.631-5.25,19.758.958,2.934,2.722,11.555,11.665,12.749s17.96-2.567,23.281-6.906" transform="translate(-601.476 -197.372)" fill="none" stroke="#00477c" stroke-miterlimit="10" stroke-width="3"/>
        <path id="Path_1795" data-name="Path 1795" d="M678.985,221.66c16.108-4.028,24.8-3.991,31.7,2.543a26.927,26.927,0,0,1,5.92,9.2c3.219,7.572,5.557,29.2-8.232,34.206s-21.841,3.909-28.247,3.176" transform="translate(-541.579 -211.065)" fill="none" stroke="#00477c" stroke-miterlimit="10" stroke-width="3"/>
        <path id="Path_1796" data-name="Path 1796" d="M679.618,224.726c5.611-.932,13.866-2.513,18.135-.99,10.119,3.613,12.547,11.425,13.053,15.735.359,3.066,2.374,11.633-5.245,16.467s-17.382,5.2-24.031,3.492" transform="translate(-541.035 -207.46)" fill="none" stroke="#00477c" stroke-miterlimit="10" stroke-width="3"/>
        <path id="Path_1797" data-name="Path 1797" d="M622.054,232.749c35.952-9.27,78.809-13.907,103.37-18.055" transform="translate(-590.564 -214.694)" fill="none" stroke="#00477c" stroke-miterlimit="10" stroke-width="3"/>
        <path id="Path_1798" data-name="Path 1798" d="M652.772,231.628q-4.644,9.257-9.287,18.517a1.255,1.255,0,0,0,.75,2.147q4.644,1.644,9.287,3.291a26.857,26.857,0,0,1,3.977-7.027,90.563,90.563,0,0,0,3.717,18.669,23.381,23.381,0,0,0-11.789,3.228q1.094,3.318,2.184,6.634a.9.9,0,0,0,1.276.755q14.969-3.151,29.586-7.741l-1.5-5.542a.706.706,0,0,0-1.083-.592q-4.194,1.208-8.482,2.045a1.53,1.53,0,0,1-2.126-1.449c-3.079-11.421-4.3-23.317-8.02-34.546-.34-1.029-.867-2.2-1.929-2.42a3.05,3.05,0,0,0-1.753.339,35.658,35.658,0,0,0-5.86,3.146" transform="translate(-572.409 -203.621)" fill="none" stroke="#00477c" stroke-miterlimit="10" stroke-width="3"/>
        <path id="Path_1799" data-name="Path 1799" d="M675.514,221.685a173.267,173.267,0,0,1,2.214,28.178c-.019,5.765-.5,12.007-4.268,16.375" transform="translate(-546.333 -208.679)" fill="none" stroke="#00477c" stroke-miterlimit="10" stroke-width="3"/>
        <path id="Path_1800" data-name="Path 1800" d="M675.3,251.988a22.6,22.6,0,0,1-8.952,6.314" transform="translate(-552.451 -182.606)" fill="none" stroke="#00477c" stroke-miterlimit="10" stroke-width="3"/>
        <path id="Path_1801" data-name="Path 1801" d="M666.064,264.194c1.418.171,2.136,1.974,1.721,3.339a7.43,7.43,0,0,1-2.664,3.271" transform="translate(-553.508 -172.103)" fill="none" stroke="#00477c" stroke-miterlimit="10" stroke-width="3"/>
        <path id="Path_1802" data-name="Path 1802" d="M662.918,276.82a70.257,70.257,0,0,0,3.592,11,23.54,23.54,0,0,0,6.895,9.155" transform="translate(-555.404 -161.24)" fill="none" stroke="#00477c" stroke-miterlimit="10" stroke-width="3"/>
      </g>
      <g id="Group_4481" data-name="Group 4481">
        <path id="Path_1803" data-name="Path 1803" d="M675.882,139.919l-34.555,9.533" transform="translate(-530.15 -106.219)" fill="none" stroke="#00477c" stroke-miterlimit="10" stroke-width="3"/>
        <path id="Path_1804" data-name="Path 1804" d="M678.23,158.471l-80.963-29.4q32.156,20.567,64.314,41.132" transform="translate(-568.06 -115.555)" fill="none" stroke="#00477c" stroke-miterlimit="10" stroke-width="3"/>
        <path id="Path_1805" data-name="Path 1805" d="M726.949,151.871q-71.6-16.431-143.8-30.066" transform="translate(-580.21 -121.805)" fill="none" stroke="#00477c" stroke-miterlimit="10" stroke-width="3"/>
        <path id="Path_1806" data-name="Path 1806" d="M650.3,151.8q-19.92.809-39.748,3.012" transform="translate(-556.629 -95.995)" fill="none" stroke="#00477c" stroke-miterlimit="10" stroke-width="3"/>
        <path id="Path_1807" data-name="Path 1807" d="M581.568,122.061a741.153,741.153,0,0,0,58.5,61.561" transform="translate(-581.568 -121.585)" fill="none" stroke="#00477c" stroke-miterlimit="10" stroke-width="3"/>
        <path id="Path_1808" data-name="Path 1808" d="M642.833,146.264a304.188,304.188,0,0,0,1.343,36.57" transform="translate(-528.927 -100.76)" fill="none" stroke="#00477c" stroke-miterlimit="10" stroke-width="3"/>
        <path id="Path_1809" data-name="Path 1809" d="M632.753,151.2q9.351,14.023,18.7,28.049" transform="translate(-537.528 -96.513)" fill="none" stroke="#00477c" stroke-miterlimit="10" stroke-width="3"/>
        <path id="Path_1810" data-name="Path 1810" d="M658.572,178.257q-16.917-13.744-34.993-25.977" transform="translate(-545.421 -95.584)" fill="none" stroke="#00477c" stroke-miterlimit="10" stroke-width="3"/>
      </g>
      <path id="Path_1812" data-name="Path 1812" d="M689.849,264.217A24.314,24.314,0,0,0,716.1,238.179" transform="translate(-488.403 -21.675)" fill="none" stroke="#00477c" stroke-miterlimit="10" stroke-width="3"/>
      <path id="Path_1813" data-name="Path 1813" d="M610.08,134.341a11.5,11.5,0,0,0,2.059,6.058" transform="translate(-557.036 -111.019)" fill="none" stroke="#00477c" stroke-miterlimit="10" stroke-width="3"/>
      <path id="Path_1814" data-name="Path 1814" d="M615.893,136.7a27.8,27.8,0,0,0,2.032,11.122" transform="translate(-552.043 -108.993)" fill="none" stroke="#00477c" stroke-miterlimit="10" stroke-width="3"/>
      <path id="Path_1815" data-name="Path 1815" d="M621.1,139.351c.553-.112.85.618.925,1.176l1.6,11.789" transform="translate(-547.555 -106.718)" fill="none" stroke="#00477c" stroke-miterlimit="10" stroke-width="3"/>
      <path id="Path_1816" data-name="Path 1816" d="M628.537,141.23a36.08,36.08,0,0,0,2.257,17.2" transform="translate(-541.351 -105.091)" fill="none" stroke="#00477c" stroke-miterlimit="10" stroke-width="3"/>
      <path id="Path_1817" data-name="Path 1817" d="M633.5,144.306a69.894,69.894,0,0,0,1,15.17" transform="translate(-536.94 -102.445)" fill="none" stroke="#00477c" stroke-miterlimit="10" stroke-width="3"/>
      <path id="Path_1818" data-name="Path 1818" d="M638.886,144.855q-.893,9.1-1.784,18.195" transform="translate(-533.787 -101.972)" fill="none" stroke="#00477c" stroke-miterlimit="10" stroke-width="3"/>
      <path id="Path_1819" data-name="Path 1819" d="M643.92,146.111a32.1,32.1,0,0,1-.577,6.219q-1.694,10.685-3.39,21.369" transform="translate(-531.333 -100.892)" fill="none" stroke="#00477c" stroke-miterlimit="10" stroke-width="3"/>
      <path id="Path_1824" data-name="Path 1824" d="M623.858,226.05q-.706,8.564-1.41,17.131" transform="translate(-546.396 -32.111)" fill="none" stroke="#00477c" stroke-miterlimit="10" stroke-width="3"/>
      <path id="Path_1825" data-name="Path 1825" d="M627.859,229.923q-.393,15.131-1.816,30.213" transform="translate(-543.301 -28.779)" fill="none" stroke="#00477c" stroke-miterlimit="10" stroke-width="3"/>
      <path id="Path_1826" data-name="Path 1826" d="M633.145,236.711q-1.887,13.694-2.746,27.5" transform="translate(-539.554 -22.938)" fill="none" stroke="#00477c" stroke-miterlimit="10" stroke-width="3"/>
      <path id="Path_1827" data-name="Path 1827" d="M636.571,243.742a134.389,134.389,0,0,0-1.072,24.353" transform="translate(-535.293 -16.888)" fill="none" stroke="#00477c" stroke-miterlimit="10" stroke-width="3"/>
      <path id="Path_1828" data-name="Path 1828" d="M641.1,252.954a50.452,50.452,0,0,0-1.031,12.173" transform="translate(-531.26 -8.962)" fill="none" stroke="#00477c" stroke-miterlimit="10" stroke-width="3"/>
      <path id="Path_1829" data-name="Path 1829" d="M646.4,257.8a21.972,21.972,0,0,0-.119,8.117" transform="translate(-526.168 -4.789)" fill="none" stroke="#00477c" stroke-miterlimit="10" stroke-width="3"/>
      <path id="Path_1830" data-name="Path 1830" d="M652.2,259.01a11.431,11.431,0,0,0-.45,4.059" transform="translate(-521.203 -3.752)" fill="none" stroke="#00477c" stroke-miterlimit="10" stroke-width="3"/>
      <path id="Path_1831" data-name="Path 1831" d="M655.862,260.464" transform="translate(-517.645 -2.5)" fill="none" stroke="#00477c" stroke-miterlimit="10" stroke-width="3"/>
      <path id="Path_1832" data-name="Path 1832" d="M657.161,262.879l-4.437,12.653" transform="translate(-520.345 -0.423)" fill="none" stroke="#00477c" stroke-miterlimit="10" stroke-width="3"/>
      <path id="Path_1833" data-name="Path 1833" d="M659.8,265.065a67.512,67.512,0,0,0-5.382,13.54" transform="translate(-518.893 1.458)" fill="none" stroke="#00477c" stroke-miterlimit="10" stroke-width="3"/>
      <path id="Path_1834" data-name="Path 1834" d="M658.669,269.675l-1.353,3.157" transform="translate(-516.394 5.425)" fill="none" stroke="#00477c" stroke-miterlimit="10" stroke-width="3"/>
      <path id="Path_1835" data-name="Path 1835" d="M663.153,277.95q-1.624,7.264-3.916,14.357" transform="translate(-514.741 12.545)" fill="none" stroke="#00477c" stroke-miterlimit="10" stroke-width="3"/>
      <path id="Path_1836" data-name="Path 1836" d="M670.066,285.664q-6.985,10.825-13.974,21.65" transform="translate(-517.447 19.182)" fill="none" stroke="#00477c" stroke-miterlimit="10" stroke-width="3"/>
      <path id="Path_1837" data-name="Path 1837" d="M668.492,290.269q-2.933,5.411-5.862,10.822" transform="translate(-511.821 23.144)" fill="none" stroke="#00477c" stroke-miterlimit="10" stroke-width="3"/>
      <path id="Path_1838" data-name="Path 1838" d="M590.1,181.9q-2.606,6.513-5.209,13.023" transform="translate(-578.714 -70.096)" fill="none" stroke="#00477c" stroke-miterlimit="10" stroke-width="3"/>
      <path id="Path_1839" data-name="Path 1839" d="M594.263,188.4a144.251,144.251,0,0,0-10.3,19.172" transform="translate(-579.512 -64.505)" fill="none" stroke="#00477c" stroke-miterlimit="10" stroke-width="3"/>
      <path id="Path_1840" data-name="Path 1840" d="M596,197.666a71.94,71.94,0,0,0-9.2,16.72" transform="translate(-577.068 -56.533)" fill="none" stroke="#00477c" stroke-miterlimit="10" stroke-width="3"/>
      <path id="Path_1841" data-name="Path 1841" d="M682.861,139.447l-5.451,16.347" transform="translate(-499.106 -106.625)" fill="none" stroke="#00477c" stroke-miterlimit="10" stroke-width="3"/>
      <path id="Path_1842" data-name="Path 1842" d="M690.222,137.964l-9.856,25.484" transform="translate(-496.562 -107.902)" fill="none" stroke="#00477c" stroke-miterlimit="10" stroke-width="3"/>
      <path id="Path_1843" data-name="Path 1843" d="M698.3,135.57a102.134,102.134,0,0,1-11.14,27.181" transform="translate(-490.714 -109.961)" fill="none" stroke="#00477c" stroke-miterlimit="10" stroke-width="3"/>
    </g>
  </g>
</svg>
