<svg xmlns="http://www.w3.org/2000/svg" width="551.068" height="477.506" viewBox="0 0 551.068 477.506">
  <g id="Group_4478" data-name="Group 4478" transform="translate(-283.414 -270.589)" opacity="0.196">
    <g id="Group_4475" data-name="Group 4475" transform="translate(601.467 273.731)">
      <path id="Path_1770" data-name="Path 1770" d="M452.908,325.976,344.323,273.253l152.858,36.362Z" transform="translate(-344.323 -273.253)" fill="none" stroke="#0086e3" stroke-linecap="round" stroke-linejoin="round" stroke-width="5"/>
      <path id="Path_1771" data-name="Path 1771" d="M443.765,328.382l-18.047,43.311-81.4-98.44Z" transform="translate(-344.323 -273.253)" fill="none" stroke="#0086e3" stroke-linecap="round" stroke-linejoin="round" stroke-width="5"/>
      <path id="Path_1772" data-name="Path 1772" d="M367.482,283.457l6.5,23.1-12.328-9.1Z" transform="translate(-268.04 -228.328)" fill="none" stroke="#0086e3" stroke-linecap="round" stroke-linejoin="round" stroke-width="5"/>
      <path id="Path_1773" data-name="Path 1773" d="M452.908,325.976,344.323,273.253l99.442,55.13,6.5,23.1Z" transform="translate(-344.323 -273.253)" fill="none" stroke="#0086e3" stroke-linecap="round" stroke-linejoin="round" stroke-width="5"/>
    </g>
    <g id="Group_4476" data-name="Group 4476" transform="translate(323.753 357.898)">
      <path id="Path_1774" data-name="Path 1774" d="M344.047,332.921c8.617,27.661,6.4,52.955-4.965,56.494s-27.558-16.013-36.175-43.674-6.4-52.955,4.959-56.494S335.425,305.255,344.047,332.921Z" transform="translate(-272.075 -288.832)" fill="none" stroke="#0086e3" stroke-linecap="round" stroke-linejoin="round" stroke-width="5"/>
      <path id="Path_1775" data-name="Path 1775" d="M350.009,346.4c-19.649,21.3-42.663,32.021-51.41,23.955s.092-31.875,19.735-53.171,42.658-32.021,51.4-23.949S369.652,325.106,350.009,346.4Z" transform="translate(-282.769 -281.293)" fill="none" stroke="#0086e3" stroke-linecap="round" stroke-linejoin="round" stroke-width="5"/>
      <path id="Path_1776" data-name="Path 1776" d="M339.585,338.739c28.266,6.364,53.3,2.112,55.91-9.5S377.316,303.066,349.05,296.7s-53.3-2.112-55.91,9.5S311.319,332.375,339.585,338.739Z" transform="translate(-292.918 -267.222)" fill="none" stroke="#0086e3" stroke-linecap="round" stroke-linejoin="round" stroke-width="5"/>
      <path id="Path_1777" data-name="Path 1777" d="M314.451,301.694a6.791,6.791,0,1,0-4.462,8.5A6.786,6.786,0,0,0,314.451,301.694Z" transform="translate(-256.568 -253.219)" fill="none" stroke="#0086e3" stroke-linecap="round" stroke-linejoin="round" stroke-width="5"/>
    </g>
    <g id="Group_4477" data-name="Group 4477" transform="translate(285.914 723.056)">
      <line id="Line_751" data-name="Line 751" y2="22.539" transform="translate(11.27)" fill="none" stroke="#0086e3" stroke-linecap="round" stroke-linejoin="round" stroke-width="5"/>
      <line id="Line_752" data-name="Line 752" x1="22.539" transform="translate(0 11.27)" fill="none" stroke="#0086e3" stroke-linecap="round" stroke-linejoin="round" stroke-width="5"/>
    </g>
    <circle id="Ellipse_354" data-name="Ellipse 354" cx="11.27" cy="11.27" r="11.27" transform="translate(569.42 403.488)" fill="none" stroke="#0086e3" stroke-linecap="round" stroke-linejoin="round" stroke-width="5"/>
    <path id="Path_1778" data-name="Path 1778" d="M395.736,302.615l1.756,2.923a2.545,2.545,0,0,0,2.037,1.232l3.4.211A2.553,2.553,0,0,1,404.7,311.2l-2.237,2.577a2.555,2.555,0,0,0-.546,2.312l.854,3.306a2.553,2.553,0,0,1-3.468,2.988l-3.144-1.334a2.555,2.555,0,0,0-2.366.2l-2.88,1.832a2.556,2.556,0,0,1-3.917-2.377l.3-3.4a2.549,2.549,0,0,0-.918-2.193l-2.631-2.172a2.553,2.553,0,0,1,1.053-4.457l3.323-.767a2.549,2.549,0,0,0,1.8-1.556l1.253-3.171A2.553,2.553,0,0,1,395.736,302.615Z" transform="translate(426.597 124.283)" fill="none" stroke="#0086e3" stroke-linecap="round" stroke-linejoin="round" stroke-width="5"/>
    <path id="Path_1779" data-name="Path 1779" d="M300.305,273.743l2.615,2.193a2.546,2.546,0,0,0,2.323.5l3.29-.913a2.557,2.557,0,0,1,3.052,3.42l-1.28,3.161a2.56,2.56,0,0,0,.243,2.366l1.88,2.842a2.554,2.554,0,0,1-2.3,3.96l-3.4-.232a2.545,2.545,0,0,0-2.177.956l-2.123,2.669a2.555,2.555,0,0,1-4.479-.967l-.827-3.312a2.557,2.557,0,0,0-1.583-1.772l-3.2-1.194a2.556,2.556,0,0,1-.459-4.56l2.89-1.81a2.557,2.557,0,0,0,1.2-2.053l.146-3.409A2.557,2.557,0,0,1,300.305,273.743Z" transform="translate(20.973)" fill="none" stroke="#0086e3" stroke-linecap="round" stroke-linejoin="round" stroke-width="5"/>
  </g>
</svg>
