<svg xmlns="http://www.w3.org/2000/svg" width="667.481" height="375.751" viewBox="0 0 667.481 375.751">
  <g id="Group_4474" data-name="Group 4474" transform="translate(-123.147 -53.14)" opacity="0.206">
    <g id="Group_4469" data-name="Group 4469" transform="translate(310.03 86.618)">
      <path id="Path_1757" data-name="Path 1757" d="M247.789,66.8c18.346-5.556,32.121-6.062,35.077-.229,4.629,9.152-18.932,30.411-52.619,47.468s-64.775,23.46-69.409,14.308c-2.951-5.838,5.609-16.636,20.951-28.137" transform="translate(-160.261 -57.31)" fill="none" stroke="#0086e3" stroke-linecap="round" stroke-linejoin="round" stroke-width="5"/>
      <path id="Path_1758" data-name="Path 1758" d="M232.954,68.476a40.172,40.172,0,0,1-66,33.41,217.8,217.8,0,0,0,34.332-14.079A217.887,217.887,0,0,0,232.954,68.476Z" transform="translate(-131.299 -31.076)" fill="none" stroke="#0086e3" stroke-linecap="round" stroke-linejoin="round" stroke-width="5"/>
      <path id="Path_1759" data-name="Path 1759" d="M186.309,65.8a40.127,40.127,0,0,0-17.685,53.94c2.685,5.306,20.9,1.518,40.687-8.5s33.623-22.453,30.938-27.758A40.12,40.12,0,0,0,186.309,65.8Z" transform="translate(-142.845 -61.455)" fill="none" stroke="#0086e3" stroke-linecap="round" stroke-linejoin="round" stroke-width="5"/>
    </g>
    <g id="Group_4470" data-name="Group 4470" transform="translate(510.973 70.291)">
      <path id="Path_1760" data-name="Path 1760" d="M197.983,58.39c12.023,0,12.023,14.3,24.046,14.3s12.012-14.3,24.03-14.3,12.023,14.3,24.046,14.3,12.033-14.3,24.067-14.3,12.033,14.3,24.067,14.3" transform="translate(-197.983 -58.39)" fill="none" stroke="#0086e3" stroke-linecap="round" stroke-linejoin="round" stroke-width="5"/>
      <path id="Path_1761" data-name="Path 1761" d="M197.983,62.192c12.023,0,12.023,14.3,24.046,14.3s12.012-14.3,24.03-14.3,12.023,14.3,24.046,14.3,12.033-14.3,24.067-14.3,12.033,14.3,24.067,14.3" transform="translate(-197.983 -41.939)" fill="none" stroke="#0086e3" stroke-linecap="round" stroke-linejoin="round" stroke-width="5"/>
    </g>
    <g id="Group_4471" data-name="Group 4471" transform="translate(622.277 260.541)">
      <circle id="Ellipse_352" data-name="Ellipse 352" cx="59.062" cy="59.062" r="59.062" transform="translate(0 95.919) rotate(-54.293)" fill="none" stroke="#0086e3" stroke-linecap="round" stroke-linejoin="round" stroke-width="5"/>
      <path id="Path_1762" data-name="Path 1762" d="M223.489,110.226c1.875-2.578,6.174-.895,7.948,1.758s2.52,6.078,4.991,8.092c3.249,2.653,8.033,1.8,12.065,2.946,5.721,1.635,9.477,7.255,11.085,12.976a32.064,32.064,0,0,1-5.631,28.126" transform="translate(-198.925 -29.898)" fill="none" stroke="#0086e3" stroke-linecap="round" stroke-linejoin="round" stroke-width="5"/>
      <path id="Path_1763" data-name="Path 1763" d="M231.564,105.98c-3.894,2.115-4.768,7.639-3.063,11.73s5.268,7.058,8.731,9.823,7.069,5.652,8.923,9.674c1.8,3.9,1.721,8.358,1.838,12.646s.575,8.843,3.186,12.252,8.076,4.949,11.261,2.072c2.924-2.642,2.573-7.33,4.48-10.776,2.765-5.013,9.3-6.147,14.915-7.25s12.156-3.771,13.008-9.434c.57-3.8-1.763-7.367-3.984-10.5L271.489,98.874" transform="translate(-180.829 -73.47)" fill="none" stroke="#0086e3" stroke-linecap="round" stroke-linejoin="round" stroke-width="5"/>
      <path id="Path_1764" data-name="Path 1764" d="M277.385,111.137c-1.4-2.216-4.618-2.637-7.042-1.651s-4.256,3.01-6.014,4.949-3.644,3.926-6.115,4.8c-2.557.895-5.364.469-8.033.005s-5.46-.943-8.049-.144-4.858,3.335-4.373,6c.746,4.038,6.2,4.677,9.509,7.106,3.388,2.482,4.469,6.946,5.806,10.92s3.777,8.294,7.916,8.954" transform="translate(-137.468 -29.727)" fill="none" stroke="#0086e3" stroke-linecap="round" stroke-linejoin="round" stroke-width="5"/>
    </g>
    <g id="Group_4472" data-name="Group 4472" transform="translate(261.711 212.994)">
      <line id="Line_749" data-name="Line 749" x1="9.318" y2="20.176" transform="translate(5.429)" fill="none" stroke="#0086e3" stroke-linecap="round" stroke-linejoin="round" stroke-width="5"/>
      <line id="Line_750" data-name="Line 750" x1="20.176" y1="9.318" transform="translate(0 5.429)" fill="none" stroke="#0086e3" stroke-linecap="round" stroke-linejoin="round" stroke-width="5"/>
    </g>
    <path id="Path_1765" data-name="Path 1765" d="M259.918,98.185A11.112,11.112,0,1,0,248.806,109.3,11.112,11.112,0,0,0,259.918,98.185Z" transform="translate(484.815 136.009)" fill="none" stroke="#0086e3" stroke-linecap="round" stroke-linejoin="round" stroke-width="5"/>
    <path id="Path_1766" data-name="Path 1766" d="M212.592,107.9a11.112,11.112,0,1,0-11.112,11.112A11.112,11.112,0,0,0,212.592,107.9Z" transform="translate(280.041 178.045)" fill="none" stroke="#0086e3" stroke-linecap="round" stroke-linejoin="round" stroke-width="5"/>
    <circle id="Ellipse_353" data-name="Ellipse 353" cx="11.112" cy="11.112" r="11.112" transform="translate(125.647 115.663)" fill="none" stroke="#0086e3" stroke-linecap="round" stroke-linejoin="round" stroke-width="5"/>
    <path id="Path_1767" data-name="Path 1767" d="M220.765,80.664l1.976,2.722a2.532,2.532,0,0,0,2.1,1.033l3.361-.085a2.517,2.517,0,0,1,2.1,4l-1.976,2.722a2.53,2.53,0,0,0-.341,2.323l1.124,3.17a2.517,2.517,0,0,1-3.153,3.233l-3.2-1.039a2.518,2.518,0,0,0-2.312.4l-2.669,2.046a2.521,2.521,0,0,1-4.054-2V95.824a2.509,2.509,0,0,0-1.092-2.077l-2.77-1.907a2.517,2.517,0,0,1,.65-4.469l3.2-1.039a2.515,2.515,0,0,0,1.635-1.678l.959-3.228A2.52,2.52,0,0,1,220.765,80.664Z" transform="translate(359.703 103.782)" fill="none" stroke="#0086e3" stroke-linecap="round" stroke-linejoin="round" stroke-width="5"/>
    <g id="Group_4473" data-name="Group 4473" transform="translate(680.921 55.639)">
      <path id="Path_1768" data-name="Path 1768" d="M229.887,149.02l60.639-93.381,24.965,40.14Z" transform="translate(-229.887 -55.639)" fill="none" stroke="#0086e3" stroke-linecap="round" stroke-linejoin="round" stroke-width="5"/>
      <path id="Path_1769" data-name="Path 1769" d="M237.688,89.1l18.851-29.033L264.3,72.551Z" transform="translate(-196.132 -36.473)" fill="none" stroke="#0086e3" stroke-linecap="round" stroke-linejoin="round" stroke-width="5"/>
    </g>
  </g>
</svg>
