<svg xmlns="http://www.w3.org/2000/svg" width="208.466" height="223.527" viewBox="0 0 208.466 223.527">
  <g id="Group_4492" data-name="Group 4492" transform="translate(-259.534 -6351.473)">
    <circle id="Ellipse_303" data-name="Ellipse 303" cx="99" cy="99" r="99" transform="translate(270 6363.629)" fill="#eff7fe"/>
    <g id="Group_3648" data-name="Group 3648" transform="translate(259.533 6351.473)">
      <g id="Group_3647" data-name="Group 3647" transform="translate(0.001 0)">
        <g id="Group_3644" data-name="Group 3644" transform="translate(108.112 188.919)">
          <path id="Path_1466" data-name="Path 1466" d="M451.664,302.614a2.26,2.26,0,0,1,0-4.519,106.778,106.778,0,0,0,73.84-29.467,2.26,2.26,0,0,1,3.115,3.276A111.291,111.291,0,0,1,451.664,302.614Z" transform="translate(-449.404 -268.006)" fill="#03b9db"/>
        </g>
        <g id="Group_3645" data-name="Group 3645" transform="translate(0 1.365)">
          <path id="Path_1467" data-name="Path 1467" d="M370.689,256.448a.9.9,0,0,1-.574-.206c-1.864-1.531-3.707-3.149-5.475-4.809a.9.9,0,1,1,1.237-1.319c1.74,1.633,3.551,3.225,5.386,4.732a.9.9,0,0,1-.574,1.6Zm-10.539-9.887a.9.9,0,0,1-.661-.287c-1.656-1.771-3.271-3.617-4.8-5.484a.9.9,0,1,1,1.4-1.146c1.5,1.837,3.093,3.653,4.722,5.4a.9.9,0,0,1-.66,1.52ZM351,235.38a.9.9,0,0,1-.737-.379c-1.408-1.971-2.768-4.012-4.038-6.066a.9.9,0,1,1,1.537-.951c1.25,2.019,2.586,4.027,3.971,5.966A.9.9,0,0,1,351,235.38Zm-7.6-12.283a.9.9,0,0,1-.8-.479c-1.135-2.138-2.213-4.34-3.2-6.546a.9.9,0,0,1,1.649-.739c.974,2.168,2.034,4.333,3.152,6.436a.9.9,0,0,1-.373,1.222A.894.894,0,0,1,343.394,223.1Zm-5.916-13.177a.906.906,0,0,1-.85-.589c-.843-2.272-1.621-4.6-2.308-6.911a.9.9,0,1,1,1.734-.515c.676,2.276,1.44,4.562,2.27,6.8a.9.9,0,0,1-.533,1.162A.875.875,0,0,1,337.479,209.92Zm-4.121-13.843a.9.9,0,0,1-.88-.7c-.535-2.362-1-4.769-1.372-7.155a.9.9,0,0,1,1.787-.28c.369,2.346.822,4.713,1.349,7.035a.9.9,0,0,1-.681,1.081A.925.925,0,0,1,333.358,196.077Zm-2.251-14.268a.9.9,0,0,1-.9-.822c-.219-2.406-.361-4.853-.42-7.274a.905.905,0,0,1,.883-.926.883.883,0,0,1,.925.882c.058,2.382.2,4.788.413,7.154a.9.9,0,0,1-.819.982C331.163,181.809,331.136,181.809,331.108,181.809Zm-.361-14.442h-.037a.9.9,0,0,1-.867-.939c.1-2.429.273-4.873.528-7.266a.891.891,0,0,1,.993-.8.907.907,0,0,1,.805.994c-.251,2.353-.426,4.758-.521,7.147A.9.9,0,0,1,330.746,167.367ZM332.265,153a.9.9,0,0,1-.891-1.058c.413-2.383.909-4.784,1.479-7.135a.9.9,0,0,1,1.756.426c-.559,2.311-1.048,4.674-1.454,7.017A.9.9,0,0,1,332.265,153Zm3.4-14.041a.9.9,0,0,1-.861-1.174c.726-2.314,1.539-4.63,2.417-6.888a.9.9,0,0,1,1.684.655c-.861,2.22-1.663,4.5-2.376,6.774A.905.905,0,0,1,335.666,138.963Zm5.241-13.483a.92.92,0,0,1-.383-.084.905.905,0,0,1-.436-1.2c1.021-2.185,2.136-4.373,3.308-6.5a.9.9,0,0,1,1.584.872c-1.155,2.1-2.25,4.246-3.254,6.4A.9.9,0,0,1,340.907,125.479Zm6.977-12.664a.9.9,0,0,1-.761-1.391c1.3-2.038,2.7-4.059,4.132-6.008a.9.9,0,1,1,1.454,1.074c-1.414,1.916-2.78,3.9-4.065,5.908A.9.9,0,0,1,347.884,112.815Zm8.581-11.631a.9.9,0,0,1-.691-1.488c1.561-1.848,3.2-3.668,4.882-5.411a.9.9,0,0,1,1.3,1.255c-1.652,1.715-3.267,3.505-4.8,5.324A.9.9,0,0,1,356.465,101.184Zm10.026-10.4a.9.9,0,0,1-.606-1.572c1.782-1.624,3.651-3.213,5.546-4.724a.9.9,0,0,1,1.126,1.414c-1.864,1.487-3.7,3.05-5.456,4.647A.9.9,0,0,1,366.491,90.78Zm11.3-9a.9.9,0,0,1-.515-1.647c1.982-1.377,4.041-2.708,6.117-3.954a.9.9,0,0,1,.93,1.549c-2.043,1.227-4.065,2.536-6.016,3.89A.9.9,0,0,1,377.789,81.782Zm12.377-7.435a.9.9,0,0,1-.415-1.707c2.156-1.108,4.369-2.155,6.581-3.112a.9.9,0,0,1,.717,1.659c-2.175.941-4.351,1.97-6.47,3.06A.916.916,0,0,1,390.166,74.347ZM403.4,68.615a.9.9,0,0,1-.3-1.755c2.279-.812,4.615-1.558,6.943-2.215a.9.9,0,0,1,.493,1.739c-2.289.647-4.588,1.381-6.828,2.18A.912.912,0,0,1,403.4,68.615Zm13.9-3.932a.9.9,0,0,1-.187-1.789c2.364-.5,4.777-.931,7.173-1.276a.9.9,0,0,1,.259,1.79c-2.359.339-4.733.76-7.056,1.255A.9.9,0,0,1,417.3,64.683Zm14.3-2.06a.9.9,0,0,1-.07-1.8c2.4-.185,4.854-.295,7.28-.324h.011a.9.9,0,0,1,.011,1.808c-2.389.028-4.8.136-7.162.319C431.646,62.624,431.621,62.624,431.6,62.624Z" transform="translate(-329.789 -60.495)" fill="#03b9db"/>
        </g>
        <g id="Group_3646" data-name="Group 3646" transform="translate(108.112 0)">
          <path id="Path_1468" data-name="Path 1468" d="M545.093,115.861a2.258,2.258,0,0,1-1.928-1.078,107.066,107.066,0,0,0-91.5-51.279,2.26,2.26,0,0,1,0-4.519,111.595,111.595,0,0,1,95.356,53.435,2.26,2.26,0,0,1-1.926,3.441Z" transform="translate(-449.404 -58.985)" fill="#03b9db"/>
        </g>
      </g>
    </g>
  </g>
</svg>
