<svg xmlns="http://www.w3.org/2000/svg" xmlns:xlink="http://www.w3.org/1999/xlink" width="262" height="208" viewBox="0 0 262 208">
  <defs>
    <filter id="Rectangle_1883" x="0" y="0" width="262" height="208" filterUnits="userSpaceOnUse">
      <feOffset dy="3" input="SourceAlpha"/>
      <feGaussianBlur stdDeviation="10" result="blur"/>
      <feFlood flood-opacity="0.161"/>
      <feComposite operator="in" in2="blur"/>
      <feComposite in="SourceGraphic"/>
    </filter>
  </defs>
  <g id="Group_3662" data-name="Group 3662" transform="translate(29.902 26.541)">
    <g id="Group_3649" data-name="Group 3649" transform="translate(0 0)">
      <g transform="matrix(1, 0, 0, 1, -29.9, -26.54)" filter="url(#Rectangle_1883)">
        <rect id="Rectangle_1883-2" data-name="Rectangle 1883" width="202" height="148" rx="10" transform="translate(30 27)" fill="#fdfdfd"/>
      </g>
      <path id="Rectangle_1884" data-name="Rectangle 1884" d="M10,0H192a10,10,0,0,1,10,10v2a0,0,0,0,1,0,0H0a0,0,0,0,1,0,0V10A10,10,0,0,1,10,0Z" transform="translate(0.098 0.459)" fill="#1e4d99"/>
      <path id="Union_2" data-name="Union 2" d="M0,24V9.778H15.418V5a5,5,0,0,1,5-5H48.962a5,5,0,0,1,5,5V9.778H203V24Z" transform="translate(0.098 2.459)" fill="#0086e3"/>
      <rect id="Rectangle_1887" data-name="Rectangle 1887" width="171" height="9" rx="4.5" transform="translate(29.098 14.459)" fill="#fff"/>
      <path id="Icon_ionic-ios-search" data-name="Icon ionic-ios-search" d="M9.347,9.044,7.983,7.667a1.944,1.944,0,1,0-.3.3L9.043,9.334a.21.21,0,0,0,.3.008A.211.211,0,0,0,9.347,9.044ZM6.456,7.983a1.535,1.535,0,1,1,1.086-.45A1.526,1.526,0,0,1,6.456,7.983Z" transform="translate(26.827 12.148)"/>
      <path id="Icon_ionic-ios-arrow-round-back" data-name="Icon ionic-ios-arrow-round-back" d="M10.485,11.343a.326.326,0,0,1,0,.459l-1.515,1.52h5.773a.324.324,0,0,1,0,.649H8.973l1.518,1.52a.328.328,0,0,1,0,.459.323.323,0,0,1-.457,0L7.974,13.877h0a.364.364,0,0,1-.067-.1.31.31,0,0,1-.025-.125.325.325,0,0,1,.092-.227l2.057-2.072A.318.318,0,0,1,10.485,11.343Z" transform="translate(-3.755 6.155)" fill="#fff"/>
      <path id="Icon_ionic-ios-arrow-round-back-2" data-name="Icon ionic-ios-arrow-round-back" d="M12.464,11.343a.326.326,0,0,0,0,.459l1.515,1.52H8.2a.324.324,0,0,0,0,.649h5.773l-1.517,1.52a.329.329,0,0,0,0,.459.323.323,0,0,0,.457,0l2.056-2.072h0a.364.364,0,0,0,.067-.1.31.31,0,0,0,.025-.125.325.325,0,0,0-.092-.227l-2.056-2.072A.318.318,0,0,0,12.464,11.343Z" transform="translate(8.628 6.155)" fill="#fff"/>
      <path id="Icon_ionic-ios-close" data-name="Icon ionic-ios-close" d="M12.875,12.574l.918-.918a.215.215,0,0,0-.3-.3l-.918.918-.918-.918a.215.215,0,1,0-.3.3l.918.918-.918.918a.215.215,0,1,0,.3.3l.918-.918.918.918a.215.215,0,1,0,.3-.3Z" transform="translate(36.867 -5.841)" fill="#fff"/>
    </g>
    <g id="Group_3661" data-name="Group 3661" transform="translate(36.827 43.789)">
      <rect id="Rectangle_1888" data-name="Rectangle 1888" width="115.129" height="16.269" transform="translate(6.893 54.373)" fill="#0086e3"/>
      <g id="Group_3653" data-name="Group 3653" transform="translate(0 0)">
        <g id="Group_3650" data-name="Group 3650" opacity="0.8">
          <rect id="Rectangle_1889" data-name="Rectangle 1889" width="128.915" height="18.614" fill="#e8e8e8"/>
        </g>
        <g id="Group_3651" data-name="Group 3651" opacity="0.8">
          <rect id="Rectangle_1890" data-name="Rectangle 1890" width="18.874" height="18.614" fill="#c7c7c7"/>
        </g>
        <path id="Path_1469" data-name="Path 1469" d="M83.64,130.961a1.708,1.708,0,1,0-1.6,0,2.674,2.674,0,0,0-1.865,2.541v1.343h5.327V133.5A2.674,2.674,0,0,0,83.64,130.961Z" transform="translate(-73.404 -121.991)" fill="#fff"/>
        <g id="Group_3652" data-name="Group 3652" transform="translate(24.69 7.411)">
          <path id="Path_1470" data-name="Path 1470" d="M101.639,133.016a1.092,1.092,0,0,0,.559-.13,1.03,1.03,0,0,0,.355-.339,1.413,1.413,0,0,0,.187-.477,2.745,2.745,0,0,0,.054-.545v-1.947h.488v1.947a2.977,2.977,0,0,1-.089.74,1.767,1.767,0,0,1-.285.616,1.375,1.375,0,0,1-.507.42,1.693,1.693,0,0,1-.757.155,1.672,1.672,0,0,1-.775-.163,1.41,1.41,0,0,1-.508-.431,1.765,1.765,0,0,1-.276-.618,3.064,3.064,0,0,1-.084-.719v-1.947h.488v1.947a2.612,2.612,0,0,0,.057.556,1.405,1.405,0,0,0,.19.475,1.015,1.015,0,0,0,.352.333A1.083,1.083,0,0,0,101.639,133.016Z" transform="translate(-100.001 -129.578)" fill="#6b6b6b"/>
          <path id="Path_1471" data-name="Path 1471" d="M105.383,133.586a2.2,2.2,0,0,1-.672-.106,1.658,1.658,0,0,1-.569-.306l.206-.32a2.009,2.009,0,0,0,.5.285,1.463,1.463,0,0,0,.526.095.869.869,0,0,0,.491-.122.391.391,0,0,0,.182-.344.31.31,0,0,0-.049-.176.419.419,0,0,0-.146-.127,1.216,1.216,0,0,0-.249-.1q-.152-.043-.352-.092-.255-.065-.439-.125a1.211,1.211,0,0,1-.3-.141.5.5,0,0,1-.173-.2.654.654,0,0,1-.054-.282.82.82,0,0,1,.084-.377.8.8,0,0,1,.23-.277,1.029,1.029,0,0,1,.344-.168,1.534,1.534,0,0,1,.426-.057,1.7,1.7,0,0,1,.6.1,1.462,1.462,0,0,1,.465.271l-.216.287a1.227,1.227,0,0,0-.4-.236,1.357,1.357,0,0,0-.456-.079.829.829,0,0,0-.442.111.384.384,0,0,0-.182.355.339.339,0,0,0,.035.163.3.3,0,0,0,.117.114.919.919,0,0,0,.209.087q.127.038.306.081.282.065.491.133a1.414,1.414,0,0,1,.347.16.617.617,0,0,1,.206.217.628.628,0,0,1,.068.3.752.752,0,0,1-.3.629A1.312,1.312,0,0,1,105.383,133.586Z" transform="translate(-100.399 -129.681)" fill="#6b6b6b"/>
          <path id="Path_1472" data-name="Path 1472" d="M108.608,133.586a1.442,1.442,0,0,1-.586-.117,1.367,1.367,0,0,1-.456-.317,1.446,1.446,0,0,1-.3-.469,1.532,1.532,0,0,1-.106-.567,1.511,1.511,0,0,1,.106-.564,1.43,1.43,0,0,1,.3-.466,1.415,1.415,0,0,1,.458-.317,1.442,1.442,0,0,1,.586-.117,1.388,1.388,0,0,1,1.03.437,1.416,1.416,0,0,1,.285.461,1.517,1.517,0,0,1,.1.545q0,.06,0,.108a.574.574,0,0,1-.008.076h-2.348a1.1,1.1,0,0,0,.1.385.991.991,0,0,0,.212.3.978.978,0,0,0,.3.2.883.883,0,0,0,.35.07.937.937,0,0,0,.255-.035,1.107,1.107,0,0,0,.233-.095.81.81,0,0,0,.193-.146.6.6,0,0,0,.127-.2l.412.114a1.041,1.041,0,0,1-.193.287,1.277,1.277,0,0,1-.282.225,1.472,1.472,0,0,1-.355.149A1.518,1.518,0,0,1,108.608,133.586Zm.971-1.659a1.02,1.02,0,0,0-.1-.371,1.009,1.009,0,0,0-.212-.29.97.97,0,0,0-1.011-.187.921.921,0,0,0-.3.19.945.945,0,0,0-.206.29,1.067,1.067,0,0,0-.095.369Z" transform="translate(-100.69 -129.681)" fill="#6b6b6b"/>
          <path id="Path_1473" data-name="Path 1473" d="M112.406,131.121a1.224,1.224,0,0,0-.632.184.946.946,0,0,0-.389.483v1.746h-.476V130.7h.444v.656a1.445,1.445,0,0,1,.386-.485.794.794,0,0,1,.51-.193h.092a.343.343,0,0,1,.065.005Z" transform="translate(-101.05 -129.684)" fill="#6b6b6b"/>
          <path id="Path_1474" data-name="Path 1474" d="M115.537,133.532h-.476v-1.584a1.219,1.219,0,0,0-.138-.662.473.473,0,0,0-.421-.206.8.8,0,0,0-.292.057,1.161,1.161,0,0,0-.277.155,1.034,1.034,0,0,0-.228.233,1.021,1.021,0,0,0-.147.3v1.708h-.476V130.7h.434v.607a1.239,1.239,0,0,1,.485-.477,1.38,1.38,0,0,1,.691-.179.842.842,0,0,1,.408.089.7.7,0,0,1,.26.249,1.109,1.109,0,0,1,.137.377,2.487,2.487,0,0,1,.041.472Z" transform="translate(-101.259 -129.681)" fill="#6b6b6b"/>
          <path id="Path_1475" data-name="Path 1475" d="M117.338,133.586a1.092,1.092,0,0,1-.39-.068.981.981,0,0,1-.31-.184.842.842,0,0,1-.2-.277.8.8,0,0,1-.073-.339.786.786,0,0,1,.086-.366.835.835,0,0,1,.247-.282,1.2,1.2,0,0,1,.381-.179,1.752,1.752,0,0,1,.48-.062,2.367,2.367,0,0,1,.418.038,1.924,1.924,0,0,1,.374.1v-.228A.682.682,0,0,0,117.6,131a1.588,1.588,0,0,0-.9.331l-.156-.309a2.377,2.377,0,0,1,.547-.277,1.75,1.75,0,0,1,.565-.092,1.2,1.2,0,0,1,.857.3,1.1,1.1,0,0,1,.314.841v1.155c0,.112.052.17.152.174v.412c-.036.007-.07.013-.1.016a.849.849,0,0,1-.092.005.464.464,0,0,1-.233-.065.255.255,0,0,1-.125-.222l-.011-.2a1.208,1.208,0,0,1-.222.228,1.372,1.372,0,0,1-.266.163,1.441,1.441,0,0,1-.29.1A1.384,1.384,0,0,1,117.338,133.586Zm.12-.358a1.066,1.066,0,0,0,.444-.1.994.994,0,0,0,.343-.239.353.353,0,0,0,.1-.222v-.418a2.015,2.015,0,0,0-.355-.1,1.948,1.948,0,0,0-.361-.035,1.043,1.043,0,0,0-.591.149.468.468,0,0,0-.222.409.506.506,0,0,0,.043.209.523.523,0,0,0,.125.176.61.61,0,0,0,.2.122A.753.753,0,0,0,117.458,133.228Z" transform="translate(-101.575 -129.681)" fill="#6b6b6b"/>
          <path id="Path_1476" data-name="Path 1476" d="M124.207,133.532h-.478v-1.584a1.186,1.186,0,0,0-.143-.656.483.483,0,0,0-.427-.211.76.76,0,0,0-.523.209,1.14,1.14,0,0,0-.327.54v1.7h-.478v-1.584a1.208,1.208,0,0,0-.14-.662.48.48,0,0,0-.424-.206.769.769,0,0,0-.52.2,1.106,1.106,0,0,0-.332.54v1.708h-.476V130.7h.433v.607a1.285,1.285,0,0,1,.45-.485,1.167,1.167,0,0,1,.624-.171.8.8,0,0,1,.567.193.838.838,0,0,1,.258.5,1.179,1.179,0,0,1,1.078-.689.856.856,0,0,1,.41.089.69.69,0,0,1,.263.249,1.151,1.151,0,0,1,.14.377,2.338,2.338,0,0,1,.044.472Z" transform="translate(-101.918 -129.681)" fill="#6b6b6b"/>
          <path id="Path_1477" data-name="Path 1477" d="M126.7,133.586a1.445,1.445,0,0,1-.586-.117,1.372,1.372,0,0,1-.455-.317,1.464,1.464,0,0,1-.3-.469,1.532,1.532,0,0,1-.106-.567,1.512,1.512,0,0,1,.106-.564,1.418,1.418,0,0,1,1.342-.9,1.376,1.376,0,0,1,1.315.9,1.5,1.5,0,0,1,.1.545q0,.06,0,.108a.573.573,0,0,1-.008.076h-2.348a1.118,1.118,0,0,0,.1.385.993.993,0,0,0,.212.3.963.963,0,0,0,.295.2.883.883,0,0,0,.35.07.928.928,0,0,0,.255-.035,1.135,1.135,0,0,0,.234-.095.8.8,0,0,0,.192-.146.6.6,0,0,0,.128-.2l.412.114a1.044,1.044,0,0,1-.193.287,1.277,1.277,0,0,1-.282.225,1.45,1.45,0,0,1-.354.149A1.519,1.519,0,0,1,126.7,133.586Zm.972-1.659a1.039,1.039,0,0,0-.1-.371,1.007,1.007,0,0,0-.211-.29.959.959,0,0,0-.3-.187.979.979,0,0,0-.716,0,.907.907,0,0,0-.295.19.93.93,0,0,0-.206.29,1.046,1.046,0,0,0-.095.369Z" transform="translate(-102.43 -129.681)" fill="#6b6b6b"/>
        </g>
      </g>
      <g id="Group_3657" data-name="Group 3657" transform="translate(0 28.309)">
        <g id="Group_3654" data-name="Group 3654" transform="translate(0 0.001)" opacity="0.8">
          <rect id="Rectangle_1891" data-name="Rectangle 1891" width="128.915" height="18.613" fill="#e8e8e8"/>
        </g>
        <g id="Group_3655" data-name="Group 3655" opacity="0.8">
          <rect id="Rectangle_1892" data-name="Rectangle 1892" width="18.874" height="18.614" fill="#c7c7c7"/>
        </g>
        <path id="Path_1478" data-name="Path 1478" d="M85.306,161.214h-.487v-.61a2.039,2.039,0,0,0-4.077,0v.61h-.489a.7.7,0,0,0-.693.694v3.966a.7.7,0,0,0,.693.7h5.053a.7.7,0,0,0,.7-.7v-3.966A.7.7,0,0,0,85.306,161.214Zm-3.642-.61a1.116,1.116,0,1,1,2.232,0v.61H81.663Zm1.493,4.134v1.014a.076.076,0,0,1-.08.074h-.485a.075.075,0,0,1-.073-.074v-1.014a.89.89,0,1,1,.638,0Z" transform="translate(-73.345 -153.263)" fill="#fff"/>
        <g id="Group_3656" data-name="Group 3656" transform="translate(24.749 7.303)">
          <path id="Path_1479" data-name="Path 1479" d="M100.066,164.749V160.9h1.606a1.033,1.033,0,0,1,.469.106,1.18,1.18,0,0,1,.369.282,1.334,1.334,0,0,1,.241.4,1.208,1.208,0,0,1,.087.447,1.327,1.327,0,0,1-.082.46,1.26,1.26,0,0,1-.23.4,1.12,1.12,0,0,1-.358.277,1.037,1.037,0,0,1-.465.1h-1.15v1.383Zm.488-1.817h1.123a.607.607,0,0,0,.274-.062.621.621,0,0,0,.209-.174.858.858,0,0,0,.136-.259.961.961,0,0,0,.048-.308.857.857,0,0,0-.057-.315.833.833,0,0,0-.152-.255.658.658,0,0,0-.221-.168.629.629,0,0,0-.268-.06h-1.091Z" transform="translate(-100.066 -160.791)" fill="#6b6b6b"/>
          <path id="Path_1480" data-name="Path 1480" d="M104.378,164.907a1.073,1.073,0,0,1-.39-.069.949.949,0,0,1-.31-.184.829.829,0,0,1-.2-.276.805.805,0,0,1-.073-.339.783.783,0,0,1,.086-.366.835.835,0,0,1,.247-.282,1.185,1.185,0,0,1,.381-.179,1.752,1.752,0,0,1,.48-.062,2.285,2.285,0,0,1,.418.038,1.927,1.927,0,0,1,.374.1v-.228a.682.682,0,0,0-.748-.743,1.588,1.588,0,0,0-.9.331l-.156-.309a2.364,2.364,0,0,1,.548-.277,1.74,1.74,0,0,1,.564-.092,1.193,1.193,0,0,1,.857.3,1.1,1.1,0,0,1,.315.841v1.155c0,.112.051.17.151.174v.412c-.036.007-.07.013-.1.016a.837.837,0,0,1-.092.005.465.465,0,0,1-.233-.065.256.256,0,0,1-.125-.222l-.011-.2a1.176,1.176,0,0,1-.222.227,1.308,1.308,0,0,1-.266.164,1.407,1.407,0,0,1-.587.13Zm.12-.358a1.066,1.066,0,0,0,.444-.1.986.986,0,0,0,.343-.239.353.353,0,0,0,.1-.222v-.418a2.017,2.017,0,0,0-.355-.1,1.949,1.949,0,0,0-.361-.035,1.043,1.043,0,0,0-.591.149.466.466,0,0,0-.222.409.507.507,0,0,0,.043.21.531.531,0,0,0,.125.176.6.6,0,0,0,.2.121A.726.726,0,0,0,104.5,164.549Z" transform="translate(-100.387 -160.894)" fill="#6b6b6b"/>
          <path id="Path_1481" data-name="Path 1481" d="M107.956,164.907a2.17,2.17,0,0,1-.672-.107,1.657,1.657,0,0,1-.569-.305l.206-.32a2.03,2.03,0,0,0,.5.285,1.463,1.463,0,0,0,.526.095.871.871,0,0,0,.491-.122.394.394,0,0,0,.181-.345.316.316,0,0,0-.048-.175.424.424,0,0,0-.147-.128,1.211,1.211,0,0,0-.249-.1q-.153-.043-.352-.092c-.17-.043-.317-.085-.439-.125a1.2,1.2,0,0,1-.3-.141.494.494,0,0,1-.174-.2.654.654,0,0,1-.054-.282.818.818,0,0,1,.085-.377.792.792,0,0,1,.23-.277,1.037,1.037,0,0,1,.344-.168,1.535,1.535,0,0,1,.427-.057,1.7,1.7,0,0,1,.6.1,1.462,1.462,0,0,1,.465.271l-.216.287a1.227,1.227,0,0,0-.4-.236,1.358,1.358,0,0,0-.456-.079.826.826,0,0,0-.441.111.383.383,0,0,0-.183.355.349.349,0,0,0,.035.163.314.314,0,0,0,.117.114.919.919,0,0,0,.209.087c.085.025.187.052.307.081.188.043.351.088.491.133a1.421,1.421,0,0,1,.346.159.578.578,0,0,1,.275.521.752.752,0,0,1-.3.628A1.309,1.309,0,0,1,107.956,164.907Z" transform="translate(-100.705 -160.894)" fill="#6b6b6b"/>
          <path id="Path_1482" data-name="Path 1482" d="M110.914,164.907a2.17,2.17,0,0,1-.672-.107,1.657,1.657,0,0,1-.569-.305l.206-.32a2.013,2.013,0,0,0,.5.285,1.463,1.463,0,0,0,.526.095.871.871,0,0,0,.491-.122.394.394,0,0,0,.181-.345.316.316,0,0,0-.048-.175.421.421,0,0,0-.146-.128,1.242,1.242,0,0,0-.249-.1c-.1-.029-.22-.06-.353-.092q-.255-.065-.438-.125a1.2,1.2,0,0,1-.3-.141.494.494,0,0,1-.174-.2.654.654,0,0,1-.054-.282.818.818,0,0,1,.085-.377.792.792,0,0,1,.23-.277,1.037,1.037,0,0,1,.344-.168,1.536,1.536,0,0,1,.427-.057,1.7,1.7,0,0,1,.6.1,1.462,1.462,0,0,1,.465.271l-.217.287a1.214,1.214,0,0,0-.4-.236,1.358,1.358,0,0,0-.456-.079.831.831,0,0,0-.442.111.384.384,0,0,0-.182.355.339.339,0,0,0,.035.163.314.314,0,0,0,.117.114.937.937,0,0,0,.209.087c.086.025.187.052.307.081.188.043.351.088.491.133a1.422,1.422,0,0,1,.346.159.578.578,0,0,1,.275.521.752.752,0,0,1-.3.628A1.309,1.309,0,0,1,110.914,164.907Z" transform="translate(-100.99 -160.894)" fill="#6b6b6b"/>
          <path id="Path_1483" data-name="Path 1483" d="M116.359,162.027h.461l-1.2,2.831h-.4l-.569-1.383-.564,1.383h-.4l-1.2-2.831h.456l.976,2.359.477-1.178-.488-1.176h.4l.347.906.347-.906h.4l-.484,1.176.478,1.178Z" transform="translate(-101.261 -160.899)" fill="#6b6b6b"/>
          <path id="Path_1484" data-name="Path 1484" d="M118.874,164.907a1.389,1.389,0,0,1-1.033-.439,1.437,1.437,0,0,1-.289-.466,1.523,1.523,0,0,1,.3-1.59,1.388,1.388,0,0,1,1.027-.438,1.4,1.4,0,0,1,.58.119,1.387,1.387,0,0,1,.453.319,1.479,1.479,0,0,1,.294.467,1.529,1.529,0,0,1,.1.564,1.554,1.554,0,0,1-.1.559,1.414,1.414,0,0,1-.747.786A1.4,1.4,0,0,1,118.874,164.907Zm-.938-1.459a1.15,1.15,0,0,0,.073.411,1.047,1.047,0,0,0,.2.332.951.951,0,0,0,.3.222.864.864,0,0,0,.732,0,.97.97,0,0,0,.3-.225,1.05,1.05,0,0,0,.2-.336,1.157,1.157,0,0,0,.073-.415,1.142,1.142,0,0,0-.073-.409,1.051,1.051,0,0,0-.2-.336.987.987,0,0,0-.3-.226.844.844,0,0,0-.367-.08.826.826,0,0,0-.365.083.985.985,0,0,0-.3.229,1.085,1.085,0,0,0-.2.335A1.186,1.186,0,0,0,117.936,163.448Z" transform="translate(-101.738 -160.894)" fill="#6b6b6b"/>
          <path id="Path_1485" data-name="Path 1485" d="M122.731,162.442a1.229,1.229,0,0,0-.632.184.942.942,0,0,0-.388.482v1.747h-.477v-2.831h.445v.656a1.442,1.442,0,0,1,.385-.485.8.8,0,0,1,.51-.193h.092a.337.337,0,0,1,.065.005Z" transform="translate(-102.102 -160.897)" fill="#6b6b6b"/>
          <path id="Path_1486" data-name="Path 1486" d="M124.439,164.792a1.245,1.245,0,0,1-.543-.119,1.342,1.342,0,0,1-.428-.32,1.46,1.46,0,0,1-.279-.466,1.572,1.572,0,0,1-.1-.559,1.688,1.688,0,0,1,.095-.567,1.465,1.465,0,0,1,.267-.469,1.28,1.28,0,0,1,.407-.318,1.161,1.161,0,0,1,.518-.116,1.068,1.068,0,0,1,.61.179,1.41,1.41,0,0,1,.426.434v-1.692h.477v3.373c0,.112.051.17.151.174v.412q-.058.011-.106.016a.707.707,0,0,1-.083.005.389.389,0,0,1-.261-.084.279.279,0,0,1-.1-.2l-.011-.266a1.222,1.222,0,0,1-1.036.586Zm.113-.412a.78.78,0,0,0,.268-.05,1,1,0,0,0,.26-.135.946.946,0,0,0,.212-.2.587.587,0,0,0,.117-.247v-.813a.926.926,0,0,0-.146-.258,1.179,1.179,0,0,0-.22-.211,1.075,1.075,0,0,0-.261-.141.78.78,0,0,0-.273-.052.809.809,0,0,0-.382.089.915.915,0,0,0-.293.239,1.063,1.063,0,0,0-.187.342,1.212,1.212,0,0,0-.065.393,1.091,1.091,0,0,0,.076.4,1.043,1.043,0,0,0,.206.334.986.986,0,0,0,.306.225A.876.876,0,0,0,124.552,164.38Z" transform="translate(-102.28 -160.779)" fill="#6b6b6b"/>
        </g>
      </g>
      <g id="Group_3658" data-name="Group 3658" transform="translate(55.524 60.761)">
        <path id="Path_1487" data-name="Path 1487" d="M134.116,192.485v-3.85h.607v3.313h2.066v.537Z" transform="translate(-134.116 -188.608)" fill="#fff"/>
        <path id="Path_1488" data-name="Path 1488" d="M139.611,192.51a1.643,1.643,0,0,1-.74-.165,1.859,1.859,0,0,1-.575-.439,1.971,1.971,0,0,1-.371-.626,2.067,2.067,0,0,1-.13-.721,2,2,0,0,1,.138-.738,2.033,2.033,0,0,1,.382-.624,1.83,1.83,0,0,1,.58-.431,1.682,1.682,0,0,1,.732-.16,1.6,1.6,0,0,1,.74.171,1.878,1.878,0,0,1,.572.447,2.075,2.075,0,0,1,.5,1.339,2.03,2.03,0,0,1-.521,1.358,1.859,1.859,0,0,1-.578.428A1.664,1.664,0,0,1,139.611,192.51Zm-1.2-1.952a1.67,1.67,0,0,0,.085.526,1.417,1.417,0,0,0,.241.45,1.2,1.2,0,0,0,.38.312,1.058,1.058,0,0,0,.5.117,1.047,1.047,0,0,0,.507-.122,1.189,1.189,0,0,0,.38-.323,1.486,1.486,0,0,0,.236-.45,1.634,1.634,0,0,0,.081-.51,1.614,1.614,0,0,0-.087-.529,1.433,1.433,0,0,0-.244-.445,1.211,1.211,0,0,0-.38-.309,1.111,1.111,0,0,0-1,.005,1.226,1.226,0,0,0-.379.317,1.412,1.412,0,0,0-.236.447A1.661,1.661,0,0,0,138.411,190.557Z" transform="translate(-134.47 -188.605)" fill="#fff"/>
        <path id="Path_1489" data-name="Path 1489" d="M145.76,192.005a1.462,1.462,0,0,1-1.1.5,1.542,1.542,0,0,1-.7-.165,1.9,1.9,0,0,1-.569-.439,2.085,2.085,0,0,1-.379-.629,2.039,2.039,0,0,1,.379-2.1,1.8,1.8,0,0,1,.573-.42,1.842,1.842,0,0,1,1.631.076,1.5,1.5,0,0,1,.559.61l-.466.336a1.1,1.1,0,0,0-.425-.472,1.154,1.154,0,0,0-.595-.157,1.006,1.006,0,0,0-.483.117,1.2,1.2,0,0,0-.371.309,1.4,1.4,0,0,0-.24.447,1.686,1.686,0,0,0-.084.531,1.6,1.6,0,0,0,.092.548,1.4,1.4,0,0,0,.258.445,1.267,1.267,0,0,0,.389.3,1.057,1.057,0,0,0,.482.111,1.345,1.345,0,0,0,1.052-.569v-.407h-.808v-.45h1.318v1.947h-.51Z" transform="translate(-134.958 -188.605)" fill="#fff"/>
        <path id="Path_1490" data-name="Path 1490" d="M148.012,192.486v-3.845h.607v3.845Z" transform="translate(-135.452 -188.608)" fill="#fff"/>
        <path id="Path_1491" data-name="Path 1491" d="M150.85,189.774v2.711h-.606v-3.85h.476l2.2,2.777V188.64h.613v3.845h-.5Z" transform="translate(-135.667 -188.608)" fill="#fff"/>
      </g>
      <g id="Group_3660" data-name="Group 3660" transform="translate(29.889 79.451)" opacity="0.8">
        <g id="Group_3659" data-name="Group 3659">
          <path id="Path_1492" data-name="Path 1492" d="M105.753,213.069V209.4H108.2v.512h-1.866v1.1h1.562v.481h-1.562v1.583Z" transform="translate(-105.753 -209.295)" fill="#4f4f4f"/>
          <path id="Path_1493" data-name="Path 1493" d="M110,213.219a1.406,1.406,0,0,1-.577-.114,1.322,1.322,0,0,1-.716-.752,1.5,1.5,0,0,1,0-1.07,1.307,1.307,0,0,1,.282-.447,1.372,1.372,0,0,1,.439-.305,1.413,1.413,0,0,1,1.583.305,1.335,1.335,0,0,1,.282.447,1.515,1.515,0,0,1,0,1.07,1.335,1.335,0,0,1-.282.447,1.371,1.371,0,0,1-.44.3A1.386,1.386,0,0,1,110,213.219Zm-.806-1.4a1.036,1.036,0,0,0,.061.362.9.9,0,0,0,.171.287.8.8,0,0,0,.256.192.753.753,0,0,0,.636,0,.778.778,0,0,0,.256-.194.931.931,0,0,0,.171-.289,1.036,1.036,0,0,0,.061-.362,1.048,1.048,0,0,0-.061-.36.924.924,0,0,0-.171-.292.764.764,0,0,0-.256-.193A.728.728,0,0,0,110,210.9a.706.706,0,0,0-.313.072.812.812,0,0,0-.256.2.965.965,0,0,0-.174.292A1,1,0,0,0,109.2,211.823Z" transform="translate(-106.028 -209.393)" fill="#4f4f4f"/>
          <path id="Path_1494" data-name="Path 1494" d="M113.754,210.957a1.247,1.247,0,0,0-.584.152.834.834,0,0,0-.367.406v1.655h-.569v-2.7h.527v.6a1.375,1.375,0,0,1,.37-.455.764.764,0,0,1,.478-.176h.086a.276.276,0,0,1,.059.005Z" transform="translate(-106.376 -209.395)" fill="#4f4f4f"/>
          <path id="Path_1495" data-name="Path 1495" d="M115.433,213.194a1.111,1.111,0,0,1-.5-.111,1.206,1.206,0,0,1-.388-.3,1.417,1.417,0,0,1-.254-.44,1.521,1.521,0,0,1-.09-.522,1.643,1.643,0,0,1,.09-.546,1.331,1.331,0,0,1,.257-.444,1.244,1.244,0,0,1,.395-.3,1.157,1.157,0,0,1,.51-.11,1.048,1.048,0,0,1,.574.155,1.329,1.329,0,0,1,.4.4v-.512h.5v2.627a1.19,1.19,0,0,1-.109.522,1.084,1.084,0,0,1-.3.385,1.355,1.355,0,0,1-.457.24,1.9,1.9,0,0,1-.569.083,1.616,1.616,0,0,1-.744-.153,1.455,1.455,0,0,1-.5-.427l.32-.3a1.008,1.008,0,0,0,.4.331,1.232,1.232,0,0,0,.524.114,1.19,1.19,0,0,0,.334-.046.78.78,0,0,0,.277-.146.7.7,0,0,0,.188-.248.833.833,0,0,0,.071-.357v-.413a.989.989,0,0,1-.4.382A1.122,1.122,0,0,1,115.433,213.194Zm.186-.46a.714.714,0,0,0,.248-.044.881.881,0,0,0,.221-.119.836.836,0,0,0,.173-.171.608.608,0,0,0,.1-.2v-.709a.972.972,0,0,0-.321-.421.762.762,0,0,0-.465-.163.69.69,0,0,0-.334.08.806.806,0,0,0-.25.212,1.027,1.027,0,0,0-.161.3,1.05,1.05,0,0,0-.057.342.932.932,0,0,0,.065.349.92.92,0,0,0,.178.285.874.874,0,0,0,.267.193A.758.758,0,0,0,115.619,212.734Z" transform="translate(-106.566 -209.393)" fill="#4f4f4f"/>
          <path id="Path_1496" data-name="Path 1496" d="M119.169,213.219a1.4,1.4,0,0,1-.577-.114,1.315,1.315,0,0,1-.716-.752,1.5,1.5,0,0,1,0-1.07,1.318,1.318,0,0,1,.281-.447,1.368,1.368,0,0,1,1.011-.418,1.391,1.391,0,0,1,.571.113,1.372,1.372,0,0,1,.439.305,1.335,1.335,0,0,1,.282.447,1.515,1.515,0,0,1,0,1.07,1.335,1.335,0,0,1-.282.447,1.357,1.357,0,0,1-.439.3A1.392,1.392,0,0,1,119.169,213.219Zm-.807-1.4a1.016,1.016,0,0,0,.062.362.9.9,0,0,0,.171.287.8.8,0,0,0,.256.192.751.751,0,0,0,.635,0,.782.782,0,0,0,.257-.194.932.932,0,0,0,.171-.289,1.036,1.036,0,0,0,.061-.362,1.048,1.048,0,0,0-.061-.36.925.925,0,0,0-.171-.292.767.767,0,0,0-.257-.193.724.724,0,0,0-.317-.071.7.7,0,0,0-.313.072.812.812,0,0,0-.256.2.93.93,0,0,0-.174.292A.985.985,0,0,0,118.362,211.823Z" transform="translate(-106.909 -209.393)" fill="#4f4f4f"/>
          <path id="Path_1497" data-name="Path 1497" d="M122.846,212.938c-.076.034-.177.073-.3.116a1.254,1.254,0,0,1-.411.065.855.855,0,0,1-.25-.036.637.637,0,0,1-.207-.108.492.492,0,0,1-.142-.189.7.7,0,0,1-.052-.282v-1.691h-.362v-.439h.362v-.889h.568v.889h.59v.439h-.59v1.51a.249.249,0,0,0,.083.209.317.317,0,0,0,.2.065.624.624,0,0,0,.228-.042c.072-.028.126-.05.16-.067Z" transform="translate(-107.231 -209.303)" fill="#4f4f4f"/>
          <path id="Path_1498" data-name="Path 1498" d="M124.929,213.069V209.4h1.541a1.012,1.012,0,0,1,.457.1,1.177,1.177,0,0,1,.36.271,1.293,1.293,0,0,1,.235.382,1.173,1.173,0,0,1,.085.437,1.272,1.272,0,0,1-.3.83,1.091,1.091,0,0,1-.35.268,1,1,0,0,1-.452.1h-.993v1.277Zm.578-1.79h.957a.491.491,0,0,0,.225-.052.509.509,0,0,0,.173-.145.708.708,0,0,0,.114-.217.85.85,0,0,0,.042-.274.794.794,0,0,0-.046-.279.668.668,0,0,0-.13-.215.6.6,0,0,0-.188-.139.524.524,0,0,0-.22-.049h-.926Z" transform="translate(-107.597 -209.295)" fill="#4f4f4f"/>
          <path id="Path_1499" data-name="Path 1499" d="M129.042,213.219a1.018,1.018,0,0,1-.364-.064.891.891,0,0,1-.289-.178.837.837,0,0,1-.192-.269.806.806,0,0,1-.07-.336.723.723,0,0,1,.082-.346.8.8,0,0,1,.236-.269,1.132,1.132,0,0,1,.362-.175,1.615,1.615,0,0,1,.463-.062,2.112,2.112,0,0,1,.378.033,1.917,1.917,0,0,1,.335.09v-.186a.625.625,0,0,0-.171-.467.668.668,0,0,0-.491-.168,1.186,1.186,0,0,0-.427.08,2.144,2.144,0,0,0-.432.23l-.175-.362a1.911,1.911,0,0,1,1.085-.352,1.237,1.237,0,0,1,.869.284,1.053,1.053,0,0,1,.311.817v.977a.213.213,0,0,0,.036.14.173.173,0,0,0,.124.046v.486a1.537,1.537,0,0,1-.153.021c-.046,0-.089.005-.127.005a.4.4,0,0,1-.251-.089.339.339,0,0,1-.106-.206l-.015-.171a1.2,1.2,0,0,1-.447.364A1.317,1.317,0,0,1,129.042,213.219Zm.155-.418a1.032,1.032,0,0,0,.39-.075.671.671,0,0,0,.287-.21.263.263,0,0,0,.108-.2v-.357a1.728,1.728,0,0,0-.307-.088,1.691,1.691,0,0,0-.318-.031.871.871,0,0,0-.5.131.4.4,0,0,0-.193.349.442.442,0,0,0,.149.339A.547.547,0,0,0,129.2,212.8Z" transform="translate(-107.905 -209.393)" fill="#4f4f4f"/>
          <path id="Path_1500" data-name="Path 1500" d="M132.566,213.219a2.2,2.2,0,0,1-.334-.025,2.648,2.648,0,0,1-.331-.075,2.115,2.115,0,0,1-.31-.119,1.428,1.428,0,0,1-.261-.157l.238-.383a1.719,1.719,0,0,0,.988.347.742.742,0,0,0,.409-.1.317.317,0,0,0,.15-.279.265.265,0,0,0-.168-.251,2.98,2.98,0,0,0-.535-.167,4.464,4.464,0,0,1-.435-.127,1.226,1.226,0,0,1-.295-.145.48.48,0,0,1-.165-.191.635.635,0,0,1-.052-.267.787.787,0,0,1,.082-.367.815.815,0,0,1,.225-.271.964.964,0,0,1,.336-.168,1.44,1.44,0,0,1,.416-.057,1.773,1.773,0,0,1,.569.092,1.8,1.8,0,0,1,.491.254l-.242.346a1.363,1.363,0,0,0-.828-.289.7.7,0,0,0-.367.09.309.309,0,0,0-.15.286.3.3,0,0,0,.031.14.271.271,0,0,0,.1.1.818.818,0,0,0,.183.075c.076.023.169.048.279.075q.279.068.481.135a1.334,1.334,0,0,1,.334.158.577.577,0,0,1,.193.211.633.633,0,0,1,.062.292.771.771,0,0,1-.078.347.759.759,0,0,1-.22.264,1.029,1.029,0,0,1-.346.167A1.615,1.615,0,0,1,132.566,213.219Z" transform="translate(-108.213 -209.393)" fill="#4f4f4f"/>
          <path id="Path_1501" data-name="Path 1501" d="M135.426,213.219a2.2,2.2,0,0,1-.334-.025,2.579,2.579,0,0,1-.331-.075,2.167,2.167,0,0,1-.311-.119,1.459,1.459,0,0,1-.261-.157l.239-.383a1.716,1.716,0,0,0,.987.347.74.74,0,0,0,.409-.1.315.315,0,0,0,.15-.279.265.265,0,0,0-.168-.251,2.957,2.957,0,0,0-.535-.167,4.366,4.366,0,0,1-.434-.127,1.192,1.192,0,0,1-.295-.145.49.49,0,0,1-.166-.191.635.635,0,0,1-.052-.267.787.787,0,0,1,.083-.367.815.815,0,0,1,.225-.271.952.952,0,0,1,.335-.168,1.442,1.442,0,0,1,.417-.057,1.772,1.772,0,0,1,.569.092,1.822,1.822,0,0,1,.492.254l-.243.346a1.36,1.36,0,0,0-.827-.289.7.7,0,0,0-.368.09.311.311,0,0,0-.15.286.289.289,0,0,0,.032.14.261.261,0,0,0,.1.1.817.817,0,0,0,.183.075c.076.023.169.048.279.075.186.045.347.09.481.135a1.334,1.334,0,0,1,.334.158.587.587,0,0,1,.194.211.633.633,0,0,1,.062.292.742.742,0,0,1-.3.611,1.029,1.029,0,0,1-.346.167A1.6,1.6,0,0,1,135.426,213.219Z" transform="translate(-108.488 -209.393)" fill="#4f4f4f"/>
          <path id="Path_1502" data-name="Path 1502" d="M140.594,210.468h.543l-1.142,2.7h-.465l-.506-1.256-.5,1.256h-.47l-1.138-2.7h.538l.874,2.157.393-1-.471-1.148h.465l.311.848.31-.848h.465l-.465,1.148.392,1Z" transform="translate(-108.75 -209.398)" fill="#4f4f4f"/>
          <path id="Path_1503" data-name="Path 1503" d="M143.093,213.219a1.408,1.408,0,0,1-.578-.114,1.317,1.317,0,0,1-.715-.752,1.5,1.5,0,0,1,0-1.07,1.319,1.319,0,0,1,.281-.447,1.372,1.372,0,0,1,.439-.305,1.411,1.411,0,0,1,1.583.305,1.334,1.334,0,0,1,.282.447,1.515,1.515,0,0,1,0,1.07,1.334,1.334,0,0,1-.282.447,1.366,1.366,0,0,1-.439.3A1.392,1.392,0,0,1,143.093,213.219Zm-.807-1.4a1.036,1.036,0,0,0,.061.362.9.9,0,0,0,.171.287.809.809,0,0,0,.257.192.751.751,0,0,0,.635,0,.791.791,0,0,0,.257-.194.931.931,0,0,0,.171-.289,1.036,1.036,0,0,0,.061-.362,1.048,1.048,0,0,0-.061-.36.924.924,0,0,0-.171-.292.776.776,0,0,0-.257-.193.727.727,0,0,0-.317-.071.7.7,0,0,0-.313.072.816.816,0,0,0-.257.2.966.966,0,0,0-.174.292A1,1,0,0,0,142.286,211.823Z" transform="translate(-109.21 -209.393)" fill="#4f4f4f"/>
          <path id="Path_1504" data-name="Path 1504" d="M146.843,210.957a1.25,1.25,0,0,0-.585.152.832.832,0,0,0-.366.406v1.655h-.569v-2.7h.528v.6a1.364,1.364,0,0,1,.37-.455.76.76,0,0,1,.478-.176h.086a.288.288,0,0,1,.059.005Z" transform="translate(-109.559 -209.395)" fill="#4f4f4f"/>
          <path id="Path_1505" data-name="Path 1505" d="M148.47,213.11a1.189,1.189,0,0,1-.514-.111,1.264,1.264,0,0,1-.406-.3,1.426,1.426,0,0,1-.267-.446,1.527,1.527,0,0,1-.095-.542,1.62,1.62,0,0,1,.09-.546,1.382,1.382,0,0,1,.25-.444,1.209,1.209,0,0,1,.386-.3,1.083,1.083,0,0,1,.488-.11,1.045,1.045,0,0,1,.564.155,1.119,1.119,0,0,1,.388.4v-1.582h.568v3.1a.162.162,0,0,0,.165.186v.486c-.059.01-.11.017-.155.021s-.087.005-.125.005c-.213-.021-.334-.119-.362-.295l-.011-.222a1.06,1.06,0,0,1-.413.4A1.148,1.148,0,0,1,148.47,213.11Zm.146-.485a.708.708,0,0,0,.228-.042.958.958,0,0,0,.222-.114.9.9,0,0,0,.181-.171.6.6,0,0,0,.108-.212v-.709a.887.887,0,0,0-.129-.23,1.023,1.023,0,0,0-.189-.186.859.859,0,0,0-.225-.124.7.7,0,0,0-.566.033.816.816,0,0,0-.254.207.938.938,0,0,0-.163.3,1.065,1.065,0,0,0-.056.344.948.948,0,0,0,.064.351.922.922,0,0,0,.175.287.833.833,0,0,0,.267.193A.775.775,0,0,0,148.615,212.625Z" transform="translate(-109.738 -209.284)" fill="#4f4f4f"/>
          <path id="Path_1506" data-name="Path 1506" d="M151.378,211.922a1.178,1.178,0,0,1,.09-.476.8.8,0,0,1,.338-.357c.059-.034.127-.072.207-.116a1.389,1.389,0,0,0,.225-.153.859.859,0,0,0,.181-.206.509.509,0,0,0,.075-.28.521.521,0,0,0-.046-.222.488.488,0,0,0-.127-.165.567.567,0,0,0-.182-.1.653.653,0,0,0-.21-.033.676.676,0,0,0-.23.038.764.764,0,0,0-.193.1.831.831,0,0,0-.155.147,1.2,1.2,0,0,0-.114.165l-.378-.253a1.032,1.032,0,0,1,.437-.494,1.26,1.26,0,0,1,.644-.173,1.278,1.278,0,0,1,.382.06.964.964,0,0,1,.339.181.924.924,0,0,1,.24.313,1.025,1.025,0,0,1,.093.455,1,1,0,0,1-.044.315.8.8,0,0,1-.124.24.856.856,0,0,1-.191.183,2.23,2.23,0,0,1-.24.145c-.066.035-.131.071-.2.108a.893.893,0,0,0-.176.135.636.636,0,0,0-.127.184.606.606,0,0,0-.049.256Zm.01,1.142v-.652h.475v.652Z" transform="translate(-110.091 -209.29)" fill="#4f4f4f"/>
          <path id="Path_1507" data-name="Path 1507" d="M155.048,211.205a1.917,1.917,0,0,1,.119-.659,1.888,1.888,0,0,1,.343-.589,1.725,1.725,0,0,1,.55-.421,1.662,1.662,0,0,1,.74-.161,1.549,1.549,0,0,1,.845.223,1.41,1.41,0,0,1,.53.578l-.455.306a.955.955,0,0,0-.181-.279.927.927,0,0,0-.236-.182,1.008,1.008,0,0,0-.261-.095,1.267,1.267,0,0,0-.263-.029,1.022,1.022,0,0,0-.494.117,1.091,1.091,0,0,0-.359.307,1.374,1.374,0,0,0-.218.429,1.64,1.64,0,0,0-.072.475,1.537,1.537,0,0,0,.086.512,1.362,1.362,0,0,0,.24.428,1.188,1.188,0,0,0,.367.3.987.987,0,0,0,.465.112,1.173,1.173,0,0,0,.271-.034.952.952,0,0,0,.269-.108,1.094,1.094,0,0,0,.235-.189.968.968,0,0,0,.181-.274l.481.274a1.155,1.155,0,0,1-.246.365,1.6,1.6,0,0,1-.353.267,1.737,1.737,0,0,1-.419.165,1.765,1.765,0,0,1-.439.057,1.484,1.484,0,0,1-.7-.165,1.85,1.85,0,0,1-.545-.432,1.971,1.971,0,0,1-.356-.6A1.945,1.945,0,0,1,155.048,211.205Z" transform="translate(-110.494 -209.293)" fill="#4f4f4f"/>
          <path id="Path_1508" data-name="Path 1508" d="M159.087,209.284h.568v2.978a.338.338,0,0,0,.078.235.278.278,0,0,0,.217.086.577.577,0,0,0,.135-.019.733.733,0,0,0,.145-.049l.082.461a1.32,1.32,0,0,1-.295.09,1.645,1.645,0,0,1-.3.033.633.633,0,0,1-.46-.16.6.6,0,0,1-.165-.456Z" transform="translate(-110.882 -209.284)" fill="#4f4f4f"/>
          <path id="Path_1509" data-name="Path 1509" d="M160.786,209.909v-.625h.568v.625Zm0,3.149v-2.7h.568v2.7Z" transform="translate(-111.046 -209.284)" fill="#4f4f4f"/>
          <path id="Path_1510" data-name="Path 1510" d="M161.97,211.813a1.464,1.464,0,0,1,.1-.538,1.325,1.325,0,0,1,.281-.445,1.354,1.354,0,0,1,.442-.3,1.455,1.455,0,0,1,.579-.11,1.358,1.358,0,0,1,.721.183,1.157,1.157,0,0,1,.452.488l-.552.176a.718.718,0,0,0-.264-.267.729.729,0,0,0-.367-.1.753.753,0,0,0-.318.068.772.772,0,0,0-.257.188.893.893,0,0,0-.17.287,1.033,1.033,0,0,0-.062.367,1,1,0,0,0,.065.364.917.917,0,0,0,.175.292.818.818,0,0,0,.258.194.716.716,0,0,0,.313.071.777.777,0,0,0,.207-.029.752.752,0,0,0,.189-.08.726.726,0,0,0,.15-.119.448.448,0,0,0,.1-.145l.558.165a1.109,1.109,0,0,1-.449.5,1.519,1.519,0,0,1-1.319.08,1.33,1.33,0,0,1-.442-.307,1.394,1.394,0,0,1-.285-.447A1.447,1.447,0,0,1,161.97,211.813Z" transform="translate(-111.16 -209.393)" fill="#4f4f4f"/>
          <path id="Path_1511" data-name="Path 1511" d="M167.233,213.058l-.863-1.246-.45.424v.822h-.568v-3.774h.568v2.394l1.246-1.319h.615l-1.045,1.132,1.106,1.567Z" transform="translate(-111.485 -209.284)" fill="#4f4f4f"/>
          <path id="Path_1512" data-name="Path 1512" d="M172.982,209.4v3.671H172.4v-1.619h-1.851v1.619h-.579V209.4h.579v1.536H172.4V209.4Z" transform="translate(-111.929 -209.295)" fill="#4f4f4f"/>
          <path id="Path_1513" data-name="Path 1513" d="M175.345,213.219a1.442,1.442,0,0,1-.575-.111,1.334,1.334,0,0,1-.441-.3,1.361,1.361,0,0,1-.285-.446,1.425,1.425,0,0,1-.1-.537,1.447,1.447,0,0,1,.1-.54,1.372,1.372,0,0,1,.285-.45,1.33,1.33,0,0,1,.441-.305,1.455,1.455,0,0,1,.579-.11,1.368,1.368,0,0,1,1.009.416,1.3,1.3,0,0,1,.277.439,1.454,1.454,0,0,1,.1.525q0,.062-.005.117c0,.036-.007.066-.01.09h-2.166a.928.928,0,0,0,.085.325.842.842,0,0,0,.181.25.78.78,0,0,0,.254.164.788.788,0,0,0,.3.057.9.9,0,0,0,.224-.029.786.786,0,0,0,.2-.082.713.713,0,0,0,.165-.132.613.613,0,0,0,.114-.171l.486.139a1.126,1.126,0,0,1-.463.5A1.435,1.435,0,0,1,175.345,213.219Zm.822-1.608a.911.911,0,0,0-.085-.315.829.829,0,0,0-.179-.246.8.8,0,0,0-.253-.157.825.825,0,0,0-.3-.057.814.814,0,0,0-.554.214.775.775,0,0,0-.175.246.928.928,0,0,0-.082.315Z" transform="translate(-112.311 -209.393)" fill="#4f4f4f"/>
          <path id="Path_1514" data-name="Path 1514" d="M179.05,210.957a1.25,1.25,0,0,0-.585.152.832.832,0,0,0-.366.406v1.655h-.569v-2.7h.528v.6a1.364,1.364,0,0,1,.37-.455.762.762,0,0,1,.478-.176h.085a.291.291,0,0,1,.06.005Z" transform="translate(-112.656 -209.395)" fill="#4f4f4f"/>
          <path id="Path_1515" data-name="Path 1515" d="M180.888,213.219a1.442,1.442,0,0,1-.575-.111,1.335,1.335,0,0,1-.441-.3,1.362,1.362,0,0,1-.285-.446,1.425,1.425,0,0,1-.1-.537,1.447,1.447,0,0,1,.1-.54,1.372,1.372,0,0,1,.285-.45,1.33,1.33,0,0,1,.441-.305,1.455,1.455,0,0,1,.579-.11,1.368,1.368,0,0,1,1.009.416,1.3,1.3,0,0,1,.277.439,1.454,1.454,0,0,1,.1.525q0,.062-.005.117c0,.036-.007.066-.01.09h-2.166a.929.929,0,0,0,.085.325.843.843,0,0,0,.181.25.786.786,0,0,0,.253.164.8.8,0,0,0,.3.057.9.9,0,0,0,.224-.029.787.787,0,0,0,.2-.082.714.714,0,0,0,.165-.132.613.613,0,0,0,.114-.171l.486.139a1.131,1.131,0,0,1-.463.5A1.435,1.435,0,0,1,180.888,213.219Zm.822-1.608a.91.91,0,0,0-.085-.315.829.829,0,0,0-.179-.246.8.8,0,0,0-.253-.157.825.825,0,0,0-.3-.057.814.814,0,0,0-.554.214.775.775,0,0,0-.175.246.928.928,0,0,0-.082.315Z" transform="translate(-112.844 -209.393)" fill="#4f4f4f"/>
          <path id="Path_1516" data-name="Path 1516" d="M154.842,214v-.258h25.185V214Z" transform="translate(-110.474 -209.713)" fill="#4f4f4f"/>
        </g>
      </g>
    </g>
  </g>
</svg>
