<svg xmlns="http://www.w3.org/2000/svg" xmlns:xlink="http://www.w3.org/1999/xlink" width="263" height="208" viewBox="0 0 263 208">
  <defs>
    <filter id="Rectangle_1883" x="0" y="0" width="263" height="208" filterUnits="userSpaceOnUse">
      <feOffset dy="3" input="SourceAlpha"/>
      <feGaussianBlur stdDeviation="10" result="blur"/>
      <feFlood flood-opacity="0.161"/>
      <feComposite operator="in" in2="blur"/>
      <feComposite in="SourceGraphic"/>
    </filter>
  </defs>
  <g id="Group_4487" data-name="Group 4487" transform="translate(-825 -6456.5)">
    <g id="Group_3705" data-name="Group 3705" transform="translate(855.146 6483.04)">
      <g id="Group_3649" data-name="Group 3649" transform="translate(0 0)">
        <g transform="matrix(1, 0, 0, 1, -30.15, -26.54)" filter="url(#Rectangle_1883)">
          <rect id="Rectangle_1883-2" data-name="Rectangle 1883" width="203" height="148" rx="10" transform="translate(30 27)" fill="#fdfdfd"/>
        </g>
        <path id="Rectangle_1884" data-name="Rectangle 1884" d="M10,0H193a10,10,0,0,1,10,10v2a0,0,0,0,1,0,0H0a0,0,0,0,1,0,0V10A10,10,0,0,1,10,0Z" transform="translate(-0.146 0.46)" fill="#1e4d99"/>
        <path id="Union_2" data-name="Union 2" d="M0,24V9.778H15.418V5a5,5,0,0,1,5-5H48.962a5,5,0,0,1,5,5V9.778H203V24Z" transform="translate(-0.146 2.46)" fill="#0086e3"/>
        <rect id="Rectangle_1887" data-name="Rectangle 1887" width="172" height="9" rx="4.5" transform="translate(28.854 14.46)" fill="#fff"/>
        <path id="Icon_ionic-ios-search" data-name="Icon ionic-ios-search" d="M9.347,9.044,7.983,7.667a1.944,1.944,0,1,0-.3.3L9.043,9.334a.21.21,0,0,0,.3.008A.211.211,0,0,0,9.347,9.044ZM6.456,7.983a1.535,1.535,0,1,1,1.086-.45A1.526,1.526,0,0,1,6.456,7.983Z" transform="translate(26.879 12.148)"/>
        <path id="Icon_ionic-ios-arrow-round-back" data-name="Icon ionic-ios-arrow-round-back" d="M10.485,11.343a.326.326,0,0,1,0,.459l-1.515,1.52h5.773a.324.324,0,0,1,0,.649H8.973l1.518,1.52a.328.328,0,0,1,0,.459.323.323,0,0,1-.457,0L7.974,13.877h0a.364.364,0,0,1-.067-.1.31.31,0,0,1-.025-.125.325.325,0,0,1,.092-.227l2.057-2.072A.318.318,0,0,1,10.485,11.343Z" transform="translate(-3.703 6.155)" fill="#fff"/>
        <path id="Icon_ionic-ios-arrow-round-back-2" data-name="Icon ionic-ios-arrow-round-back" d="M12.464,11.343a.326.326,0,0,0,0,.459l1.515,1.52H8.2a.324.324,0,0,0,0,.649h5.773l-1.517,1.52a.329.329,0,0,0,0,.459.323.323,0,0,0,.457,0l2.056-2.072h0a.364.364,0,0,0,.067-.1.31.31,0,0,0,.025-.125.325.325,0,0,0-.092-.227l-2.056-2.072A.318.318,0,0,0,12.464,11.343Z" transform="translate(8.68 6.155)" fill="#fff"/>
        <path id="Icon_ionic-ios-close" data-name="Icon ionic-ios-close" d="M12.875,12.574l.918-.918a.215.215,0,0,0-.3-.3l-.918.918-.918-.918a.215.215,0,1,0-.3.3l.918.918-.918.918a.215.215,0,1,0,.3.3l.918-.918.918.918a.215.215,0,1,0,.3-.3Z" transform="translate(36.919 -5.841)" fill="#fff"/>
      </g>
    </g>
    <g id="Group_3712" data-name="Group 3712" transform="translate(865.025 6525.522)">
      <g id="Group_3711" data-name="Group 3711" transform="translate(0 0)">
        <rect id="Rectangle_1904" data-name="Rectangle 1904" width="34" height="15" rx="3" transform="translate(-0.025 71.978)" fill="#eff7fe"/>
        <rect id="Rectangle_1909" data-name="Rectangle 1909" width="33" height="15" rx="3" transform="translate(37.975 71.978)" fill="#eff7fe"/>
        <rect id="Rectangle_1914" data-name="Rectangle 1914" width="34" height="15" rx="3" transform="translate(73.975 71.978)" fill="#eff7fe"/>
        <rect id="Rectangle_1919" data-name="Rectangle 1919" width="33" height="15" rx="3" transform="translate(111.975 71.978)" fill="#eff7fe"/>
        <rect id="Rectangle_1924" data-name="Rectangle 1924" width="34" height="15" rx="3" transform="translate(147.975 71.978)" fill="#eff7fe"/>
        <g id="Group_3710" data-name="Group 3710">
          <rect id="Rectangle_1900" data-name="Rectangle 1900" width="34" height="15" rx="3" transform="translate(-0.025 -0.022)" fill="#19a2d0"/>
          <rect id="Rectangle_1901" data-name="Rectangle 1901" width="34" height="15" rx="3" transform="translate(-0.025 17.978)" fill="#eff7fe"/>
          <rect id="Rectangle_1902" data-name="Rectangle 1902" width="34" height="15" rx="3" transform="translate(-0.025 35.978)" fill="#eff7fe"/>
          <rect id="Rectangle_1903" data-name="Rectangle 1903" width="34" height="15" rx="3" transform="translate(-0.025 53.978)" fill="#eff7fe"/>
          <rect id="Rectangle_1905" data-name="Rectangle 1905" width="33" height="15" rx="3" transform="translate(37.975 -0.022)" fill="#19a2d0"/>
          <rect id="Rectangle_1906" data-name="Rectangle 1906" width="33" height="15" rx="3" transform="translate(37.975 17.978)" fill="#eff7fe"/>
          <rect id="Rectangle_1907" data-name="Rectangle 1907" width="33" height="15" rx="3" transform="translate(37.975 35.978)" fill="#eff7fe"/>
          <g id="Rectangle_1908" data-name="Rectangle 1908" transform="translate(37.975 53.978)" fill="#eff7fe" stroke="#0f5132" stroke-width="1">
            <rect width="33" height="15" rx="3" stroke="none"/>
            <rect x="0.5" y="0.5" width="32" height="14" rx="2.5" fill="none"/>
          </g>
          <rect id="Rectangle_1910" data-name="Rectangle 1910" width="34" height="15" rx="3" transform="translate(73.975 -0.022)" fill="#19a2d0"/>
          <rect id="Rectangle_1911" data-name="Rectangle 1911" width="34" height="15" rx="3" transform="translate(73.975 17.978)" fill="#eff7fe"/>
          <g id="Rectangle_1912" data-name="Rectangle 1912" transform="translate(73.975 35.978)" fill="#eff7fe" stroke="#0f5132" stroke-width="1">
            <rect width="34" height="15" rx="3" stroke="none"/>
            <rect x="0.5" y="0.5" width="33" height="14" rx="2.5" fill="none"/>
          </g>
          <rect id="Rectangle_1913" data-name="Rectangle 1913" width="34" height="15" rx="3" transform="translate(73.975 53.978)" fill="#eff7fe"/>
          <rect id="Rectangle_1915" data-name="Rectangle 1915" width="33" height="15" rx="3" transform="translate(111.975 -0.022)" fill="#19a2d0"/>
          <rect id="Rectangle_1916" data-name="Rectangle 1916" width="33" height="15" rx="3" transform="translate(111.975 17.978)" fill="#eff7fe"/>
          <rect id="Rectangle_1917" data-name="Rectangle 1917" width="33" height="15" rx="3" transform="translate(111.975 35.978)" fill="#eff7fe"/>
          <rect id="Rectangle_1918" data-name="Rectangle 1918" width="33" height="15" rx="3" transform="translate(111.975 53.978)" fill="#eff7fe"/>
          <rect id="Rectangle_1920" data-name="Rectangle 1920" width="34" height="15" rx="3" transform="translate(147.975 -0.022)" fill="#19a2d0"/>
          <rect id="Rectangle_1921" data-name="Rectangle 1921" width="34" height="15" rx="3" transform="translate(147.975 17.978)" fill="#eff7fe"/>
          <rect id="Rectangle_1922" data-name="Rectangle 1922" width="34" height="15" rx="3" transform="translate(147.975 35.978)" fill="#eff7fe"/>
          <rect id="Rectangle_1923" data-name="Rectangle 1923" width="34" height="15" rx="3" transform="translate(147.975 53.978)" fill="#eff7fe"/>
          <path id="Icon_awesome-check-circle" data-name="Icon awesome-check-circle" d="M8.666,4.614A4.052,4.052,0,1,1,4.614.563,4.052,4.052,0,0,1,8.666,4.614ZM4.145,6.759,7.151,3.753a.261.261,0,0,0,0-.37l-.37-.37a.261.261,0,0,0-.37,0L3.961,5.465,2.816,4.321a.261.261,0,0,0-.37,0l-.37.37a.261.261,0,0,0,0,.37l1.7,1.7a.261.261,0,0,0,.37,0Z" transform="translate(49.334 56.798)" fill="#0f5132"/>
          <path id="Icon_awesome-check-circle-2" data-name="Icon awesome-check-circle" d="M8.666,4.614A4.052,4.052,0,1,1,4.614.563,4.052,4.052,0,0,1,8.666,4.614ZM4.145,6.759,7.151,3.753a.261.261,0,0,0,0-.37l-.37-.37a.261.261,0,0,0-.37,0L3.961,5.465,2.816,4.321a.261.261,0,0,0-.37,0l-.37.37a.261.261,0,0,0,0,.37l1.7,1.7a.261.261,0,0,0,.37,0Z" transform="translate(86.391 38.721)" fill="#0f5132"/>
          <text id="MONDAY" transform="translate(5.975 7.978)" fill="#fff" font-size="4" font-family="Kanit-Regular, Kanit"><tspan x="0" y="0">MONDAY</tspan></text>
          <text id="TUESDAY" transform="translate(42.975 7.978)" fill="#fff" font-size="4" font-family="Kanit-Regular, Kanit"><tspan x="0" y="0">TUESDAY</tspan></text>
          <text id="WEDNESDAY" transform="translate(75.975 7.978)" fill="#fff" font-size="4" font-family="Kanit-Regular, Kanit"><tspan x="0" y="0">WEDNESDAY</tspan></text>
          <text id="THURSDAY" transform="translate(115.975 7.978)" fill="#fff" font-size="4" font-family="Kanit-Regular, Kanit"><tspan x="0" y="0">THURSDAY</tspan></text>
          <text id="FRIDAY" transform="translate(155.975 7.978)" fill="#fff" font-size="4" font-family="Kanit-Regular, Kanit"><tspan x="0" y="0">FRIDAY</tspan></text>
        </g>
      </g>
      <path id="Icon_awesome-mouse-pointer" data-name="Icon awesome-mouse-pointer" d="M7.885,8.588H5.117l1.457,3.548a.485.485,0,0,1-.246.626l-1.283.559a.462.462,0,0,1-.609-.253L3.051,9.7.79,12.024A.462.462,0,0,1,0,11.689V.477A.462.462,0,0,1,.79.142L8.211,7.775A.478.478,0,0,1,7.885,8.588Z" transform="translate(104.11 45.594)"/>
    </g>
  </g>
</svg>
