<svg xmlns="http://www.w3.org/2000/svg" xmlns:xlink="http://www.w3.org/1999/xlink" width="263" height="208" viewBox="0 0 263 208">
  <defs>
    <filter id="Rectangle_1883" x="0" y="0" width="263" height="208" filterUnits="userSpaceOnUse">
      <feOffset dy="3" input="SourceAlpha"/>
      <feGaussianBlur stdDeviation="10" result="blur"/>
      <feFlood flood-opacity="0.161"/>
      <feComposite operator="in" in2="blur"/>
      <feComposite in="SourceGraphic"/>
    </filter>
  </defs>
  <g id="Group_4489" data-name="Group 4489" transform="translate(-1145 -6456.5)">
    <g id="Group_3707" data-name="Group 3707" transform="translate(1175.242 6483.041)">
      <g id="Group_3649" data-name="Group 3649" transform="translate(0 0)">
        <g transform="matrix(1, 0, 0, 1, -30.24, -26.54)" filter="url(#Rectangle_1883)">
          <rect id="Rectangle_1883-2" data-name="Rectangle 1883" width="203" height="148" rx="10" transform="translate(30 27)" fill="#fdfdfd"/>
        </g>
        <path id="Rectangle_1884" data-name="Rectangle 1884" d="M10,0H193a10,10,0,0,1,10,10v2a0,0,0,0,1,0,0H0a0,0,0,0,1,0,0V10A10,10,0,0,1,10,0Z" transform="translate(-0.242 0.459)" fill="#1e4d99"/>
        <path id="Union_2" data-name="Union 2" d="M0,24V9.778H15.418V5a5,5,0,0,1,5-5H48.962a5,5,0,0,1,5,5V9.778H203V24Z" transform="translate(-0.242 2.459)" fill="#0086e3"/>
        <rect id="Rectangle_1887" data-name="Rectangle 1887" width="171" height="9" rx="4.5" transform="translate(28.758 14.459)" fill="#fff"/>
        <path id="Icon_ionic-ios-search" data-name="Icon ionic-ios-search" d="M9.347,9.044,7.983,7.667a1.944,1.944,0,1,0-.3.3L9.043,9.334a.21.21,0,0,0,.3.008A.211.211,0,0,0,9.347,9.044ZM6.456,7.983a1.535,1.535,0,1,1,1.086-.45A1.526,1.526,0,0,1,6.456,7.983Z" transform="translate(26.737 12.148)"/>
        <path id="Icon_ionic-ios-arrow-round-back" data-name="Icon ionic-ios-arrow-round-back" d="M10.485,11.343a.326.326,0,0,1,0,.459l-1.515,1.52h5.773a.324.324,0,0,1,0,.649H8.973l1.518,1.52a.328.328,0,0,1,0,.459.323.323,0,0,1-.457,0L7.974,13.877h0a.364.364,0,0,1-.067-.1.31.31,0,0,1-.025-.125.325.325,0,0,1,.092-.227l2.057-2.072A.318.318,0,0,1,10.485,11.343Z" transform="translate(-3.845 6.155)" fill="#fff"/>
        <path id="Icon_ionic-ios-arrow-round-back-2" data-name="Icon ionic-ios-arrow-round-back" d="M12.464,11.343a.326.326,0,0,0,0,.459l1.515,1.52H8.2a.324.324,0,0,0,0,.649h5.773l-1.517,1.52a.329.329,0,0,0,0,.459.323.323,0,0,0,.457,0l2.056-2.072h0a.364.364,0,0,0,.067-.1.31.31,0,0,0,.025-.125.325.325,0,0,0-.092-.227l-2.056-2.072A.318.318,0,0,0,12.464,11.343Z" transform="translate(8.538 6.155)" fill="#fff"/>
        <path id="Icon_ionic-ios-close" data-name="Icon ionic-ios-close" d="M12.875,12.574l.918-.918a.215.215,0,0,0-.3-.3l-.918.918-.918-.918a.215.215,0,1,0-.3.3l.918.918-.918.918a.215.215,0,1,0,.3.3l.918-.918.918.918a.215.215,0,1,0,.3-.3Z" transform="translate(36.777 -5.841)" fill="#fff"/>
      </g>
    </g>
    <g id="Group_3733" data-name="Group 3733" transform="translate(1239.813 6517.969)">
      <g id="Group_3732" data-name="Group 3732" transform="translate(0 0)">
        <g id="Group_3716" data-name="Group 3716" transform="translate(30.726 71.639)">
          <g id="Group_3714" data-name="Group 3714">
            <path id="Path_1518" data-name="Path 1518" d="M177.872,332.8h-.615v2.066a.213.213,0,0,1-.426,0V332.8h-.611a.215.215,0,0,1-.213-.217.209.209,0,0,1,.213-.213h1.652a.212.212,0,0,1,.213.213A.218.218,0,0,1,177.872,332.8Z" transform="translate(-176.007 -332.296)" fill="#263238"/>
            <path id="Path_1519" data-name="Path 1519" d="M182.386,332.653a1.422,1.422,0,0,1,0,1.958,1.267,1.267,0,0,1-.925.414,1.3,1.3,0,0,1-.948-.414,1.443,1.443,0,0,1,0-1.958,1.292,1.292,0,0,1,.948-.414A1.255,1.255,0,0,1,182.386,332.653Zm-.05.979a1,1,0,0,0-.263-.677.835.835,0,0,0-1.238,0,.984.984,0,0,0-.263.677.964.964,0,0,0,.263.673.826.826,0,0,0,1.238,0A.985.985,0,0,0,182.335,333.632Z" transform="translate(-177.748 -332.239)" fill="#263238"/>
            <path id="Path_1520" data-name="Path 1520" d="M187.161,332.8h-.615v2.066a.21.21,0,0,1-.213.213.212.212,0,0,1-.213-.213V332.8h-.611a.215.215,0,0,1-.213-.217.209.209,0,0,1,.213-.213h1.652a.212.212,0,0,1,.213.213A.218.218,0,0,1,187.161,332.8Z" transform="translate(-179.93 -332.296)" fill="#263238"/>
            <path id="Path_1521" data-name="Path 1521" d="M190.621,334.447h-.94l-.19.5a.218.218,0,0,1-.2.135.228.228,0,0,1-.073-.011.22.22,0,0,1-.128-.279l.855-2.279a.217.217,0,0,1,.205-.136.213.213,0,0,1,.205.136l.855,2.279a.22.22,0,0,1-.128.279.212.212,0,0,1-.073.011.209.209,0,0,1-.2-.135Zm-.158-.426-.314-.832-.313.832Z" transform="translate(-181.525 -332.298)" fill="#263238"/>
            <path id="Path_1522" data-name="Path 1522" d="M193.683,334.869v-2.283a.212.212,0,0,1,.213-.213.216.216,0,0,1,.217.213v2.066h1.049a.215.215,0,0,1,0,.429H193.9A.212.212,0,0,1,193.683,334.869Z" transform="translate(-183.47 -332.296)" fill="#263238"/>
          </g>
        </g>
        <line id="Line_697" data-name="Line 697" x2="73.246" transform="translate(0 65.917)" fill="none" stroke="#ebebeb" stroke-miterlimit="10" stroke-width="0.5"/>
        <g id="Group_3720" data-name="Group 3720" transform="translate(20.348 90.76)">
          <rect id="Rectangle_1925" data-name="Rectangle 1925" width="31.952" height="8.899" transform="translate(0)" fill="#0086e3"/>
          <g id="Group_3719" data-name="Group 3719" transform="translate(4.605 2.441)">
            <g id="Group_3717" data-name="Group 3717" transform="translate(5.53 0.615)">
              <path id="Path_1530" data-name="Path 1530" d="M176.491,372.413h-.476v.84a.215.215,0,0,1-.429,0V370.97a.212.212,0,0,1,.213-.213h.692a.828.828,0,1,1,0,1.656Zm-.476-.429h.476a.4.4,0,1,0,0-.8h-.476Z" transform="translate(-175.586 -370.68)" fill="#fff"/>
              <path id="Path_1531" data-name="Path 1531" d="M180.281,372.83h-.94l-.19.5a.217.217,0,0,1-.2.136.235.235,0,0,1-.073-.012.22.22,0,0,1-.128-.279l.855-2.279a.217.217,0,0,1,.206-.135.212.212,0,0,1,.2.135l.855,2.279a.22.22,0,0,1-.128.279.213.213,0,0,1-.073.012.209.209,0,0,1-.2-.136Zm-.158-.426-.313-.832-.314.832Z" transform="translate(-176.916 -370.682)" fill="#fff"/>
              <path id="Path_1532" data-name="Path 1532" d="M184.606,371.142l-.793,1.087v1.045a.21.21,0,0,1-.213.213.215.215,0,0,1-.213-.213v-1.045l-.785-1.087a.2.2,0,0,1,.043-.294.206.206,0,0,1,.294.046l.662.905.662-.905a.212.212,0,0,1,.3-.046A.214.214,0,0,1,184.606,371.142Z" transform="translate(-178.529 -370.7)" fill="#fff"/>
              <path id="Path_1533" data-name="Path 1533" d="M189.32,373.273a.214.214,0,0,1-.209.213.212.212,0,0,1-.213-.213v-2.252a.209.209,0,0,1,.085-.178.213.213,0,0,1,.294.046l1.25,1.73v-1.594a.21.21,0,0,1,.209-.209.214.214,0,0,1,.213.209v2.248a.214.214,0,0,1-.213.213.211.211,0,0,1-.158-.077.128.128,0,0,1-.019-.023l-1.238-1.718Z" transform="translate(-181.207 -370.699)" fill="#fff"/>
              <path id="Path_1534" data-name="Path 1534" d="M195.766,371.037a1.422,1.422,0,0,1,0,1.958,1.27,1.27,0,0,1-.926.414,1.307,1.307,0,0,1-.948-.414,1.443,1.443,0,0,1,0-1.958,1.292,1.292,0,0,1,.948-.414A1.255,1.255,0,0,1,195.766,371.037Zm-.051.979a1,1,0,0,0-.263-.677.835.835,0,0,0-1.238,0,.983.983,0,0,0-.263.677.964.964,0,0,0,.263.673.826.826,0,0,0,1.238,0A.983.983,0,0,0,195.715,372.016Z" transform="translate(-183.154 -370.623)" fill="#fff"/>
              <path id="Path_1535" data-name="Path 1535" d="M202.635,371.1l-.948,2.256a.1.1,0,0,1-.019.035l0,0a.1.1,0,0,1-.019.023c0,.008,0,.008,0,.012a.1.1,0,0,0-.027.019h0c-.012.008-.02.019-.035.023h0a0,0,0,0,0,0,0,.143.143,0,0,0-.031.008h-.008a.113.113,0,0,1-.039,0,.1.1,0,0,1-.035,0h-.012a.107.107,0,0,0-.027-.008s0,0-.007,0a.082.082,0,0,1-.035-.023h0a.256.256,0,0,0-.027-.019.044.044,0,0,1-.008-.012c0-.008-.012-.016-.015-.023s-.008,0-.008,0a.109.109,0,0,1-.016-.035l-.507-1.2-.507,1.2c0,.012-.012.027-.016.035a0,0,0,0,0,0,0l-.023.023c0,.008,0,.008,0,.012a.077.077,0,0,0-.023.019h-.009c-.011.008-.023.019-.031.023h0s0,0,0,0a.064.064,0,0,0-.031.008h-.012a.1.1,0,0,1-.035,0,.123.123,0,0,1-.039,0h-.012a.126.126,0,0,0-.027-.008s0,0-.008,0a.122.122,0,0,1-.035-.023h0c-.012-.008-.016-.016-.028-.019l-.008-.012c-.008-.008-.012-.016-.019-.023v0a.322.322,0,0,1-.02-.035l-.952-2.256a.211.211,0,0,1,.391-.162l.759,1.792.5-1.188a.214.214,0,0,1,.2-.132.22.22,0,0,1,.2.132l.5,1.188.755-1.792a.214.214,0,0,1,.282-.113A.209.209,0,0,1,202.635,371.1Z" transform="translate(-185.44 -370.701)" fill="#fff"/>
            </g>
            <g id="Group_3718" data-name="Group 3718">
              <rect id="Rectangle_1926" data-name="Rectangle 1926" width="2.933" height="2.153" transform="translate(0 1.657)" fill="#fff"/>
              <path id="Path_1536" data-name="Path 1536" d="M168.852,371.349h-.414c0-1.029-.166-1.376-.658-1.376-.556,0-.735.335-.735,1.376h-.414c0-.626,0-1.79,1.149-1.79C168.852,369.558,168.852,370.723,168.852,371.349Z" transform="translate(-166.275 -369.558)" fill="#fff"/>
            </g>
          </g>
        </g>
        <g id="Group_3726" data-name="Group 3726" transform="translate(1.946 0)">
          <g id="Group_3722" data-name="Group 3722" transform="translate(18.311 11.228)">
            <path id="Path_1537" data-name="Path 1537" d="M208.179,234.715l-2.665,26.624a2.707,2.707,0,0,1-2.962,2.426l-42.228-4.227a2.707,2.707,0,0,1-2.423-2.965l2.665-26.624a2.52,2.52,0,0,1,2.758-2.257l42.6,4.264A2.52,2.52,0,0,1,208.179,234.715Z" transform="translate(-157.887 -227.68)" fill="#37474f"/>
            <rect id="Rectangle_1927" data-name="Rectangle 1927" width="47.859" height="5.954" transform="translate(2.153 7.618) rotate(5.865)" fill="#263238"/>
            <rect id="Rectangle_1928" data-name="Rectangle 1928" width="41.544" height="3.341" transform="translate(4.481 15.923) rotate(5.865)" fill="#fff"/>
            <g id="Group_3721" data-name="Group 3721" transform="translate(40.866 20.489)">
              <path id="Path_1538" data-name="Path 1538" d="M228.976,263.31l-.269.124a.06.06,0,0,1-.083-.029.06.06,0,0,1,.032-.083l.367-.176a.065.065,0,0,1,.083.032.073.073,0,0,1,0,.047l-.165,1.651a.061.061,0,0,1-.068.056.062.062,0,0,1-.055-.068Z" transform="translate(-228.618 -263.142)" fill="#263238"/>
              <path id="Path_1539" data-name="Path 1539" d="M229.935,264.939l.915-.673a.47.47,0,0,0,.189-.329.466.466,0,0,0-.417-.506.468.468,0,0,0-.325.087l-.1.07a.062.062,0,1,1-.076-.1l.1-.073a.6.6,0,0,1,.413-.112.593.593,0,0,1,.527.644.593.593,0,0,1-.236.417l-.784.578.85.085a.063.063,0,0,1,.055.07.062.062,0,0,1-.068.055l-1-.1h-.01a.058.058,0,0,1-.044-.023A.068.068,0,0,1,229.935,264.939Z" transform="translate(-229.164 -263.21)" fill="#263238"/>
              <path id="Path_1540" data-name="Path 1540" d="M233.864,263.715l-.512.431a.613.613,0,0,1-.247,1.194.6.6,0,0,1-.411-.223.064.064,0,1,1,.1-.08.49.49,0,0,0,.681.068.479.479,0,0,0,.175-.327.484.484,0,0,0-.432-.528.069.069,0,0,1-.049-.031h0a.065.065,0,0,1,.009-.092l.492-.415-.688-.069a.063.063,0,0,1-.058-.07.063.063,0,0,1,.07-.058l.84.084a.064.064,0,0,1,.058.07.056.056,0,0,1-.01.028A.056.056,0,0,1,233.864,263.715Z" transform="translate(-230.333 -263.299)" fill="#263238"/>
            </g>
            <rect id="Rectangle_1929" data-name="Rectangle 1929" width="32.401" height="0.653" transform="translate(3.786 22.692) rotate(5.865)" fill="#263238"/>
            <rect id="Rectangle_1930" data-name="Rectangle 1930" width="33.806" height="0.653" transform="translate(3.657 23.949) rotate(5.865)" fill="#263238"/>
            <rect id="Rectangle_1931" data-name="Rectangle 1931" width="30.245" height="0.653" transform="translate(3.527 25.206) rotate(5.865)" fill="#263238"/>
            <rect id="Rectangle_1932" data-name="Rectangle 1932" width="25.591" height="0.653" transform="translate(3.398 26.463) rotate(5.865)" fill="#263238"/>
          </g>
          <g id="Group_3725" data-name="Group 3725">
            <path id="Path_1541" data-name="Path 1541" d="M173.448,210.359l4.332,26.4a2.708,2.708,0,0,1-2.232,3.111l-41.879,6.87a2.707,2.707,0,0,1-3.109-2.235l-4.332-26.4a2.52,2.52,0,0,1,2.079-2.895l42.247-6.93A2.519,2.519,0,0,1,173.448,210.359Z" transform="translate(-126.195 -208.247)" fill="#455a64"/>
            <g id="Group_3724" data-name="Group 3724" transform="translate(4.799 5.032)">
              <path id="Path_1542" data-name="Path 1542" d="M199.024,251.568a2.491,2.491,0,1,1-2.861-2.055A2.491,2.491,0,0,1,199.024,251.568Z" transform="translate(-159.655 -230.689)" fill="#fff"/>
              <path id="Path_1543" data-name="Path 1543" d="M204.263,250.709a2.491,2.491,0,1,1-2.862-2.055A2.491,2.491,0,0,1,204.263,250.709Z" transform="translate(-161.866 -230.326)" fill="#0086e3"/>
              <path id="Path_1544" data-name="Path 1544" d="M140.845,232.175l-2.738.449a3.1,3.1,0,0,1-3.565-2.56h0a3.1,3.1,0,0,1,2.56-3.565l2.739-.449a3.1,3.1,0,0,1,3.565,2.56h0A3.1,3.1,0,0,1,140.845,232.175Z" transform="translate(-134.5 -220.779)" fill="#0086e3"/>
              <path id="Path_1545" data-name="Path 1545" d="M195.69,220.339l-4.01.658a1.7,1.7,0,0,1-1.956-1.4h0a1.7,1.7,0,0,1,1.4-1.955l4.01-.658a1.7,1.7,0,0,1,1.955,1.4h0A1.7,1.7,0,0,1,195.69,220.339Z" transform="translate(-157.808 -216.957)" fill="#fff"/>
              <g id="Group_3723" data-name="Group 3723" transform="translate(0.658 11.231)">
                <path id="Path_1546" data-name="Path 1546" d="M136.116,247.895l-.328.273a.085.085,0,0,1-.127-.01.086.086,0,0,1,.013-.127l.447-.382a.1.1,0,0,1,.127.013.109.109,0,0,1,.022.065l.387,2.362a.088.088,0,0,1-.073.1.091.091,0,0,1-.1-.074Z" transform="translate(-135.64 -241.14)" fill="#fff"/>
                <path id="Path_1547" data-name="Path 1547" d="M138.257,249.721l1.023-1.28a.678.678,0,0,0,.14-.529.671.671,0,0,0-.769-.549.677.677,0,0,0-.421.243l-.106.134a.089.089,0,0,1-.142-.109l.106-.138a.875.875,0,0,1,.534-.31.856.856,0,0,1,.975.7.855.855,0,0,1-.173.67l-.876,1.1,1.216-.2a.091.091,0,0,1,.029.18l-1.433.235-.014,0a.084.084,0,0,1-.07-.015A.1.1,0,0,1,138.257,249.721Z" transform="translate(-136.62 -240.946)" fill="#fff"/>
                <path id="Path_1548" data-name="Path 1548" d="M143.278,246.518l-.553.792a.884.884,0,1,1-.552,1.6.092.092,0,1,1,.107-.15.7.7,0,0,0,1.1-.682.7.7,0,0,0-.8-.574.1.1,0,0,1-.08-.025h0a.1.1,0,0,1-.022-.132l.532-.762-.985.161a.093.093,0,0,1-.03-.184l1.2-.2a.092.092,0,0,1,.107.077.074.074,0,0,1,0,.042A.085.085,0,0,1,143.278,246.518Z" transform="translate(-138.287 -240.606)" fill="#fff"/>
                <path id="Path_1549" data-name="Path 1549" d="M147.446,247.776l-1.392.229h-.012a.079.079,0,0,1-.058-.009.087.087,0,0,1-.032-.124l1.184-2.095,0,0a.086.086,0,0,1,.123-.031.107.107,0,0,1,.036.039c0,.007.006.01.006.014l0,.011.289,1.763.173-.028a.089.089,0,1,1,.029.176l-.173.028.072.441a.092.092,0,0,1-.077.1.091.091,0,0,1-.1-.074Zm-.029-.176-.247-1.506L146.2,247.8Z" transform="translate(-139.989 -240.337)" fill="#fff"/>
                <path id="Path_1550" data-name="Path 1550" d="M154.009,246.972a.089.089,0,0,1-.021-.128.094.094,0,0,1,.132-.022.7.7,0,0,0,.518.119.7.7,0,0,0,.574-.8.686.686,0,0,0-.8-.575.69.69,0,0,0-.455.282.09.09,0,0,1-.128.021.059.059,0,0,1-.027-.026v0a.015.015,0,0,1-.005-.01.068.068,0,0,1-.009-.029.169.169,0,0,0,0-.019l-.045-1.056a.078.078,0,0,1,.026-.072.087.087,0,0,1,.055-.032l1.2-.2a.093.093,0,0,1,.107.077.09.09,0,0,1-.077.107l-1.12.184.034.779a.88.88,0,0,1,.418-.19.876.876,0,0,1,1.01.729.876.876,0,0,1-.152.659.907.907,0,0,1-.576.355A.885.885,0,0,1,154.009,246.972Z" transform="translate(-143.284 -239.786)" fill="#fff"/>
                <path id="Path_1551" data-name="Path 1551" d="M157.86,244.582a1.055,1.055,0,0,1,.808-.706.091.091,0,0,1,.106.069.1.1,0,0,1-.073.11.882.882,0,0,0-.673.589,1.691,1.691,0,0,0-.1.544.856.856,0,1,1-.117.623,1.375,1.375,0,0,1-.035-.168A2.15,2.15,0,0,1,157.86,244.582Zm.13,1.186a.179.179,0,0,0,.016.047.057.057,0,0,1,0,.026.69.69,0,1,0-.019-.087Z" transform="translate(-144.974 -239.553)" fill="#fff"/>
                <path id="Path_1552" data-name="Path 1552" d="M162.061,245.771l.581-2.412-1.241.2a.089.089,0,1,1-.029-.176l1.359-.223a.1.1,0,0,1,.055-.006.1.1,0,0,1,.057.047.087.087,0,0,1,.012.028.076.076,0,0,1-.007.05l-.607,2.529a.093.093,0,0,1-.072.068.072.072,0,0,1-.038,0A.1.1,0,0,1,162.061,245.771Z" transform="translate(-146.473 -239.251)" fill="#fff"/>
                <path id="Path_1553" data-name="Path 1553" d="M165.913,242.721a.541.541,0,0,1,.474.915.843.843,0,1,1-.636.1.549.549,0,0,1-.284-.4A.539.539,0,0,1,165.913,242.721Zm.393,2.395a.666.666,0,1,0-.766-.549A.663.663,0,0,0,166.306,245.116Zm-.246-1.5a.371.371,0,0,0,.3-.422.363.363,0,0,0-.716.117A.367.367,0,0,0,166.059,243.617Z" transform="translate(-148.185 -239.064)" fill="#fff"/>
                <path id="Path_1554" data-name="Path 1554" d="M173.7,241.42a.856.856,0,0,1,.968.611c0,.007.005.01.01.017.016.069.031.142.044.22a2.163,2.163,0,0,1-.078,1.065,1.079,1.079,0,0,1-.808.706h0a.089.089,0,0,1-.106-.07.1.1,0,0,1,.073-.11.884.884,0,0,0,.673-.589,1.667,1.667,0,0,0,.1-.544.861.861,0,1,1-.871-1.306Zm.811.734a.679.679,0,1,0-.563.779A.675.675,0,0,0,174.515,242.155Z" transform="translate(-151.407 -238.512)" fill="#fff"/>
                <path id="Path_1555" data-name="Path 1555" d="M177.182,242.174a1.659,1.659,0,0,1,.1-.941.738.738,0,0,1,1.286-.211,1.693,1.693,0,0,1,.4.859,1.666,1.666,0,0,1-.1.937.735.735,0,0,1-1.286.211A1.634,1.634,0,0,1,177.182,242.174Zm.18-.029a1.477,1.477,0,0,0,.347.761.554.554,0,0,0,.985-.161,1.57,1.57,0,0,0-.261-1.594.554.554,0,0,0-.985.161A1.481,1.481,0,0,0,177.361,242.145Z" transform="translate(-153.169 -238.228)" fill="#fff"/>
                <path id="Path_1556" data-name="Path 1556" d="M181.7,240.417l-.329.273a.1.1,0,0,1-.042.021.09.09,0,0,1-.084-.031.086.086,0,0,1,.013-.127l.446-.382a.1.1,0,0,1,.127.013.1.1,0,0,1,.021.064l.388,2.362a.088.088,0,0,1-.073.1.09.09,0,0,1-.1-.073Z" transform="translate(-154.887 -237.982)" fill="#fff"/>
                <path id="Path_1557" data-name="Path 1557" d="M183.842,242.243l1.024-1.281a.674.674,0,0,0,.139-.528.671.671,0,0,0-.768-.549.676.676,0,0,0-.421.242l-.106.135a.09.09,0,0,1-.143-.109l.106-.138a.876.876,0,0,1,.534-.31.856.856,0,0,1,.975.7.858.858,0,0,1-.173.67l-.876,1.1,1.216-.2a.092.092,0,0,1,.1.077.09.09,0,0,1-.074.1l-1.432.235-.014,0a.084.084,0,0,1-.07-.015A.1.1,0,0,1,183.842,242.243Z" transform="translate(-155.868 -237.788)" fill="#fff"/>
                <path id="Path_1558" data-name="Path 1558" d="M192.675,238.414l-.553.792a.874.874,0,0,1,.834.738.869.869,0,0,1-.156.659.882.882,0,0,1-.575.358.865.865,0,0,1-.655-.156.092.092,0,1,1,.107-.15.7.7,0,0,0,1.1-.682.7.7,0,0,0-.8-.574.1.1,0,0,1-.079-.025h0a.094.094,0,0,1-.022-.132l.531-.762-.985.161a.093.093,0,0,1-.029-.184l1.2-.2a.093.093,0,0,1,.107.077.079.079,0,0,1,0,.042A.086.086,0,0,1,192.675,238.414Z" transform="translate(-159.144 -237.184)" fill="#fff"/>
                <path id="Path_1559" data-name="Path 1559" d="M196.844,239.672l-1.392.229h-.011a.079.079,0,0,1-.058-.009.086.086,0,0,1-.032-.123l1.184-2.1,0,0a.086.086,0,0,1,.123-.031.124.124,0,0,1,.036.039c0,.008.005.01.006.014l0,.011.289,1.763.173-.028a.089.089,0,1,1,.029.176l-.173.028.072.441a.091.091,0,0,1-.18.029Zm-.029-.176-.247-1.506-.969,1.7Z" transform="translate(-160.846 -236.915)" fill="#fff"/>
                <path id="Path_1560" data-name="Path 1560" d="M199.595,239.494a.09.09,0,0,1-.021-.129.1.1,0,0,1,.132-.021.7.7,0,0,0,.518.118.7.7,0,0,0,.574-.8.694.694,0,0,0-1.251-.292.09.09,0,0,1-.129.021.054.054,0,0,1-.027-.025v0a.014.014,0,0,1-.006-.01.09.09,0,0,1-.009-.029.153.153,0,0,0,0-.019l-.046-1.057a.081.081,0,0,1,.026-.072.087.087,0,0,1,.055-.031l1.2-.2a.091.091,0,0,1,.106.076.09.09,0,0,1-.076.107l-1.12.184.034.779a.876.876,0,0,1,.418-.189.876.876,0,0,1,1.009.728.871.871,0,0,1-.152.659.9.9,0,0,1-.575.355A.881.881,0,0,1,199.595,239.494Z" transform="translate(-162.532 -236.628)" fill="#fff"/>
                <path id="Path_1561" data-name="Path 1561" d="M203.445,237.1a1.057,1.057,0,0,1,.808-.705.09.09,0,0,1,.106.069.1.1,0,0,1-.072.11.884.884,0,0,0-.673.589,1.71,1.71,0,0,0-.1.545.856.856,0,1,1-.117.622,1.34,1.34,0,0,1-.035-.168A2.153,2.153,0,0,1,203.445,237.1Zm.131,1.186a.19.19,0,0,0,.015.046.059.059,0,0,1,0,.027.7.7,0,1,0-.018-.088Z" transform="translate(-164.222 -236.396)" fill="#fff"/>
              </g>
              <rect id="Rectangle_1933" data-name="Rectangle 1933" width="22.723" height="1.117" transform="translate(2.563 24.654) rotate(-9.317)" fill="#fff"/>
              <rect id="Rectangle_1934" data-name="Rectangle 1934" width="16.087" height="1.117" transform="matrix(0.987, -0.162, 0.162, 0.987, 2.964, 27.102)" fill="#fff"/>
              <rect id="Rectangle_1935" data-name="Rectangle 1935" width="11.333" height="1.117" transform="translate(18.915 3.044) rotate(-9.316)" fill="#fff"/>
            </g>
          </g>
        </g>
        <g id="Group_3731" data-name="Group 3731" transform="translate(5.253 53.77)">
          <rect id="Rectangle_1936" data-name="Rectangle 1936" width="62.74" height="0.803" transform="translate(0)" fill="#dbdbdb"/>
          <rect id="Rectangle_1937" data-name="Rectangle 1937" width="57.748" height="0.803" transform="translate(2.496 1.983)" fill="#dbdbdb"/>
          <rect id="Rectangle_1938" data-name="Rectangle 1938" width="62.74" height="0.803" transform="translate(0 3.965)" fill="#dbdbdb"/>
          <rect id="Rectangle_1939" data-name="Rectangle 1939" width="49.608" height="0.803" transform="translate(6.566 5.948)" fill="#dbdbdb"/>
        </g>
      </g>
      <text id="_1_000.00_THB" data-name="1,000.00 THB" transform="translate(15.188 82.531)" fill="#232323" font-size="6" font-family="Kanit-Regular, Kanit"><tspan x="0" y="0">1,000.00 THB</tspan></text>
    </g>
  </g>
</svg>
