<svg xmlns="http://www.w3.org/2000/svg" width="812.644" height="101" viewBox="0 0 812.644 101">
  <path id="Path_3708" data-name="Path 3708" d="M20.2,8.7q-4.8,0-6.65-2.05A7.537,7.537,0,0,1,11.7,1.4a24.6,24.6,0,0,1,1.2-6.9q1.2-4,2.4-7.7,2-5.7,4.45-12.4T24.9-39.2q2.7-6.9,5.45-13.5T35.6-64.8q-6.9.1-11.65.35t-8.6.65q-3.85.4-8.25,1.2a7.3,7.3,0,0,1,3.7-5.7,24.157,24.157,0,0,1,8.8-2.85A83.243,83.243,0,0,1,32.2-72q5.9,0,10.7.4t9.05.85q4.25.45,8.45.65a2.939,2.939,0,0,1-1.85,2.8,13.381,13.381,0,0,1-4.45.6,11.113,11.113,0,0,1-4,1.35,43.451,43.451,0,0,1-4.8.45q-2.5.1-4.8.1-3.7,9.3-7.8,21.65t-8,26.75q-1.4,5.1-2.45,9T20.65-.25A39.186,39.186,0,0,0,20.1,6.3q0,.5,0,1.1A9.231,9.231,0,0,0,20.2,8.7ZM48.1,3.2q-4.4,0-6.15-2.75A11.754,11.754,0,0,1,40.2-6a22.523,22.523,0,0,1,1-6.45,28.327,28.327,0,0,1,2.7-6.25,17.462,17.462,0,0,1,3.8-4.65,6.577,6.577,0,0,1,4.2-1.75,5.557,5.557,0,0,1,1.25.15,3.943,3.943,0,0,1,1.15.45,19.652,19.652,0,0,0-2.25,3.25,40.27,40.27,0,0,0-2.35,4.8,41.4,41.4,0,0,0-1.8,5.3,18.257,18.257,0,0,0-.7,4.55,7.054,7.054,0,0,0,.95,4.05A3.058,3.058,0,0,0,50.8-1.2q2,0,4.8-2.25A40.259,40.259,0,0,0,61.1-8.9a16.041,16.041,0,0,1-4.4-6.15A20.714,20.714,0,0,1,55.2-23a15.468,15.468,0,0,1,1.1-5.7,11.219,11.219,0,0,1,3.35-4.65A8.6,8.6,0,0,1,65.3-35.2q4.2,0,5.7,2.25a9.786,9.786,0,0,1,1.5,5.55,23.156,23.156,0,0,1-1.9,8.6,48.723,48.723,0,0,1-4.8,9,7.716,7.716,0,0,0,3.5.8,11.783,11.783,0,0,0,3.6-.65,12.79,12.79,0,0,0,4-2.25,11.087,11.087,0,0,0,3.2-4.4l1.4,1.1a13.83,13.83,0,0,1-5.75,6.95A14.391,14.391,0,0,1,68.7-6.2a12.23,12.23,0,0,1-2.5-.25,16.67,16.67,0,0,1-2.3-.65A37.4,37.4,0,0,1,56.3.2,14.148,14.148,0,0,1,48.1,3.2ZM63.2-11.7a50.235,50.235,0,0,0,4.1-7.7A19.446,19.446,0,0,0,69-27a7.531,7.531,0,0,0-.8-3.95A2.487,2.487,0,0,0,66-32.2q-1.9,0-4,2.85a11.729,11.729,0,0,0-2.1,7.15,20.611,20.611,0,0,0,.85,5.6A13.007,13.007,0,0,0,63.2-11.7ZM125.9,8.7a17.212,17.212,0,0,1-9.8-2.95,20.228,20.228,0,0,1-7-8.55,31.609,31.609,0,0,1-2.6-13.4,53.469,53.469,0,0,1,2.4-15.6,70.608,70.608,0,0,1,6.6-15.1A69.367,69.367,0,0,1,125-59.7a46.846,46.846,0,0,1,11.25-8.9A24.1,24.1,0,0,1,148-71.9a11.374,11.374,0,0,1,6.4,1.6,9.013,9.013,0,0,1,3.45,4.2,15.084,15.084,0,0,1,1.05,5.7,20.6,20.6,0,0,1-1.2,6.9,15.805,15.805,0,0,1-3.25,5.6,6.124,6.124,0,0,1-4.55,2.2,3.427,3.427,0,0,1-1.8-.55,5.2,5.2,0,0,1-1.7-2.05,14.537,14.537,0,0,0,3.35-3.55,29.358,29.358,0,0,0,3.2-5.7,14.751,14.751,0,0,0,1.35-5.75,5.263,5.263,0,0,0-1.3-3.65q-1.3-1.45-4.5-1.45-4.4,0-9.05,3.45a45.524,45.524,0,0,0-9,9.2,80.417,80.417,0,0,0-7.85,12.8,78.494,78.494,0,0,0-5.5,14.45,53.725,53.725,0,0,0-2,14q0,9.1,3.85,14.2t9.55,5.1a11.793,11.793,0,0,0,7.4-2.75,26.485,26.485,0,0,0,6.2-7.2,42.758,42.758,0,0,0,4.3-9.65,47.484,47.484,0,0,0,2-10.1,56.07,56.07,0,0,0-5.7-.95,45.356,45.356,0,0,0-4.7-.25q-1.4,0-2.9.05t-3.4.15a7.755,7.755,0,0,1,2.6-4.45,7.459,7.459,0,0,1,4.6-1.35,19.953,19.953,0,0,1,5.95.95q3.05.95,6.05,2.05t5.4,1.8l-.8,3.1q-1.8,5.2-3,8.9t-1.85,6.45a36.162,36.162,0,0,0-.85,4.9q-.2,2.15-.2,4.15t.1,3.95q.1,1.95.2,4.35a9.607,9.607,0,0,1-3.35-1.7,5.986,5.986,0,0,1-1.9-2.6,9.521,9.521,0,0,1-.55-3.3,16.288,16.288,0,0,1,.1-1.8,10.773,10.773,0,0,1,.4-1.9,36.271,36.271,0,0,1-8.25,7.9A18.007,18.007,0,0,1,125.9,8.7Zm42-6q-4.1,0-6.1-2.5a9.306,9.306,0,0,1-2-6,25.522,25.522,0,0,1,.85-5.8,69.745,69.745,0,0,1,2.25-7.35,53.136,53.136,0,0,1,3.25-7.25,24.053,24.053,0,0,1,4-5.55,6.157,6.157,0,0,1,4.25-2.15,2.523,2.523,0,0,1,1.7.6,2.241,2.241,0,0,1,.7,1.8,9.513,9.513,0,0,1-1.55,3.9q-1.55,2.7-3.6,6.15a54.361,54.361,0,0,0-3.6,7.25A19.086,19.086,0,0,0,166.5-7q0,3.5,1.15,4.65A4.837,4.837,0,0,0,171.2-1.2q3.4,0,7.3-3.4t8.2-11.9l1.1,1.2Q184.7-6.7,179.3-2T167.9,2.7Zm11.9-45.5a5.6,5.6,0,0,1-3.05-.85,2.907,2.907,0,0,1-1.35-2.65q0-2.2,2.5-3.8a9.215,9.215,0,0,1,5-1.6,4.68,4.68,0,0,1,2.65.7,2.9,2.9,0,0,1,1.05,2.6,5.116,5.116,0,0,1-2.15,3.75A7,7,0,0,1,179.8-42.8ZM191.4,3.9A4.633,4.633,0,0,1,186.8.75a21.612,21.612,0,0,1-1.3-8.15q0-.5.1-3.45t.5-9.25a12.217,12.217,0,0,1,.55-3.85Q187.1-25,189.5-25q1.9,0,2.35.75a6.451,6.451,0,0,1,.45,2.95q0,3.2-.4,7.3t-.4,7.8a15.056,15.056,0,0,0,.45,4.35A1.735,1.735,0,0,0,193.7-.5a6.124,6.124,0,0,0,3.95-2,32.215,32.215,0,0,0,4.4-5.25,74.1,74.1,0,0,0,4.25-6.95q2-3.7,3.6-7.2.2-6.8,1.5-9.05a3.8,3.8,0,0,1,3.3-2.25,3.134,3.134,0,0,1,2.95,1.45,5.217,5.217,0,0,1,.85,2.55,5.082,5.082,0,0,1-.8,2.7,23.254,23.254,0,0,0-1.7,3.6,19.625,19.625,0,0,0-.9,6.8,19.316,19.316,0,0,0,.3,3.25,6.127,6.127,0,0,0,1.3,2.95,3.682,3.682,0,0,0,3,1.2,6.031,6.031,0,0,0,4-1.65,18.423,18.423,0,0,0,3.9-5.75l1.2.9q-2.2,5.2-4.95,7.05A9.362,9.362,0,0,1,218.7-6.3a6.935,6.935,0,0,1-5.45-2.45,14.863,14.863,0,0,1-3.05-7.05,77.513,77.513,0,0,1-5.55,9.2,41.1,41.1,0,0,1-6.6,7.5Q194.6,3.9,191.4,3.9Zm45.1.5q-6.2,0-9.4-3.4a11.789,11.789,0,0,1-3.2-8.4,22.985,22.985,0,0,1,2.25-9.4,39.367,39.367,0,0,1,6-9.4,33.132,33.132,0,0,1,8.3-7.1A17.623,17.623,0,0,1,249.5-36a8.392,8.392,0,0,1,4.45,1.25Q256-33.5,256-29.7a12.56,12.56,0,0,1-2.2,7.1,22.546,22.546,0,0,1-5.9,5.9,36.371,36.371,0,0,1-8.05,4.25,36.1,36.1,0,0,1-8.75,2.15,8.809,8.809,0,0,0-.25,1.55q-.05.75-.05,1.55a14.852,14.852,0,0,0,.25,2.6,7.233,7.233,0,0,0,1.1,2.7,6.173,6.173,0,0,0,2.4,2.1,8.84,8.84,0,0,0,4.05.8,16.967,16.967,0,0,0,8.5-2.4,33.035,33.035,0,0,0,7.85-6.35,40.183,40.183,0,0,0,6.15-8.75l1.5,1.1a37.484,37.484,0,0,1-6.9,10.45,32.291,32.291,0,0,1-9.15,6.9A22.439,22.439,0,0,1,236.5,4.4Zm-4.7-17.2a29.526,29.526,0,0,0,6-2.4,43.784,43.784,0,0,0,6.4-4.05,23.484,23.484,0,0,0,5.1-5.2,10.211,10.211,0,0,0,2-5.95,2.563,2.563,0,0,0-.4-1.6,1.992,1.992,0,0,0-1.6-.5,9.116,9.116,0,0,0-4.95,1.75,24.264,24.264,0,0,0-5.1,4.65,44.018,44.018,0,0,0-4.45,6.35A30.649,30.649,0,0,0,231.8-12.8Zm79.7,31.5a18.962,18.962,0,0,1-9.9-2.45,7.848,7.848,0,0,1-4.1-7.15,7.762,7.762,0,0,1,1.65-4.85A8.966,8.966,0,0,1,304.1,1.2a29.813,29.813,0,0,0-.7,3.3,17.878,17.878,0,0,0-.2,2.5,9.249,9.249,0,0,0,2.2,6.5q2.2,2.4,6.6,2.4a13.244,13.244,0,0,0,6.8-1.75,17.968,17.968,0,0,0,5.2-4.6,33.6,33.6,0,0,0,3.8-6.25,53.478,53.478,0,0,0,2.7-6.95q1.1-3.55,1.8-6.45,1-4.4,2-10.1t2.3-11.1a44.218,44.218,0,0,1-9.2,11.8,17.826,17.826,0,0,1-12.2,4.6q-6.2,0-8.8-3.45a14.134,14.134,0,0,1-2.6-8.75,39.14,39.14,0,0,1,1-8.35q1-4.55,2.3-9.15t2.35-8.9a32.52,32.52,0,0,0,1.05-7.6,10.783,10.783,0,0,0-1.25-5.4,4.58,4.58,0,0,0-4.35-2.2,7.3,7.3,0,0,0-4.8,1.65,12.75,12.75,0,0,0-3.3,4.3,24.942,24.942,0,0,0-1.95,5.55,24.782,24.782,0,0,0-.65,5.4,14.048,14.048,0,0,0,.25,2.75,12.969,12.969,0,0,0,.75,2.45q-4.2,0-5.9-2.15a7.9,7.9,0,0,1-1.7-5.05,14.765,14.765,0,0,1,1.5-6.3,20.84,20.84,0,0,1,4.2-5.9,21.909,21.909,0,0,1,6.2-4.35A17.6,17.6,0,0,1,307.1-72a11.246,11.246,0,0,1,6.2,1.55,9.324,9.324,0,0,1,3.5,3.9,11.538,11.538,0,0,1,1.1,4.95,27.224,27.224,0,0,1-.95,6.4q-.95,3.8-2.25,8.6-1.3,4.7-2.35,9.2a37.467,37.467,0,0,0-1.05,8.5,12.735,12.735,0,0,0,1.65,6.9,5.857,5.857,0,0,0,5.35,2.6,11.562,11.562,0,0,0,6.6-2.1,24.6,24.6,0,0,0,5.8-5.7,53.315,53.315,0,0,0,4.9-7.95A76.052,76.052,0,0,0,339.4-44q1.3-4.8,2.75-9.75t2.95-9.1a31.962,31.962,0,0,1,3.15-6.65Q349.9-72,351.6-72a6.379,6.379,0,0,1,2.8.9,12.29,12.29,0,0,1,3.2,2.5q-2.1,3.3-3.6,6.25a69.136,69.136,0,0,0-2.85,6.45q-1.35,3.5-2.75,8.25t-3.15,11.6Q343.5-29.2,341.1-19.4q-1.3,5.2-2.85,10.55A77.942,77.942,0,0,1,334.5,1.4a41.149,41.149,0,0,1-5.3,8.8,23.4,23.4,0,0,1-7.45,6.2A21.632,21.632,0,0,1,311.5,18.7ZM357.2,3.2q-4.4,0-6.15-2.75A11.755,11.755,0,0,1,349.3-6a22.523,22.523,0,0,1,1-6.45A28.327,28.327,0,0,1,353-18.7a17.462,17.462,0,0,1,3.8-4.65A6.577,6.577,0,0,1,361-25.1a5.557,5.557,0,0,1,1.25.15,3.943,3.943,0,0,1,1.15.45,19.653,19.653,0,0,0-2.25,3.25,40.269,40.269,0,0,0-2.35,4.8,41.4,41.4,0,0,0-1.8,5.3,18.256,18.256,0,0,0-.7,4.55,7.054,7.054,0,0,0,.95,4.05A3.058,3.058,0,0,0,359.9-1.2q2,0,4.8-2.25a40.258,40.258,0,0,0,5.5-5.45,16.041,16.041,0,0,1-4.4-6.15A20.714,20.714,0,0,1,364.3-23a15.468,15.468,0,0,1,1.1-5.7,11.219,11.219,0,0,1,3.35-4.65,8.6,8.6,0,0,1,5.65-1.85q4.2,0,5.7,2.25a9.786,9.786,0,0,1,1.5,5.55,23.157,23.157,0,0,1-1.9,8.6,48.723,48.723,0,0,1-4.8,9,7.716,7.716,0,0,0,3.5.8,11.783,11.783,0,0,0,3.6-.65,12.79,12.79,0,0,0,4-2.25,11.087,11.087,0,0,0,3.2-4.4l1.4,1.1a13.83,13.83,0,0,1-5.75,6.95A14.391,14.391,0,0,1,377.8-6.2a12.23,12.23,0,0,1-2.5-.25A16.67,16.67,0,0,1,373-7.1,37.4,37.4,0,0,1,365.4.2,14.148,14.148,0,0,1,357.2,3.2Zm15.1-14.9a50.234,50.234,0,0,0,4.1-7.7,19.446,19.446,0,0,0,1.7-7.6,7.531,7.531,0,0,0-.8-3.95,2.487,2.487,0,0,0-2.2-1.25q-1.9,0-4,2.85A11.729,11.729,0,0,0,369-22.2a20.61,20.61,0,0,0,.85,5.6A13.006,13.006,0,0,0,372.3-11.7ZM394.6,3a6.263,6.263,0,0,1-5.45-3.1,12.577,12.577,0,0,1-2.05-7.1,29.523,29.523,0,0,1,.9-6.7,53.635,53.635,0,0,1,2.35-7.45,38.034,38.034,0,0,1,2.95-6.05q1.5-2.4,2.7-2.4a5.381,5.381,0,0,1,1.8.6,6.69,6.69,0,0,1,2.2,1.6,46.076,46.076,0,0,0-2.7,5.1,54.346,54.346,0,0,0-2.8,7.35,25.108,25.108,0,0,0-1.2,7.25,21.128,21.128,0,0,0,.2,2.3,7.632,7.632,0,0,0,.95,2.9,2.437,2.437,0,0,0,2.25,1.3,5.581,5.581,0,0,0,3.85-1.95,33.561,33.561,0,0,0,4-5q2.05-3.05,4-6.55t3.55-6.8q1.6-3.3,2.7-5.5a16.35,16.35,0,0,1,1.95.45,10.565,10.565,0,0,1,2.25.9,1.7,1.7,0,0,1,1,1.55,11.748,11.748,0,0,1-1,2.6q-1,2.2-2.3,5.35t-2.3,6.4a19.868,19.868,0,0,0-1,5.75,4.875,4.875,0,0,0,.7,2.75A2.669,2.669,0,0,0,416.5-.4a9.853,9.853,0,0,0,5.05-1.9,28.868,28.868,0,0,0,6.05-5.5,38.123,38.123,0,0,0,5.5-8.7l1.4,1a34.96,34.96,0,0,1-5.55,9.6,29.394,29.394,0,0,1-7.3,6.55A14.451,14.451,0,0,1,414.1,3a6.992,6.992,0,0,1-4.2-1.1,5.758,5.758,0,0,1-2.1-2.95A15.075,15.075,0,0,1,407.1-5a13.464,13.464,0,0,1,.15-2q.15-1,.35-2a61.155,61.155,0,0,1-3.85,5.85A21.282,21.282,0,0,1,399.4,1.3,7.965,7.965,0,0,1,394.6,3Zm68.5,5.7q.6-3.5,1.35-7.2t2-8.2q1.25-4.5,3-10.45T473.9-31.1q-1.6.1-3.3.3t-3.3.3a5.111,5.111,0,0,1,2.4-4.25,16.011,16.011,0,0,1,6-2.25q.6-1.9,1.2-3.65t1.3-3.8q.7-2.05,1.55-4.45t1.95-5.6q1.1-3.2,2.5-7.3.3-.9.8-2.5a10.084,10.084,0,0,0,.5-3,1.776,1.776,0,0,0-.25-1.1q-.25-.3-1.15-.3a6.764,6.764,0,0,0-4.4,1.9,19.75,19.75,0,0,0-3.95,4.8A28.56,28.56,0,0,0,473-56a18.436,18.436,0,0,0-1,5.6,8.541,8.541,0,0,0,.2,1.75q.2.95.5,1.95-3.6,0-5.1-1.7a6.26,6.26,0,0,1-1.5-4.3,13.312,13.312,0,0,1,2-6.8,26.086,26.086,0,0,1,5.2-6.25A29.407,29.407,0,0,1,480-70.3a14.827,14.827,0,0,1,6.4-1.7q2.9,0,3.9,1.55a6.23,6.23,0,0,1,1,3.45,9.9,9.9,0,0,1-.25,2.2q-.25,1.1-.55,2.1l-7.6,25q1.3-.1,2.7-.15t2.8-.05q4.8,0,9.05.25t8.15.65q2.2-7.1,4.05-13.05t3.4-10.2q1.55-4.25,2.55-6.45.4-.8,1.1-2.05A7.718,7.718,0,0,1,518.65-71a4.728,4.728,0,0,1,3.05-1q-1.4,3.6-3.2,9.35T514.8-50.1q-1.9,6.8-3.6,13.5,1.8.1,3.85.25t4.05.15a10.7,10.7,0,0,1-4.7,3.05,17.32,17.32,0,0,1-4.2.55q-1,4-1.85,7.7t-1.45,7q-1.6,7.8-2.25,13.4a81.9,81.9,0,0,0-.65,9q0,1.4.05,2.35a11.238,11.238,0,0,0,.25,1.85q-4.3-.4-5.95-2.25T496.7.4a40.489,40.489,0,0,1,.55-6.05q.55-3.55,1.65-7.95.8-3.2,2.2-8.1t3.2-10.8q-6.1,0-10.2.1t-7.1.2q-3,.1-6,.4-1.2,4-2.55,8.25t-2.65,8.5q-1.3,4.25-2.65,8.6T470.5,2.2a8.847,8.847,0,0,1-3.4,5A7.674,7.674,0,0,1,463.1,8.7Zm59.9-4a7.7,7.7,0,0,1-5.45-2.1Q515.3.5,515.3-3.8a21.412,21.412,0,0,1,1.6-7.65,39.307,39.307,0,0,1,4.4-8.2A44.724,44.724,0,0,1,527.65-27a32.321,32.321,0,0,1,7.55-5.3,17.751,17.751,0,0,1,8-2,10.8,10.8,0,0,1,6.75,2.1,6.693,6.693,0,0,1,2.75,5.6,3.842,3.842,0,0,1-1.55,3.5,6.427,6.427,0,0,1-3.85.9q.2-.9.35-1.8a10.927,10.927,0,0,0,.15-1.8,7.282,7.282,0,0,0-1-3.85q-1-1.65-3.7-1.65a10.2,10.2,0,0,0-5.7,1.95,26.469,26.469,0,0,0-5.55,5.15,46.442,46.442,0,0,0-4.75,6.95,42.778,42.778,0,0,0-3.3,7.35,20.782,20.782,0,0,0-1.2,6.5q0,3.7,2.5,3.7a8.38,8.38,0,0,0,5.05-2.2,41.6,41.6,0,0,0,5.6-5.55q2.85-3.35,5.45-6.95t4.6-6.4q.3-.6.6-.6.5.1,1.5.4a5.7,5.7,0,0,1,1.8.9,1.81,1.81,0,0,1,.8,1.5,5.609,5.609,0,0,1-.85,2.45q-.85,1.55-2,3.5a33.8,33.8,0,0,0-2,3.95A9.524,9.524,0,0,0,544.8-5a5.783,5.783,0,0,0,.75,2.85A2.587,2.587,0,0,0,548-.8q2.6,0,7-3.85t8.9-11.95l1.3,1.3a38.681,38.681,0,0,1-5.5,9.55A27.5,27.5,0,0,1,552.65.7,14.169,14.169,0,0,1,545.2,3,6.749,6.749,0,0,1,539.55.65,8.012,8.012,0,0,1,537.7-4.4q0-.5.05-1t.15-1.1a49.914,49.914,0,0,1-7.7,8.35A11.316,11.316,0,0,1,523,4.7ZM555.7,28a2.444,2.444,0,0,1-1.6-.7,5.45,5.45,0,0,1-1.25-1.55,9.7,9.7,0,0,1-.55-1.15q1.8-5.7,3.3-10.05t2.8-8.6q1.3-4.25,2.45-9.6t2.4-13q1.25-7.65,2.65-18.75a3.3,3.3,0,0,1,.4-1.45q.3-.45,1.6-.45a4.833,4.833,0,0,1,4,1.5,5.163,5.163,0,0,1,1.2,3.3,35.182,35.182,0,0,1-.5,4.55q-.5,3.25-1.5,7.65a48.443,48.443,0,0,1,4.3-6.35,23.33,23.33,0,0,1,5.7-5.2,12.721,12.721,0,0,1,7-2.05,9.854,9.854,0,0,1,7.5,3.2,11.784,11.784,0,0,1,3,8.4,22.125,22.125,0,0,1-1.75,8.25,30.765,30.765,0,0,1-4.95,8.2A26.19,26.19,0,0,1,584.35.4a19.64,19.64,0,0,1-9.65,2.4,12.858,12.858,0,0,1-4.5-.65Q568.5,1.5,568.5.7q0-.5.75-.55T571,.1a18.342,18.342,0,0,0,7.95-2,22.62,22.62,0,0,0,6.6-5.05A24.444,24.444,0,0,0,590-13.9a19,19,0,0,0,1.6-7.4,10.142,10.142,0,0,0-1.35-5.4,4.717,4.717,0,0,0-4.35-2.2,9.457,9.457,0,0,0-5.05,1.6,22.1,22.1,0,0,0-4.8,4.15,44.632,44.632,0,0,0-4,5.25,32.917,32.917,0,0,0-2.65,4.8Q567.6-5.9,565.9.95T562.6,13.4q-1.6,5.6-2.95,9.3t-2.55,4.7A1.919,1.919,0,0,1,555.7,28Zm39.8,0a2.444,2.444,0,0,1-1.6-.7,5.45,5.45,0,0,1-1.25-1.55,9.7,9.7,0,0,1-.55-1.15q1.8-5.7,3.3-10.05t2.8-8.6q1.3-4.25,2.45-9.6t2.4-13q1.25-7.65,2.65-18.75a3.3,3.3,0,0,1,.4-1.45q.3-.45,1.6-.45a4.833,4.833,0,0,1,4,1.5,5.163,5.163,0,0,1,1.2,3.3,35.182,35.182,0,0,1-.5,4.55q-.5,3.25-1.5,7.65a48.443,48.443,0,0,1,4.3-6.35,23.33,23.33,0,0,1,5.7-5.2,12.721,12.721,0,0,1,7-2.05,9.854,9.854,0,0,1,7.5,3.2,11.784,11.784,0,0,1,3,8.4,22.125,22.125,0,0,1-1.75,8.25,30.765,30.765,0,0,1-4.95,8.2A26.19,26.19,0,0,1,624.15.4a19.64,19.64,0,0,1-9.65,2.4,12.858,12.858,0,0,1-4.5-.65Q608.3,1.5,608.3.7q0-.5.75-.55T610.8.1a18.342,18.342,0,0,0,7.95-2,22.62,22.62,0,0,0,6.6-5.05,24.444,24.444,0,0,0,4.45-6.95,19,19,0,0,0,1.6-7.4,10.142,10.142,0,0,0-1.35-5.4,4.717,4.717,0,0,0-4.35-2.2,9.457,9.457,0,0,0-5.05,1.6,22.1,22.1,0,0,0-4.8,4.15,44.632,44.632,0,0,0-4,5.25,32.917,32.917,0,0,0-2.65,4.8Q607.4-5.9,605.7.95T602.4,13.4q-1.6,5.6-2.95,9.3t-2.55,4.7A1.919,1.919,0,0,1,595.5,28ZM648.9,2.7q-4.1,0-6.1-2.5a9.307,9.307,0,0,1-2-6,25.523,25.523,0,0,1,.85-5.8,69.737,69.737,0,0,1,2.25-7.35,53.138,53.138,0,0,1,3.25-7.25,24.052,24.052,0,0,1,4-5.55,6.157,6.157,0,0,1,4.25-2.15,2.523,2.523,0,0,1,1.7.6,2.241,2.241,0,0,1,.7,1.8,9.513,9.513,0,0,1-1.55,3.9q-1.55,2.7-3.6,6.15a54.363,54.363,0,0,0-3.6,7.25A19.085,19.085,0,0,0,647.5-7q0,3.5,1.15,4.65A4.837,4.837,0,0,0,652.2-1.2q3.4,0,7.3-3.4t8.2-11.9l1.1,1.2Q665.7-6.7,660.3-2T648.9,2.7Zm11.9-45.5a5.6,5.6,0,0,1-3.05-.85,2.907,2.907,0,0,1-1.35-2.65q0-2.2,2.5-3.8a9.215,9.215,0,0,1,5-1.6,4.68,4.68,0,0,1,2.65.7,2.9,2.9,0,0,1,1.05,2.6,5.116,5.116,0,0,1-2.15,3.75A7,7,0,0,1,660.8-42.8ZM698.4,2q-3.7,0-5.55-1.85A6.43,6.43,0,0,1,691-4.6a13.914,13.914,0,0,1,.75-4.3q.75-2.3,1.45-4.7a16.419,16.419,0,0,0,.7-4.6q0-2.6-1.1-3.6a3.867,3.867,0,0,0-2.7-1,10.277,10.277,0,0,0-6.3,2.5,34.312,34.312,0,0,0-6.15,6.4q-2.95,3.9-5.55,8t-4.6,7.4a8.924,8.924,0,0,1-3.25-.6A5.426,5.426,0,0,1,661.8-.9,14.639,14.639,0,0,1,662.85-4q1.05-2.6,2.45-6.3a76.966,76.966,0,0,0,2.45-7.7,28.657,28.657,0,0,0,1.05-7.2,5.642,5.642,0,0,1,1.95-1.5,6.107,6.107,0,0,1,2.85-.7q3,0,3,2.7a23.865,23.865,0,0,1-.75,4.75q-.75,3.25-1.95,7.05a72.311,72.311,0,0,1,5.9-7.65,36.163,36.163,0,0,1,6.95-6.2A12.956,12.956,0,0,1,694-29.2q4.1,0,5.95,2.85a11.248,11.248,0,0,1,1.85,6.25,15.751,15.751,0,0,1-1,5.7q-1,2.6-2.05,5a11.89,11.89,0,0,0-1.05,4.8,3.568,3.568,0,0,0,.85,2.75,2.862,2.862,0,0,0,1.95.75,7.632,7.632,0,0,0,5.05-2.3,29.9,29.9,0,0,0,4.9-5.9,66.882,66.882,0,0,0,4.15-7.3l1.3,1.4a50.418,50.418,0,0,1-4.75,8.75,25.16,25.16,0,0,1-5.8,6.15A11.52,11.52,0,0,1,698.4,2Zm25.1,2.4q-6.2,0-9.4-3.4a11.789,11.789,0,0,1-3.2-8.4,22.985,22.985,0,0,1,2.25-9.4,39.367,39.367,0,0,1,6-9.4,33.132,33.132,0,0,1,8.3-7.1A17.622,17.622,0,0,1,736.5-36a8.392,8.392,0,0,1,4.45,1.25Q743-33.5,743-29.7a12.561,12.561,0,0,1-2.2,7.1,22.546,22.546,0,0,1-5.9,5.9,36.373,36.373,0,0,1-8.05,4.25,36.1,36.1,0,0,1-8.75,2.15,8.805,8.805,0,0,0-.25,1.55q-.05.75-.05,1.55a14.85,14.85,0,0,0,.25,2.6,7.233,7.233,0,0,0,1.1,2.7,6.172,6.172,0,0,0,2.4,2.1,8.84,8.84,0,0,0,4.05.8,16.967,16.967,0,0,0,8.5-2.4,33.034,33.034,0,0,0,7.85-6.35,40.184,40.184,0,0,0,6.15-8.75l1.5,1.1a37.484,37.484,0,0,1-6.9,10.45,32.291,32.291,0,0,1-9.15,6.9A22.439,22.439,0,0,1,723.5,4.4Zm-4.7-17.2a29.527,29.527,0,0,0,6-2.4,43.782,43.782,0,0,0,6.4-4.05,23.483,23.483,0,0,0,5.1-5.2,10.211,10.211,0,0,0,2-5.95,2.563,2.563,0,0,0-.4-1.6,1.992,1.992,0,0,0-1.6-.5,9.115,9.115,0,0,0-4.95,1.75,24.265,24.265,0,0,0-5.1,4.65,44.02,44.02,0,0,0-4.45,6.35A30.65,30.65,0,0,0,718.8-12.8ZM756.9,5.1a12.844,12.844,0,0,1-7.65-2.05,11.315,11.315,0,0,1-4.05-5.1A16.679,16.679,0,0,1,744-8.2a10.548,10.548,0,0,1,.8-4.6,5.815,5.815,0,0,1,1.95-2.35,11.681,11.681,0,0,1,2.2-1.15,4.413,4.413,0,0,0,1.55-.9,66.094,66.094,0,0,0,5.35-6.55,46.811,46.811,0,0,0,4.45-7.65v-1.1q0-3.8,1.3-5.4a3.651,3.651,0,0,1,2.8-1.6,1.833,1.833,0,0,1,1.35.45A1.9,1.9,0,0,1,766.3-38a5.906,5.906,0,0,1-.3,1.6,9.277,9.277,0,0,0-.3,2.6,21.473,21.473,0,0,0,1.35,7.05q1.35,3.85,2.7,8.1A29.057,29.057,0,0,1,771.1-9.8a19.336,19.336,0,0,1-.15,2.4q-.15,1.2-.35,2.2A14.992,14.992,0,0,0,777-8.45a25.03,25.03,0,0,0,5.9-8.05l1,1a18.462,18.462,0,0,1-5.65,8.55A17.918,17.918,0,0,1,769.9-3.1a11.6,11.6,0,0,1-5.1,6.2A15.636,15.636,0,0,1,756.9,5.1Zm-.1-3.8a8.472,8.472,0,0,0,3.4-.85,5.894,5.894,0,0,0,2.9-3.75,18.053,18.053,0,0,1-7.4-3.25,20.463,20.463,0,0,1-4.9-4.85q-2,.1-2,3.2a11.108,11.108,0,0,0,2.1,6.5A6.789,6.789,0,0,0,756.8,1.3Zm6.9-6.6a15.988,15.988,0,0,0,.3-1.95q.1-1.05.1-2.25a37.806,37.806,0,0,0-1.15-9.2q-1.15-4.6-2.05-8.8-2.1,3.5-4.6,7a46.236,46.236,0,0,1-4.8,5.8A20.362,20.362,0,0,0,756.2-9,16.907,16.907,0,0,0,763.7-5.3ZM791.6,5.1a12.844,12.844,0,0,1-7.65-2.05,11.315,11.315,0,0,1-4.05-5.1,16.679,16.679,0,0,1-1.2-6.15,10.548,10.548,0,0,1,.8-4.6,5.815,5.815,0,0,1,1.95-2.35,11.681,11.681,0,0,1,2.2-1.15,4.413,4.413,0,0,0,1.55-.9,66.094,66.094,0,0,0,5.35-6.55A46.811,46.811,0,0,0,795-31.4v-1.1q0-3.8,1.3-5.4a3.651,3.651,0,0,1,2.8-1.6,1.833,1.833,0,0,1,1.35.45A1.9,1.9,0,0,1,801-38a5.906,5.906,0,0,1-.3,1.6,9.277,9.277,0,0,0-.3,2.6,21.473,21.473,0,0,0,1.35,7.05q1.35,3.85,2.7,8.1A29.057,29.057,0,0,1,805.8-9.8a19.336,19.336,0,0,1-.15,2.4q-.15,1.2-.35,2.2a14.992,14.992,0,0,0,6.4-3.25,25.03,25.03,0,0,0,5.9-8.05l1,1a18.462,18.462,0,0,1-5.65,8.55A17.918,17.918,0,0,1,804.6-3.1a11.6,11.6,0,0,1-5.1,6.2A15.636,15.636,0,0,1,791.6,5.1Zm-.1-3.8a8.472,8.472,0,0,0,3.4-.85,5.894,5.894,0,0,0,2.9-3.75,18.053,18.053,0,0,1-7.4-3.25,20.463,20.463,0,0,1-4.9-4.85q-2,.1-2,3.2a11.108,11.108,0,0,0,2.1,6.5A6.789,6.789,0,0,0,791.5,1.3Zm6.9-6.6a15.988,15.988,0,0,0,.3-1.95q.1-1.05.1-2.25a37.806,37.806,0,0,0-1.15-9.2q-1.15-4.6-2.05-8.8-2.1,3.5-4.6,7a46.236,46.236,0,0,1-4.8,5.8A20.362,20.362,0,0,0,790.9-9,16.907,16.907,0,0,0,798.4-5.3Z" transform="translate(-6.531 72.5)" fill="none" stroke="#9a7141" stroke-width="1"/>
</svg>
