<svg xmlns="http://www.w3.org/2000/svg" width="977.488" height="101" viewBox="0 0 977.488 101">
  <path id="Path_3704" data-name="Path 3704" d="M19,8.7A21.7,21.7,0,0,1,8.3,6.2,17.932,17.932,0,0,1,1.35-.5,17.932,17.932,0,0,1-1.1-9.7,21.782,21.782,0,0,1,.85-18.6a27.273,27.273,0,0,1,5.45-8,30.985,30.985,0,0,1,8.2-6,29.076,29.076,0,0,1,10.1-3A20.08,20.08,0,0,1,19-42.9a20.253,20.253,0,0,1-1.8-8.2,20.6,20.6,0,0,1,2.65-10.1,20.879,20.879,0,0,1,7.4-7.75A20.138,20.138,0,0,1,38.1-71.9q5.8,0,8.85,2.85T50-60.9a20.111,20.111,0,0,1-1.35,7.3,19.25,19.25,0,0,1-3.25,5.7q-1.9,2.2-3.6,2.2a3.318,3.318,0,0,1-2.3-1.05,8.792,8.792,0,0,1-1.8-2.45,34.223,34.223,0,0,0,6.05-6.45A12.329,12.329,0,0,0,46.2-62.9a6.032,6.032,0,0,0-1.85-4.75A7.627,7.627,0,0,0,39.1-69.3a11.367,11.367,0,0,0-7.75,2.75,16.944,16.944,0,0,0-4.75,7.2A28.319,28.319,0,0,0,25-49.7a28.558,28.558,0,0,0,1.25,8.05A15.325,15.325,0,0,0,31.3-34.2a25.819,25.819,0,0,0-11.9,5.05,28.5,28.5,0,0,0-7.9,9.25A22.339,22.339,0,0,0,8.7-9.4,18.265,18.265,0,0,0,9.95-2.9a12.7,12.7,0,0,0,4.1,5.55A11.839,11.839,0,0,0,21.6,4.9a21.251,21.251,0,0,0,10.65-3A38.447,38.447,0,0,0,41.9-6.05,45.807,45.807,0,0,0,49-16.6l1.8,1.2A63.128,63.128,0,0,1,42.4-3.15,39.062,39.062,0,0,1,31.7,5.5,26.225,26.225,0,0,1,19,8.7ZM53.6,3.9A4.633,4.633,0,0,1,49,.75,21.612,21.612,0,0,1,47.7-7.4q0-.5.1-3.45t.5-9.25a12.218,12.218,0,0,1,.55-3.85Q49.3-25,51.7-25q1.9,0,2.35.75a6.451,6.451,0,0,1,.45,2.95q0,3.2-.4,7.3t-.4,7.8a15.056,15.056,0,0,0,.45,4.35A1.735,1.735,0,0,0,55.9-.5a6.124,6.124,0,0,0,3.95-2,32.215,32.215,0,0,0,4.4-5.25A74.1,74.1,0,0,0,68.5-14.7q2-3.7,3.6-7.2.2-6.8,1.5-9.05a3.8,3.8,0,0,1,3.3-2.25,3.134,3.134,0,0,1,2.95,1.45,5.217,5.217,0,0,1,.85,2.55,5.081,5.081,0,0,1-.8,2.7,23.256,23.256,0,0,0-1.7,3.6,19.626,19.626,0,0,0-.9,6.8,19.315,19.315,0,0,0,.3,3.25A6.126,6.126,0,0,0,78.9-9.9a3.682,3.682,0,0,0,3,1.2,6.031,6.031,0,0,0,4-1.65,18.423,18.423,0,0,0,3.9-5.75l1.2.9Q88.8-10,86.05-8.15A9.362,9.362,0,0,1,80.9-6.3a6.935,6.935,0,0,1-5.45-2.45A14.863,14.863,0,0,1,72.4-15.8a77.511,77.511,0,0,1-5.55,9.2A41.1,41.1,0,0,1,60.25.9Q56.8,3.9,53.6,3.9Zm45.1.5q-6.2,0-9.4-3.4a11.789,11.789,0,0,1-3.2-8.4,22.985,22.985,0,0,1,2.25-9.4,39.367,39.367,0,0,1,6-9.4,33.132,33.132,0,0,1,8.3-7.1A17.622,17.622,0,0,1,111.7-36a8.392,8.392,0,0,1,4.45,1.25q2.05,1.25,2.05,5.05a12.561,12.561,0,0,1-2.2,7.1,22.546,22.546,0,0,1-5.9,5.9,36.372,36.372,0,0,1-8.05,4.25A36.1,36.1,0,0,1,93.3-10.3a8.809,8.809,0,0,0-.25,1.55Q93-8,93-7.2a14.852,14.852,0,0,0,.25,2.6,7.233,7.233,0,0,0,1.1,2.7A6.173,6.173,0,0,0,96.75.2a8.84,8.84,0,0,0,4.05.8,16.967,16.967,0,0,0,8.5-2.4,33.035,33.035,0,0,0,7.85-6.35,40.184,40.184,0,0,0,6.15-8.75l1.5,1.1a37.484,37.484,0,0,1-6.9,10.45,32.291,32.291,0,0,1-9.15,6.9A22.439,22.439,0,0,1,98.7,4.4ZM94-12.8a29.527,29.527,0,0,0,6-2.4,43.784,43.784,0,0,0,6.4-4.05,23.484,23.484,0,0,0,5.1-5.2,10.21,10.21,0,0,0,2-5.95,2.563,2.563,0,0,0-.4-1.6,1.992,1.992,0,0,0-1.6-.5,9.115,9.115,0,0,0-4.95,1.75,24.264,24.264,0,0,0-5.1,4.65A44.02,44.02,0,0,0,97-19.75,30.648,30.648,0,0,0,94-12.8ZM138.9,2.6A7.975,7.975,0,0,1,133.35.75,6.223,6.223,0,0,1,131.3-4.1a15.775,15.775,0,0,1,1.4-6.25q1.4-3.25,2.75-6.45a14.928,14.928,0,0,0,1.35-5.7,5.717,5.717,0,0,0-1.7-4.45,23.165,23.165,0,0,0-3.7-2.75q-2.2,5.7-4.8,10.95t-4.2,8.05l-1.1-2.1q1.4-2.6,3.65-7.55T129.4-31.5a3.392,3.392,0,0,1-1-2.5,7.446,7.446,0,0,1,1.65-4.9q1.65-2,2.65-2a1.313,1.313,0,0,1,1.45,1.05,7.5,7.5,0,0,1,.25,1.55,7.131,7.131,0,0,1-.5,1.9q-.5,1.4-.6,1.8a3.51,3.51,0,0,0,1.65,2.45q1.55,1.15,3.6,2.55a14.926,14.926,0,0,1,3.6,3.5,8.686,8.686,0,0,1,1.55,5.3,16,16,0,0,1-1.25,6q-1.25,3.1-2.5,5.8a11.662,11.662,0,0,0-1.25,4.8,2.378,2.378,0,0,0,.85,2.15,3.51,3.51,0,0,0,1.95.55,10,10,0,0,0,4.95-1.45,26.455,26.455,0,0,0,5-3.75,36.887,36.887,0,0,0,4.35-4.85,22.2,22.2,0,0,0,2.8-4.75l1.7,1.3A36.905,36.905,0,0,1,155-6.7,31.641,31.641,0,0,1,147.45,0,15.9,15.9,0,0,1,138.9,2.6ZM161,28a7.662,7.662,0,0,1-4.5-1.4,4.891,4.891,0,0,1-2-4.3,9.9,9.9,0,0,1,1.7-5.7,20.348,20.348,0,0,1,4.5-4.65,44.348,44.348,0,0,1,6.3-4q3.5-1.85,7.1-3.55,1.3-3.5,2.7-8t2.6-9.4a52.764,52.764,0,0,1-6.8,8.5,10.8,10.8,0,0,1-7.7,3.6,9.238,9.238,0,0,1-3.8-.85,7.539,7.539,0,0,1-3.15-2.65,8.076,8.076,0,0,1-1.25-4.7,26.3,26.3,0,0,1,.95-6.4A61.291,61.291,0,0,1,160-22.75a30.694,30.694,0,0,1,2.95-5.85q1.55-2.3,2.65-2.3a6.05,6.05,0,0,1,1.6.35,9.908,9.908,0,0,1,2.1.95,1.985,1.985,0,0,1,1.1,1.3,25.964,25.964,0,0,0-2,3.65q-1.1,2.35-2.15,5.25t-1.75,5.6a19.1,19.1,0,0,0-.7,4.7,4.866,4.866,0,0,0,.75,2.8,2.977,2.977,0,0,0,2.65,1.1,7.25,7.25,0,0,0,4.35-1.85,29.6,29.6,0,0,0,4.65-4.7,61.634,61.634,0,0,0,4.3-6.05q.2-.9.45-2.2t.55-2.6a10.773,10.773,0,0,1,1.55-3.2,4.091,4.091,0,0,1,3.65-1.7q.6,0,1.15.05a6.887,6.887,0,0,1,1.25.25,34.014,34.014,0,0,1-.95,5.95q-.95,4.35-2.7,10.1T181.4.6a31.3,31.3,0,0,0,9.05-5.85A28.7,28.7,0,0,0,197.8-16.4l1.4,1.2a23.824,23.824,0,0,1-4.55,8.4A34.444,34.444,0,0,1,187.8-.6a48.738,48.738,0,0,1-7.6,4.3,107.3,107.3,0,0,1-5.7,11.95A40.6,40.6,0,0,1,168,24.6Q164.6,28,161,28Zm-.7-3.4q1.6,0,5.1-3.95T172.8,7.4q-3.8,2-7.25,4.15A23.16,23.16,0,0,0,160,16.2a8.36,8.36,0,0,0-2.1,5.5,3.956,3.956,0,0,0,.55,1.9A1.94,1.94,0,0,0,160.3,24.6ZM202,3a8.111,8.111,0,0,1-3.55-.9A7.43,7.43,0,0,1,195.4-.7a9.043,9.043,0,0,1-1.2-4.9,20.612,20.612,0,0,1,1.6-7.4,42.714,42.714,0,0,1,4.3-8.15,46.08,46.08,0,0,1,6.25-7.5,32.275,32.275,0,0,1,7.45-5.5,16.634,16.634,0,0,1,7.8-2.05,6.429,6.429,0,0,1,3.4.75,2.571,2.571,0,0,1,1.2,2.35,3.925,3.925,0,0,1-.1.85,1.743,1.743,0,0,1-.5.85,2.459,2.459,0,0,0-1.4-1.05,6.949,6.949,0,0,0-2.3-.35,11.47,11.47,0,0,0-6.25,1.95,23.675,23.675,0,0,0-5.55,5,40.607,40.607,0,0,0-4.4,6.6,41.61,41.61,0,0,0-2.95,6.8A18.579,18.579,0,0,0,201.7-6.9a5.4,5.4,0,0,0,.95,3.35A3.039,3.039,0,0,0,205.2-2.3q2.7,0,6.5-3.3a45.462,45.462,0,0,0,7.8-9.4,76.285,76.285,0,0,0,7.2-14.4q2.2-5.8,4.55-11.8T236-52.7q2.4-5.5,4.7-9.85a41.588,41.588,0,0,1,4.4-6.9Q247.2-72,248.8-72a2.2,2.2,0,0,1,1.6.7,2.437,2.437,0,0,1,.7,1.8,16.218,16.218,0,0,1-1.65,5.5q-1.65,3.8-4.25,9.1t-5.55,11.5q-2.95,6.2-5.55,12.65a111.5,111.5,0,0,0-4.25,12.55A43.165,43.165,0,0,0,228.2-7a15.394,15.394,0,0,0,.35,3.9,1.688,1.688,0,0,0,1.85,1.2,9.626,9.626,0,0,0,4.9-1.75,24.728,24.728,0,0,0,5.6-5.05,33.234,33.234,0,0,0,4.9-8l1.5,1.2a33.7,33.7,0,0,1-5.35,9.3A29.108,29.108,0,0,1,234.8.25a13.921,13.921,0,0,1-7.3,2.35q-3.9,0-5.4-2.5a10.311,10.311,0,0,1-1.5-5.4,22.791,22.791,0,0,1,.45-4.1q.45-2.4,1.15-5.2a75.169,75.169,0,0,1-6.75,9.05A35.664,35.664,0,0,1,208.5.75,11.857,11.857,0,0,1,202,3Zm46.8,1.7a7.7,7.7,0,0,1-5.45-2.1Q241.1.5,241.1-3.8a21.412,21.412,0,0,1,1.6-7.65,39.31,39.31,0,0,1,4.4-8.2A44.724,44.724,0,0,1,253.45-27,32.322,32.322,0,0,1,261-32.3a17.751,17.751,0,0,1,8-2,10.8,10.8,0,0,1,6.75,2.1,6.693,6.693,0,0,1,2.75,5.6,3.842,3.842,0,0,1-1.55,3.5,6.427,6.427,0,0,1-3.85.9q.2-.9.35-1.8a10.931,10.931,0,0,0,.15-1.8,7.282,7.282,0,0,0-1-3.85q-1-1.65-3.7-1.65a10.2,10.2,0,0,0-5.7,1.95,26.47,26.47,0,0,0-5.55,5.15,46.444,46.444,0,0,0-4.75,6.95,42.782,42.782,0,0,0-3.3,7.35,20.781,20.781,0,0,0-1.2,6.5q0,3.7,2.5,3.7a8.38,8.38,0,0,0,5.05-2.2,41.6,41.6,0,0,0,5.6-5.55Q264.4-10.8,267-14.4t4.6-6.4q.3-.6.6-.6.5.1,1.5.4a5.7,5.7,0,0,1,1.8.9,1.81,1.81,0,0,1,.8,1.5,5.608,5.608,0,0,1-.85,2.45q-.85,1.55-2,3.5a33.806,33.806,0,0,0-2,3.95A9.524,9.524,0,0,0,270.6-5a5.783,5.783,0,0,0,.75,2.85A2.587,2.587,0,0,0,273.8-.8q2.6,0,7-3.85t8.9-11.95l1.3,1.3a38.68,38.68,0,0,1-5.5,9.55A27.5,27.5,0,0,1,278.45.7,14.169,14.169,0,0,1,271,3,6.749,6.749,0,0,1,265.35.65,8.012,8.012,0,0,1,263.5-4.4q0-.5.05-1t.15-1.1A49.914,49.914,0,0,1,256,1.85,11.316,11.316,0,0,1,248.8,4.7ZM292.1,28a7.662,7.662,0,0,1-4.5-1.4,4.891,4.891,0,0,1-2-4.3,9.9,9.9,0,0,1,1.7-5.7,20.348,20.348,0,0,1,4.5-4.65,44.347,44.347,0,0,1,6.3-4q3.5-1.85,7.1-3.55,1.3-3.5,2.7-8t2.6-9.4a52.764,52.764,0,0,1-6.8,8.5A10.8,10.8,0,0,1,296-.9a9.238,9.238,0,0,1-3.8-.85,7.539,7.539,0,0,1-3.15-2.65,8.075,8.075,0,0,1-1.25-4.7,26.3,26.3,0,0,1,.95-6.4,61.291,61.291,0,0,1,2.35-7.25,30.692,30.692,0,0,1,2.95-5.85q1.55-2.3,2.65-2.3a6.05,6.05,0,0,1,1.6.35,9.909,9.909,0,0,1,2.1.95,1.985,1.985,0,0,1,1.1,1.3,25.963,25.963,0,0,0-2,3.65q-1.1,2.35-2.15,5.25t-1.75,5.6a19.1,19.1,0,0,0-.7,4.7,4.866,4.866,0,0,0,.75,2.8,2.977,2.977,0,0,0,2.65,1.1,7.25,7.25,0,0,0,4.35-1.85,29.6,29.6,0,0,0,4.65-4.7,61.639,61.639,0,0,0,4.3-6.05q.2-.9.45-2.2t.55-2.6a10.774,10.774,0,0,1,1.55-3.2,4.091,4.091,0,0,1,3.65-1.7q.6,0,1.15.05a6.887,6.887,0,0,1,1.25.25,34.016,34.016,0,0,1-.95,5.95q-.95,4.35-2.7,10.1T312.5.6a31.3,31.3,0,0,0,9.05-5.85A28.7,28.7,0,0,0,328.9-16.4l1.4,1.2a23.824,23.824,0,0,1-4.55,8.4A34.445,34.445,0,0,1,318.9-.6a48.74,48.74,0,0,1-7.6,4.3,107.3,107.3,0,0,1-5.7,11.95,40.606,40.606,0,0,1-6.5,8.95Q295.7,28,292.1,28Zm-.7-3.4q1.6,0,5.1-3.95T303.9,7.4q-3.8,2-7.25,4.15a23.16,23.16,0,0,0-5.55,4.65,8.361,8.361,0,0,0-2.1,5.5,3.956,3.956,0,0,0,.55,1.9A1.94,1.94,0,0,0,291.4,24.6ZM369.3,8.7q-4.8-.4-6.1-2.55A10.389,10.389,0,0,1,361.9.7a34.319,34.319,0,0,1,1.45-8.85Q364.8-13.4,367-19.5t4.5-12.1q-1.1.1-2.8.25t-3.85.4q-2.15.25-4.75.65a5.848,5.848,0,0,1,2.05-4.25,11.955,11.955,0,0,1,4.85-2.3,31.145,31.145,0,0,1,6.7-.85q2.7-7.5,5.6-14.7t5.8-13.2q-.9-.1-1.8-.15t-2-.05a28.738,28.738,0,0,0-9.75,1.3,8.234,8.234,0,0,0-4.75,3.9,14.728,14.728,0,0,0-1.3,6.6,23.252,23.252,0,0,0,.35,4.2A25.717,25.717,0,0,0,367-45.7a9.084,9.084,0,0,1-5.55-2.8,8,8,0,0,1-1.75-5.3,13.06,13.06,0,0,1,3.75-9.2,24.982,24.982,0,0,1,10.1-6.25A42.147,42.147,0,0,1,387.7-71.5a71.392,71.392,0,0,1,10.4.75,66.762,66.762,0,0,0,9.7.75,27.037,27.037,0,0,0,4.2-.3,38.48,38.48,0,0,0,4.1-.9,28.335,28.335,0,0,1-6.7,6.1,11.034,11.034,0,0,1-5.4,1.5,36.282,36.282,0,0,1-6-.65,77.392,77.392,0,0,0-8.3-.95q-1.3,3.2-2.85,7.7t-3.2,9.6Q382-42.8,380.3-37.6q5.1.3,9.45.9a75.293,75.293,0,0,0,8.45.7,7.83,7.83,0,0,1-2,2.05,7.91,7.91,0,0,1-3.05,1.1,42.816,42.816,0,0,1-5.4.5q-3.45.15-9.05.25-.7,2.4-1.6,5.4t-1.55,5.45a34.1,34.1,0,0,1-1.05,3.45Q372.1-9.5,370.75-3A64.208,64.208,0,0,0,369.3,8.7Zm48.3-6.1A7.975,7.975,0,0,1,412.05.75,6.223,6.223,0,0,1,410-4.1a15.775,15.775,0,0,1,1.4-6.25q1.4-3.25,2.75-6.45a14.928,14.928,0,0,0,1.35-5.7,5.717,5.717,0,0,0-1.7-4.45,23.164,23.164,0,0,0-3.7-2.75q-2.2,5.7-4.8,10.95t-4.2,8.05L400-12.8q1.4-2.6,3.65-7.55T408.1-31.5a3.392,3.392,0,0,1-1-2.5,7.446,7.446,0,0,1,1.65-4.9q1.65-2,2.65-2a1.313,1.313,0,0,1,1.45,1.05,7.5,7.5,0,0,1,.25,1.55,7.131,7.131,0,0,1-.5,1.9q-.5,1.4-.6,1.8a3.51,3.51,0,0,0,1.65,2.45q1.55,1.15,3.6,2.55a14.926,14.926,0,0,1,3.6,3.5,8.686,8.686,0,0,1,1.55,5.3,16,16,0,0,1-1.25,6q-1.25,3.1-2.5,5.8a11.662,11.662,0,0,0-1.25,4.8,2.378,2.378,0,0,0,.85,2.15,3.51,3.51,0,0,0,1.95.55,10,10,0,0,0,4.95-1.45,26.455,26.455,0,0,0,5-3.75,36.886,36.886,0,0,0,4.35-4.85,22.2,22.2,0,0,0,2.8-4.75L439-15a36.907,36.907,0,0,1-5.3,8.3A31.642,31.642,0,0,1,426.15,0,15.9,15.9,0,0,1,417.6,2.6Zm28.7,1.8q-6.2,0-9.4-3.4a11.789,11.789,0,0,1-3.2-8.4,22.985,22.985,0,0,1,2.25-9.4,39.367,39.367,0,0,1,6-9.4,33.132,33.132,0,0,1,8.3-7.1A17.623,17.623,0,0,1,459.3-36a8.392,8.392,0,0,1,4.45,1.25q2.05,1.25,2.05,5.05a12.56,12.56,0,0,1-2.2,7.1,22.545,22.545,0,0,1-5.9,5.9,36.372,36.372,0,0,1-8.05,4.25,36.1,36.1,0,0,1-8.75,2.15,8.808,8.808,0,0,0-.25,1.55q-.05.75-.05,1.55a14.853,14.853,0,0,0,.25,2.6,7.232,7.232,0,0,0,1.1,2.7,6.173,6.173,0,0,0,2.4,2.1,8.84,8.84,0,0,0,4.05.8,16.967,16.967,0,0,0,8.5-2.4,33.034,33.034,0,0,0,7.85-6.35,40.183,40.183,0,0,0,6.15-8.75l1.5,1.1a37.484,37.484,0,0,1-6.9,10.45,32.291,32.291,0,0,1-9.15,6.9A22.439,22.439,0,0,1,446.3,4.4Zm-4.7-17.2a29.526,29.526,0,0,0,6-2.4,43.782,43.782,0,0,0,6.4-4.05,23.484,23.484,0,0,0,5.1-5.2,10.21,10.21,0,0,0,2-5.95,2.563,2.563,0,0,0-.4-1.6,1.992,1.992,0,0,0-1.6-.5,9.115,9.115,0,0,0-4.95,1.75,24.263,24.263,0,0,0-5.1,4.65,44.02,44.02,0,0,0-4.45,6.35A30.647,30.647,0,0,0,441.6-12.8ZM479.7,5.1a12.844,12.844,0,0,1-7.65-2.05A11.315,11.315,0,0,1,468-2.05a16.678,16.678,0,0,1-1.2-6.15,10.548,10.548,0,0,1,.8-4.6,5.815,5.815,0,0,1,1.95-2.35,11.681,11.681,0,0,1,2.2-1.15,4.414,4.414,0,0,0,1.55-.9,66.09,66.09,0,0,0,5.35-6.55,46.813,46.813,0,0,0,4.45-7.65v-1.1q0-3.8,1.3-5.4a3.651,3.651,0,0,1,2.8-1.6,1.834,1.834,0,0,1,1.35.45A1.9,1.9,0,0,1,489.1-38a5.907,5.907,0,0,1-.3,1.6,9.278,9.278,0,0,0-.3,2.6,21.472,21.472,0,0,0,1.35,7.05q1.35,3.85,2.7,8.1A29.056,29.056,0,0,1,493.9-9.8a19.33,19.33,0,0,1-.15,2.4q-.15,1.2-.35,2.2a14.992,14.992,0,0,0,6.4-3.25,25.029,25.029,0,0,0,5.9-8.05l1,1a18.462,18.462,0,0,1-5.65,8.55A17.918,17.918,0,0,1,492.7-3.1a11.6,11.6,0,0,1-5.1,6.2A15.637,15.637,0,0,1,479.7,5.1Zm-.1-3.8A8.472,8.472,0,0,0,483,.45a5.894,5.894,0,0,0,2.9-3.75,18.053,18.053,0,0,1-7.4-3.25,20.463,20.463,0,0,1-4.9-4.85q-2,.1-2,3.2a11.108,11.108,0,0,0,2.1,6.5A6.789,6.789,0,0,0,479.6,1.3Zm6.9-6.6a16,16,0,0,0,.3-1.95q.1-1.05.1-2.25a37.807,37.807,0,0,0-1.15-9.2q-1.15-4.6-2.05-8.8-2.1,3.5-4.6,7a46.233,46.233,0,0,1-4.8,5.8A20.363,20.363,0,0,0,479-9,16.907,16.907,0,0,0,486.5-5.3Zm21.7,9.1q-2,0-3.05-3.25A24.223,24.223,0,0,1,504.1-6.9a50.654,50.654,0,0,1,1.55-11.3,121.2,121.2,0,0,1,4.2-13.85q2.65-7.25,5.9-14.2A142.854,142.854,0,0,1,522.4-58.9a59.175,59.175,0,0,1,6.45-9.1q3.05-3.4,5.35-3.4a2.9,2.9,0,0,1,2.75,2.2,12.132,12.132,0,0,1,.85,4.4,23.293,23.293,0,0,1-1.25,6.7,62.893,62.893,0,0,1-3.45,8.55,74.508,74.508,0,0,1-5.1,8.9,60.338,60.338,0,0,1-6.35,8,33.242,33.242,0,0,1-6.95,5.75,41.149,41.149,0,0,0-2.1,6.5,55.3,55.3,0,0,0-1.15,6.55,52.429,52.429,0,0,0-.35,5.75q0,.9.05,1.65t.05,1.35q1.1-2.9,2.5-6.3a68.259,68.259,0,0,1,3.2-6.7,39.129,39.129,0,0,1,4-6,20.156,20.156,0,0,1,4.8-4.35,10.6,10.6,0,0,1,5.8-1.65,7.016,7.016,0,0,1,4.7,1.45,8.63,8.63,0,0,1,2.5,3.55,11.985,11.985,0,0,1,.8,4.3,17.36,17.36,0,0,1-1.05,6.05Q537.4-11.9,536.3-9.3a12.813,12.813,0,0,0-1.1,5,3.749,3.749,0,0,0,.85,2.8,2.884,2.884,0,0,0,2.05.8,8.78,8.78,0,0,0,5.15-2.2,32.96,32.96,0,0,0,5.7-5.85,44.86,44.86,0,0,0,4.95-7.95l1.4,1.4a46.414,46.414,0,0,1-5.25,8.95A26.67,26.67,0,0,1,543.4.05a13.836,13.836,0,0,1-7.7,2.35A7.244,7.244,0,0,1,530.35.55,6.306,6.306,0,0,1,528.5-4.1a16.145,16.145,0,0,1,.8-4.7q.8-2.6,1.55-5.25A18.235,18.235,0,0,0,531.6-19q0-2.6-1.1-3.6a3.867,3.867,0,0,0-2.7-1,6.292,6.292,0,0,0-4.5,1.95,19.185,19.185,0,0,0-3.6,5.1q-1.6,3.15-3.05,6.65t-2.8,6.6a32.184,32.184,0,0,1-2.7,5.1Q509.8,3.8,508.2,3.8Zm8-35.4a30.447,30.447,0,0,0,5.35-5.55,74.43,74.43,0,0,0,4.75-7.05q2.2-3.7,3.95-7.25a50.052,50.052,0,0,0,2.7-6.45,15.556,15.556,0,0,0,.95-4.3,1.461,1.461,0,0,0-.05-.5.783.783,0,0,0-.15-.2q-.7,0-2.8,2.65a71.1,71.1,0,0,0-4.8,7.1,110.747,110.747,0,0,0-5.35,10.05A94.777,94.777,0,0,0,516.2-31.6ZM594.1,8.7q-4.8-.4-6.1-2.55A10.389,10.389,0,0,1,586.7.7a34.319,34.319,0,0,1,1.45-8.85q1.45-5.25,3.65-11.35t4.5-12.1q-1.1.1-2.8.25t-3.85.4q-2.15.25-4.75.65a5.849,5.849,0,0,1,2.05-4.25,11.955,11.955,0,0,1,4.85-2.3,31.145,31.145,0,0,1,6.7-.85q2.7-7.5,5.6-14.7t5.8-13.2q-.9-.1-1.8-.15t-2-.05a28.738,28.738,0,0,0-9.75,1.3,8.234,8.234,0,0,0-4.75,3.9,14.728,14.728,0,0,0-1.3,6.6,23.251,23.251,0,0,0,.35,4.2,25.723,25.723,0,0,0,1.15,4.1,9.084,9.084,0,0,1-5.55-2.8,8,8,0,0,1-1.75-5.3,13.06,13.06,0,0,1,3.75-9.2,24.982,24.982,0,0,1,10.1-6.25A42.146,42.146,0,0,1,612.5-71.5a71.392,71.392,0,0,1,10.4.75,66.761,66.761,0,0,0,9.7.75,27.036,27.036,0,0,0,4.2-.3,38.481,38.481,0,0,0,4.1-.9,28.336,28.336,0,0,1-6.7,6.1,11.034,11.034,0,0,1-5.4,1.5,36.282,36.282,0,0,1-6-.65,77.388,77.388,0,0,0-8.3-.95q-1.3,3.2-2.85,7.7t-3.2,9.6q-1.65,5.1-3.35,10.3,5.1.3,9.45.9A75.294,75.294,0,0,0,623-36a7.829,7.829,0,0,1-2,2.05,7.91,7.91,0,0,1-3.05,1.1,42.817,42.817,0,0,1-5.4.5q-3.45.15-9.05.25-.7,2.4-1.6,5.4t-1.55,5.45a34.1,34.1,0,0,1-1.05,3.45Q596.9-9.5,595.55-3A64.208,64.208,0,0,0,594.1,8.7Zm48.3-6.1A7.974,7.974,0,0,1,636.85.75,6.223,6.223,0,0,1,634.8-4.1a15.775,15.775,0,0,1,1.4-6.25q1.4-3.25,2.75-6.45a14.928,14.928,0,0,0,1.35-5.7,5.717,5.717,0,0,0-1.7-4.45,23.167,23.167,0,0,0-3.7-2.75q-2.2,5.7-4.8,10.95t-4.2,8.05l-1.1-2.1q1.4-2.6,3.65-7.55T632.9-31.5a3.392,3.392,0,0,1-1-2.5,7.446,7.446,0,0,1,1.65-4.9q1.65-2,2.65-2a1.313,1.313,0,0,1,1.45,1.05,7.494,7.494,0,0,1,.25,1.55,7.132,7.132,0,0,1-.5,1.9q-.5,1.4-.6,1.8a3.511,3.511,0,0,0,1.65,2.45Q640-31,642.05-29.6a14.925,14.925,0,0,1,3.6,3.5,8.686,8.686,0,0,1,1.55,5.3,16,16,0,0,1-1.25,6q-1.25,3.1-2.5,5.8a11.662,11.662,0,0,0-1.25,4.8,2.378,2.378,0,0,0,.85,2.15A3.51,3.51,0,0,0,645-1.5a10,10,0,0,0,4.95-1.45,26.456,26.456,0,0,0,5-3.75,36.884,36.884,0,0,0,4.35-4.85,22.2,22.2,0,0,0,2.8-4.75l1.7,1.3a36.9,36.9,0,0,1-5.3,8.3A31.641,31.641,0,0,1,650.95,0,15.9,15.9,0,0,1,642.4,2.6Zm24.4.6q-4.4,0-6.15-2.75A11.754,11.754,0,0,1,658.9-6a22.522,22.522,0,0,1,1-6.45,28.329,28.329,0,0,1,2.7-6.25,17.462,17.462,0,0,1,3.8-4.65,6.577,6.577,0,0,1,4.2-1.75,5.556,5.556,0,0,1,1.25.15,3.943,3.943,0,0,1,1.15.45,19.649,19.649,0,0,0-2.25,3.25,40.273,40.273,0,0,0-2.35,4.8,41.4,41.4,0,0,0-1.8,5.3,18.259,18.259,0,0,0-.7,4.55,7.054,7.054,0,0,0,.95,4.05A3.058,3.058,0,0,0,669.5-1.2q2,0,4.8-2.25a40.26,40.26,0,0,0,5.5-5.45,16.041,16.041,0,0,1-4.4-6.15A20.714,20.714,0,0,1,673.9-23a15.468,15.468,0,0,1,1.1-5.7,11.219,11.219,0,0,1,3.35-4.65A8.6,8.6,0,0,1,684-35.2q4.2,0,5.7,2.25a9.786,9.786,0,0,1,1.5,5.55,23.157,23.157,0,0,1-1.9,8.6,48.721,48.721,0,0,1-4.8,9A7.716,7.716,0,0,0,688-9a11.783,11.783,0,0,0,3.6-.65,12.79,12.79,0,0,0,4-2.25,11.087,11.087,0,0,0,3.2-4.4l1.4,1.1a13.831,13.831,0,0,1-5.75,6.95A14.391,14.391,0,0,1,687.4-6.2a12.229,12.229,0,0,1-2.5-.25,16.671,16.671,0,0,1-2.3-.65A37.4,37.4,0,0,1,675,.2,14.148,14.148,0,0,1,666.8,3.2Zm15.1-14.9a50.239,50.239,0,0,0,4.1-7.7,19.445,19.445,0,0,0,1.7-7.6,7.531,7.531,0,0,0-.8-3.95,2.487,2.487,0,0,0-2.2-1.25q-1.9,0-4,2.85a11.729,11.729,0,0,0-2.1,7.15,20.609,20.609,0,0,0,.85,5.6A13.006,13.006,0,0,0,681.9-11.7ZM747.7,3.1A6.277,6.277,0,0,1,742.4.9a8.409,8.409,0,0,1-1.7-5.3,16.5,16.5,0,0,1,.75-4.85q.75-2.45,1.45-4.8a14.776,14.776,0,0,0,.7-4.15,3.546,3.546,0,0,0-.8-2.65,2.684,2.684,0,0,0-1.9-.75q-2.4,0-5.4,3.75T727.9-7.1a40.16,40.16,0,0,0-2.8,4.9q-1.2,2.5-2.2,4.4a13.9,13.9,0,0,1-2.15-.2,7.734,7.734,0,0,1-2.25-.7,1.486,1.486,0,0,1-1-1.3,14.437,14.437,0,0,1,.95-3.35q.95-2.65,2.2-6.15t2.25-7.05a22.941,22.941,0,0,0,1-6.05,5.374,5.374,0,0,0-.55-2.6,1.94,1.94,0,0,0-1.85-1q-2.2,0-5.25,2.6a44.547,44.547,0,0,0-6.3,6.85,90.128,90.128,0,0,0-6.2,9.3A59.194,59.194,0,0,0,699,2.7a9.891,9.891,0,0,1-2.3-.35,11.056,11.056,0,0,1-2.45-.9Q693.2.9,693.2.4a22.664,22.664,0,0,1,.95-3.3q.95-2.9,2.15-7.05t2.3-8.45a41.267,41.267,0,0,0,1.3-7.5,4.49,4.49,0,0,1,2-1.65,6.473,6.473,0,0,1,2.9-.75,2.973,2.973,0,0,1,2.2.8,2.84,2.84,0,0,1,.8,2.1,19.069,19.069,0,0,1-.65,3.9q-.65,2.7-1.55,6.1,2-3.1,4.5-6.25a58.149,58.149,0,0,1,5.2-5.75,28.83,28.83,0,0,1,5.45-4.2,10.621,10.621,0,0,1,5.35-1.6q3.3,0,4.5,2.4a12.137,12.137,0,0,1,1.2,5.5,24.846,24.846,0,0,1-.4,4.35,35.307,35.307,0,0,1-1,4.2q-.6,1.95-1.2,3.45a61.207,61.207,0,0,1,4.45-6.55A24.294,24.294,0,0,1,739-25a10.576,10.576,0,0,1,6.1-2q3.4,0,4.75,2.05a8.438,8.438,0,0,1,1.35,4.75,19.553,19.553,0,0,1-.9,5.6q-.9,3-1.8,5.8a16.114,16.114,0,0,0-.9,4.8,4.2,4.2,0,0,0,.6,2.2,2.351,2.351,0,0,0,2.2,1,7.238,7.238,0,0,0,5.25-2.55,33.285,33.285,0,0,0,4.6-6.2,68.148,68.148,0,0,0,3.65-7.05l1.3,1.7a56.252,56.252,0,0,1-4.1,8.3A26.223,26.223,0,0,1,755.25.35,11.588,11.588,0,0,1,747.7,3.1Zm62.4,5.6a17.691,17.691,0,0,1-10.25-3.05,20.455,20.455,0,0,1-7-8.65,31.613,31.613,0,0,1-2.55-13.2,53.467,53.467,0,0,1,2.4-15.6,69.5,69.5,0,0,1,6.6-15.05,69.035,69.035,0,0,1,9.6-12.8,47.132,47.132,0,0,1,11.45-8.95,25.159,25.159,0,0,1,12.15-3.3,15.633,15.633,0,0,1,3.25.35,7.235,7.235,0,0,1,2.95,1.35H837a19.562,19.562,0,0,0-10.5,3.35,43.813,43.813,0,0,0-10.1,9.1,74.884,74.884,0,0,0-8.6,12.9,76.127,76.127,0,0,0-6,14.85,54.149,54.149,0,0,0-2.2,14.9,34.489,34.489,0,0,0,1.35,9.85,15.505,15.505,0,0,0,4.4,7.3A11.276,11.276,0,0,0,813.2,4.8a17.854,17.854,0,0,0,10.45-3.4,35.6,35.6,0,0,0,8.8-9.15,65.56,65.56,0,0,0,6.8-12.9,83.634,83.634,0,0,0,4.35-14.7,74.649,74.649,0,0,0,1.5-14.55,49.724,49.724,0,0,0-.4-6.05,22.251,22.251,0,0,0-1.35-5.6q-.95-2.35-2.75-2.35-1.7,0-3.8,2.25a29.53,29.53,0,0,0-4,5.6,61.746,61.746,0,0,0-3.4,7,38.642,38.642,0,0,0-2.1,6.45,7.352,7.352,0,0,1-4.05-2A4.668,4.668,0,0,1,822-47.8a12.221,12.221,0,0,1,1.85-5.95,31.578,31.578,0,0,1,4.8-6.3,31.9,31.9,0,0,1,6.1-5A11.271,11.271,0,0,1,840.6-67a5.566,5.566,0,0,1,4.4,1.95A14.236,14.236,0,0,1,847.7-60a31.761,31.761,0,0,1,1.35,6.65q.35,3.55.35,6.55a72.057,72.057,0,0,1-2.45,19.45A58.737,58.737,0,0,1,840.3-11.9,52.141,52.141,0,0,1,830.95-.6,39.763,39.763,0,0,1,820.4,6.35,25.815,25.815,0,0,1,810.1,8.7Zm47.3-4.8A4.633,4.633,0,0,1,852.8.75a21.613,21.613,0,0,1-1.3-8.15q0-.5.1-3.45t.5-9.25a12.218,12.218,0,0,1,.55-3.85Q853.1-25,855.5-25q1.9,0,2.35.75a6.451,6.451,0,0,1,.45,2.95q0,3.2-.4,7.3t-.4,7.8a15.057,15.057,0,0,0,.45,4.35A1.735,1.735,0,0,0,859.7-.5a6.124,6.124,0,0,0,3.95-2,32.215,32.215,0,0,0,4.4-5.25,74.094,74.094,0,0,0,4.25-6.95q2-3.7,3.6-7.2.2-6.8,1.5-9.05a3.8,3.8,0,0,1,3.3-2.25,3.134,3.134,0,0,1,2.95,1.45,5.217,5.217,0,0,1,.85,2.55,5.081,5.081,0,0,1-.8,2.7,23.255,23.255,0,0,0-1.7,3.6,19.625,19.625,0,0,0-.9,6.8,19.314,19.314,0,0,0,.3,3.25,6.127,6.127,0,0,0,1.3,2.95,3.682,3.682,0,0,0,3,1.2,6.031,6.031,0,0,0,4-1.65,18.423,18.423,0,0,0,3.9-5.75l1.2.9q-2.2,5.2-4.95,7.05A9.362,9.362,0,0,1,884.7-6.3a6.935,6.935,0,0,1-5.45-2.45,14.863,14.863,0,0,1-3.05-7.05,77.5,77.5,0,0,1-5.55,9.2,41.1,41.1,0,0,1-6.6,7.5Q860.6,3.9,857.4,3.9Zm45.1.5q-6.2,0-9.4-3.4a11.789,11.789,0,0,1-3.2-8.4,22.985,22.985,0,0,1,2.25-9.4,39.367,39.367,0,0,1,6-9.4,33.132,33.132,0,0,1,8.3-7.1A17.622,17.622,0,0,1,915.5-36a8.392,8.392,0,0,1,4.45,1.25Q922-33.5,922-29.7a12.561,12.561,0,0,1-2.2,7.1,22.546,22.546,0,0,1-5.9,5.9,36.373,36.373,0,0,1-8.05,4.25,36.1,36.1,0,0,1-8.75,2.15,8.805,8.805,0,0,0-.25,1.55q-.05.75-.05,1.55a14.85,14.85,0,0,0,.25,2.6,7.233,7.233,0,0,0,1.1,2.7,6.172,6.172,0,0,0,2.4,2.1,8.84,8.84,0,0,0,4.05.8,16.967,16.967,0,0,0,8.5-2.4,33.034,33.034,0,0,0,7.85-6.35,40.184,40.184,0,0,0,6.15-8.75l1.5,1.1a37.484,37.484,0,0,1-6.9,10.45,32.291,32.291,0,0,1-9.15,6.9A22.439,22.439,0,0,1,902.5,4.4Zm-4.7-17.2a29.527,29.527,0,0,0,6-2.4,43.782,43.782,0,0,0,6.4-4.05,23.483,23.483,0,0,0,5.1-5.2,10.211,10.211,0,0,0,2-5.95,2.563,2.563,0,0,0-.4-1.6,1.992,1.992,0,0,0-1.6-.5,9.115,9.115,0,0,0-4.95,1.75,24.265,24.265,0,0,0-5.1,4.65,44.02,44.02,0,0,0-4.45,6.35A30.65,30.65,0,0,0,897.8-12.8ZM957.8,2q-3.7,0-5.55-1.85A6.43,6.43,0,0,1,950.4-4.6a13.914,13.914,0,0,1,.75-4.3q.75-2.3,1.45-4.7a16.419,16.419,0,0,0,.7-4.6q0-2.6-1.1-3.6a3.867,3.867,0,0,0-2.7-1,10.277,10.277,0,0,0-6.3,2.5,34.312,34.312,0,0,0-6.15,6.4q-2.95,3.9-5.55,8t-4.6,7.4a8.924,8.924,0,0,1-3.25-.6A5.426,5.426,0,0,1,921.2-.9,14.639,14.639,0,0,1,922.25-4q1.05-2.6,2.45-6.3a76.966,76.966,0,0,0,2.45-7.7,28.657,28.657,0,0,0,1.05-7.2,5.642,5.642,0,0,1,1.95-1.5,6.107,6.107,0,0,1,2.85-.7q3,0,3,2.7a23.865,23.865,0,0,1-.75,4.75q-.75,3.25-1.95,7.05a72.311,72.311,0,0,1,5.9-7.65,36.163,36.163,0,0,1,6.95-6.2,12.956,12.956,0,0,1,7.25-2.45q4.1,0,5.95,2.85a11.248,11.248,0,0,1,1.85,6.25,15.751,15.751,0,0,1-1,5.7q-1,2.6-2.05,5a11.89,11.89,0,0,0-1.05,4.8,3.568,3.568,0,0,0,.85,2.75,2.862,2.862,0,0,0,1.95.75,7.632,7.632,0,0,0,5.05-2.3,29.9,29.9,0,0,0,4.9-5.9A66.882,66.882,0,0,0,974-16.6l1.3,1.4a50.418,50.418,0,0,1-4.75,8.75,25.16,25.16,0,0,1-5.8,6.15A11.52,11.52,0,0,1,957.8,2Z" transform="translate(1.6 72.5)" fill="none" stroke="#9a7141" stroke-width="1"/>
</svg>
