<svg xmlns="http://www.w3.org/2000/svg" width="896.919" height="101.1" viewBox="0 0 896.919 101.1">
  <path id="Path_3706" data-name="Path 3706" d="M41,8.7a25.469,25.469,0,0,1-8.05-1.5,90.915,90.915,0,0,1-9.1-3.65Q19.2,1.4,14.6-.5A21.8,21.8,0,0,1,9.35,3.75,11.918,11.918,0,0,1,3.4,5.3,10.281,10.281,0,0,1-2.25,3.8,10.919,10.919,0,0,1-5.85.2,7.6,7.6,0,0,1-7.1-3.6,4.033,4.033,0,0,1-5.4-6.85Q-3.7-8.2.5-8.2a31.4,31.4,0,0,1,5.85.6Q9.5-7,12.9-6.1a62.906,62.906,0,0,0,4.4-9.7q2-5.5,4-11.7t3.9-12.3a17,17,0,0,1-7.35-4.55A9.243,9.243,0,0,1,15.2-50.6a9.146,9.146,0,0,1,.8-3.65,8.207,8.207,0,0,1,2.4-3.15,5.7,5.7,0,0,1,3.7-1.3,6.933,6.933,0,0,0-1.2,3.15,22.079,22.079,0,0,0-.3,3.25,11.36,11.36,0,0,0,1.55,6.1,10.508,10.508,0,0,0,3.95,3.8q2-5.9,4.15-11.2A60.916,60.916,0,0,1,35-63.05a24.351,24.351,0,0,1,5.75-6.55A11.346,11.346,0,0,1,47.8-72a12.456,12.456,0,0,1,4.45.9,9.162,9.162,0,0,1,4.05,3.15A10.352,10.352,0,0,1,58-61.6a21.424,21.424,0,0,1-1.45,7.35,25.441,25.441,0,0,1-4.4,7.5,22.5,22.5,0,0,1-7.55,5.8,26.755,26.755,0,0,1-11,2.45H32q-1.9,6-4.1,12.15t-4.7,11.7A78.88,78.88,0,0,1,17.9-4.7Q22.2-3.4,26.95-2T36.2.35a39.995,39.995,0,0,0,8.2.95,16.5,16.5,0,0,0,4-.45A17.587,17.587,0,0,0,52-.5q-1.7,5-4.45,7.1A10.479,10.479,0,0,1,41,8.7ZM2.8,2.1A7.7,7.7,0,0,0,6.95.95,13.093,13.093,0,0,0,10.4-2.3q-3.1-1.2-6-2A19.507,19.507,0,0,0-.7-5.1a4.68,4.68,0,0,0-2.65.55A1.715,1.715,0,0,0-4.1-3.1,4.834,4.834,0,0,0-2.15.35,7.132,7.132,0,0,0,2.8,2.1Zm30-43a14.012,14.012,0,0,0,8.05-2.65A24.534,24.534,0,0,0,46.9-49.8a31.179,31.179,0,0,0,3.8-7.6A21.97,21.97,0,0,0,52-64.2Q52-67,50.95-68a3.441,3.441,0,0,0-2.45-1q-3,0-5.65,3.9a51.311,51.311,0,0,0-5.1,10.25Q35.3-48.5,32.8-40.9ZM68,4.4q-6.2,0-9.4-3.4a11.789,11.789,0,0,1-3.2-8.4,22.985,22.985,0,0,1,2.25-9.4,39.367,39.367,0,0,1,6-9.4,33.132,33.132,0,0,1,8.3-7.1A17.622,17.622,0,0,1,81-36a8.392,8.392,0,0,1,4.45,1.25Q87.5-33.5,87.5-29.7a12.561,12.561,0,0,1-2.2,7.1,22.546,22.546,0,0,1-5.9,5.9,36.372,36.372,0,0,1-8.05,4.25A36.1,36.1,0,0,1,62.6-10.3a8.808,8.808,0,0,0-.25,1.55Q62.3-8,62.3-7.2a14.852,14.852,0,0,0,.25,2.6,7.233,7.233,0,0,0,1.1,2.7A6.173,6.173,0,0,0,66.05.2,8.84,8.84,0,0,0,70.1,1a16.967,16.967,0,0,0,8.5-2.4,33.035,33.035,0,0,0,7.85-6.35A40.184,40.184,0,0,0,92.6-16.5l1.5,1.1A37.484,37.484,0,0,1,87.2-4.95a32.291,32.291,0,0,1-9.15,6.9A22.439,22.439,0,0,1,68,4.4ZM63.3-12.8a29.527,29.527,0,0,0,6-2.4,43.784,43.784,0,0,0,6.4-4.05,23.484,23.484,0,0,0,5.1-5.2,10.21,10.21,0,0,0,2-5.95,2.563,2.563,0,0,0-.4-1.6,1.992,1.992,0,0,0-1.6-.5,9.115,9.115,0,0,0-4.95,1.75,24.264,24.264,0,0,0-5.1,4.65,44.02,44.02,0,0,0-4.45,6.35A30.648,30.648,0,0,0,63.3-12.8ZM99.2,4.6a8.919,8.919,0,0,1-6.75-2.55Q90-.5,90-5.5a45.049,45.049,0,0,1,1.6-10.65A124.161,124.161,0,0,1,95.7-29.2q-.9-.2-1.8-.35A11.845,11.845,0,0,1,92.1-30v-2.2l2.2.2q1.1.1,2.4.2,2.1-5.4,4.5-10.4t4.8-8.95a38.6,38.6,0,0,1,4.55-6.25q2.15-2.3,3.75-2.3a2.458,2.458,0,0,1,1.55.6,2.167,2.167,0,0,1,.75,1.8q0,1.8-2.1,5.6t-5.15,9q-3.05,5.2-5.95,11.2h3.5q3.7,0,7.3-.1t7.3-.5v2.3q-5.5.5-9.9.8t-8.1.4h-1.4a92.12,92.12,0,0,0-3.8,10.55A37.706,37.706,0,0,0,96.7-7.4q0,4.2,1.3,6A4.827,4.827,0,0,0,102.2.4q5.2,0,10.25-4.55A40.87,40.87,0,0,0,121.4-16.6l1.3,1a45.487,45.487,0,0,1-6.2,10.3,30.634,30.634,0,0,1-8.15,7.25A17.667,17.667,0,0,1,99.2,4.6Zm35.3-62a12.589,12.589,0,0,1-1.6-1.45,2.653,2.653,0,0,1-.8-1.85,6,6,0,0,1,1.45-3.35q1.45-1.95,3-4.1a15.135,15.135,0,0,0,2.15-3.95,2.709,2.709,0,0,1,2,.95,3.045,3.045,0,0,1,.9,2.15,6.718,6.718,0,0,1-1.25,3.3q-1.25,2-2.9,4.2T134.5-57.4Zm7.6,62.5a12.844,12.844,0,0,1-7.65-2.05,11.315,11.315,0,0,1-4.05-5.1,16.678,16.678,0,0,1-1.2-6.15,10.548,10.548,0,0,1,.8-4.6,5.815,5.815,0,0,1,1.95-2.35,11.681,11.681,0,0,1,2.2-1.15,4.413,4.413,0,0,0,1.55-.9,66.088,66.088,0,0,0,5.35-6.55,46.813,46.813,0,0,0,4.45-7.65v-1.1q0-3.8,1.3-5.4a3.651,3.651,0,0,1,2.8-1.6,1.834,1.834,0,0,1,1.35.45A1.9,1.9,0,0,1,151.5-38a5.907,5.907,0,0,1-.3,1.6,9.277,9.277,0,0,0-.3,2.6,21.472,21.472,0,0,0,1.35,7.05q1.35,3.85,2.7,8.1A29.056,29.056,0,0,1,156.3-9.8a19.33,19.33,0,0,1-.15,2.4q-.15,1.2-.35,2.2a14.992,14.992,0,0,0,6.4-3.25,25.03,25.03,0,0,0,5.9-8.05l1,1a18.463,18.463,0,0,1-5.65,8.55A17.918,17.918,0,0,1,155.1-3.1,11.6,11.6,0,0,1,150,3.1,15.637,15.637,0,0,1,142.1,5.1ZM142,1.3a8.472,8.472,0,0,0,3.4-.85,5.894,5.894,0,0,0,2.9-3.75,18.053,18.053,0,0,1-7.4-3.25A20.463,20.463,0,0,1,136-11.4q-2,.1-2,3.2a11.108,11.108,0,0,0,2.1,6.5A6.789,6.789,0,0,0,142,1.3Zm6.9-6.6a16,16,0,0,0,.3-1.95q.1-1.05.1-2.25a37.806,37.806,0,0,0-1.15-9.2q-1.15-4.6-2.05-8.8-2.1,3.5-4.6,7a46.233,46.233,0,0,1-4.8,5.8A20.363,20.363,0,0,0,141.4-9,16.907,16.907,0,0,0,148.9-5.3ZM202.8,5.6a11.145,11.145,0,0,1-8.15-3.2Q191.4-.8,191.4-7.3a26.032,26.032,0,0,1,1.9-9.75,30.357,30.357,0,0,1,5.1-8.5,26.9,26.9,0,0,1,7.15-6,15.758,15.758,0,0,1,7.85-2.25q4.1,0,5.7,2.3a8.578,8.578,0,0,1,1.6,5,10.157,10.157,0,0,1-1.35,5.15A4.086,4.086,0,0,1,215.7-19a3.537,3.537,0,0,1-2.9-1.6,7.16,7.16,0,0,0,2.4-3.05,10.678,10.678,0,0,0,1.1-4.75,2.6,2.6,0,0,0-.45-1.6,1.948,1.948,0,0,0-1.65-.6,8.735,8.735,0,0,0-5.45,2.35,26.3,26.3,0,0,0-5.25,6.05,38.3,38.3,0,0,0-3.9,7.85,22.65,22.65,0,0,0-1.5,7.65,11.037,11.037,0,0,0,1.45,5.55Q201,1.4,205.3,1.4a16.866,16.866,0,0,0,8-2.2,26.938,26.938,0,0,0,7.6-6.25,33.471,33.471,0,0,0,5.7-9.55l1.5,1.2a35.756,35.756,0,0,1-6.4,10.85,32.9,32.9,0,0,1-9,7.45A20.322,20.322,0,0,1,202.8,5.6Zm28.5-2.4q-4.4,0-6.15-2.75A11.754,11.754,0,0,1,223.4-6a22.523,22.523,0,0,1,1-6.45,28.327,28.327,0,0,1,2.7-6.25,17.462,17.462,0,0,1,3.8-4.65,6.577,6.577,0,0,1,4.2-1.75,5.557,5.557,0,0,1,1.25.15,3.943,3.943,0,0,1,1.15.45,19.651,19.651,0,0,0-2.25,3.25,40.271,40.271,0,0,0-2.35,4.8,41.4,41.4,0,0,0-1.8,5.3,18.256,18.256,0,0,0-.7,4.55,7.054,7.054,0,0,0,.95,4.05A3.058,3.058,0,0,0,234-1.2q2,0,4.8-2.25a40.259,40.259,0,0,0,5.5-5.45,16.041,16.041,0,0,1-4.4-6.15A20.714,20.714,0,0,1,238.4-23a15.468,15.468,0,0,1,1.1-5.7,11.219,11.219,0,0,1,3.35-4.65,8.6,8.6,0,0,1,5.65-1.85q4.2,0,5.7,2.25a9.786,9.786,0,0,1,1.5,5.55,23.156,23.156,0,0,1-1.9,8.6,48.723,48.723,0,0,1-4.8,9,7.716,7.716,0,0,0,3.5.8,11.783,11.783,0,0,0,3.6-.65,12.79,12.79,0,0,0,4-2.25,11.087,11.087,0,0,0,3.2-4.4l1.4,1.1a13.83,13.83,0,0,1-5.75,6.95A14.391,14.391,0,0,1,251.9-6.2a12.23,12.23,0,0,1-2.5-.25,16.669,16.669,0,0,1-2.3-.65A37.4,37.4,0,0,1,239.5.2,14.148,14.148,0,0,1,231.3,3.2Zm15.1-14.9a50.234,50.234,0,0,0,4.1-7.7,19.446,19.446,0,0,0,1.7-7.6,7.531,7.531,0,0,0-.8-3.95,2.487,2.487,0,0,0-2.2-1.25q-1.9,0-4,2.85a11.729,11.729,0,0,0-2.1,7.15,20.611,20.611,0,0,0,.85,5.6A13.007,13.007,0,0,0,246.4-11.7ZM312.2,3.1A6.276,6.276,0,0,1,306.9.9a8.41,8.41,0,0,1-1.7-5.3,16.5,16.5,0,0,1,.75-4.85q.75-2.45,1.45-4.8a14.777,14.777,0,0,0,.7-4.15,3.547,3.547,0,0,0-.8-2.65,2.684,2.684,0,0,0-1.9-.75q-2.4,0-5.4,3.75T292.4-7.1a40.169,40.169,0,0,0-2.8,4.9q-1.2,2.5-2.2,4.4a13.9,13.9,0,0,1-2.15-.2A7.734,7.734,0,0,1,283,1.3,1.486,1.486,0,0,1,282,0a14.438,14.438,0,0,1,.95-3.35q.95-2.65,2.2-6.15t2.25-7.05a22.942,22.942,0,0,0,1-6.05,5.374,5.374,0,0,0-.55-2.6,1.94,1.94,0,0,0-1.85-1q-2.2,0-5.25,2.6a44.545,44.545,0,0,0-6.3,6.85,90.133,90.133,0,0,0-6.2,9.3A59.2,59.2,0,0,0,263.5,2.7a9.89,9.89,0,0,1-2.3-.35,11.056,11.056,0,0,1-2.45-.9Q257.7.9,257.7.4a22.669,22.669,0,0,1,.95-3.3q.95-2.9,2.15-7.05t2.3-8.45a41.264,41.264,0,0,0,1.3-7.5,4.491,4.491,0,0,1,2-1.65,6.473,6.473,0,0,1,2.9-.75,2.973,2.973,0,0,1,2.2.8,2.839,2.839,0,0,1,.8,2.1,19.067,19.067,0,0,1-.65,3.9q-.65,2.7-1.55,6.1,2-3.1,4.5-6.25a58.142,58.142,0,0,1,5.2-5.75,28.829,28.829,0,0,1,5.45-4.2,10.621,10.621,0,0,1,5.35-1.6q3.3,0,4.5,2.4a12.137,12.137,0,0,1,1.2,5.5,24.846,24.846,0,0,1-.4,4.35,35.307,35.307,0,0,1-1,4.2q-.6,1.95-1.2,3.45a61.216,61.216,0,0,1,4.45-6.55A24.292,24.292,0,0,1,303.5-25a10.576,10.576,0,0,1,6.1-2q3.4,0,4.75,2.05a8.438,8.438,0,0,1,1.35,4.75,19.554,19.554,0,0,1-.9,5.6q-.9,3-1.8,5.8a16.117,16.117,0,0,0-.9,4.8,4.2,4.2,0,0,0,.6,2.2,2.351,2.351,0,0,0,2.2,1,7.237,7.237,0,0,0,5.25-2.55,33.288,33.288,0,0,0,4.6-6.2,68.148,68.148,0,0,0,3.65-7.05l1.3,1.7a56.246,56.246,0,0,1-4.1,8.3A26.223,26.223,0,0,1,319.75.35,11.588,11.588,0,0,1,312.2,3.1Zm8,24.9a2.444,2.444,0,0,1-1.6-.7,5.45,5.45,0,0,1-1.25-1.55,9.705,9.705,0,0,1-.55-1.15q1.8-5.7,3.3-10.05t2.8-8.6q1.3-4.25,2.45-9.6t2.4-13Q329-24.3,330.4-35.4a3.3,3.3,0,0,1,.4-1.45q.3-.45,1.6-.45a4.833,4.833,0,0,1,4,1.5,5.163,5.163,0,0,1,1.2,3.3,35.177,35.177,0,0,1-.5,4.55q-.5,3.25-1.5,7.65a48.447,48.447,0,0,1,4.3-6.35,23.329,23.329,0,0,1,5.7-5.2,12.721,12.721,0,0,1,7-2.05,9.854,9.854,0,0,1,7.5,3.2,11.784,11.784,0,0,1,3,8.4,22.126,22.126,0,0,1-1.75,8.25,30.765,30.765,0,0,1-4.95,8.2A26.191,26.191,0,0,1,348.85.4a19.64,19.64,0,0,1-9.65,2.4,12.859,12.859,0,0,1-4.5-.65Q333,1.5,333,.7q0-.5.75-.55T335.5.1a18.342,18.342,0,0,0,7.95-2,22.62,22.62,0,0,0,6.6-5.05,24.442,24.442,0,0,0,4.45-6.95,19,19,0,0,0,1.6-7.4,10.142,10.142,0,0,0-1.35-5.4,4.717,4.717,0,0,0-4.35-2.2,9.458,9.458,0,0,0-5.05,1.6,22.1,22.1,0,0,0-4.8,4.15,44.628,44.628,0,0,0-4,5.25,32.916,32.916,0,0,0-2.65,4.8Q332.1-5.9,330.4.95T327.1,13.4q-1.6,5.6-2.95,9.3t-2.55,4.7A1.919,1.919,0,0,1,320.2,28ZM374.5,3q-4.4,0-6.25-3a13.85,13.85,0,0,1-1.85-7.4,44.318,44.318,0,0,1,1.8-11.4,125.126,125.126,0,0,1,4.75-13.9q2.95-7.3,6.45-14.25t7.05-12.6a74.61,74.61,0,0,1,6.5-9.05Q395.9-72,397.7-72a2.22,2.22,0,0,1,1.95,1.3,12.129,12.129,0,0,1,1.2,3.05,13.1,13.1,0,0,1,.45,3.25,25.066,25.066,0,0,1-1.35,7.05,79.4,79.4,0,0,1-3.8,9.65,103.526,103.526,0,0,1-5.8,10.75A99.07,99.07,0,0,1,383-26.55,58.438,58.438,0,0,1,374.6-18q-.6,2.7-.95,5.2a33.994,33.994,0,0,0-.35,4.7,10.645,10.645,0,0,0,1.15,5.6A3.646,3.646,0,0,0,377.7-.7a8,8,0,0,0,5.25-2.35,29.947,29.947,0,0,0,5.05-6,50.339,50.339,0,0,0,4.1-7.55l1.8.9a49.77,49.77,0,0,1-9,13.7Q380,3,374.5,3Zm1.3-25.3a82.994,82.994,0,0,0,6.65-8.05,99.73,99.73,0,0,0,6-9.25q2.75-4.8,4.85-9.25a68.607,68.607,0,0,0,3.25-8,19.426,19.426,0,0,0,1.15-5.55,1.722,1.722,0,0,0-.15-.9.992.992,0,0,0-.35-.3q-.8,0-2.65,2.45t-4.4,6.65q-2.55,4.2-5.2,9.5T379.9-33.85Q377.5-28,375.8-22.3ZM401.1,4.4q-6.2,0-9.4-3.4a11.789,11.789,0,0,1-3.2-8.4,22.985,22.985,0,0,1,2.25-9.4,39.367,39.367,0,0,1,6-9.4,33.132,33.132,0,0,1,8.3-7.1A17.623,17.623,0,0,1,414.1-36a8.392,8.392,0,0,1,4.45,1.25q2.05,1.25,2.05,5.05a12.56,12.56,0,0,1-2.2,7.1,22.545,22.545,0,0,1-5.9,5.9,36.372,36.372,0,0,1-8.05,4.25,36.1,36.1,0,0,1-8.75,2.15,8.808,8.808,0,0,0-.25,1.55q-.05.75-.05,1.55a14.853,14.853,0,0,0,.25,2.6,7.232,7.232,0,0,0,1.1,2.7,6.173,6.173,0,0,0,2.4,2.1,8.84,8.84,0,0,0,4.05.8,16.967,16.967,0,0,0,8.5-2.4,33.034,33.034,0,0,0,7.85-6.35,40.183,40.183,0,0,0,6.15-8.75l1.5,1.1a37.484,37.484,0,0,1-6.9,10.45,32.291,32.291,0,0,1-9.15,6.9A22.439,22.439,0,0,1,401.1,4.4Zm-4.7-17.2a29.526,29.526,0,0,0,6-2.4,43.782,43.782,0,0,0,6.4-4.05,23.484,23.484,0,0,0,5.1-5.2,10.21,10.21,0,0,0,2-5.95,2.563,2.563,0,0,0-.4-1.6,1.992,1.992,0,0,0-1.6-.5,9.115,9.115,0,0,0-4.95,1.75,24.263,24.263,0,0,0-5.1,4.65,44.02,44.02,0,0,0-4.45,6.35A30.647,30.647,0,0,0,396.4-12.8ZM432.3,4.6a8.919,8.919,0,0,1-6.75-2.55Q423.1-.5,423.1-5.5a45.049,45.049,0,0,1,1.6-10.65,124.167,124.167,0,0,1,4.1-13.05q-.9-.2-1.8-.35a11.845,11.845,0,0,1-1.8-.45v-2.2l2.2.2q1.1.1,2.4.2,2.1-5.4,4.5-10.4t4.8-8.95a38.6,38.6,0,0,1,4.55-6.25q2.15-2.3,3.75-2.3a2.458,2.458,0,0,1,1.55.6,2.167,2.167,0,0,1,.75,1.8q0,1.8-2.1,5.6t-5.15,9q-3.05,5.2-5.95,11.2H440q3.7,0,7.3-.1t7.3-.5v2.3q-5.5.5-9.9.8t-8.1.4h-1.4a92.121,92.121,0,0,0-3.8,10.55A37.707,37.707,0,0,0,429.8-7.4q0,4.2,1.3,6A4.827,4.827,0,0,0,435.3.4q5.2,0,10.25-4.55A40.87,40.87,0,0,0,454.5-16.6l1.3,1a45.486,45.486,0,0,1-6.2,10.3,30.635,30.635,0,0,1-8.15,7.25A17.667,17.667,0,0,1,432.3,4.6Zm31-.2q-6.2,0-9.4-3.4a11.789,11.789,0,0,1-3.2-8.4,22.985,22.985,0,0,1,2.25-9.4,39.367,39.367,0,0,1,6-9.4,33.132,33.132,0,0,1,8.3-7.1A17.623,17.623,0,0,1,476.3-36a8.392,8.392,0,0,1,4.45,1.25q2.05,1.25,2.05,5.05a12.56,12.56,0,0,1-2.2,7.1,22.545,22.545,0,0,1-5.9,5.9,36.372,36.372,0,0,1-8.05,4.25,36.1,36.1,0,0,1-8.75,2.15,8.808,8.808,0,0,0-.25,1.55q-.05.75-.05,1.55a14.853,14.853,0,0,0,.25,2.6,7.232,7.232,0,0,0,1.1,2.7,6.173,6.173,0,0,0,2.4,2.1,8.84,8.84,0,0,0,4.05.8,16.967,16.967,0,0,0,8.5-2.4,33.034,33.034,0,0,0,7.85-6.35,40.183,40.183,0,0,0,6.15-8.75l1.5,1.1a37.484,37.484,0,0,1-6.9,10.45,32.291,32.291,0,0,1-9.15,6.9A22.439,22.439,0,0,1,463.3,4.4Zm-4.7-17.2a29.526,29.526,0,0,0,6-2.4,43.782,43.782,0,0,0,6.4-4.05,23.484,23.484,0,0,0,5.1-5.2,10.21,10.21,0,0,0,2-5.95,2.563,2.563,0,0,0-.4-1.6,1.992,1.992,0,0,0-1.6-.5,9.115,9.115,0,0,0-4.95,1.75,24.263,24.263,0,0,0-5.1,4.65,44.02,44.02,0,0,0-4.45,6.35A30.647,30.647,0,0,0,458.6-12.8ZM516.3,28a7.662,7.662,0,0,1-4.5-1.4,4.891,4.891,0,0,1-2-4.3,9.9,9.9,0,0,1,1.7-5.7,20.349,20.349,0,0,1,4.5-4.65,44.345,44.345,0,0,1,6.3-4q3.5-1.85,7.1-3.55,1.3-3.5,2.7-8t2.6-9.4a52.767,52.767,0,0,1-6.8,8.5,10.8,10.8,0,0,1-7.7,3.6,9.238,9.238,0,0,1-3.8-.85,7.539,7.539,0,0,1-3.15-2.65A8.076,8.076,0,0,1,512-9.1a26.3,26.3,0,0,1,.95-6.4,61.291,61.291,0,0,1,2.35-7.25,30.692,30.692,0,0,1,2.95-5.85q1.55-2.3,2.65-2.3a6.05,6.05,0,0,1,1.6.35,9.909,9.909,0,0,1,2.1.95,1.985,1.985,0,0,1,1.1,1.3,25.966,25.966,0,0,0-2,3.65q-1.1,2.35-2.15,5.25t-1.75,5.6a19.1,19.1,0,0,0-.7,4.7,4.866,4.866,0,0,0,.75,2.8,2.977,2.977,0,0,0,2.65,1.1,7.25,7.25,0,0,0,4.35-1.85,29.6,29.6,0,0,0,4.65-4.7,61.625,61.625,0,0,0,4.3-6.05q.2-.9.45-2.2t.55-2.6a10.774,10.774,0,0,1,1.55-3.2A4.091,4.091,0,0,1,542-27.5q.6,0,1.15.05a6.887,6.887,0,0,1,1.25.25,34.013,34.013,0,0,1-.95,5.95q-.95,4.35-2.7,10.1T536.7.6a31.3,31.3,0,0,0,9.05-5.85A28.7,28.7,0,0,0,553.1-16.4l1.4,1.2a23.824,23.824,0,0,1-4.55,8.4A34.445,34.445,0,0,1,543.1-.6a48.736,48.736,0,0,1-7.6,4.3,107.307,107.307,0,0,1-5.7,11.95,40.607,40.607,0,0,1-6.5,8.95Q519.9,28,516.3,28Zm-.7-3.4q1.6,0,5.1-3.95T528.1,7.4q-3.8,2-7.25,4.15a23.159,23.159,0,0,0-5.55,4.65,8.36,8.36,0,0,0-2.1,5.5,3.956,3.956,0,0,0,.55,1.9A1.94,1.94,0,0,0,515.6,24.6ZM557.9,3.2q-4.4,0-6.15-2.75A11.754,11.754,0,0,1,550-6a22.522,22.522,0,0,1,1-6.45,28.329,28.329,0,0,1,2.7-6.25,17.462,17.462,0,0,1,3.8-4.65,6.577,6.577,0,0,1,4.2-1.75,5.556,5.556,0,0,1,1.25.15,3.943,3.943,0,0,1,1.15.45,19.649,19.649,0,0,0-2.25,3.25,40.273,40.273,0,0,0-2.35,4.8,41.4,41.4,0,0,0-1.8,5.3A18.259,18.259,0,0,0,557-6.6a7.054,7.054,0,0,0,.95,4.05A3.058,3.058,0,0,0,560.6-1.2q2,0,4.8-2.25a40.26,40.26,0,0,0,5.5-5.45,16.041,16.041,0,0,1-4.4-6.15A20.714,20.714,0,0,1,565-23a15.468,15.468,0,0,1,1.1-5.7,11.219,11.219,0,0,1,3.35-4.65,8.6,8.6,0,0,1,5.65-1.85q4.2,0,5.7,2.25a9.786,9.786,0,0,1,1.5,5.55,23.157,23.157,0,0,1-1.9,8.6,48.721,48.721,0,0,1-4.8,9,7.716,7.716,0,0,0,3.5.8,11.783,11.783,0,0,0,3.6-.65,12.79,12.79,0,0,0,4-2.25,11.087,11.087,0,0,0,3.2-4.4l1.4,1.1a13.831,13.831,0,0,1-5.75,6.95A14.391,14.391,0,0,1,578.5-6.2a12.229,12.229,0,0,1-2.5-.25,16.671,16.671,0,0,1-2.3-.65A37.4,37.4,0,0,1,566.1.2,14.148,14.148,0,0,1,557.9,3.2ZM573-11.7a50.239,50.239,0,0,0,4.1-7.7,19.445,19.445,0,0,0,1.7-7.6,7.531,7.531,0,0,0-.8-3.95,2.487,2.487,0,0,0-2.2-1.25q-1.9,0-4,2.85a11.729,11.729,0,0,0-2.1,7.15,20.609,20.609,0,0,0,.85,5.6A13.006,13.006,0,0,0,573-11.7ZM595.3,3a6.263,6.263,0,0,1-5.45-3.1,12.577,12.577,0,0,1-2.05-7.1,29.522,29.522,0,0,1,.9-6.7,53.631,53.631,0,0,1,2.35-7.45A38.034,38.034,0,0,1,594-27.4q1.5-2.4,2.7-2.4a5.381,5.381,0,0,1,1.8.6,6.691,6.691,0,0,1,2.2,1.6,46.075,46.075,0,0,0-2.7,5.1,54.338,54.338,0,0,0-2.8,7.35A25.108,25.108,0,0,0,594-7.9a21.123,21.123,0,0,0,.2,2.3,7.632,7.632,0,0,0,.95,2.9,2.437,2.437,0,0,0,2.25,1.3,5.581,5.581,0,0,0,3.85-1.95,33.559,33.559,0,0,0,4-5q2.05-3.05,4-6.55t3.55-6.8q1.6-3.3,2.7-5.5a16.347,16.347,0,0,1,1.95.45,10.567,10.567,0,0,1,2.25.9,1.7,1.7,0,0,1,1,1.55,11.747,11.747,0,0,1-1,2.6q-1,2.2-2.3,5.35t-2.3,6.4a19.867,19.867,0,0,0-1,5.75,4.875,4.875,0,0,0,.7,2.75A2.669,2.669,0,0,0,617.2-.4a9.853,9.853,0,0,0,5.05-1.9,28.866,28.866,0,0,0,6.05-5.5,38.125,38.125,0,0,0,5.5-8.7l1.4,1a34.961,34.961,0,0,1-5.55,9.6,29.392,29.392,0,0,1-7.3,6.55A14.451,14.451,0,0,1,614.8,3a6.992,6.992,0,0,1-4.2-1.1,5.757,5.757,0,0,1-2.1-2.95A15.072,15.072,0,0,1,607.8-5a13.46,13.46,0,0,1,.15-2q.15-1,.35-2a61.166,61.166,0,0,1-3.85,5.85A21.284,21.284,0,0,1,600.1,1.3,7.965,7.965,0,0,1,595.3,3Zm54.1-.4A7.974,7.974,0,0,1,643.85.75,6.223,6.223,0,0,1,641.8-4.1a15.775,15.775,0,0,1,1.4-6.25q1.4-3.25,2.75-6.45a14.928,14.928,0,0,0,1.35-5.7,5.717,5.717,0,0,0-1.7-4.45,23.167,23.167,0,0,0-3.7-2.75q-2.2,5.7-4.8,10.95t-4.2,8.05l-1.1-2.1q1.4-2.6,3.65-7.55T639.9-31.5a3.392,3.392,0,0,1-1-2.5,7.446,7.446,0,0,1,1.65-4.9q1.65-2,2.65-2a1.313,1.313,0,0,1,1.45,1.05,7.494,7.494,0,0,1,.25,1.55,7.132,7.132,0,0,1-.5,1.9q-.5,1.4-.6,1.8a3.511,3.511,0,0,0,1.65,2.45Q647-31,649.05-29.6a14.925,14.925,0,0,1,3.6,3.5,8.686,8.686,0,0,1,1.55,5.3,16,16,0,0,1-1.25,6q-1.25,3.1-2.5,5.8a11.662,11.662,0,0,0-1.25,4.8,2.378,2.378,0,0,0,.85,2.15A3.51,3.51,0,0,0,652-1.5a10,10,0,0,0,4.95-1.45,26.456,26.456,0,0,0,5-3.75,36.884,36.884,0,0,0,4.35-4.85,22.2,22.2,0,0,0,2.8-4.75l1.7,1.3a36.9,36.9,0,0,1-5.3,8.3A31.641,31.641,0,0,1,657.95,0,15.9,15.9,0,0,1,649.4,2.6Zm50.8.6A7.716,7.716,0,0,1,693.95.65,9.661,9.661,0,0,1,691.8-5.8a22.7,22.7,0,0,1,1.55-7.95,39.478,39.478,0,0,1,4.1-8,42.759,42.759,0,0,1,5.65-6.9,29.75,29.75,0,0,1,6.45-4.9,13.19,13.19,0,0,1,6.35-1.85,5.819,5.819,0,0,1,2.4.45,2.645,2.645,0,0,1,1.4,1.35,1.955,1.955,0,0,1,.4-.15,2.1,2.1,0,0,1,.5-.05,3.061,3.061,0,0,1,3,1.55,6.144,6.144,0,0,1,.8,2.75,7.934,7.934,0,0,1-1,3.4q-1,2-1.95,4.5a15.076,15.076,0,0,0-.95,5.4,4.8,4.8,0,0,0,1.3,3.7,5.414,5.414,0,0,0,3.8,1.2,7.886,7.886,0,0,0,4.95-1.85A20.717,20.717,0,0,0,734.9-18a42.271,42.271,0,0,0,3.55-6.55,48.263,48.263,0,0,0,2.45-6.95,3.273,3.273,0,0,1-1-2.4,7.476,7.476,0,0,1,.85-3.65A8.215,8.215,0,0,1,742.7-40a3.27,3.27,0,0,1,1.6-.9q1.3,0,1.5,1.05a9.239,9.239,0,0,1,.2,1.55,6.611,6.611,0,0,1-.55,1.9,6.945,6.945,0,0,0-.55,1.8,3.025,3.025,0,0,0,1.6,2.4q1.6,1.1,3.6,2.55a17.865,17.865,0,0,1,3.6,3.5,8.28,8.28,0,0,1,1.6,5.25,16.234,16.234,0,0,1-1.25,6.1Q752.8-11.7,751.6-9a12.052,12.052,0,0,0-1.2,4.8,2.5,2.5,0,0,0,.85,2.25,3.51,3.51,0,0,0,1.95.55,9.754,9.754,0,0,0,4.95-1.5,26.891,26.891,0,0,0,4.95-3.8,38.966,38.966,0,0,0,4.3-4.85,22.2,22.2,0,0,0,2.8-4.75l1.5,1.2a38.808,38.808,0,0,1-5.2,8.3,31.338,31.338,0,0,1-7.4,6.75,15.449,15.449,0,0,1-8.5,2.65A7.974,7.974,0,0,1,745.05.75,6.223,6.223,0,0,1,743-4.1a16.423,16.423,0,0,1,1.35-6.2q1.35-3.3,2.7-6.45a14.571,14.571,0,0,0,1.35-5.65,5.832,5.832,0,0,0-1.8-4.6,28.421,28.421,0,0,0-3.7-2.8q-1.2,3.5-2.9,7.25a42.7,42.7,0,0,1-3.95,6.95A21.48,21.48,0,0,1,731-10.4a10.734,10.734,0,0,1-6.4,2,10.7,10.7,0,0,1-4.35-.9,6.976,6.976,0,0,1-3.15-2.6A33.259,33.259,0,0,1,709.6-1Q705.1,3.2,700.2,3.2Zm2.1-4.5a7.48,7.48,0,0,0,4.3-1.8,24.244,24.244,0,0,0,4.7-4.85,32.741,32.741,0,0,0,3.9-6.75,16.6,16.6,0,0,1-1.1-6.6,22.47,22.47,0,0,1,.3-3.7,25.388,25.388,0,0,1,.8-3.4,12.169,12.169,0,0,1,1.1-2.6,13.831,13.831,0,0,0-5.55,2.6,25.692,25.692,0,0,0-4.85,4.85,39.006,39.006,0,0,0-3.8,5.95,36.38,36.38,0,0,0-2.5,6.05,18.25,18.25,0,0,0-.9,5.25,6.193,6.193,0,0,0,.95,3.7A3.1,3.1,0,0,0,702.3-1.3Zm72,4.3a8.111,8.111,0,0,1-3.55-.9A7.43,7.43,0,0,1,767.7-.7a9.043,9.043,0,0,1-1.2-4.9,20.612,20.612,0,0,1,1.6-7.4,42.714,42.714,0,0,1,4.3-8.15,46.081,46.081,0,0,1,6.25-7.5,32.274,32.274,0,0,1,7.45-5.5,16.634,16.634,0,0,1,7.8-2.05,6.429,6.429,0,0,1,3.4.75,2.571,2.571,0,0,1,1.2,2.35,3.922,3.922,0,0,1-.1.85,1.743,1.743,0,0,1-.5.85,2.459,2.459,0,0,0-1.4-1.05,6.949,6.949,0,0,0-2.3-.35,11.47,11.47,0,0,0-6.25,1.95,23.675,23.675,0,0,0-5.55,5,40.6,40.6,0,0,0-4.4,6.6,41.612,41.612,0,0,0-2.95,6.8A18.578,18.578,0,0,0,774-6.9a5.4,5.4,0,0,0,.95,3.35A3.039,3.039,0,0,0,777.5-2.3q2.7,0,6.5-3.3a45.463,45.463,0,0,0,7.8-9.4A76.285,76.285,0,0,0,799-29.4q2.2-5.8,4.55-11.8t4.75-11.5q2.4-5.5,4.7-9.85a41.591,41.591,0,0,1,4.4-6.9Q819.5-72,821.1-72a2.2,2.2,0,0,1,1.6.7,2.437,2.437,0,0,1,.7,1.8,16.218,16.218,0,0,1-1.65,5.5q-1.65,3.8-4.25,9.1t-5.55,11.5Q809-37.2,806.4-30.75a111.5,111.5,0,0,0-4.25,12.55A43.166,43.166,0,0,0,800.5-7a15.393,15.393,0,0,0,.35,3.9,1.688,1.688,0,0,0,1.85,1.2,9.626,9.626,0,0,0,4.9-1.75,24.728,24.728,0,0,0,5.6-5.05,33.232,33.232,0,0,0,4.9-8l1.5,1.2a33.7,33.7,0,0,1-5.35,9.3A29.108,29.108,0,0,1,807.1.25a13.921,13.921,0,0,1-7.3,2.35q-3.9,0-5.4-2.5a10.311,10.311,0,0,1-1.5-5.4,22.793,22.793,0,0,1,.45-4.1q.45-2.4,1.15-5.2a75.176,75.176,0,0,1-6.75,9.05A35.666,35.666,0,0,1,780.8.75,11.857,11.857,0,0,1,774.3,3Zm52.8,1.4q-6.2,0-9.4-3.4a11.789,11.789,0,0,1-3.2-8.4,22.985,22.985,0,0,1,2.25-9.4,39.367,39.367,0,0,1,6-9.4,33.132,33.132,0,0,1,8.3-7.1A17.622,17.622,0,0,1,840.1-36a8.392,8.392,0,0,1,4.45,1.25q2.05,1.25,2.05,5.05a12.561,12.561,0,0,1-2.2,7.1,22.546,22.546,0,0,1-5.9,5.9,36.373,36.373,0,0,1-8.05,4.25,36.1,36.1,0,0,1-8.75,2.15,8.805,8.805,0,0,0-.25,1.55q-.05.75-.05,1.55a14.85,14.85,0,0,0,.25,2.6,7.233,7.233,0,0,0,1.1,2.7,6.172,6.172,0,0,0,2.4,2.1,8.84,8.84,0,0,0,4.05.8,16.967,16.967,0,0,0,8.5-2.4,33.034,33.034,0,0,0,7.85-6.35,40.184,40.184,0,0,0,6.15-8.75l1.5,1.1a37.484,37.484,0,0,1-6.9,10.45,32.291,32.291,0,0,1-9.15,6.9A22.439,22.439,0,0,1,827.1,4.4Zm-4.7-17.2a29.527,29.527,0,0,0,6-2.4,43.782,43.782,0,0,0,6.4-4.05,23.483,23.483,0,0,0,5.1-5.2,10.211,10.211,0,0,0,2-5.95,2.563,2.563,0,0,0-.4-1.6,1.992,1.992,0,0,0-1.6-.5,9.115,9.115,0,0,0-4.95,1.75,24.265,24.265,0,0,0-5.1,4.65,44.02,44.02,0,0,0-4.45,6.35A30.65,30.65,0,0,0,822.4-12.8ZM867.3,2.6A7.974,7.974,0,0,1,861.75.75,6.223,6.223,0,0,1,859.7-4.1a15.775,15.775,0,0,1,1.4-6.25q1.4-3.25,2.75-6.45a14.928,14.928,0,0,0,1.35-5.7,5.717,5.717,0,0,0-1.7-4.45,23.167,23.167,0,0,0-3.7-2.75Q857.6-24,855-18.75t-4.2,8.05l-1.1-2.1q1.4-2.6,3.65-7.55T857.8-31.5a3.392,3.392,0,0,1-1-2.5,7.446,7.446,0,0,1,1.65-4.9q1.65-2,2.65-2a1.313,1.313,0,0,1,1.45,1.05,7.494,7.494,0,0,1,.25,1.55,7.132,7.132,0,0,1-.5,1.9q-.5,1.4-.6,1.8a3.511,3.511,0,0,0,1.65,2.45q1.55,1.15,3.6,2.55a14.925,14.925,0,0,1,3.6,3.5,8.686,8.686,0,0,1,1.55,5.3,16,16,0,0,1-1.25,6q-1.25,3.1-2.5,5.8a11.662,11.662,0,0,0-1.25,4.8,2.378,2.378,0,0,0,.85,2.15,3.51,3.51,0,0,0,1.95.55,10,10,0,0,0,4.95-1.45,26.456,26.456,0,0,0,5-3.75,36.884,36.884,0,0,0,4.35-4.85A22.2,22.2,0,0,0,887-16.3l1.7,1.3a36.9,36.9,0,0,1-5.3,8.3A31.641,31.641,0,0,1,875.85,0,15.9,15.9,0,0,1,867.3,2.6Z" transform="translate(7.6 72.6)" fill="none" stroke="#9a7141" stroke-width="1" opacity="0.65"/>
</svg>
