<svg xmlns="http://www.w3.org/2000/svg" width="976.084" height="101" viewBox="0 0 976.084 101">
  <path id="Path_3709" data-name="Path 3709" d="M20.2,8.7q-4.8,0-6.65-2.05A7.537,7.537,0,0,1,11.7,1.4a24.6,24.6,0,0,1,1.2-6.9q1.2-4,2.4-7.7,2-5.7,4.45-12.4T24.9-39.2q2.7-6.9,5.45-13.5T35.6-64.8q-6.9.1-11.65.35t-8.6.65q-3.85.4-8.25,1.2a7.3,7.3,0,0,1,3.7-5.7,24.157,24.157,0,0,1,8.8-2.85A83.243,83.243,0,0,1,32.2-72q5.9,0,10.7.4t9.05.85q4.25.45,8.45.65a2.939,2.939,0,0,1-1.85,2.8,13.381,13.381,0,0,1-4.45.6,11.113,11.113,0,0,1-4,1.35,43.451,43.451,0,0,1-4.8.45q-2.5.1-4.8.1-3.7,9.3-7.8,21.65t-8,26.75q-1.4,5.1-2.45,9T20.65-.25A39.186,39.186,0,0,0,20.1,6.3q0,.5,0,1.1A9.231,9.231,0,0,0,20.2,8.7Zm31-4.9q-2,0-3.05-3.25A24.223,24.223,0,0,1,47.1-6.9a50.654,50.654,0,0,1,1.55-11.3,121.192,121.192,0,0,1,4.2-13.85q2.65-7.25,5.9-14.2A142.848,142.848,0,0,1,65.4-58.9,59.174,59.174,0,0,1,71.85-68q3.05-3.4,5.35-3.4a2.9,2.9,0,0,1,2.75,2.2,12.132,12.132,0,0,1,.85,4.4,23.292,23.292,0,0,1-1.25,6.7,62.9,62.9,0,0,1-3.45,8.55,74.518,74.518,0,0,1-5.1,8.9,60.336,60.336,0,0,1-6.35,8A33.242,33.242,0,0,1,57.7-26.9a41.141,41.141,0,0,0-2.1,6.5,55.3,55.3,0,0,0-1.15,6.55A52.429,52.429,0,0,0,54.1-8.1q0,.9.05,1.65T54.2-5.1q1.1-2.9,2.5-6.3a68.271,68.271,0,0,1,3.2-6.7,39.129,39.129,0,0,1,4-6,20.157,20.157,0,0,1,4.8-4.35,10.6,10.6,0,0,1,5.8-1.65,7.016,7.016,0,0,1,4.7,1.45,8.63,8.63,0,0,1,2.5,3.55,11.985,11.985,0,0,1,.8,4.3,17.36,17.36,0,0,1-1.05,6.05Q80.4-11.9,79.3-9.3a12.814,12.814,0,0,0-1.1,5,3.749,3.749,0,0,0,.85,2.8,2.884,2.884,0,0,0,2.05.8,8.78,8.78,0,0,0,5.15-2.2,32.958,32.958,0,0,0,5.7-5.85A44.856,44.856,0,0,0,96.9-16.7l1.4,1.4a46.414,46.414,0,0,1-5.25,8.95A26.669,26.669,0,0,1,86.4.05,13.836,13.836,0,0,1,78.7,2.4,7.244,7.244,0,0,1,73.35.55,6.306,6.306,0,0,1,71.5-4.1a16.145,16.145,0,0,1,.8-4.7q.8-2.6,1.55-5.25A18.235,18.235,0,0,0,74.6-19q0-2.6-1.1-3.6a3.867,3.867,0,0,0-2.7-1,6.292,6.292,0,0,0-4.5,1.95,19.185,19.185,0,0,0-3.6,5.1Q61.1-13.4,59.65-9.9t-2.8,6.6a32.186,32.186,0,0,1-2.7,5.1Q52.8,3.8,51.2,3.8Zm8-35.4a30.445,30.445,0,0,0,5.35-5.55A74.431,74.431,0,0,0,69.3-44.2q2.2-3.7,3.95-7.25a50.052,50.052,0,0,0,2.7-6.45,15.557,15.557,0,0,0,.95-4.3,1.463,1.463,0,0,0-.05-.5.783.783,0,0,0-.15-.2q-.7,0-2.8,2.65a71.107,71.107,0,0,0-4.8,7.1A110.747,110.747,0,0,0,63.75-43.1,94.777,94.777,0,0,0,59.2-31.6ZM99.8,4.7a7.7,7.7,0,0,1-5.45-2.1Q92.1.5,92.1-3.8a21.412,21.412,0,0,1,1.6-7.65,39.309,39.309,0,0,1,4.4-8.2A44.724,44.724,0,0,1,104.45-27,32.322,32.322,0,0,1,112-32.3a17.751,17.751,0,0,1,8-2,10.8,10.8,0,0,1,6.75,2.1,6.693,6.693,0,0,1,2.75,5.6,3.842,3.842,0,0,1-1.55,3.5,6.427,6.427,0,0,1-3.85.9q.2-.9.35-1.8a10.931,10.931,0,0,0,.15-1.8,7.282,7.282,0,0,0-1-3.85q-1-1.65-3.7-1.65a10.2,10.2,0,0,0-5.7,1.95,26.47,26.47,0,0,0-5.55,5.15,46.445,46.445,0,0,0-4.75,6.95,42.78,42.78,0,0,0-3.3,7.35,20.781,20.781,0,0,0-1.2,6.5q0,3.7,2.5,3.7a8.38,8.38,0,0,0,5.05-2.2,41.6,41.6,0,0,0,5.6-5.55Q115.4-10.8,118-14.4t4.6-6.4q.3-.6.6-.6.5.1,1.5.4a5.7,5.7,0,0,1,1.8.9,1.81,1.81,0,0,1,.8,1.5,5.609,5.609,0,0,1-.85,2.45q-.85,1.55-2,3.5a33.8,33.8,0,0,0-2,3.95A9.524,9.524,0,0,0,121.6-5a5.783,5.783,0,0,0,.75,2.85A2.587,2.587,0,0,0,124.8-.8q2.6,0,7-3.85t8.9-11.95l1.3,1.3a38.681,38.681,0,0,1-5.5,9.55A27.5,27.5,0,0,1,129.45.7,14.169,14.169,0,0,1,122,3,6.749,6.749,0,0,1,116.35.65,8.012,8.012,0,0,1,114.5-4.4q0-.5.05-1t.15-1.1A49.913,49.913,0,0,1,107,1.85,11.316,11.316,0,0,1,99.8,4.7ZM171.4,2q-3.7,0-5.55-1.85A6.43,6.43,0,0,1,164-4.6a13.914,13.914,0,0,1,.75-4.3q.75-2.3,1.45-4.7a16.419,16.419,0,0,0,.7-4.6q0-2.6-1.1-3.6a3.867,3.867,0,0,0-2.7-1,10.277,10.277,0,0,0-6.3,2.5,34.313,34.313,0,0,0-6.15,6.4q-2.95,3.9-5.55,8t-4.6,7.4a8.924,8.924,0,0,1-3.25-.6A5.426,5.426,0,0,1,134.8-.9,14.64,14.64,0,0,1,135.85-4q1.05-2.6,2.45-6.3a76.95,76.95,0,0,0,2.45-7.7,28.658,28.658,0,0,0,1.05-7.2,5.643,5.643,0,0,1,1.95-1.5,6.107,6.107,0,0,1,2.85-.7q3,0,3,2.7a23.865,23.865,0,0,1-.75,4.75q-.75,3.25-1.95,7.05a72.311,72.311,0,0,1,5.9-7.65,36.163,36.163,0,0,1,6.95-6.2A12.956,12.956,0,0,1,167-29.2q4.1,0,5.95,2.85a11.248,11.248,0,0,1,1.85,6.25,15.752,15.752,0,0,1-1,5.7q-1,2.6-2.05,5a11.891,11.891,0,0,0-1.05,4.8,3.568,3.568,0,0,0,.85,2.75,2.862,2.862,0,0,0,1.95.75,7.632,7.632,0,0,0,5.05-2.3,29.9,29.9,0,0,0,4.9-5.9,66.887,66.887,0,0,0,4.15-7.3l1.3,1.4a50.421,50.421,0,0,1-4.75,8.75,25.161,25.161,0,0,1-5.8,6.15A11.52,11.52,0,0,1,171.4,2Zm44.4,1.8a7.1,7.1,0,0,1-5-1.95A14.164,14.164,0,0,1,207.45-3a29.07,29.07,0,0,1-1.85-6,28.938,28.938,0,0,1-.6-5.4,20.734,20.734,0,0,0,3.3-.65,20.551,20.551,0,0,0,4.3-1.7,12.332,12.332,0,0,0,3.7-2.9,6.17,6.17,0,0,0,1.5-4.15,3.919,3.919,0,0,0-1.35-3.15A5.134,5.134,0,0,0,213-28.1a8.873,8.873,0,0,0-5.6,2.05,22.044,22.044,0,0,0-4.75,5.35,57.22,57.22,0,0,0-3.9,7.05q-1.75,3.75-3,7.2T193.7-.7a6.53,6.53,0,0,1-1.85,3,3.929,3.929,0,0,1-2.45.8,2.614,2.614,0,0,1-2.2-1.05A7.034,7.034,0,0,1,186.05-1a27.606,27.606,0,0,1-.35-4.7,53,53,0,0,1,1.7-12.45,118.048,118.048,0,0,1,4.55-14.35q2.85-7.4,6.25-14.3t6.85-12.5a60.868,60.868,0,0,1,6.4-8.85q2.95-3.25,4.85-3.25,1.5,0,2.45,1.95a11.032,11.032,0,0,1,.95,4.85,22.844,22.844,0,0,1-1.5,7.6,42.158,42.158,0,0,1-4.25,8.5,48.111,48.111,0,0,1-6.55,8.1,44.488,44.488,0,0,1-8.2,6.5,83.44,83.44,0,0,0-4.8,14.75A64.727,64.727,0,0,0,192.7-6.8q1.7-4.1,3.95-8.7a71.96,71.96,0,0,1,5.1-8.8,30.37,30.37,0,0,1,6.2-6.85A11.2,11.2,0,0,1,215-33.8a9.027,9.027,0,0,1,6.55,2.7,8.781,8.781,0,0,1,2.75,6.5,8.743,8.743,0,0,1-1.65,5.4,13.756,13.756,0,0,1-4,3.6,19.193,19.193,0,0,1-4.7,2.05,20.015,20.015,0,0,1-3.95.75q.2.9.7,3a24.646,24.646,0,0,0,1.45,4.25,13.768,13.768,0,0,0,2.35,3.7A4.414,4.414,0,0,0,217.9-.3a8.269,8.269,0,0,0,5.35-2.25A27.02,27.02,0,0,0,228.3-8.5a56.977,56.977,0,0,0,4.4-8.3l1.1,1.2a35.571,35.571,0,0,1-4.4,9.4A30.258,30.258,0,0,1,222.95,1,11.515,11.515,0,0,1,215.8,3.8ZM201.3-38.9a44.458,44.458,0,0,0,7.2-7.55,48.463,48.463,0,0,0,5.3-8.6,17.571,17.571,0,0,0,2-7.15v-.45q0-.15-.2-.25-1,.2-3.35,3.55A88.47,88.47,0,0,0,207-50.6Q204.1-45.2,201.3-38.9ZM261,28a7.662,7.662,0,0,1-4.5-1.4,4.891,4.891,0,0,1-2-4.3,9.9,9.9,0,0,1,1.7-5.7,20.348,20.348,0,0,1,4.5-4.65,44.347,44.347,0,0,1,6.3-4q3.5-1.85,7.1-3.55,1.3-3.5,2.7-8t2.6-9.4a52.764,52.764,0,0,1-6.8,8.5,10.8,10.8,0,0,1-7.7,3.6,9.238,9.238,0,0,1-3.8-.85,7.539,7.539,0,0,1-3.15-2.65,8.075,8.075,0,0,1-1.25-4.7,26.3,26.3,0,0,1,.95-6.4A61.291,61.291,0,0,1,260-22.75a30.692,30.692,0,0,1,2.95-5.85q1.55-2.3,2.65-2.3a6.05,6.05,0,0,1,1.6.35,9.909,9.909,0,0,1,2.1.95,1.985,1.985,0,0,1,1.1,1.3,25.963,25.963,0,0,0-2,3.65q-1.1,2.35-2.15,5.25t-1.75,5.6a19.1,19.1,0,0,0-.7,4.7,4.866,4.866,0,0,0,.75,2.8,2.977,2.977,0,0,0,2.65,1.1,7.25,7.25,0,0,0,4.35-1.85,29.6,29.6,0,0,0,4.65-4.7,61.639,61.639,0,0,0,4.3-6.05q.2-.9.45-2.2t.55-2.6a10.774,10.774,0,0,1,1.55-3.2,4.091,4.091,0,0,1,3.65-1.7q.6,0,1.15.05a6.887,6.887,0,0,1,1.25.25,34.016,34.016,0,0,1-.95,5.95q-.95,4.35-2.7,10.1T281.4.6a31.3,31.3,0,0,0,9.05-5.85A28.7,28.7,0,0,0,297.8-16.4l1.4,1.2a23.824,23.824,0,0,1-4.55,8.4A34.444,34.444,0,0,1,287.8-.6a48.738,48.738,0,0,1-7.6,4.3,107.3,107.3,0,0,1-5.7,11.95A40.606,40.606,0,0,1,268,24.6Q264.6,28,261,28Zm-.7-3.4q1.6,0,5.1-3.95T272.8,7.4q-3.8,2-7.25,4.15A23.16,23.16,0,0,0,260,16.2a8.361,8.361,0,0,0-2.1,5.5,3.956,3.956,0,0,0,.55,1.9A1.94,1.94,0,0,0,260.3,24.6ZM302.6,3.2q-4.4,0-6.15-2.75A11.755,11.755,0,0,1,294.7-6a22.523,22.523,0,0,1,1-6.45,28.327,28.327,0,0,1,2.7-6.25,17.462,17.462,0,0,1,3.8-4.65,6.577,6.577,0,0,1,4.2-1.75,5.557,5.557,0,0,1,1.25.15,3.943,3.943,0,0,1,1.15.45,19.653,19.653,0,0,0-2.25,3.25,40.269,40.269,0,0,0-2.35,4.8,41.4,41.4,0,0,0-1.8,5.3,18.256,18.256,0,0,0-.7,4.55,7.054,7.054,0,0,0,.95,4.05A3.058,3.058,0,0,0,305.3-1.2q2,0,4.8-2.25a40.258,40.258,0,0,0,5.5-5.45,16.041,16.041,0,0,1-4.4-6.15A20.714,20.714,0,0,1,309.7-23a15.468,15.468,0,0,1,1.1-5.7,11.219,11.219,0,0,1,3.35-4.65,8.6,8.6,0,0,1,5.65-1.85q4.2,0,5.7,2.25A9.786,9.786,0,0,1,327-27.4a23.156,23.156,0,0,1-1.9,8.6,48.723,48.723,0,0,1-4.8,9,7.716,7.716,0,0,0,3.5.8,11.783,11.783,0,0,0,3.6-.65,12.79,12.79,0,0,0,4-2.25,11.087,11.087,0,0,0,3.2-4.4l1.4,1.1a13.83,13.83,0,0,1-5.75,6.95A14.391,14.391,0,0,1,323.2-6.2a12.23,12.23,0,0,1-2.5-.25,16.67,16.67,0,0,1-2.3-.65A37.4,37.4,0,0,1,310.8.2,14.148,14.148,0,0,1,302.6,3.2Zm15.1-14.9a50.234,50.234,0,0,0,4.1-7.7,19.446,19.446,0,0,0,1.7-7.6,7.531,7.531,0,0,0-.8-3.95,2.487,2.487,0,0,0-2.2-1.25q-1.9,0-4,2.85a11.729,11.729,0,0,0-2.1,7.15,20.61,20.61,0,0,0,.85,5.6A13.006,13.006,0,0,0,317.7-11.7ZM340,3a6.263,6.263,0,0,1-5.45-3.1,12.577,12.577,0,0,1-2.05-7.1,29.523,29.523,0,0,1,.9-6.7,53.635,53.635,0,0,1,2.35-7.45,38.034,38.034,0,0,1,2.95-6.05q1.5-2.4,2.7-2.4a5.381,5.381,0,0,1,1.8.6,6.69,6.69,0,0,1,2.2,1.6,46.076,46.076,0,0,0-2.7,5.1,54.346,54.346,0,0,0-2.8,7.35,25.108,25.108,0,0,0-1.2,7.25,21.128,21.128,0,0,0,.2,2.3,7.632,7.632,0,0,0,.95,2.9,2.437,2.437,0,0,0,2.25,1.3,5.581,5.581,0,0,0,3.85-1.95,33.561,33.561,0,0,0,4-5q2.05-3.05,4-6.55t3.55-6.8q1.6-3.3,2.7-5.5a16.35,16.35,0,0,1,1.95.45,10.565,10.565,0,0,1,2.25.9,1.7,1.7,0,0,1,1,1.55,11.748,11.748,0,0,1-1,2.6q-1,2.2-2.3,5.35t-2.3,6.4a19.868,19.868,0,0,0-1,5.75,4.875,4.875,0,0,0,.7,2.75A2.669,2.669,0,0,0,361.9-.4a9.853,9.853,0,0,0,5.05-1.9A28.868,28.868,0,0,0,373-7.8a38.123,38.123,0,0,0,5.5-8.7l1.4,1a34.96,34.96,0,0,1-5.55,9.6,29.393,29.393,0,0,1-7.3,6.55A14.451,14.451,0,0,1,359.5,3a6.992,6.992,0,0,1-4.2-1.1,5.758,5.758,0,0,1-2.1-2.95A15.075,15.075,0,0,1,352.5-5a13.464,13.464,0,0,1,.15-2q.15-1,.35-2a61.155,61.155,0,0,1-3.85,5.85A21.282,21.282,0,0,1,344.8,1.3,7.965,7.965,0,0,1,340,3Zm61.5,25a5.906,5.906,0,0,1-2.4-.65,5.424,5.424,0,0,1-2.4-2.6,13.279,13.279,0,0,1-1-5.85,59.235,59.235,0,0,1,1.45-11.35Q398.6.5,401.2-7.95t6-17.4q3.4-8.95,7.35-17.25a143.541,143.541,0,0,1,8.15-14.95,56.707,56.707,0,0,1,8.25-10.55Q435-72,438.7-72q2.3,0,3,1.4a7.061,7.061,0,0,1,.7,3.2,22.66,22.66,0,0,1-2.35,9.4,55.637,55.637,0,0,1-6.25,10.25,88.36,88.36,0,0,1-8.65,9.8A68.806,68.806,0,0,1,415.5-30a23.55,23.55,0,0,0-.9,2.3q-.4,1.2-.9,2.4a2.576,2.576,0,0,1,1.75,1.2,4.574,4.574,0,0,1,.75,2.1q.7,4.4,1.5,7.9a12.733,12.733,0,0,0,2.45,5.45A5.876,5.876,0,0,0,424.9-6.7a8.1,8.1,0,0,0,6-2.55,38.966,38.966,0,0,0,5.3-7.25l1.8,1.2q-2.8,6.1-6.7,8.9t-6.9,2.8a9.173,9.173,0,0,1-3.65-.85A15.41,15.41,0,0,1,417.1-6.7a57.441,57.441,0,0,1-1.35,12.35,58.071,58.071,0,0,1-3.6,11.2,30.705,30.705,0,0,1-5,8.1Q404.4,28,401.5,28Zm2.7-5.3q1.1,0,2.45-1.95a27.05,27.05,0,0,0,2.65-5.15,62.34,62.34,0,0,0,2.35-7.05Q412.7,4.7,413.35.9A41.253,41.253,0,0,0,414-6a18.573,18.573,0,0,0-.75-5.45,35.88,35.88,0,0,0-2.45-5.75q-2.4,7.3-4.35,14.1t-3,12.3a49.741,49.741,0,0,0-1.05,8.9Q402.4,22.7,404.2,22.7Zm13.3-57.8a103.73,103.73,0,0,0,11-11.7,76.4,76.4,0,0,0,7.1-10.35q2.5-4.55,2.5-6.45a1.061,1.061,0,0,0-1.2-1.2q-2.6,0-5.8,4.05A69.455,69.455,0,0,0,424.4-50Q420.9-43.3,417.5-35.1ZM441.4,3.2A7.716,7.716,0,0,1,435.15.65,9.661,9.661,0,0,1,433-5.8a22.7,22.7,0,0,1,1.55-7.95,39.475,39.475,0,0,1,4.1-8,42.756,42.756,0,0,1,5.65-6.9,29.75,29.75,0,0,1,6.45-4.9,13.19,13.19,0,0,1,6.35-1.85,5.82,5.82,0,0,1,2.4.45,2.645,2.645,0,0,1,1.4,1.35,1.954,1.954,0,0,1,.4-.15,2.1,2.1,0,0,1,.5-.05,3.061,3.061,0,0,1,3,1.55,6.145,6.145,0,0,1,.8,2.75,7.934,7.934,0,0,1-1,3.4q-1,2-1.95,4.5a15.077,15.077,0,0,0-.95,5.4,4.8,4.8,0,0,0,1.3,3.7,5.414,5.414,0,0,0,3.8,1.2,7.886,7.886,0,0,0,4.95-1.85A20.719,20.719,0,0,0,476.1-18a42.266,42.266,0,0,0,3.55-6.55,48.259,48.259,0,0,0,2.45-6.95,3.273,3.273,0,0,1-1-2.4,7.476,7.476,0,0,1,.85-3.65A8.215,8.215,0,0,1,483.9-40a3.27,3.27,0,0,1,1.6-.9q1.3,0,1.5,1.05a9.242,9.242,0,0,1,.2,1.55,6.609,6.609,0,0,1-.55,1.9,6.945,6.945,0,0,0-.55,1.8,3.025,3.025,0,0,0,1.6,2.4q1.6,1.1,3.6,2.55a17.864,17.864,0,0,1,3.6,3.5,8.28,8.28,0,0,1,1.6,5.25,16.233,16.233,0,0,1-1.25,6.1Q494-11.7,492.8-9a12.051,12.051,0,0,0-1.2,4.8,2.5,2.5,0,0,0,.85,2.25,3.51,3.51,0,0,0,1.95.55,9.754,9.754,0,0,0,4.95-1.5,26.89,26.89,0,0,0,4.95-3.8,38.964,38.964,0,0,0,4.3-4.85,22.2,22.2,0,0,0,2.8-4.75l1.5,1.2a38.807,38.807,0,0,1-5.2,8.3,31.338,31.338,0,0,1-7.4,6.75,15.449,15.449,0,0,1-8.5,2.65A7.975,7.975,0,0,1,486.25.75,6.223,6.223,0,0,1,484.2-4.1a16.423,16.423,0,0,1,1.35-6.2q1.35-3.3,2.7-6.45a14.571,14.571,0,0,0,1.35-5.65,5.832,5.832,0,0,0-1.8-4.6,28.422,28.422,0,0,0-3.7-2.8q-1.2,3.5-2.9,7.25a42.7,42.7,0,0,1-3.95,6.95,21.48,21.48,0,0,1-5.05,5.2,10.734,10.734,0,0,1-6.4,2,10.7,10.7,0,0,1-4.35-.9,6.975,6.975,0,0,1-3.15-2.6A33.259,33.259,0,0,1,450.8-1Q446.3,3.2,441.4,3.2Zm2.1-4.5a7.48,7.48,0,0,0,4.3-1.8,24.245,24.245,0,0,0,4.7-4.85,32.738,32.738,0,0,0,3.9-6.75,16.6,16.6,0,0,1-1.1-6.6,22.474,22.474,0,0,1,.3-3.7,25.379,25.379,0,0,1,.8-3.4,12.169,12.169,0,0,1,1.1-2.6,13.83,13.83,0,0,0-5.55,2.6,25.694,25.694,0,0,0-4.85,4.85,39.006,39.006,0,0,0-3.8,5.95,36.375,36.375,0,0,0-2.5,6.05,18.249,18.249,0,0,0-.9,5.25,6.193,6.193,0,0,0,.95,3.7A3.1,3.1,0,0,0,443.5-1.3ZM539.8,28a7.662,7.662,0,0,1-4.5-1.4,4.891,4.891,0,0,1-2-4.3,9.9,9.9,0,0,1,1.7-5.7,20.349,20.349,0,0,1,4.5-4.65,44.347,44.347,0,0,1,6.3-4q3.5-1.85,7.1-3.55,1.3-3.5,2.7-8t2.6-9.4a52.764,52.764,0,0,1-6.8,8.5,10.8,10.8,0,0,1-7.7,3.6,9.238,9.238,0,0,1-3.8-.85,7.539,7.539,0,0,1-3.15-2.65,8.076,8.076,0,0,1-1.25-4.7,26.3,26.3,0,0,1,.95-6.4,61.279,61.279,0,0,1,2.35-7.25,30.7,30.7,0,0,1,2.95-5.85q1.55-2.3,2.65-2.3a6.05,6.05,0,0,1,1.6.35,9.909,9.909,0,0,1,2.1.95,1.985,1.985,0,0,1,1.1,1.3,25.959,25.959,0,0,0-2,3.65q-1.1,2.35-2.15,5.25t-1.75,5.6a19.1,19.1,0,0,0-.7,4.7,4.866,4.866,0,0,0,.75,2.8A2.977,2.977,0,0,0,546-5.2a7.25,7.25,0,0,0,4.35-1.85,29.6,29.6,0,0,0,4.65-4.7,61.634,61.634,0,0,0,4.3-6.05q.2-.9.45-2.2t.55-2.6a10.774,10.774,0,0,1,1.55-3.2,4.091,4.091,0,0,1,3.65-1.7q.6,0,1.15.05a6.885,6.885,0,0,1,1.25.25,34.017,34.017,0,0,1-.95,5.95q-.95,4.35-2.7,10.1T560.2.6a31.3,31.3,0,0,0,9.05-5.85A28.7,28.7,0,0,0,576.6-16.4l1.4,1.2a23.824,23.824,0,0,1-4.55,8.4A34.447,34.447,0,0,1,566.6-.6,48.738,48.738,0,0,1,559,3.7a107.307,107.307,0,0,1-5.7,11.95,40.6,40.6,0,0,1-6.5,8.95Q543.4,28,539.8,28Zm-.7-3.4q1.6,0,5.1-3.95T551.6,7.4q-3.8,2-7.25,4.15a23.159,23.159,0,0,0-5.55,4.65,8.361,8.361,0,0,0-2.1,5.5,3.956,3.956,0,0,0,.55,1.9A1.94,1.94,0,0,0,539.1,24.6ZM581.4,3.2q-4.4,0-6.15-2.75A11.754,11.754,0,0,1,573.5-6a22.522,22.522,0,0,1,1-6.45,28.329,28.329,0,0,1,2.7-6.25,17.462,17.462,0,0,1,3.8-4.65,6.577,6.577,0,0,1,4.2-1.75,5.556,5.556,0,0,1,1.25.15,3.943,3.943,0,0,1,1.15.45,19.649,19.649,0,0,0-2.25,3.25,40.273,40.273,0,0,0-2.35,4.8,41.4,41.4,0,0,0-1.8,5.3,18.259,18.259,0,0,0-.7,4.55,7.054,7.054,0,0,0,.95,4.05A3.058,3.058,0,0,0,584.1-1.2q2,0,4.8-2.25a40.26,40.26,0,0,0,5.5-5.45,16.041,16.041,0,0,1-4.4-6.15A20.714,20.714,0,0,1,588.5-23a15.468,15.468,0,0,1,1.1-5.7,11.219,11.219,0,0,1,3.35-4.65,8.6,8.6,0,0,1,5.65-1.85q4.2,0,5.7,2.25a9.786,9.786,0,0,1,1.5,5.55,23.157,23.157,0,0,1-1.9,8.6,48.721,48.721,0,0,1-4.8,9,7.716,7.716,0,0,0,3.5.8,11.783,11.783,0,0,0,3.6-.65,12.79,12.79,0,0,0,4-2.25,11.087,11.087,0,0,0,3.2-4.4l1.4,1.1a13.831,13.831,0,0,1-5.75,6.95A14.391,14.391,0,0,1,602-6.2a12.229,12.229,0,0,1-2.5-.25,16.671,16.671,0,0,1-2.3-.65A37.4,37.4,0,0,1,589.6.2,14.148,14.148,0,0,1,581.4,3.2Zm15.1-14.9a50.239,50.239,0,0,0,4.1-7.7,19.445,19.445,0,0,0,1.7-7.6,7.531,7.531,0,0,0-.8-3.95,2.487,2.487,0,0,0-2.2-1.25q-1.9,0-4,2.85a11.729,11.729,0,0,0-2.1,7.15,20.609,20.609,0,0,0,.85,5.6A13.006,13.006,0,0,0,596.5-11.7ZM618.8,3a6.263,6.263,0,0,1-5.45-3.1,12.577,12.577,0,0,1-2.05-7.1,29.522,29.522,0,0,1,.9-6.7,53.631,53.631,0,0,1,2.35-7.45,38.034,38.034,0,0,1,2.95-6.05q1.5-2.4,2.7-2.4a5.381,5.381,0,0,1,1.8.6,6.691,6.691,0,0,1,2.2,1.6,46.075,46.075,0,0,0-2.7,5.1,54.338,54.338,0,0,0-2.8,7.35,25.108,25.108,0,0,0-1.2,7.25,21.123,21.123,0,0,0,.2,2.3,7.632,7.632,0,0,0,.95,2.9,2.437,2.437,0,0,0,2.25,1.3,5.581,5.581,0,0,0,3.85-1.95,33.559,33.559,0,0,0,4-5q2.05-3.05,4-6.55t3.55-6.8q1.6-3.3,2.7-5.5a16.347,16.347,0,0,1,1.95.45,10.567,10.567,0,0,1,2.25.9,1.7,1.7,0,0,1,1,1.55,11.747,11.747,0,0,1-1,2.6q-1,2.2-2.3,5.35t-2.3,6.4a19.867,19.867,0,0,0-1,5.75,4.875,4.875,0,0,0,.7,2.75A2.669,2.669,0,0,0,640.7-.4a9.853,9.853,0,0,0,5.05-1.9,28.866,28.866,0,0,0,6.05-5.5,38.125,38.125,0,0,0,5.5-8.7l1.4,1a34.961,34.961,0,0,1-5.55,9.6,29.392,29.392,0,0,1-7.3,6.55A14.451,14.451,0,0,1,638.3,3a6.992,6.992,0,0,1-4.2-1.1A5.757,5.757,0,0,1,632-1.05,15.072,15.072,0,0,1,631.3-5a13.46,13.46,0,0,1,.15-2q.15-1,.35-2a61.166,61.166,0,0,1-3.85,5.85A21.284,21.284,0,0,1,623.6,1.3,7.965,7.965,0,0,1,618.8,3Zm54.1-.4A7.974,7.974,0,0,1,667.35.75,6.223,6.223,0,0,1,665.3-4.1a15.775,15.775,0,0,1,1.4-6.25q1.4-3.25,2.75-6.45a14.928,14.928,0,0,0,1.35-5.7,5.717,5.717,0,0,0-1.7-4.45,23.167,23.167,0,0,0-3.7-2.75q-2.2,5.7-4.8,10.95t-4.2,8.05l-1.1-2.1q1.4-2.6,3.65-7.55T663.4-31.5a3.392,3.392,0,0,1-1-2.5,7.446,7.446,0,0,1,1.65-4.9q1.65-2,2.65-2a1.313,1.313,0,0,1,1.45,1.05,7.494,7.494,0,0,1,.25,1.55,7.132,7.132,0,0,1-.5,1.9q-.5,1.4-.6,1.8a3.511,3.511,0,0,0,1.65,2.45q1.55,1.15,3.6,2.55a14.925,14.925,0,0,1,3.6,3.5,8.686,8.686,0,0,1,1.55,5.3,16,16,0,0,1-1.25,6q-1.25,3.1-2.5,5.8a11.662,11.662,0,0,0-1.25,4.8,2.378,2.378,0,0,0,.85,2.15,3.51,3.51,0,0,0,1.95.55,10,10,0,0,0,4.95-1.45,26.456,26.456,0,0,0,5-3.75,36.884,36.884,0,0,0,4.35-4.85,22.2,22.2,0,0,0,2.8-4.75l1.7,1.3A36.9,36.9,0,0,1,689-6.7,31.641,31.641,0,0,1,681.45,0,15.9,15.9,0,0,1,672.9,2.6Zm54.5,2.5a12.844,12.844,0,0,1-7.65-2.05,11.315,11.315,0,0,1-4.05-5.1,16.679,16.679,0,0,1-1.2-6.15,10.548,10.548,0,0,1,.8-4.6,5.815,5.815,0,0,1,1.95-2.35,11.681,11.681,0,0,1,2.2-1.15,4.413,4.413,0,0,0,1.55-.9,66.094,66.094,0,0,0,5.35-6.55,46.811,46.811,0,0,0,4.45-7.65v-1.1q0-3.8,1.3-5.4a3.651,3.651,0,0,1,2.8-1.6,1.833,1.833,0,0,1,1.35.45A1.9,1.9,0,0,1,736.8-38a5.906,5.906,0,0,1-.3,1.6,9.277,9.277,0,0,0-.3,2.6,21.473,21.473,0,0,0,1.35,7.05q1.35,3.85,2.7,8.1A29.057,29.057,0,0,1,741.6-9.8a19.336,19.336,0,0,1-.15,2.4q-.15,1.2-.35,2.2a14.992,14.992,0,0,0,6.4-3.25,25.03,25.03,0,0,0,5.9-8.05l1,1a18.462,18.462,0,0,1-5.65,8.55A17.918,17.918,0,0,1,740.4-3.1a11.6,11.6,0,0,1-5.1,6.2A15.636,15.636,0,0,1,727.4,5.1Zm-.1-3.8a8.472,8.472,0,0,0,3.4-.85,5.894,5.894,0,0,0,2.9-3.75,18.053,18.053,0,0,1-7.4-3.25,20.463,20.463,0,0,1-4.9-4.85q-2,.1-2,3.2a11.108,11.108,0,0,0,2.1,6.5A6.789,6.789,0,0,0,727.3,1.3Zm6.9-6.6a15.988,15.988,0,0,0,.3-1.95q.1-1.05.1-2.25a37.806,37.806,0,0,0-1.15-9.2q-1.15-4.6-2.05-8.8-2.1,3.5-4.6,7a46.236,46.236,0,0,1-4.8,5.8A20.362,20.362,0,0,0,726.7-9,16.907,16.907,0,0,0,734.2-5.3ZM758.7,3a6.263,6.263,0,0,1-5.45-3.1,12.577,12.577,0,0,1-2.05-7.1,29.522,29.522,0,0,1,.9-6.7,53.631,53.631,0,0,1,2.35-7.45,38.034,38.034,0,0,1,2.95-6.05q1.5-2.4,2.7-2.4a5.381,5.381,0,0,1,1.8.6,6.691,6.691,0,0,1,2.2,1.6,46.075,46.075,0,0,0-2.7,5.1,54.338,54.338,0,0,0-2.8,7.35,25.108,25.108,0,0,0-1.2,7.25,21.123,21.123,0,0,0,.2,2.3,7.632,7.632,0,0,0,.95,2.9,2.437,2.437,0,0,0,2.25,1.3,5.581,5.581,0,0,0,3.85-1.95,33.559,33.559,0,0,0,4-5q2.05-3.05,4-6.55t3.55-6.8q1.6-3.3,2.7-5.5a16.347,16.347,0,0,1,1.95.45,10.567,10.567,0,0,1,2.25.9,1.7,1.7,0,0,1,1,1.55,11.747,11.747,0,0,1-1,2.6q-1,2.2-2.3,5.35t-2.3,6.4a19.867,19.867,0,0,0-1,5.75,4.875,4.875,0,0,0,.7,2.75A2.669,2.669,0,0,0,780.6-.4a9.853,9.853,0,0,0,5.05-1.9,28.866,28.866,0,0,0,6.05-5.5,38.125,38.125,0,0,0,5.5-8.7l1.4,1a34.961,34.961,0,0,1-5.55,9.6,29.392,29.392,0,0,1-7.3,6.55A14.451,14.451,0,0,1,778.2,3,6.992,6.992,0,0,1,774,1.9a5.757,5.757,0,0,1-2.1-2.95A15.072,15.072,0,0,1,771.2-5a13.46,13.46,0,0,1,.15-2q.15-1,.35-2a61.166,61.166,0,0,1-3.85,5.85A21.284,21.284,0,0,1,763.5,1.3,7.965,7.965,0,0,1,758.7,3ZM789,28a2.444,2.444,0,0,1-1.6-.7,5.45,5.45,0,0,1-1.25-1.55,9.7,9.7,0,0,1-.55-1.15q1.8-5.7,3.3-10.05t2.8-8.6q1.3-4.25,2.45-9.6t2.4-13q1.25-7.65,2.65-18.75a3.3,3.3,0,0,1,.4-1.45q.3-.45,1.6-.45a4.833,4.833,0,0,1,4,1.5,5.163,5.163,0,0,1,1.2,3.3,35.182,35.182,0,0,1-.5,4.55q-.5,3.25-1.5,7.65a48.443,48.443,0,0,1,4.3-6.35,23.33,23.33,0,0,1,5.7-5.2,12.721,12.721,0,0,1,7-2.05,9.854,9.854,0,0,1,7.5,3.2,11.784,11.784,0,0,1,3,8.4,22.125,22.125,0,0,1-1.75,8.25,30.765,30.765,0,0,1-4.95,8.2A26.19,26.19,0,0,1,817.65.4,19.64,19.64,0,0,1,808,2.8a12.858,12.858,0,0,1-4.5-.65Q801.8,1.5,801.8.7q0-.5.75-.55T804.3.1a18.342,18.342,0,0,0,7.95-2,22.62,22.62,0,0,0,6.6-5.05,24.444,24.444,0,0,0,4.45-6.95,19,19,0,0,0,1.6-7.4,10.142,10.142,0,0,0-1.35-5.4,4.717,4.717,0,0,0-4.35-2.2,9.457,9.457,0,0,0-5.05,1.6,22.1,22.1,0,0,0-4.8,4.15,44.632,44.632,0,0,0-4,5.25,32.917,32.917,0,0,0-2.65,4.8Q800.9-5.9,799.2.95T795.9,13.4q-1.6,5.6-2.95,9.3t-2.55,4.7A1.919,1.919,0,0,1,789,28Zm39.8,0a2.444,2.444,0,0,1-1.6-.7,5.45,5.45,0,0,1-1.25-1.55,9.7,9.7,0,0,1-.55-1.15q1.8-5.7,3.3-10.05t2.8-8.6q1.3-4.25,2.45-9.6t2.4-13Q837.6-24.3,839-35.4a3.3,3.3,0,0,1,.4-1.45q.3-.45,1.6-.45a4.833,4.833,0,0,1,4,1.5,5.163,5.163,0,0,1,1.2,3.3,35.182,35.182,0,0,1-.5,4.55q-.5,3.25-1.5,7.65a48.443,48.443,0,0,1,4.3-6.35,23.33,23.33,0,0,1,5.7-5.2,12.721,12.721,0,0,1,7-2.05,9.854,9.854,0,0,1,7.5,3.2,11.784,11.784,0,0,1,3,8.4,22.125,22.125,0,0,1-1.75,8.25A30.765,30.765,0,0,1,865-5.85,26.19,26.19,0,0,1,857.45.4a19.64,19.64,0,0,1-9.65,2.4,12.858,12.858,0,0,1-4.5-.65Q841.6,1.5,841.6.7q0-.5.75-.55T844.1.1a18.342,18.342,0,0,0,7.95-2,22.62,22.62,0,0,0,6.6-5.05,24.444,24.444,0,0,0,4.45-6.95,19,19,0,0,0,1.6-7.4,10.142,10.142,0,0,0-1.35-5.4A4.717,4.717,0,0,0,859-28.9a9.457,9.457,0,0,0-5.05,1.6,22.1,22.1,0,0,0-4.8,4.15,44.632,44.632,0,0,0-4,5.25,32.917,32.917,0,0,0-2.65,4.8Q840.7-5.9,839,.95T835.7,13.4q-1.6,5.6-2.95,9.3t-2.55,4.7A1.919,1.919,0,0,1,828.8,28ZM881.9,3.2A7.716,7.716,0,0,1,875.65.65,9.661,9.661,0,0,1,873.5-5.8a22.7,22.7,0,0,1,1.55-7.95,39.478,39.478,0,0,1,4.1-8,42.759,42.759,0,0,1,5.65-6.9,29.75,29.75,0,0,1,6.45-4.9,13.19,13.19,0,0,1,6.35-1.85,5.819,5.819,0,0,1,2.4.45,2.645,2.645,0,0,1,1.4,1.35,1.955,1.955,0,0,1,.4-.15,2.1,2.1,0,0,1,.5-.05,3.061,3.061,0,0,1,3,1.55,6.144,6.144,0,0,1,.8,2.75,7.934,7.934,0,0,1-1,3.4q-1,2-1.95,4.5a15.076,15.076,0,0,0-.95,5.4,4.8,4.8,0,0,0,1.3,3.7,5.414,5.414,0,0,0,3.8,1.2,7.886,7.886,0,0,0,4.95-1.85A20.717,20.717,0,0,0,916.6-18a42.271,42.271,0,0,0,3.55-6.55,48.263,48.263,0,0,0,2.45-6.95,3.273,3.273,0,0,1-1-2.4,7.476,7.476,0,0,1,.85-3.65A8.215,8.215,0,0,1,924.4-40a3.27,3.27,0,0,1,1.6-.9q1.3,0,1.5,1.05a9.239,9.239,0,0,1,.2,1.55,6.611,6.611,0,0,1-.55,1.9,6.945,6.945,0,0,0-.55,1.8,3.025,3.025,0,0,0,1.6,2.4q1.6,1.1,3.6,2.55a17.865,17.865,0,0,1,3.6,3.5A8.28,8.28,0,0,1,937-20.9a16.234,16.234,0,0,1-1.25,6.1Q934.5-11.7,933.3-9a12.052,12.052,0,0,0-1.2,4.8,2.5,2.5,0,0,0,.85,2.25,3.51,3.51,0,0,0,1.95.55,9.754,9.754,0,0,0,4.95-1.5,26.891,26.891,0,0,0,4.95-3.8,38.966,38.966,0,0,0,4.3-4.85,22.2,22.2,0,0,0,2.8-4.75l1.5,1.2a38.808,38.808,0,0,1-5.2,8.3,31.338,31.338,0,0,1-7.4,6.75,15.449,15.449,0,0,1-8.5,2.65A7.974,7.974,0,0,1,926.75.75,6.223,6.223,0,0,1,924.7-4.1a16.423,16.423,0,0,1,1.35-6.2q1.35-3.3,2.7-6.45a14.571,14.571,0,0,0,1.35-5.65,5.832,5.832,0,0,0-1.8-4.6,28.421,28.421,0,0,0-3.7-2.8q-1.2,3.5-2.9,7.25a42.7,42.7,0,0,1-3.95,6.95,21.48,21.48,0,0,1-5.05,5.2,10.734,10.734,0,0,1-6.4,2,10.7,10.7,0,0,1-4.35-.9,6.976,6.976,0,0,1-3.15-2.6A33.259,33.259,0,0,1,891.3-1Q886.8,3.2,881.9,3.2ZM884-1.3a7.48,7.48,0,0,0,4.3-1.8A24.244,24.244,0,0,0,893-7.95a32.741,32.741,0,0,0,3.9-6.75,16.6,16.6,0,0,1-1.1-6.6,22.47,22.47,0,0,1,.3-3.7,25.388,25.388,0,0,1,.8-3.4A12.169,12.169,0,0,1,898-31a13.831,13.831,0,0,0-5.55,2.6,25.692,25.692,0,0,0-4.85,4.85,39.006,39.006,0,0,0-3.8,5.95,36.38,36.38,0,0,0-2.5,6.05,18.25,18.25,0,0,0-.9,5.25,6.193,6.193,0,0,0,.95,3.7A3.1,3.1,0,0,0,884-1.3Zm74.5,5.9a8.92,8.92,0,0,1-6.75-2.55Q949.3-.5,949.3-5.5a45.05,45.05,0,0,1,1.6-10.65A124.167,124.167,0,0,1,955-29.2q-.9-.2-1.8-.35a11.845,11.845,0,0,1-1.8-.45v-2.2l2.2.2q1.1.1,2.4.2,2.1-5.4,4.5-10.4t4.8-8.95a38.6,38.6,0,0,1,4.55-6.25q2.15-2.3,3.75-2.3a2.458,2.458,0,0,1,1.55.6,2.167,2.167,0,0,1,.75,1.8q0,1.8-2.1,5.6t-5.15,9q-3.05,5.2-5.95,11.2h3.5q3.7,0,7.3-.1t7.3-.5v2.3q-5.5.5-9.9.8t-8.1.4h-1.4a92.139,92.139,0,0,0-3.8,10.55A37.707,37.707,0,0,0,956-7.4q0,4.2,1.3,6A4.827,4.827,0,0,0,961.5.4q5.2,0,10.25-4.55A40.871,40.871,0,0,0,980.7-16.6l1.3,1a45.488,45.488,0,0,1-6.2,10.3,30.635,30.635,0,0,1-8.15,7.25A17.666,17.666,0,0,1,958.5,4.6Z" transform="translate(-6.531 72.5)" fill="none" stroke="#9a7141" stroke-width="1" opacity="0.65"/>
</svg>
