<svg xmlns="http://www.w3.org/2000/svg" width="787.24" height="66" viewBox="0 0 787.24 66">
  <path id="Path_3707" data-name="Path 3707" d="M14.43,5.655a7.591,7.591,0,0,1-1.69-.227,6.875,6.875,0,0,1-1.918-.78A4.663,4.663,0,0,1,9.23,3.055,5.232,5.232,0,0,1,8.58.26a20.423,20.423,0,0,1,.975-5.428q.975-3.347,2.405-8.093,1.17-3.64,2.242-7.377a74.476,74.476,0,0,0,1.755-7.6,44.247,44.247,0,0,0,.683-7.7q0-2.47-.195-4.452a6.384,6.384,0,0,0-1.04-3.153,3.064,3.064,0,0,0-2.665-1.17,4.578,4.578,0,0,0-2.99,1.007,7.619,7.619,0,0,0-2.015,2.6A14.751,14.751,0,0,0,6.565-37.7a16.466,16.466,0,0,0-.39,3.445,9.088,9.088,0,0,0,.715,3.9,4.768,4.768,0,0,1-3.9-1.43,5.172,5.172,0,0,1-1.17-3.38,9.654,9.654,0,0,1,.942-4.062A13.328,13.328,0,0,1,5.4-43,13.571,13.571,0,0,1,9.263-45.76,10.647,10.647,0,0,1,13.91-46.8a7.036,7.036,0,0,1,6.273,3.185Q22.3-40.43,22.3-34.9A40.147,40.147,0,0,1,21-25.123q-1.3,5.167-2.99,10.368-.91,2.86-1.82,5.688t-1.528,5.33A19.479,19.479,0,0,0,14.04.91,3.59,3.59,0,0,0,14.4,2.73a1.507,1.507,0,0,0,1.4.585,6.263,6.263,0,0,0,3.672-1.5,21.857,21.857,0,0,0,4-4.1A64.256,64.256,0,0,0,27.4-8a65.744,65.744,0,0,0,3.478-6.435q1.56-3.315,2.632-6.3A24.352,24.352,0,0,0,34.84-25.87a4.16,4.16,0,0,1,3.315,1.2,3.555,3.555,0,0,1,1.04,2.243,9.168,9.168,0,0,1-.748,2.86q-.747,1.95-1.982,4.745-.975,2.405-2.015,5.1a53.31,53.31,0,0,0-1.755,5.363A19.576,19.576,0,0,0,31.98.715a4.2,4.2,0,0,0,.358,1.917,1.493,1.493,0,0,0,1.463.683A7.263,7.263,0,0,0,37.993,1.5a30.068,30.068,0,0,0,4.94-5.005,68.769,68.769,0,0,0,5-7.15,73.582,73.582,0,0,0,4.388-8.288,57.609,57.609,0,0,0,3.087-8.483,29.042,29.042,0,0,0,1.138-7.605,8.715,8.715,0,0,0-1.072-4.908,5.168,5.168,0,0,0-2.763-2.047,7.572,7.572,0,0,1,2.112-2.4,3.741,3.741,0,0,1,2.048-.78q1.365,0,2.762,1.82t1.4,5.655A28.787,28.787,0,0,1,59.7-29.673,68.749,68.749,0,0,1,56.1-20.248a80.716,80.716,0,0,1-5.2,9.49A68.1,68.1,0,0,1,44.72-2.47a35.534,35.534,0,0,1-6.467,5.915,10.8,10.8,0,0,1-6.013,2.21,6.432,6.432,0,0,1-2.665-.585A5.377,5.377,0,0,1,27.43,3.348,4.61,4.61,0,0,1,26.585.52a10.341,10.341,0,0,1,.292-2.21,25.8,25.8,0,0,1,.813-2.8A42.105,42.105,0,0,1,21,2.828,10.375,10.375,0,0,1,14.43,5.655Zm48.815-3.9A4.772,4.772,0,0,1,59.28.13a6.049,6.049,0,0,1-1.3-3.9,16.589,16.589,0,0,1,.552-3.77,45.335,45.335,0,0,1,1.463-4.777,34.539,34.539,0,0,1,2.112-4.713,15.634,15.634,0,0,1,2.6-3.608,4,4,0,0,1,2.763-1.4,1.64,1.64,0,0,1,1.1.39,1.456,1.456,0,0,1,.455,1.17,6.183,6.183,0,0,1-1.007,2.535q-1.008,1.755-2.34,4a35.334,35.334,0,0,0-2.34,4.713,12.406,12.406,0,0,0-1.007,4.68,4.392,4.392,0,0,0,.748,3.023A3.144,3.144,0,0,0,65.39-.78a7.48,7.48,0,0,0,4.745-2.21q2.535-2.21,5.33-7.735l.715.78A20.3,20.3,0,0,1,70.655-1.3,11.15,11.15,0,0,1,63.245,1.755ZM70.98-27.82A3.643,3.643,0,0,1,69-28.373,1.89,1.89,0,0,1,68.12-30.1a2.955,2.955,0,0,1,1.625-2.47A5.989,5.989,0,0,1,73-33.6a3.042,3.042,0,0,1,1.722.455,1.885,1.885,0,0,1,.683,1.69A3.325,3.325,0,0,1,74-29.023,4.549,4.549,0,0,1,70.98-27.82ZM81.185,3.315a8.349,8.349,0,0,1-4.972-1.333A7.355,7.355,0,0,1,73.58-1.332a10.841,10.841,0,0,1-.78-4,6.856,6.856,0,0,1,.52-2.99,3.78,3.78,0,0,1,1.268-1.527,7.593,7.593,0,0,1,1.43-.748,2.869,2.869,0,0,0,1.007-.585A42.958,42.958,0,0,0,80.5-15.438a30.428,30.428,0,0,0,2.892-4.972v-.715a5.635,5.635,0,0,1,.845-3.51,2.373,2.373,0,0,1,1.82-1.04,1.192,1.192,0,0,1,.878.293,1.233,1.233,0,0,1,.357.682,3.839,3.839,0,0,1-.195,1.04,6.03,6.03,0,0,0-.195,1.69,13.957,13.957,0,0,0,.878,4.583q.877,2.5,1.755,5.265a18.886,18.886,0,0,1,.878,5.753,12.565,12.565,0,0,1-.1,1.56q-.1.78-.228,1.43a9.745,9.745,0,0,0,4.16-2.113,16.269,16.269,0,0,0,3.835-5.233l.65.65a12,12,0,0,1-3.673,5.557,11.647,11.647,0,0,1-5.427,2.5,7.538,7.538,0,0,1-3.315,4.03A10.164,10.164,0,0,1,81.185,3.315ZM81.12.845A5.507,5.507,0,0,0,83.33.293a3.831,3.831,0,0,0,1.885-2.438A11.734,11.734,0,0,1,80.4-4.258,13.3,13.3,0,0,1,77.22-7.41q-1.3.065-1.3,2.08a7.22,7.22,0,0,0,1.365,4.225A4.413,4.413,0,0,0,81.12.845ZM85.6-3.445a10.4,10.4,0,0,0,.2-1.268q.065-.682.065-1.462a24.574,24.574,0,0,0-.747-5.98q-.748-2.99-1.333-5.72-1.365,2.275-2.99,4.55a30.052,30.052,0,0,1-3.12,3.77,13.236,13.236,0,0,0,3.055,3.7A10.99,10.99,0,0,0,85.6-3.445ZM99.71,2.47q-1.3,0-1.982-2.113a15.745,15.745,0,0,1-.683-4.843,32.925,32.925,0,0,1,1.007-7.345,78.774,78.774,0,0,1,2.73-9q1.722-4.712,3.835-9.23a92.85,92.85,0,0,1,4.323-8.223,38.464,38.464,0,0,1,4.192-5.915q1.982-2.21,3.478-2.21a1.883,1.883,0,0,1,1.787,1.43,7.886,7.886,0,0,1,.552,2.86,15.14,15.14,0,0,1-.812,4.355,40.883,40.883,0,0,1-2.243,5.558,48.437,48.437,0,0,1-3.315,5.785,39.218,39.218,0,0,1-4.128,5.2,21.607,21.607,0,0,1-4.518,3.738,26.741,26.741,0,0,0-1.365,4.225A35.945,35.945,0,0,0,101.823-9a34.08,34.08,0,0,0-.228,3.738q0,.585.033,1.072t.032.877q.715-1.885,1.625-4.1a44.377,44.377,0,0,1,2.08-4.355,25.434,25.434,0,0,1,2.6-3.9,13.1,13.1,0,0,1,3.12-2.827,6.89,6.89,0,0,1,3.77-1.073,4.56,4.56,0,0,1,3.055.943,5.61,5.61,0,0,1,1.625,2.308,7.79,7.79,0,0,1,.52,2.8,11.284,11.284,0,0,1-.683,3.932q-.682,1.853-1.4,3.543a8.329,8.329,0,0,0-.715,3.25,2.437,2.437,0,0,0,.553,1.82,1.875,1.875,0,0,0,1.333.52,5.707,5.707,0,0,0,3.347-1.43,21.423,21.423,0,0,0,3.705-3.8,29.157,29.157,0,0,0,3.218-5.168l.91.91a30.169,30.169,0,0,1-3.412,5.818A17.335,17.335,0,0,1,122.59.033a8.993,8.993,0,0,1-5,1.528,4.709,4.709,0,0,1-3.478-1.2,4.1,4.1,0,0,1-1.2-3.022,10.494,10.494,0,0,1,.52-3.055q.52-1.69,1.007-3.413a11.853,11.853,0,0,0,.487-3.217,3.082,3.082,0,0,0-.715-2.34,2.513,2.513,0,0,0-1.755-.65,4.09,4.09,0,0,0-2.925,1.267,12.47,12.47,0,0,0-2.34,3.315q-1.04,2.048-1.982,4.323t-1.82,4.29a20.921,20.921,0,0,1-1.755,3.315A2.412,2.412,0,0,1,99.71,2.47Zm5.2-23.01a19.79,19.79,0,0,0,3.478-3.608,48.379,48.379,0,0,0,3.088-4.583q1.43-2.405,2.567-4.712a32.532,32.532,0,0,0,1.755-4.193,10.112,10.112,0,0,0,.618-2.8.951.951,0,0,0-.033-.325.509.509,0,0,0-.1-.13q-.455,0-1.82,1.722a46.22,46.22,0,0,0-3.12,4.615,71.982,71.982,0,0,0-3.478,6.533A61.6,61.6,0,0,0,104.91-20.54Zm42.9,38.74a4.98,4.98,0,0,1-2.925-.91,3.179,3.179,0,0,1-1.3-2.8,6.433,6.433,0,0,1,1.1-3.7,13.227,13.227,0,0,1,2.925-3.023,28.826,28.826,0,0,1,4.1-2.6q2.275-1.2,4.615-2.308.845-2.275,1.755-5.2t1.69-6.11a34.3,34.3,0,0,1-4.42,5.525,7.019,7.019,0,0,1-5,2.34,6,6,0,0,1-2.47-.553,4.9,4.9,0,0,1-2.048-1.723,5.249,5.249,0,0,1-.812-3.055,17.094,17.094,0,0,1,.617-4.16,39.839,39.839,0,0,1,1.527-4.713,19.951,19.951,0,0,1,1.918-3.8q1.007-1.5,1.722-1.5a3.932,3.932,0,0,1,1.04.228,6.44,6.44,0,0,1,1.365.618,1.29,1.29,0,0,1,.715.845,16.876,16.876,0,0,0-1.3,2.373q-.715,1.528-1.4,3.413t-1.137,3.64a12.416,12.416,0,0,0-.455,3.055,3.163,3.163,0,0,0,.488,1.82,1.935,1.935,0,0,0,1.723.715,4.712,4.712,0,0,0,2.827-1.2,19.238,19.238,0,0,0,3.023-3.055,40.066,40.066,0,0,0,2.795-3.933q.13-.585.292-1.43t.357-1.69a7,7,0,0,1,1.007-2.08,2.659,2.659,0,0,1,2.373-1.1q.39,0,.747.032a4.477,4.477,0,0,1,.813.163,22.11,22.11,0,0,1-.618,3.868q-.618,2.828-1.755,6.565T161.07.39a20.347,20.347,0,0,0,5.883-3.8,18.653,18.653,0,0,0,4.777-7.247l.91.78a15.486,15.486,0,0,1-2.958,5.46A22.389,22.389,0,0,1,165.23-.39,31.68,31.68,0,0,1,160.29,2.4a69.746,69.746,0,0,1-3.705,7.768,26.394,26.394,0,0,1-4.225,5.818A6.472,6.472,0,0,1,147.81,18.2Zm-.455-2.21q1.04,0,3.315-2.568a32.472,32.472,0,0,0,4.81-8.613q-2.47,1.3-4.712,2.7a15.054,15.054,0,0,0-3.608,3.022,5.434,5.434,0,0,0-1.365,3.575,2.572,2.572,0,0,0,.357,1.235A1.261,1.261,0,0,0,147.355,15.99ZM174.85,2.08q-2.86,0-4-1.788A7.64,7.64,0,0,1,169.715-3.9a14.64,14.64,0,0,1,.65-4.193,18.413,18.413,0,0,1,1.755-4.063,11.35,11.35,0,0,1,2.47-3.022,4.275,4.275,0,0,1,2.73-1.138,3.612,3.612,0,0,1,.813.1,2.563,2.563,0,0,1,.747.293,12.774,12.774,0,0,0-1.462,2.113,26.175,26.175,0,0,0-1.527,3.12,26.91,26.91,0,0,0-1.17,3.445,11.867,11.867,0,0,0-.455,2.957,4.585,4.585,0,0,0,.617,2.632A1.988,1.988,0,0,0,176.6-.78a5.39,5.39,0,0,0,3.12-1.463A26.168,26.168,0,0,0,183.3-5.785a10.427,10.427,0,0,1-2.86-4,13.464,13.464,0,0,1-.975-5.167,10.054,10.054,0,0,1,.715-3.705,7.292,7.292,0,0,1,2.178-3.023,5.591,5.591,0,0,1,3.673-1.2q2.73,0,3.705,1.462a6.361,6.361,0,0,1,.975,3.608,15.052,15.052,0,0,1-1.235,5.59,31.669,31.669,0,0,1-3.12,5.85,5.015,5.015,0,0,0,2.275.52,7.659,7.659,0,0,0,2.34-.422,8.314,8.314,0,0,0,2.6-1.463,7.207,7.207,0,0,0,2.08-2.86l.91.715a8.99,8.99,0,0,1-3.738,4.518A9.354,9.354,0,0,1,188.24-4.03a7.949,7.949,0,0,1-1.625-.162,10.835,10.835,0,0,1-1.495-.423A24.31,24.31,0,0,1,180.18.13,9.2,9.2,0,0,1,174.85,2.08Zm9.815-9.685a32.653,32.653,0,0,0,2.665-5.005,12.64,12.64,0,0,0,1.105-4.94,4.9,4.9,0,0,0-.52-2.567,1.616,1.616,0,0,0-1.43-.813q-1.235,0-2.6,1.853a7.624,7.624,0,0,0-1.365,4.648,13.4,13.4,0,0,0,.553,3.64A8.455,8.455,0,0,0,184.665-7.605ZM199.16,1.95a4.071,4.071,0,0,1-3.542-2.015,8.175,8.175,0,0,1-1.333-4.615,19.191,19.191,0,0,1,.585-4.355,34.862,34.862,0,0,1,1.527-4.842,24.72,24.72,0,0,1,1.917-3.933q.975-1.56,1.755-1.56a3.5,3.5,0,0,1,1.17.39,4.348,4.348,0,0,1,1.43,1.04,29.95,29.95,0,0,0-1.755,3.315,35.324,35.324,0,0,0-1.82,4.778,16.32,16.32,0,0,0-.78,4.712,13.733,13.733,0,0,0,.13,1.5,4.961,4.961,0,0,0,.617,1.885,1.584,1.584,0,0,0,1.463.845,3.627,3.627,0,0,0,2.5-1.267,21.815,21.815,0,0,0,2.6-3.25q1.333-1.982,2.6-4.258t2.307-4.42q1.04-2.145,1.755-3.575a10.627,10.627,0,0,1,1.268.292,6.868,6.868,0,0,1,1.462.585,1.106,1.106,0,0,1,.65,1.007,7.636,7.636,0,0,1-.65,1.69q-.65,1.43-1.495,3.477t-1.5,4.16a12.914,12.914,0,0,0-.65,3.738,3.169,3.169,0,0,0,.455,1.788,1.735,1.735,0,0,0,1.56.683A6.4,6.4,0,0,0,216.677-1.5,18.763,18.763,0,0,0,220.61-5.07a24.78,24.78,0,0,0,3.575-5.655l.91.65a22.724,22.724,0,0,1-3.607,6.24A19.106,19.106,0,0,1,216.742.423a9.393,9.393,0,0,1-4.908,1.528,4.545,4.545,0,0,1-2.73-.715A3.742,3.742,0,0,1,207.74-.683a9.8,9.8,0,0,1-.455-2.567,8.752,8.752,0,0,1,.1-1.3q.1-.65.227-1.3a39.752,39.752,0,0,1-2.5,3.8A13.833,13.833,0,0,1,202.28.845,5.178,5.178,0,0,1,199.16,1.95Zm43.615.52q-1.3,0-1.982-2.113a15.745,15.745,0,0,1-.682-4.843,32.924,32.924,0,0,1,1.008-7.345,78.774,78.774,0,0,1,2.73-9q1.722-4.712,3.835-9.23A92.85,92.85,0,0,1,252-38.285,38.463,38.463,0,0,1,256.2-44.2q1.983-2.21,3.478-2.21a1.883,1.883,0,0,1,1.788,1.43,7.886,7.886,0,0,1,.552,2.86,15.14,15.14,0,0,1-.812,4.355,40.881,40.881,0,0,1-2.242,5.558,48.435,48.435,0,0,1-3.315,5.785,39.219,39.219,0,0,1-4.128,5.2A21.607,21.607,0,0,1,247-17.485a26.74,26.74,0,0,0-1.365,4.225A35.947,35.947,0,0,0,244.887-9a34.081,34.081,0,0,0-.227,3.738q0,.585.033,1.072t.033.877q.715-1.885,1.625-4.1a44.372,44.372,0,0,1,2.08-4.355,25.434,25.434,0,0,1,2.6-3.9,13.1,13.1,0,0,1,3.12-2.827,6.89,6.89,0,0,1,3.77-1.073,4.56,4.56,0,0,1,3.055.943,5.609,5.609,0,0,1,1.625,2.308,7.79,7.79,0,0,1,.52,2.8,11.285,11.285,0,0,1-.682,3.932q-.683,1.853-1.4,3.543a8.329,8.329,0,0,0-.715,3.25,2.437,2.437,0,0,0,.553,1.82,1.875,1.875,0,0,0,1.332.52,5.707,5.707,0,0,0,3.348-1.43,21.422,21.422,0,0,0,3.7-3.8,29.156,29.156,0,0,0,3.217-5.168l.91.91a30.168,30.168,0,0,1-3.413,5.818,17.335,17.335,0,0,1-4.322,4.16A8.993,8.993,0,0,1,260.65,1.56a4.709,4.709,0,0,1-3.478-1.2,4.1,4.1,0,0,1-1.2-3.022,10.494,10.494,0,0,1,.52-3.055q.52-1.69,1.008-3.413a11.853,11.853,0,0,0,.487-3.217,3.082,3.082,0,0,0-.715-2.34,2.513,2.513,0,0,0-1.755-.65,4.09,4.09,0,0,0-2.925,1.267,12.47,12.47,0,0,0-2.34,3.315q-1.04,2.048-1.982,4.323t-1.82,4.29a20.92,20.92,0,0,1-1.755,3.315A2.412,2.412,0,0,1,242.775,2.47Zm5.2-23.01a19.789,19.789,0,0,0,3.477-3.608,48.382,48.382,0,0,0,3.088-4.583q1.43-2.405,2.567-4.712a32.531,32.531,0,0,0,1.755-4.193,10.112,10.112,0,0,0,.617-2.8.951.951,0,0,0-.033-.325.509.509,0,0,0-.1-.13q-.455,0-1.82,1.722a46.219,46.219,0,0,0-3.12,4.615,71.984,71.984,0,0,0-3.478,6.533A61.606,61.606,0,0,0,247.975-20.54Zm26.39,23.6a5,5,0,0,1-3.543-1.365,5.43,5.43,0,0,1-1.462-4.16,13.918,13.918,0,0,1,1.04-4.973,25.552,25.552,0,0,1,2.86-5.33,29.072,29.072,0,0,1,4.128-4.778A21.009,21.009,0,0,1,282.295-21a11.538,11.538,0,0,1,5.2-1.3,7.017,7.017,0,0,1,4.387,1.365,4.35,4.35,0,0,1,1.788,3.64,2.5,2.5,0,0,1-1.008,2.275,4.178,4.178,0,0,1-2.5.585q.13-.585.228-1.17a7.105,7.105,0,0,0,.1-1.17,4.733,4.733,0,0,0-.65-2.5,2.579,2.579,0,0,0-2.4-1.073,6.632,6.632,0,0,0-3.705,1.267,17.206,17.206,0,0,0-3.607,3.348,30.188,30.188,0,0,0-3.087,4.517,27.807,27.807,0,0,0-2.145,4.778,13.508,13.508,0,0,0-.78,4.225Q274.1.195,275.73.2a5.447,5.447,0,0,0,3.283-1.43,27.043,27.043,0,0,0,3.64-3.608Q284.5-7.02,286.195-9.36t2.99-4.16q.195-.39.39-.39.325.065.975.26a3.708,3.708,0,0,1,1.17.585,1.177,1.177,0,0,1,.52.975,3.646,3.646,0,0,1-.552,1.592q-.553,1.007-1.3,2.275a21.971,21.971,0,0,0-1.3,2.568,6.191,6.191,0,0,0-.553,2.405,3.759,3.759,0,0,0,.488,1.852,1.682,1.682,0,0,0,1.592.877q1.69,0,4.55-2.5a29.157,29.157,0,0,0,5.785-7.768l.845.845a25.143,25.143,0,0,1-3.575,6.208A17.879,17.879,0,0,1,293.637.455a9.21,9.21,0,0,1-4.842,1.5A4.387,4.387,0,0,1,285.122.423a5.208,5.208,0,0,1-1.2-3.283q0-.325.033-.65t.1-.715A32.444,32.444,0,0,1,279.045,1.2,7.356,7.356,0,0,1,274.365,3.055Zm29.64-.52a3.012,3.012,0,0,1-2.99-2.048,14.048,14.048,0,0,1-.845-5.3q0-.325.065-2.243t.325-6.013a7.942,7.942,0,0,1,.357-2.5q.293-.682,1.853-.682,1.235,0,1.527.487a4.193,4.193,0,0,1,.293,1.917q0,2.08-.26,4.745t-.26,5.07a9.787,9.787,0,0,0,.292,2.828,1.128,1.128,0,0,0,1.138.877,3.981,3.981,0,0,0,2.568-1.3,20.94,20.94,0,0,0,2.86-3.412,48.163,48.163,0,0,0,2.763-4.518q1.3-2.405,2.34-4.68.13-4.42.975-5.882a2.469,2.469,0,0,1,2.145-1.463,2.037,2.037,0,0,1,1.918.943,3.391,3.391,0,0,1,.552,1.657,3.3,3.3,0,0,1-.52,1.755,15.113,15.113,0,0,0-1.105,2.34,12.757,12.757,0,0,0-.585,4.42,12.558,12.558,0,0,0,.195,2.113,3.982,3.982,0,0,0,.845,1.917,2.393,2.393,0,0,0,1.95.78A3.92,3.92,0,0,0,325-6.728a11.975,11.975,0,0,0,2.535-3.738l.78.585A10.153,10.153,0,0,1,325.1-5.3a6.086,6.086,0,0,1-3.348,1.2,4.508,4.508,0,0,1-3.543-1.593,9.661,9.661,0,0,1-1.982-4.582,50.385,50.385,0,0,1-3.608,5.98,26.713,26.713,0,0,1-4.29,4.875A6.724,6.724,0,0,1,304.005,2.535Zm29.315.325q-4.03,0-6.11-2.21a7.663,7.663,0,0,1-2.08-5.46,14.94,14.94,0,0,1,1.462-6.11,25.589,25.589,0,0,1,3.9-6.11,21.536,21.536,0,0,1,5.395-4.615A11.455,11.455,0,0,1,341.77-23.4a5.455,5.455,0,0,1,2.892.813q1.333.813,1.333,3.282a8.164,8.164,0,0,1-1.43,4.615,14.655,14.655,0,0,1-3.835,3.835A23.641,23.641,0,0,1,335.5-8.093a23.464,23.464,0,0,1-5.687,1.4,5.728,5.728,0,0,0-.162,1.008q-.033.488-.033,1.008a9.656,9.656,0,0,0,.162,1.69,4.7,4.7,0,0,0,.715,1.755A4.012,4.012,0,0,0,332.052.13a5.746,5.746,0,0,0,2.632.52A11.029,11.029,0,0,0,340.21-.91a21.473,21.473,0,0,0,5.1-4.127,26.119,26.119,0,0,0,4-5.688l.975.715A24.365,24.365,0,0,1,345.8-3.218a20.989,20.989,0,0,1-5.948,4.485A14.585,14.585,0,0,1,333.32,2.86ZM330.265-8.32a19.192,19.192,0,0,0,3.9-1.56,28.461,28.461,0,0,0,4.16-2.632,15.265,15.265,0,0,0,3.315-3.38,6.637,6.637,0,0,0,1.3-3.868,1.666,1.666,0,0,0-.26-1.04,1.3,1.3,0,0,0-1.04-.325,5.925,5.925,0,0,0-3.217,1.138,15.771,15.771,0,0,0-3.315,3.023,28.612,28.612,0,0,0-2.893,4.127A19.921,19.921,0,0,0,330.265-8.32ZM368.16,3.055a5,5,0,0,1-3.543-1.365,5.43,5.43,0,0,1-1.462-4.16,13.918,13.918,0,0,1,1.04-4.973,25.552,25.552,0,0,1,2.86-5.33,29.072,29.072,0,0,1,4.128-4.778A21.009,21.009,0,0,1,376.09-21a11.538,11.538,0,0,1,5.2-1.3,7.017,7.017,0,0,1,4.387,1.365,4.35,4.35,0,0,1,1.788,3.64,2.5,2.5,0,0,1-1.008,2.275,4.178,4.178,0,0,1-2.5.585q.13-.585.228-1.17a7.105,7.105,0,0,0,.1-1.17,4.733,4.733,0,0,0-.65-2.5,2.579,2.579,0,0,0-2.4-1.073,6.632,6.632,0,0,0-3.705,1.267,17.206,17.206,0,0,0-3.607,3.348,30.188,30.188,0,0,0-3.087,4.517,27.807,27.807,0,0,0-2.145,4.778,13.508,13.508,0,0,0-.78,4.225Q367.9.195,369.525.2a5.447,5.447,0,0,0,3.283-1.43,27.043,27.043,0,0,0,3.64-3.608Q378.3-7.02,379.99-9.36t2.99-4.16q.195-.39.39-.39.325.065.975.26a3.708,3.708,0,0,1,1.17.585,1.177,1.177,0,0,1,.52.975,3.646,3.646,0,0,1-.552,1.592q-.553,1.007-1.3,2.275a21.971,21.971,0,0,0-1.3,2.568,6.191,6.191,0,0,0-.553,2.405,3.759,3.759,0,0,0,.488,1.852,1.682,1.682,0,0,0,1.592.877q1.69,0,4.55-2.5a29.157,29.157,0,0,0,5.785-7.768l.845.845a25.143,25.143,0,0,1-3.575,6.208A17.879,17.879,0,0,1,387.432.455a9.21,9.21,0,0,1-4.842,1.5A4.387,4.387,0,0,1,378.917.423a5.208,5.208,0,0,1-1.2-3.283q0-.325.033-.65t.1-.715A32.444,32.444,0,0,1,372.84,1.2,7.356,7.356,0,0,1,368.16,3.055Zm45.175-.585q-1.3,0-1.982-2.113a15.745,15.745,0,0,1-.682-4.843,32.925,32.925,0,0,1,1.007-7.345,78.771,78.771,0,0,1,2.73-9q1.723-4.712,3.835-9.23a92.858,92.858,0,0,1,4.323-8.223,38.462,38.462,0,0,1,4.193-5.915q1.982-2.21,3.477-2.21a1.883,1.883,0,0,1,1.788,1.43,7.886,7.886,0,0,1,.553,2.86,15.14,15.14,0,0,1-.812,4.355,40.881,40.881,0,0,1-2.243,5.558,48.435,48.435,0,0,1-3.315,5.785,39.215,39.215,0,0,1-4.128,5.2,21.607,21.607,0,0,1-4.517,3.738,26.74,26.74,0,0,0-1.365,4.225A35.937,35.937,0,0,0,415.447-9a34.078,34.078,0,0,0-.228,3.738q0,.585.033,1.072t.033.877Q416-5.2,416.91-7.41a44.375,44.375,0,0,1,2.08-4.355,25.433,25.433,0,0,1,2.6-3.9,13.1,13.1,0,0,1,3.12-2.827,6.89,6.89,0,0,1,3.77-1.073,4.56,4.56,0,0,1,3.055.943,5.61,5.61,0,0,1,1.625,2.308,7.791,7.791,0,0,1,.52,2.8A11.285,11.285,0,0,1,433-9.588q-.682,1.853-1.4,3.543a8.329,8.329,0,0,0-.715,3.25,2.437,2.437,0,0,0,.552,1.82,1.875,1.875,0,0,0,1.332.52,5.707,5.707,0,0,0,3.348-1.43,21.423,21.423,0,0,0,3.705-3.8,29.158,29.158,0,0,0,3.217-5.168l.91.91a30.17,30.17,0,0,1-3.413,5.818,17.336,17.336,0,0,1-4.323,4.16A8.993,8.993,0,0,1,431.21,1.56a4.709,4.709,0,0,1-3.477-1.2,4.1,4.1,0,0,1-1.2-3.022,10.5,10.5,0,0,1,.52-3.055q.52-1.69,1.008-3.413a11.852,11.852,0,0,0,.488-3.217,3.082,3.082,0,0,0-.715-2.34,2.513,2.513,0,0,0-1.755-.65,4.09,4.09,0,0,0-2.925,1.267,12.47,12.47,0,0,0-2.34,3.315q-1.04,2.048-1.983,4.323t-1.82,4.29a20.921,20.921,0,0,1-1.755,3.315A2.412,2.412,0,0,1,413.335,2.47Zm5.2-23.01a19.789,19.789,0,0,0,3.478-3.608A48.379,48.379,0,0,0,425.1-28.73q1.43-2.405,2.568-4.712a32.535,32.535,0,0,0,1.755-4.193,10.112,10.112,0,0,0,.617-2.8.951.951,0,0,0-.033-.325.509.509,0,0,0-.1-.13q-.455,0-1.82,1.722a46.222,46.222,0,0,0-3.12,4.615,71.984,71.984,0,0,0-3.478,6.533A61.6,61.6,0,0,0,418.535-20.54Zm26.39,23.6a5,5,0,0,1-3.543-1.365,5.43,5.43,0,0,1-1.462-4.16,13.918,13.918,0,0,1,1.04-4.973,25.552,25.552,0,0,1,2.86-5.33,29.072,29.072,0,0,1,4.128-4.778A21.009,21.009,0,0,1,452.855-21a11.538,11.538,0,0,1,5.2-1.3,7.016,7.016,0,0,1,4.387,1.365,4.35,4.35,0,0,1,1.788,3.64,2.5,2.5,0,0,1-1.008,2.275,4.178,4.178,0,0,1-2.5.585q.13-.585.227-1.17a7.105,7.105,0,0,0,.1-1.17,4.733,4.733,0,0,0-.65-2.5,2.579,2.579,0,0,0-2.4-1.073,6.632,6.632,0,0,0-3.705,1.267,17.206,17.206,0,0,0-3.607,3.348,30.188,30.188,0,0,0-3.087,4.517,27.807,27.807,0,0,0-2.145,4.778,13.508,13.508,0,0,0-.78,4.225q0,2.405,1.625,2.405a5.447,5.447,0,0,0,3.283-1.43,27.043,27.043,0,0,0,3.64-3.608q1.852-2.177,3.542-4.518t2.99-4.16q.195-.39.39-.39.325.065.975.26a3.708,3.708,0,0,1,1.17.585,1.177,1.177,0,0,1,.52.975,3.646,3.646,0,0,1-.552,1.592q-.553,1.007-1.3,2.275a21.971,21.971,0,0,0-1.3,2.568,6.191,6.191,0,0,0-.552,2.405,3.759,3.759,0,0,0,.487,1.852,1.682,1.682,0,0,0,1.592.877q1.69,0,4.55-2.5a29.157,29.157,0,0,0,5.785-7.768l.845.845a25.143,25.143,0,0,1-3.575,6.208A17.879,17.879,0,0,1,464.2.455a9.21,9.21,0,0,1-4.842,1.5A4.387,4.387,0,0,1,455.682.423a5.208,5.208,0,0,1-1.2-3.283q0-.325.033-.65t.1-.715A32.444,32.444,0,0,1,449.6,1.2,7.356,7.356,0,0,1,444.925,3.055ZM466.18,18.2a1.589,1.589,0,0,1-1.04-.455,3.543,3.543,0,0,1-.812-1.007,6.309,6.309,0,0,1-.357-.748q1.17-3.705,2.145-6.533t1.82-5.59q.845-2.763,1.592-6.24t1.56-8.45Q471.9-15.8,472.81-23.01a2.144,2.144,0,0,1,.26-.943q.2-.292,1.04-.292a3.141,3.141,0,0,1,2.6.975,3.356,3.356,0,0,1,.78,2.145,22.865,22.865,0,0,1-.325,2.958q-.325,2.112-.975,4.972a31.488,31.488,0,0,1,2.795-4.128,15.164,15.164,0,0,1,3.705-3.38,8.268,8.268,0,0,1,4.55-1.333,6.4,6.4,0,0,1,4.875,2.08,7.66,7.66,0,0,1,1.95,5.46,14.382,14.382,0,0,1-1.138,5.362A20,20,0,0,1,489.71-3.8,17.025,17.025,0,0,1,484.8.26a12.766,12.766,0,0,1-6.272,1.56A8.358,8.358,0,0,1,475.6,1.4q-1.1-.423-1.1-.943,0-.325.487-.358t1.138-.032a11.922,11.922,0,0,0,5.167-1.3,14.7,14.7,0,0,0,4.29-3.283,15.887,15.887,0,0,0,2.892-4.518,12.352,12.352,0,0,0,1.04-4.81,6.592,6.592,0,0,0-.878-3.51,3.066,3.066,0,0,0-2.827-1.43,6.147,6.147,0,0,0-3.283,1.04,14.364,14.364,0,0,0-3.12,2.7,29.008,29.008,0,0,0-2.6,3.413,21.393,21.393,0,0,0-1.723,3.12q-1.17,4.68-2.275,9.133T470.665,8.71q-1.04,3.64-1.917,6.045a7.724,7.724,0,0,1-1.658,3.055A1.247,1.247,0,0,1,466.18,18.2Zm25.87,0a1.589,1.589,0,0,1-1.04-.455,3.543,3.543,0,0,1-.812-1.007,6.309,6.309,0,0,1-.357-.748q1.17-3.705,2.145-6.533t1.82-5.59q.845-2.763,1.592-6.24t1.56-8.45q.812-4.973,1.723-12.187a2.144,2.144,0,0,1,.26-.943q.2-.292,1.04-.292a3.141,3.141,0,0,1,2.6.975,3.356,3.356,0,0,1,.78,2.145,22.865,22.865,0,0,1-.325,2.958q-.325,2.112-.975,4.972a31.488,31.488,0,0,1,2.795-4.128,15.164,15.164,0,0,1,3.705-3.38,8.268,8.268,0,0,1,4.55-1.333,6.4,6.4,0,0,1,4.875,2.08,7.66,7.66,0,0,1,1.95,5.46A14.382,14.382,0,0,1,518.8-9.133,20,20,0,0,1,515.58-3.8,17.024,17.024,0,0,1,510.672.26,12.766,12.766,0,0,1,504.4,1.82a8.358,8.358,0,0,1-2.925-.423q-1.1-.423-1.1-.943,0-.325.487-.358t1.138-.032a11.922,11.922,0,0,0,5.167-1.3,14.7,14.7,0,0,0,4.29-3.283,15.888,15.888,0,0,0,2.893-4.518,12.352,12.352,0,0,0,1.04-4.81,6.592,6.592,0,0,0-.878-3.51,3.066,3.066,0,0,0-2.827-1.43,6.147,6.147,0,0,0-3.283,1.04,14.364,14.364,0,0,0-3.12,2.7,29.008,29.008,0,0,0-2.6,3.413,21.393,21.393,0,0,0-1.723,3.12q-1.17,4.68-2.275,9.133T496.535,8.71q-1.04,3.64-1.917,6.045a7.724,7.724,0,0,1-1.658,3.055A1.247,1.247,0,0,1,492.05,18.2Zm32.76,0a4.98,4.98,0,0,1-2.925-.91,3.179,3.179,0,0,1-1.3-2.8,6.434,6.434,0,0,1,1.1-3.7,13.226,13.226,0,0,1,2.925-3.023,28.826,28.826,0,0,1,4.1-2.6q2.275-1.2,4.615-2.308.845-2.275,1.755-5.2t1.69-6.11a34.3,34.3,0,0,1-4.42,5.525,7.019,7.019,0,0,1-5.005,2.34,6,6,0,0,1-2.47-.553,4.9,4.9,0,0,1-2.047-1.723,5.249,5.249,0,0,1-.812-3.055,17.094,17.094,0,0,1,.617-4.16,39.836,39.836,0,0,1,1.528-4.713,19.947,19.947,0,0,1,1.917-3.8q1.008-1.5,1.722-1.5a3.933,3.933,0,0,1,1.04.228,6.442,6.442,0,0,1,1.365.618,1.29,1.29,0,0,1,.715.845,16.883,16.883,0,0,0-1.3,2.373q-.715,1.528-1.4,3.413t-1.138,3.64a12.415,12.415,0,0,0-.455,3.055,3.163,3.163,0,0,0,.487,1.82,1.935,1.935,0,0,0,1.723.715,4.713,4.713,0,0,0,2.828-1.2,19.238,19.238,0,0,0,3.022-3.055,40.063,40.063,0,0,0,2.795-3.933q.13-.585.293-1.43t.357-1.69a7,7,0,0,1,1.008-2.08,2.659,2.659,0,0,1,2.372-1.1q.39,0,.747.032a4.477,4.477,0,0,1,.813.163,22.108,22.108,0,0,1-.617,3.868q-.618,2.828-1.755,6.565T538.07.39a20.347,20.347,0,0,0,5.883-3.8,18.653,18.653,0,0,0,4.778-7.247l.91.78a15.484,15.484,0,0,1-2.958,5.46A22.388,22.388,0,0,1,542.23-.39,31.68,31.68,0,0,1,537.29,2.4a69.746,69.746,0,0,1-3.705,7.768,26.393,26.393,0,0,1-4.225,5.818A6.472,6.472,0,0,1,524.81,18.2Zm-.455-2.21q1.04,0,3.315-2.568a32.472,32.472,0,0,0,4.81-8.613q-2.47,1.3-4.712,2.7a15.053,15.053,0,0,0-3.607,3.022,5.434,5.434,0,0,0-1.365,3.575,2.571,2.571,0,0,0,.358,1.235A1.261,1.261,0,0,0,524.355,15.99Zm47.06-12.675a8.349,8.349,0,0,1-4.973-1.333,7.355,7.355,0,0,1-2.633-3.315,10.842,10.842,0,0,1-.78-4,6.857,6.857,0,0,1,.52-2.99,3.78,3.78,0,0,1,1.268-1.527,7.593,7.593,0,0,1,1.43-.748,2.869,2.869,0,0,0,1.008-.585,42.966,42.966,0,0,0,3.478-4.258,30.427,30.427,0,0,0,2.892-4.972v-.715a5.635,5.635,0,0,1,.845-3.51,2.373,2.373,0,0,1,1.82-1.04,1.192,1.192,0,0,1,.878.293,1.233,1.233,0,0,1,.357.682,3.839,3.839,0,0,1-.2,1.04,6.03,6.03,0,0,0-.2,1.69,13.956,13.956,0,0,0,.878,4.583q.878,2.5,1.755,5.265a18.886,18.886,0,0,1,.878,5.753,12.565,12.565,0,0,1-.1,1.56q-.1.78-.228,1.43a9.745,9.745,0,0,0,4.16-2.113,16.269,16.269,0,0,0,3.835-5.233l.65.65a12,12,0,0,1-3.672,5.557,11.647,11.647,0,0,1-5.428,2.5,7.537,7.537,0,0,1-3.315,4.03A10.164,10.164,0,0,1,571.415,3.315ZM571.35.845a5.507,5.507,0,0,0,2.21-.553,3.831,3.831,0,0,0,1.885-2.438,11.734,11.734,0,0,1-4.81-2.113A13.3,13.3,0,0,1,567.45-7.41q-1.3.065-1.3,2.08a7.221,7.221,0,0,0,1.365,4.225A4.413,4.413,0,0,0,571.35.845Zm4.485-4.29a10.4,10.4,0,0,0,.2-1.268q.065-.682.065-1.462a24.573,24.573,0,0,0-.747-5.98q-.748-2.99-1.333-5.72-1.365,2.275-2.99,4.55a30.052,30.052,0,0,1-3.12,3.77,13.236,13.236,0,0,0,3.055,3.7A10.99,10.99,0,0,0,575.835-3.445Zm14.1,5.915q-1.3,0-1.982-2.113a15.744,15.744,0,0,1-.682-4.843,32.924,32.924,0,0,1,1.008-7.345,78.783,78.783,0,0,1,2.73-9q1.722-4.712,3.835-9.23a92.85,92.85,0,0,1,4.322-8.223,38.464,38.464,0,0,1,4.193-5.915q1.983-2.21,3.478-2.21a1.883,1.883,0,0,1,1.787,1.43,7.886,7.886,0,0,1,.552,2.86,15.139,15.139,0,0,1-.812,4.355,40.888,40.888,0,0,1-2.242,5.558,48.435,48.435,0,0,1-3.315,5.785,39.217,39.217,0,0,1-4.128,5.2,21.607,21.607,0,0,1-4.517,3.738A26.74,26.74,0,0,0,592.8-13.26,35.956,35.956,0,0,0,592.052-9a34.077,34.077,0,0,0-.227,3.738q0,.585.032,1.072t.033.877q.715-1.885,1.625-4.1a44.361,44.361,0,0,1,2.08-4.355,25.433,25.433,0,0,1,2.6-3.9,13.1,13.1,0,0,1,3.12-2.827,6.89,6.89,0,0,1,3.77-1.073,4.56,4.56,0,0,1,3.055.943,5.61,5.61,0,0,1,1.625,2.308,7.79,7.79,0,0,1,.52,2.8,11.284,11.284,0,0,1-.682,3.932q-.683,1.853-1.4,3.543a8.329,8.329,0,0,0-.715,3.25,2.437,2.437,0,0,0,.553,1.82,1.875,1.875,0,0,0,1.332.52,5.708,5.708,0,0,0,3.348-1.43,21.423,21.423,0,0,0,3.7-3.8,29.152,29.152,0,0,0,3.218-5.168l.91.91a30.168,30.168,0,0,1-3.412,5.818A17.335,17.335,0,0,1,612.82.033a8.993,8.993,0,0,1-5.005,1.528,4.708,4.708,0,0,1-3.477-1.2,4.1,4.1,0,0,1-1.2-3.022,10.494,10.494,0,0,1,.52-3.055q.52-1.69,1.008-3.413a11.852,11.852,0,0,0,.487-3.217,3.082,3.082,0,0,0-.715-2.34,2.513,2.513,0,0,0-1.755-.65,4.09,4.09,0,0,0-2.925,1.267,12.47,12.47,0,0,0-2.34,3.315q-1.04,2.048-1.983,4.323t-1.82,4.29a20.921,20.921,0,0,1-1.755,3.315A2.412,2.412,0,0,1,589.94,2.47Zm5.2-23.01a19.789,19.789,0,0,0,3.477-3.608A48.367,48.367,0,0,0,601.7-28.73q1.43-2.405,2.568-4.712a32.531,32.531,0,0,0,1.755-4.193,10.111,10.111,0,0,0,.617-2.8.95.95,0,0,0-.033-.325.509.509,0,0,0-.1-.13q-.455,0-1.82,1.722a46.222,46.222,0,0,0-3.12,4.615,71.984,71.984,0,0,0-3.477,6.533A61.593,61.593,0,0,0,595.14-20.54ZM622.635,2.08q-2.86,0-4-1.788A7.64,7.64,0,0,1,617.5-3.9a14.639,14.639,0,0,1,.65-4.193,18.415,18.415,0,0,1,1.755-4.063,11.35,11.35,0,0,1,2.47-3.022,4.275,4.275,0,0,1,2.73-1.138,3.612,3.612,0,0,1,.813.1,2.563,2.563,0,0,1,.747.293,12.774,12.774,0,0,0-1.463,2.113,26.166,26.166,0,0,0-1.527,3.12,26.91,26.91,0,0,0-1.17,3.445,11.869,11.869,0,0,0-.455,2.957,4.585,4.585,0,0,0,.617,2.632,1.988,1.988,0,0,0,1.722.878,5.39,5.39,0,0,0,3.12-1.463,26.168,26.168,0,0,0,3.575-3.543,10.426,10.426,0,0,1-2.86-4,13.463,13.463,0,0,1-.975-5.167,10.054,10.054,0,0,1,.715-3.705,7.293,7.293,0,0,1,2.177-3.023,5.591,5.591,0,0,1,3.672-1.2q2.73,0,3.705,1.462a6.36,6.36,0,0,1,.975,3.608,15.051,15.051,0,0,1-1.235,5.59,31.669,31.669,0,0,1-3.12,5.85,5.015,5.015,0,0,0,2.275.52,7.659,7.659,0,0,0,2.34-.422,8.313,8.313,0,0,0,2.6-1.463,7.206,7.206,0,0,0,2.08-2.86l.91.715a8.99,8.99,0,0,1-3.737,4.518,9.354,9.354,0,0,1-4.583,1.332,7.95,7.95,0,0,1-1.625-.162,10.837,10.837,0,0,1-1.495-.423A24.309,24.309,0,0,1,627.965.13,9.2,9.2,0,0,1,622.635,2.08Zm9.815-9.685a32.657,32.657,0,0,0,2.665-5.005,12.64,12.64,0,0,0,1.1-4.94,4.9,4.9,0,0,0-.52-2.567,1.616,1.616,0,0,0-1.43-.813q-1.235,0-2.6,1.853A7.624,7.624,0,0,0,630.3-14.43a13.4,13.4,0,0,0,.552,3.64A8.455,8.455,0,0,0,632.45-7.605ZM638.1,18.2a1.589,1.589,0,0,1-1.04-.455,3.542,3.542,0,0,1-.812-1.007,6.3,6.3,0,0,1-.357-.748q1.17-3.705,2.145-6.533t1.82-5.59q.845-2.763,1.593-6.24t1.56-8.45q.813-4.973,1.722-12.187a2.143,2.143,0,0,1,.26-.943q.2-.292,1.04-.292a3.141,3.141,0,0,1,2.6.975,3.356,3.356,0,0,1,.78,2.145,22.873,22.873,0,0,1-.325,2.958q-.325,2.112-.975,4.972a31.494,31.494,0,0,1,2.8-4.128,15.164,15.164,0,0,1,3.7-3.38,8.268,8.268,0,0,1,4.55-1.333,6.4,6.4,0,0,1,4.875,2.08,7.66,7.66,0,0,1,1.95,5.46,14.381,14.381,0,0,1-1.138,5.362,20,20,0,0,1-3.217,5.33A17.024,17.024,0,0,1,656.727.26a12.766,12.766,0,0,1-6.272,1.56A8.358,8.358,0,0,1,647.53,1.4q-1.105-.423-1.105-.943,0-.325.488-.358T648.05.065a11.922,11.922,0,0,0,5.168-1.3,14.7,14.7,0,0,0,4.29-3.283A15.888,15.888,0,0,0,660.4-9.035a12.352,12.352,0,0,0,1.04-4.81,6.592,6.592,0,0,0-.878-3.51,3.066,3.066,0,0,0-2.828-1.43,6.147,6.147,0,0,0-3.282,1.04,14.362,14.362,0,0,0-3.12,2.7,29.009,29.009,0,0,0-2.6,3.413,21.4,21.4,0,0,0-1.722,3.12q-1.17,4.68-2.275,9.133T642.59,8.71q-1.04,3.64-1.918,6.045a7.725,7.725,0,0,1-1.657,3.055A1.247,1.247,0,0,1,638.1,18.2Zm25.87,0a1.589,1.589,0,0,1-1.04-.455,3.542,3.542,0,0,1-.812-1.007,6.3,6.3,0,0,1-.357-.748q1.17-3.705,2.145-6.533t1.82-5.59q.845-2.763,1.593-6.24t1.56-8.45q.813-4.973,1.722-12.187a2.143,2.143,0,0,1,.26-.943q.2-.292,1.04-.292a3.141,3.141,0,0,1,2.6.975,3.356,3.356,0,0,1,.78,2.145,22.873,22.873,0,0,1-.325,2.958q-.325,2.112-.975,4.972a31.494,31.494,0,0,1,2.8-4.128,15.164,15.164,0,0,1,3.7-3.38,8.268,8.268,0,0,1,4.55-1.333,6.4,6.4,0,0,1,4.875,2.08,7.66,7.66,0,0,1,1.95,5.46,14.381,14.381,0,0,1-1.138,5.362A20,20,0,0,1,687.5-3.8,17.024,17.024,0,0,1,682.6.26a12.766,12.766,0,0,1-6.272,1.56A8.358,8.358,0,0,1,673.4,1.4q-1.105-.423-1.105-.943,0-.325.488-.358T673.92.065a11.922,11.922,0,0,0,5.168-1.3,14.7,14.7,0,0,0,4.29-3.283,15.888,15.888,0,0,0,2.893-4.518,12.352,12.352,0,0,0,1.04-4.81,6.592,6.592,0,0,0-.878-3.51,3.066,3.066,0,0,0-2.828-1.43,6.147,6.147,0,0,0-3.282,1.04,14.362,14.362,0,0,0-3.12,2.7,29.009,29.009,0,0,0-2.6,3.413,21.4,21.4,0,0,0-1.722,3.12Q671.71-3.835,670.6.618T668.46,8.71q-1.04,3.64-1.918,6.045a7.725,7.725,0,0,1-1.657,3.055A1.247,1.247,0,0,1,663.975,18.2Zm34.71-16.445A4.772,4.772,0,0,1,694.72.13a6.049,6.049,0,0,1-1.3-3.9,16.588,16.588,0,0,1,.552-3.77,45.347,45.347,0,0,1,1.463-4.777,34.53,34.53,0,0,1,2.112-4.713,15.634,15.634,0,0,1,2.6-3.608,4,4,0,0,1,2.762-1.4,1.64,1.64,0,0,1,1.105.39,1.457,1.457,0,0,1,.455,1.17,6.184,6.184,0,0,1-1.007,2.535q-1.008,1.755-2.34,4a35.333,35.333,0,0,0-2.34,4.713,12.407,12.407,0,0,0-1.007,4.68,4.391,4.391,0,0,0,.747,3.023,3.144,3.144,0,0,0,2.307.748,7.48,7.48,0,0,0,4.745-2.21q2.535-2.21,5.33-7.735l.715.78A20.3,20.3,0,0,1,706.095-1.3,11.15,11.15,0,0,1,698.685,1.755ZM706.42-27.82a3.643,3.643,0,0,1-1.982-.552,1.89,1.89,0,0,1-.878-1.722,2.955,2.955,0,0,1,1.625-2.47,5.989,5.989,0,0,1,3.25-1.04,3.042,3.042,0,0,1,1.722.455,1.885,1.885,0,0,1,.683,1.69,3.325,3.325,0,0,1-1.4,2.437A4.549,4.549,0,0,1,706.42-27.82ZM730.86,1.3A4.9,4.9,0,0,1,727.252.1a4.18,4.18,0,0,1-1.2-3.088,9.044,9.044,0,0,1,.487-2.8q.488-1.495.943-3.055a10.672,10.672,0,0,0,.455-2.99,3.082,3.082,0,0,0-.715-2.34,2.513,2.513,0,0,0-1.755-.65A6.68,6.68,0,0,0,721.37-13.2a22.3,22.3,0,0,0-4,4.16q-1.918,2.535-3.608,5.2t-2.99,4.81a5.8,5.8,0,0,1-2.112-.39,3.527,3.527,0,0,1-1.592-1.17,9.515,9.515,0,0,1,.682-2.015q.683-1.69,1.592-4.1a50.017,50.017,0,0,0,1.593-5.005,18.627,18.627,0,0,0,.682-4.68,3.667,3.667,0,0,1,1.267-.975,3.97,3.97,0,0,1,1.853-.455q1.95,0,1.95,1.755a15.512,15.512,0,0,1-.488,3.087q-.488,2.112-1.267,4.583a47,47,0,0,1,3.835-4.972,23.506,23.506,0,0,1,4.518-4.03A8.421,8.421,0,0,1,728-18.98a4.269,4.269,0,0,1,3.867,1.853,7.311,7.311,0,0,1,1.2,4.063,10.238,10.238,0,0,1-.65,3.7q-.65,1.69-1.333,3.25a7.729,7.729,0,0,0-.682,3.12,2.319,2.319,0,0,0,.552,1.788,1.86,1.86,0,0,0,1.268.487,4.961,4.961,0,0,0,3.283-1.5,19.439,19.439,0,0,0,3.185-3.835,43.475,43.475,0,0,0,2.7-4.745l.845.91a32.768,32.768,0,0,1-3.088,5.688,16.354,16.354,0,0,1-3.77,4A7.488,7.488,0,0,1,730.86,1.3Zm11.83,16.9a4.5,4.5,0,0,1-2.73-.91,3.468,3.468,0,0,1-1.235-2.99,6.111,6.111,0,0,1,1.2-3.673,13.962,13.962,0,0,1,3.12-3.055,32.836,32.836,0,0,1,4.16-2.567q2.242-1.17,4.323-2.21.845-2.08,1.592-4.518t1.463-5.3A30.684,30.684,0,0,1,749.547-1.5a8.246,8.246,0,0,1-5.3,2.21,4.459,4.459,0,0,1-3.8-1.788,7.578,7.578,0,0,1-1.332-4.648,13.3,13.3,0,0,1,1.657-6.435,19.257,19.257,0,0,1,4.355-5.4,22.694,22.694,0,0,1,5.72-3.673,14.269,14.269,0,0,1,5.753-1.332,4.816,4.816,0,0,1,2.828.65,1.9,1.9,0,0,1,.878,1.56,1.362,1.362,0,0,1-.358,1.007,2.67,2.67,0,0,1-.487.423,2.381,2.381,0,0,0-1.1-.812,4.975,4.975,0,0,0-1.625-.227,9.085,9.085,0,0,0-4.908,1.495,16.094,16.094,0,0,0-4.16,3.8A22.318,22.318,0,0,0,744.8-9.88,11.4,11.4,0,0,0,743.73-5.4a3.461,3.461,0,0,0,.617,2.243,1.971,1.971,0,0,0,1.592.748q1.82,0,4.453-2.438a37.394,37.394,0,0,0,5.1-5.948q.13-.78.293-1.4t.357-1.528a8.063,8.063,0,0,1,1.138-2.665,2.723,2.723,0,0,1,2.438-1.235,3.818,3.818,0,0,1,.682.065q.358.065.813.195a20.588,20.588,0,0,1-.617,3.77q-.618,2.73-1.755,6.37T756.275.26a22.78,22.78,0,0,0,4.16-2.568,21.208,21.208,0,0,0,3.77-3.737,17.91,17.91,0,0,0,2.665-4.68l.975.845a16.37,16.37,0,0,1-3.185,5.363,26.94,26.94,0,0,1-4.615,4.193,29.984,29.984,0,0,1-4.55,2.73,64.343,64.343,0,0,1-3.8,7.93,25.815,25.815,0,0,1-4.258,5.72A6.734,6.734,0,0,1,742.69,18.2Zm-.2-2.4q1.235,0,3.413-2.438a32.174,32.174,0,0,0,4.712-8.352,50.556,50.556,0,0,0-4.712,2.6,16.963,16.963,0,0,0-3.542,2.86A4.734,4.734,0,0,0,741,13.715a2.461,2.461,0,0,0,.423,1.527A1.3,1.3,0,0,0,742.495,15.8Zm29.575-34.84q1.235-3.055,2.665-6.76t2.99-7.41q1.56-3.7,3.12-6.792a29.672,29.672,0,0,1,3.022-4.94q1.463-1.853,2.7-1.853a1.431,1.431,0,0,1,1.04.455,1.584,1.584,0,0,1,.455,1.17,11.85,11.85,0,0,1-1.008,3.445q-1.008,2.535-2.633,6.077t-3.672,7.573q-2.047,4.03-4.193,8.06t-4.128,7.508q-1.982,3.477-3.542,5.818l-.2-.1-.2-.1q.455-2.535,1.105-4.843t1.332-4.192Q771.615-17.81,772.07-19.045ZM766.935.65A2.8,2.8,0,0,1,765.342.2a1.6,1.6,0,0,1-.682-1.43,2.336,2.336,0,0,1,1.3-1.983,4.872,4.872,0,0,1,2.6-.812,2.364,2.364,0,0,1,1.365.358,1.508,1.508,0,0,1,.52,1.332,2.765,2.765,0,0,1-1.073,2.015A3.525,3.525,0,0,1,766.935.65Z" transform="translate(-1.32 47.3)" fill="none" stroke="#9a7141" stroke-width="1" opacity="0.65"/>
</svg>
