<svg xmlns="http://www.w3.org/2000/svg" width="1090.891" height="101.1" viewBox="0 0 1090.891 101.1">
  <path id="Path_3704" data-name="Path 3704" d="M20.2,8.7q-4.8,0-6.65-2.05A7.537,7.537,0,0,1,11.7,1.4a24.6,24.6,0,0,1,1.2-6.9q1.2-4,2.4-7.7,2-5.7,4.45-12.4T24.9-39.2q2.7-6.9,5.45-13.5T35.6-64.8q-6.9.1-11.65.35t-8.6.65q-3.85.4-8.25,1.2a7.3,7.3,0,0,1,3.7-5.7,24.157,24.157,0,0,1,8.8-2.85A83.243,83.243,0,0,1,32.2-72q5.9,0,10.7.4t9.05.85q4.25.45,8.45.65a2.939,2.939,0,0,1-1.85,2.8,13.381,13.381,0,0,1-4.45.6,11.113,11.113,0,0,1-4,1.35,43.451,43.451,0,0,1-4.8.45q-2.5.1-4.8.1-3.7,9.3-7.8,21.65t-8,26.75q-1.4,5.1-2.45,9T20.65-.25A39.186,39.186,0,0,0,20.1,6.3q0,.5,0,1.1A9.231,9.231,0,0,0,20.2,8.7Zm31-4.9q-2,0-3.05-3.25A24.223,24.223,0,0,1,47.1-6.9a50.654,50.654,0,0,1,1.55-11.3,121.192,121.192,0,0,1,4.2-13.85q2.65-7.25,5.9-14.2A142.848,142.848,0,0,1,65.4-58.9,59.174,59.174,0,0,1,71.85-68q3.05-3.4,5.35-3.4a2.9,2.9,0,0,1,2.75,2.2,12.132,12.132,0,0,1,.85,4.4,23.292,23.292,0,0,1-1.25,6.7,62.9,62.9,0,0,1-3.45,8.55,74.518,74.518,0,0,1-5.1,8.9,60.336,60.336,0,0,1-6.35,8A33.242,33.242,0,0,1,57.7-26.9a41.141,41.141,0,0,0-2.1,6.5,55.3,55.3,0,0,0-1.15,6.55A52.429,52.429,0,0,0,54.1-8.1q0,.9.05,1.65T54.2-5.1q1.1-2.9,2.5-6.3a68.271,68.271,0,0,1,3.2-6.7,39.129,39.129,0,0,1,4-6,20.157,20.157,0,0,1,4.8-4.35,10.6,10.6,0,0,1,5.8-1.65,7.016,7.016,0,0,1,4.7,1.45,8.63,8.63,0,0,1,2.5,3.55,11.985,11.985,0,0,1,.8,4.3,17.36,17.36,0,0,1-1.05,6.05Q80.4-11.9,79.3-9.3a12.814,12.814,0,0,0-1.1,5,3.749,3.749,0,0,0,.85,2.8,2.884,2.884,0,0,0,2.05.8,8.78,8.78,0,0,0,5.15-2.2,32.958,32.958,0,0,0,5.7-5.85A44.856,44.856,0,0,0,96.9-16.7l1.4,1.4a46.414,46.414,0,0,1-5.25,8.95A26.669,26.669,0,0,1,86.4.05,13.836,13.836,0,0,1,78.7,2.4,7.244,7.244,0,0,1,73.35.55,6.306,6.306,0,0,1,71.5-4.1a16.145,16.145,0,0,1,.8-4.7q.8-2.6,1.55-5.25A18.235,18.235,0,0,0,74.6-19q0-2.6-1.1-3.6a3.867,3.867,0,0,0-2.7-1,6.292,6.292,0,0,0-4.5,1.95,19.185,19.185,0,0,0-3.6,5.1Q61.1-13.4,59.65-9.9t-2.8,6.6a32.186,32.186,0,0,1-2.7,5.1Q52.8,3.8,51.2,3.8Zm8-35.4a30.445,30.445,0,0,0,5.35-5.55A74.431,74.431,0,0,0,69.3-44.2q2.2-3.7,3.95-7.25a50.052,50.052,0,0,0,2.7-6.45,15.557,15.557,0,0,0,.95-4.3,1.463,1.463,0,0,0-.05-.5.783.783,0,0,0-.15-.2q-.7,0-2.8,2.65a71.107,71.107,0,0,0-4.8,7.1A110.747,110.747,0,0,0,63.75-43.1,94.777,94.777,0,0,0,59.2-31.6Zm46.6,36q-6.2,0-9.4-3.4a11.789,11.789,0,0,1-3.2-8.4,22.985,22.985,0,0,1,2.25-9.4,39.367,39.367,0,0,1,6-9.4,33.132,33.132,0,0,1,8.3-7.1A17.622,17.622,0,0,1,118.8-36a8.392,8.392,0,0,1,4.45,1.25q2.05,1.25,2.05,5.05a12.561,12.561,0,0,1-2.2,7.1,22.546,22.546,0,0,1-5.9,5.9,36.372,36.372,0,0,1-8.05,4.25,36.1,36.1,0,0,1-8.75,2.15,8.809,8.809,0,0,0-.25,1.55q-.05.75-.05,1.55a14.852,14.852,0,0,0,.25,2.6,7.233,7.233,0,0,0,1.1,2.7,6.173,6.173,0,0,0,2.4,2.1,8.84,8.84,0,0,0,4.05.8,16.967,16.967,0,0,0,8.5-2.4,33.035,33.035,0,0,0,7.85-6.35,40.184,40.184,0,0,0,6.15-8.75l1.5,1.1A37.484,37.484,0,0,1,125-4.95a32.291,32.291,0,0,1-9.15,6.9A22.439,22.439,0,0,1,105.8,4.4Zm-4.7-17.2a29.527,29.527,0,0,0,6-2.4,43.784,43.784,0,0,0,6.4-4.05,23.484,23.484,0,0,0,5.1-5.2,10.21,10.21,0,0,0,2-5.95,2.563,2.563,0,0,0-.4-1.6,1.992,1.992,0,0,0-1.6-.5,9.116,9.116,0,0,0-4.95,1.75,24.264,24.264,0,0,0-5.1,4.65,44.02,44.02,0,0,0-4.45,6.35A30.648,30.648,0,0,0,101.1-12.8ZM146,2.6A7.975,7.975,0,0,1,140.45.75,6.223,6.223,0,0,1,138.4-4.1a15.775,15.775,0,0,1,1.4-6.25q1.4-3.25,2.75-6.45a14.928,14.928,0,0,0,1.35-5.7,5.717,5.717,0,0,0-1.7-4.45,23.165,23.165,0,0,0-3.7-2.75q-2.2,5.7-4.8,10.95t-4.2,8.05l-1.1-2.1q1.4-2.6,3.65-7.55T136.5-31.5a3.392,3.392,0,0,1-1-2.5,7.446,7.446,0,0,1,1.65-4.9q1.65-2,2.65-2a1.313,1.313,0,0,1,1.45,1.05,7.5,7.5,0,0,1,.25,1.55,7.131,7.131,0,0,1-.5,1.9q-.5,1.4-.6,1.8a3.51,3.51,0,0,0,1.65,2.45q1.55,1.15,3.6,2.55a14.926,14.926,0,0,1,3.6,3.5,8.686,8.686,0,0,1,1.55,5.3,16,16,0,0,1-1.25,6q-1.25,3.1-2.5,5.8a11.662,11.662,0,0,0-1.25,4.8,2.378,2.378,0,0,0,.85,2.15,3.51,3.51,0,0,0,1.95.55,10,10,0,0,0,4.95-1.45,26.455,26.455,0,0,0,5-3.75,36.887,36.887,0,0,0,4.35-4.85,22.2,22.2,0,0,0,2.8-4.75l1.7,1.3a36.905,36.905,0,0,1-5.3,8.3A31.641,31.641,0,0,1,154.55,0,15.9,15.9,0,0,1,146,2.6Zm28.7,1.8q-6.2,0-9.4-3.4a11.789,11.789,0,0,1-3.2-8.4,22.985,22.985,0,0,1,2.25-9.4,39.367,39.367,0,0,1,6-9.4,33.132,33.132,0,0,1,8.3-7.1A17.623,17.623,0,0,1,187.7-36a8.392,8.392,0,0,1,4.45,1.25q2.05,1.25,2.05,5.05a12.56,12.56,0,0,1-2.2,7.1,22.546,22.546,0,0,1-5.9,5.9,36.371,36.371,0,0,1-8.05,4.25,36.1,36.1,0,0,1-8.75,2.15,8.809,8.809,0,0,0-.25,1.55Q169-8,169-7.2a14.852,14.852,0,0,0,.25,2.6,7.233,7.233,0,0,0,1.1,2.7,6.173,6.173,0,0,0,2.4,2.1,8.84,8.84,0,0,0,4.05.8,16.967,16.967,0,0,0,8.5-2.4,33.035,33.035,0,0,0,7.85-6.35,40.184,40.184,0,0,0,6.15-8.75l1.5,1.1a37.484,37.484,0,0,1-6.9,10.45,32.291,32.291,0,0,1-9.15,6.9A22.439,22.439,0,0,1,174.7,4.4ZM170-12.8a29.526,29.526,0,0,0,6-2.4,43.784,43.784,0,0,0,6.4-4.05,23.484,23.484,0,0,0,5.1-5.2,10.211,10.211,0,0,0,2-5.95,2.563,2.563,0,0,0-.4-1.6,1.992,1.992,0,0,0-1.6-.5,9.116,9.116,0,0,0-4.95,1.75,24.264,24.264,0,0,0-5.1,4.65A44.018,44.018,0,0,0,173-19.75,30.649,30.649,0,0,0,170-12.8Zm42.6-44.6a12.59,12.59,0,0,1-1.6-1.45,2.653,2.653,0,0,1-.8-1.85,6,6,0,0,1,1.45-3.35q1.45-1.95,3-4.1a15.135,15.135,0,0,0,2.15-3.95,2.709,2.709,0,0,1,2,.95,3.045,3.045,0,0,1,.9,2.15,6.718,6.718,0,0,1-1.25,3.3q-1.25,2-2.9,4.2T212.6-57.4Zm7.6,62.5a12.844,12.844,0,0,1-7.65-2.05,11.315,11.315,0,0,1-4.05-5.1,16.678,16.678,0,0,1-1.2-6.15,10.548,10.548,0,0,1,.8-4.6,5.815,5.815,0,0,1,1.95-2.35,11.681,11.681,0,0,1,2.2-1.15,4.413,4.413,0,0,0,1.55-.9,66.088,66.088,0,0,0,5.35-6.55,46.813,46.813,0,0,0,4.45-7.65v-1.1q0-3.8,1.3-5.4a3.651,3.651,0,0,1,2.8-1.6,1.834,1.834,0,0,1,1.35.45A1.9,1.9,0,0,1,229.6-38a5.907,5.907,0,0,1-.3,1.6,9.277,9.277,0,0,0-.3,2.6,21.472,21.472,0,0,0,1.35,7.05q1.35,3.85,2.7,8.1A29.056,29.056,0,0,1,234.4-9.8a19.33,19.33,0,0,1-.15,2.4q-.15,1.2-.35,2.2a14.992,14.992,0,0,0,6.4-3.25,25.029,25.029,0,0,0,5.9-8.05l1,1a18.462,18.462,0,0,1-5.65,8.55A17.918,17.918,0,0,1,233.2-3.1a11.6,11.6,0,0,1-5.1,6.2A15.637,15.637,0,0,1,220.2,5.1Zm-.1-3.8a8.472,8.472,0,0,0,3.4-.85,5.894,5.894,0,0,0,2.9-3.75A18.053,18.053,0,0,1,219-6.55a20.463,20.463,0,0,1-4.9-4.85q-2,.1-2,3.2a11.108,11.108,0,0,0,2.1,6.5A6.789,6.789,0,0,0,220.1,1.3ZM227-5.3a16,16,0,0,0,.3-1.95q.1-1.05.1-2.25a37.806,37.806,0,0,0-1.15-9.2q-1.15-4.6-2.05-8.8-2.1,3.5-4.6,7a46.233,46.233,0,0,1-4.8,5.8A20.363,20.363,0,0,0,219.5-9,16.907,16.907,0,0,0,227-5.3ZM302.8,2q-3.7,0-5.55-1.85A6.43,6.43,0,0,1,295.4-4.6a13.914,13.914,0,0,1,.75-4.3q.75-2.3,1.45-4.7a16.42,16.42,0,0,0,.7-4.6q0-2.6-1.1-3.6a3.867,3.867,0,0,0-2.7-1,10.277,10.277,0,0,0-6.3,2.5,34.313,34.313,0,0,0-6.15,6.4q-2.95,3.9-5.55,8t-4.6,7.4a8.925,8.925,0,0,1-3.25-.6A5.426,5.426,0,0,1,266.2-.9,14.641,14.641,0,0,1,267.25-4q1.05-2.6,2.45-6.3a76.95,76.95,0,0,0,2.45-7.7,28.658,28.658,0,0,0,1.05-7.2,5.643,5.643,0,0,1,1.95-1.5,6.107,6.107,0,0,1,2.85-.7q3,0,3,2.7a23.865,23.865,0,0,1-.75,4.75q-.75,3.25-1.95,7.05a72.311,72.311,0,0,1,5.9-7.65,36.163,36.163,0,0,1,6.95-6.2,12.956,12.956,0,0,1,7.25-2.45q4.1,0,5.95,2.85a11.248,11.248,0,0,1,1.85,6.25,15.752,15.752,0,0,1-1,5.7q-1,2.6-2.05,5a11.891,11.891,0,0,0-1.05,4.8,3.568,3.568,0,0,0,.85,2.75,2.862,2.862,0,0,0,1.95.75,7.632,7.632,0,0,0,5.05-2.3,29.9,29.9,0,0,0,4.9-5.9A66.882,66.882,0,0,0,319-16.6l1.3,1.4a50.418,50.418,0,0,1-4.75,8.75,25.161,25.161,0,0,1-5.8,6.15A11.52,11.52,0,0,1,302.8,2Zm20.8,1.2q-4.4,0-6.15-2.75A11.755,11.755,0,0,1,315.7-6a22.523,22.523,0,0,1,1-6.45,28.327,28.327,0,0,1,2.7-6.25,17.462,17.462,0,0,1,3.8-4.65,6.577,6.577,0,0,1,4.2-1.75,5.557,5.557,0,0,1,1.25.15,3.943,3.943,0,0,1,1.15.45,19.653,19.653,0,0,0-2.25,3.25,40.269,40.269,0,0,0-2.35,4.8,41.4,41.4,0,0,0-1.8,5.3,18.256,18.256,0,0,0-.7,4.55,7.054,7.054,0,0,0,.95,4.05A3.058,3.058,0,0,0,326.3-1.2q2,0,4.8-2.25a40.258,40.258,0,0,0,5.5-5.45,16.041,16.041,0,0,1-4.4-6.15A20.714,20.714,0,0,1,330.7-23a15.468,15.468,0,0,1,1.1-5.7,11.219,11.219,0,0,1,3.35-4.65,8.6,8.6,0,0,1,5.65-1.85q4.2,0,5.7,2.25A9.786,9.786,0,0,1,348-27.4a23.156,23.156,0,0,1-1.9,8.6,48.723,48.723,0,0,1-4.8,9,7.716,7.716,0,0,0,3.5.8,11.783,11.783,0,0,0,3.6-.65,12.79,12.79,0,0,0,4-2.25,11.087,11.087,0,0,0,3.2-4.4l1.4,1.1a13.83,13.83,0,0,1-5.75,6.95A14.391,14.391,0,0,1,344.2-6.2a12.23,12.23,0,0,1-2.5-.25,16.67,16.67,0,0,1-2.3-.65A37.4,37.4,0,0,1,331.8.2,14.148,14.148,0,0,1,323.6,3.2Zm15.1-14.9a50.234,50.234,0,0,0,4.1-7.7,19.446,19.446,0,0,0,1.7-7.6,7.531,7.531,0,0,0-.8-3.95,2.487,2.487,0,0,0-2.2-1.25q-1.9,0-4,2.85a11.729,11.729,0,0,0-2.1,7.15,20.61,20.61,0,0,0,.85,5.6A13.006,13.006,0,0,0,338.7-11.7ZM362.2,4.6a8.919,8.919,0,0,1-6.75-2.55Q353-.5,353-5.5a45.049,45.049,0,0,1,1.6-10.65,124.167,124.167,0,0,1,4.1-13.05q-.9-.2-1.8-.35a11.845,11.845,0,0,1-1.8-.45v-2.2l2.2.2q1.1.1,2.4.2,2.1-5.4,4.5-10.4t4.8-8.95a38.6,38.6,0,0,1,4.55-6.25q2.15-2.3,3.75-2.3a2.458,2.458,0,0,1,1.55.6,2.167,2.167,0,0,1,.75,1.8q0,1.8-2.1,5.6t-5.15,9q-3.05,5.2-5.95,11.2h3.5q3.7,0,7.3-.1t7.3-.5v2.3q-5.5.5-9.9.8t-8.1.4h-1.4a92.121,92.121,0,0,0-3.8,10.55A37.707,37.707,0,0,0,359.7-7.4q0,4.2,1.3,6A4.827,4.827,0,0,0,365.2.4q5.2,0,10.25-4.55A40.87,40.87,0,0,0,384.4-16.6l1.3,1a45.486,45.486,0,0,1-6.2,10.3,30.635,30.635,0,0,1-8.15,7.25A17.667,17.667,0,0,1,362.2,4.6Zm27.4-1.9q-4.1,0-6.1-2.5a9.306,9.306,0,0,1-2-6,25.521,25.521,0,0,1,.85-5.8,69.752,69.752,0,0,1,2.25-7.35,53.134,53.134,0,0,1,3.25-7.25,24.053,24.053,0,0,1,4-5.55,6.157,6.157,0,0,1,4.25-2.15,2.523,2.523,0,0,1,1.7.6,2.241,2.241,0,0,1,.7,1.8,9.513,9.513,0,0,1-1.55,3.9q-1.55,2.7-3.6,6.15a54.363,54.363,0,0,0-3.6,7.25A19.086,19.086,0,0,0,388.2-7q0,3.5,1.15,4.65A4.837,4.837,0,0,0,392.9-1.2q3.4,0,7.3-3.4t8.2-11.9l1.1,1.2Q406.4-6.7,401-2T389.6,2.7Zm11.9-45.5a5.6,5.6,0,0,1-3.05-.85,2.907,2.907,0,0,1-1.35-2.65q0-2.2,2.5-3.8a9.215,9.215,0,0,1,5-1.6,4.68,4.68,0,0,1,2.65.7,2.9,2.9,0,0,1,1.05,2.6,5.116,5.116,0,0,1-2.15,3.75A7,7,0,0,1,401.5-42.8ZM439.1,2q-3.7,0-5.55-1.85A6.43,6.43,0,0,1,431.7-4.6a13.914,13.914,0,0,1,.75-4.3q.75-2.3,1.45-4.7a16.421,16.421,0,0,0,.7-4.6q0-2.6-1.1-3.6a3.867,3.867,0,0,0-2.7-1,10.277,10.277,0,0,0-6.3,2.5,34.313,34.313,0,0,0-6.15,6.4q-2.95,3.9-5.55,8t-4.6,7.4a8.925,8.925,0,0,1-3.25-.6A5.426,5.426,0,0,1,402.5-.9,14.641,14.641,0,0,1,403.55-4q1.05-2.6,2.45-6.3a76.95,76.95,0,0,0,2.45-7.7,28.658,28.658,0,0,0,1.05-7.2,5.643,5.643,0,0,1,1.95-1.5,6.107,6.107,0,0,1,2.85-.7q3,0,3,2.7a23.865,23.865,0,0,1-.75,4.75q-.75,3.25-1.95,7.05a72.311,72.311,0,0,1,5.9-7.65,36.163,36.163,0,0,1,6.95-6.2,12.956,12.956,0,0,1,7.25-2.45q4.1,0,5.95,2.85a11.248,11.248,0,0,1,1.85,6.25,15.752,15.752,0,0,1-1,5.7q-1,2.6-2.05,5a11.891,11.891,0,0,0-1.05,4.8,3.568,3.568,0,0,0,.85,2.75,2.862,2.862,0,0,0,1.95.75,7.632,7.632,0,0,0,5.05-2.3,29.9,29.9,0,0,0,4.9-5.9,66.882,66.882,0,0,0,4.15-7.3l1.3,1.4a50.42,50.42,0,0,1-4.75,8.75,25.161,25.161,0,0,1-5.8,6.15A11.52,11.52,0,0,1,439.1,2Zm18.2,26a6.919,6.919,0,0,1-4.2-1.4q-1.9-1.4-1.9-4.6a9.4,9.4,0,0,1,1.85-5.65,21.482,21.482,0,0,1,4.8-4.7,50.521,50.521,0,0,1,6.4-3.95q3.45-1.8,6.65-3.4,1.3-3.2,2.45-6.95t2.25-8.15a47.2,47.2,0,0,1-7.75,8.5,12.686,12.686,0,0,1-8.15,3.4,6.86,6.86,0,0,1-5.85-2.75A11.658,11.658,0,0,1,451.8-8.8a20.468,20.468,0,0,1,2.55-9.9,29.626,29.626,0,0,1,6.7-8.3,34.913,34.913,0,0,1,8.8-5.65,21.952,21.952,0,0,1,8.85-2.05,7.408,7.408,0,0,1,4.35,1,2.926,2.926,0,0,1,1.35,2.4,2.1,2.1,0,0,1-.55,1.55,4.107,4.107,0,0,1-.75.65,3.662,3.662,0,0,0-1.7-1.25,7.654,7.654,0,0,0-2.5-.35,13.977,13.977,0,0,0-7.55,2.3,24.761,24.761,0,0,0-6.4,5.85,34.34,34.34,0,0,0-4.4,7.35,17.537,17.537,0,0,0-1.65,6.9,5.325,5.325,0,0,0,.95,3.45A3.033,3.033,0,0,0,462.3-3.7q2.8,0,6.85-3.75A57.529,57.529,0,0,0,477-16.6q.2-1.2.45-2.15T478-21.1a12.4,12.4,0,0,1,1.75-4.1,4.19,4.19,0,0,1,3.75-1.9,5.874,5.874,0,0,1,1.05.1q.55.1,1.25.3a31.676,31.676,0,0,1-.95,5.8q-.95,4.2-2.7,9.8T478.2.4a35.046,35.046,0,0,0,6.4-3.95,32.629,32.629,0,0,0,5.8-5.75,27.556,27.556,0,0,0,4.1-7.2l1.5,1.3a25.185,25.185,0,0,1-4.9,8.25A41.448,41.448,0,0,1,484-.5a46.127,46.127,0,0,1-7,4.2,99,99,0,0,1-5.85,12.2,39.716,39.716,0,0,1-6.55,8.8A10.36,10.36,0,0,1,457.3,28Zm-.3-3.7q1.9,0,5.25-3.75T469.5,7.7a77.782,77.782,0,0,0-7.25,4,26.1,26.1,0,0,0-5.45,4.4,7.283,7.283,0,0,0-2.1,5,3.786,3.786,0,0,0,.65,2.35A1.994,1.994,0,0,0,457,24.3Zm71.2-17q-5.4,0-8.05-3.45T517.5-5.5a49.058,49.058,0,0,1,1.7-11.75,132.5,132.5,0,0,1,4.5-14.2q2.8-7.45,6.25-14.5t6.95-12.8a60.2,60.2,0,0,1,6.65-9.2q3.15-3.45,5.25-3.45,1.8,0,2.65,2.15a11.745,11.745,0,0,1,.85,4.35,24.373,24.373,0,0,1-1.2,6.8,58.263,58.263,0,0,1-3.4,8.55,77.819,77.819,0,0,1-5.1,8.95,58.492,58.492,0,0,1-6.3,8,32.9,32.9,0,0,1-6.9,5.7,27.256,27.256,0,0,0-1.8,4.55,70.944,70.944,0,0,0-2,7.7,42.13,42.13,0,0,0-.9,8.55A16.868,16.868,0,0,0,525.9.65a4.245,4.245,0,0,0,4.2,2.75A9.6,9.6,0,0,0,535.95,1a18.53,18.53,0,0,0,4.95-6,12.418,12.418,0,0,1-5.55-5.55A16.308,16.308,0,0,1,533.5-18a11.432,11.432,0,0,1,2.55-7.75,7.856,7.856,0,0,1,6.15-2.95,5.7,5.7,0,0,1,4.8,2.4q1.8,2.4,1.8,7.1a27.173,27.173,0,0,1-.85,6.6,34.538,34.538,0,0,1-2.45,6.7,6.421,6.421,0,0,1,1.15.1,6.42,6.42,0,0,0,1.15.1,9.939,9.939,0,0,0,6.05-1.8,16.43,16.43,0,0,0,4.1-4.35,43.731,43.731,0,0,0,2.75-4.85l1.3,1.6q-2.7,6.6-6.5,9.1a14.8,14.8,0,0,1-8.3,2.5q-.7,0-1.4-.05t-1.4-.15a29.568,29.568,0,0,1-6.8,7.8A14.6,14.6,0,0,1,528.2,7.3ZM542.1-7.4a20.476,20.476,0,0,0,1.65-4.6,22.32,22.32,0,0,0,.55-5,12.344,12.344,0,0,0-.95-5.4q-.95-1.9-2.25-1.9-1.4,0-2.5,1.95a9.756,9.756,0,0,0-1.1,4.85,16.348,16.348,0,0,0,1.05,5.45A9.193,9.193,0,0,0,542.1-7.4ZM530.7-31.6a33.342,33.342,0,0,0,5.25-5.5,80.073,80.073,0,0,0,4.8-6.95,77.7,77.7,0,0,0,3.95-7.2,61.742,61.742,0,0,0,2.7-6.45,18.762,18.762,0,0,0,1.1-4.4,1.066,1.066,0,0,0-.1-.55,1.642,1.642,0,0,0-.2-.25q-.8.1-3,2.9a69.727,69.727,0,0,0-4.9,7.35Q537.6-48.1,535-42.6A83.3,83.3,0,0,0,530.7-31.6Zm38.8,36q-6.2,0-9.4-3.4a11.789,11.789,0,0,1-3.2-8.4,22.985,22.985,0,0,1,2.25-9.4,39.367,39.367,0,0,1,6-9.4,33.132,33.132,0,0,1,8.3-7.1A17.622,17.622,0,0,1,582.5-36a8.392,8.392,0,0,1,4.45,1.25Q589-33.5,589-29.7a12.561,12.561,0,0,1-2.2,7.1,22.546,22.546,0,0,1-5.9,5.9,36.373,36.373,0,0,1-8.05,4.25,36.1,36.1,0,0,1-8.75,2.15,8.805,8.805,0,0,0-.25,1.55q-.05.75-.05,1.55a14.85,14.85,0,0,0,.25,2.6,7.233,7.233,0,0,0,1.1,2.7,6.172,6.172,0,0,0,2.4,2.1,8.84,8.84,0,0,0,4.05.8,16.967,16.967,0,0,0,8.5-2.4,33.034,33.034,0,0,0,7.85-6.35,40.184,40.184,0,0,0,6.15-8.75l1.5,1.1a37.484,37.484,0,0,1-6.9,10.45,32.291,32.291,0,0,1-9.15,6.9A22.439,22.439,0,0,1,569.5,4.4Zm-4.7-17.2a29.527,29.527,0,0,0,6-2.4,43.782,43.782,0,0,0,6.4-4.05,23.483,23.483,0,0,0,5.1-5.2,10.211,10.211,0,0,0,2-5.95,2.563,2.563,0,0,0-.4-1.6,1.992,1.992,0,0,0-1.6-.5,9.115,9.115,0,0,0-4.95,1.75,24.265,24.265,0,0,0-5.1,4.65,44.02,44.02,0,0,0-4.45,6.35A30.65,30.65,0,0,0,564.8-12.8ZM600.7,4.6a8.92,8.92,0,0,1-6.75-2.55Q591.5-.5,591.5-5.5a45.05,45.05,0,0,1,1.6-10.65,124.167,124.167,0,0,1,4.1-13.05q-.9-.2-1.8-.35a11.845,11.845,0,0,1-1.8-.45v-2.2l2.2.2q1.1.1,2.4.2,2.1-5.4,4.5-10.4t4.8-8.95a38.6,38.6,0,0,1,4.55-6.25q2.15-2.3,3.75-2.3a2.458,2.458,0,0,1,1.55.6,2.167,2.167,0,0,1,.75,1.8q0,1.8-2.1,5.6t-5.15,9q-3.05,5.2-5.95,11.2h3.5q3.7,0,7.3-.1t7.3-.5v2.3q-5.5.5-9.9.8t-8.1.4h-1.4a92.139,92.139,0,0,0-3.8,10.55A37.707,37.707,0,0,0,598.2-7.4q0,4.2,1.3,6A4.827,4.827,0,0,0,603.7.4q5.2,0,10.25-4.55A40.871,40.871,0,0,0,622.9-16.6l1.3,1A45.488,45.488,0,0,1,618-5.3a30.635,30.635,0,0,1-8.15,7.25A17.666,17.666,0,0,1,600.7,4.6Zm28.6,0a8.92,8.92,0,0,1-6.75-2.55Q620.1-.5,620.1-5.5a45.05,45.05,0,0,1,1.6-10.65,124.167,124.167,0,0,1,4.1-13.05q-.9-.2-1.8-.35a11.845,11.845,0,0,1-1.8-.45v-2.2l2.2.2q1.1.1,2.4.2,2.1-5.4,4.5-10.4t4.8-8.95a38.6,38.6,0,0,1,4.55-6.25q2.15-2.3,3.75-2.3a2.458,2.458,0,0,1,1.55.6,2.167,2.167,0,0,1,.75,1.8q0,1.8-2.1,5.6t-5.15,9q-3.05,5.2-5.95,11.2H637q3.7,0,7.3-.1t7.3-.5v2.3q-5.5.5-9.9.8t-8.1.4h-1.4a92.139,92.139,0,0,0-3.8,10.55A37.707,37.707,0,0,0,626.8-7.4q0,4.2,1.3,6A4.827,4.827,0,0,0,632.3.4q5.2,0,10.25-4.55A40.871,40.871,0,0,0,651.5-16.6l1.3,1a45.488,45.488,0,0,1-6.2,10.3,30.635,30.635,0,0,1-8.15,7.25A17.666,17.666,0,0,1,629.3,4.6Zm31-.2q-6.2,0-9.4-3.4a11.789,11.789,0,0,1-3.2-8.4,22.985,22.985,0,0,1,2.25-9.4,39.367,39.367,0,0,1,6-9.4,33.132,33.132,0,0,1,8.3-7.1A17.622,17.622,0,0,1,673.3-36a8.392,8.392,0,0,1,4.45,1.25q2.05,1.25,2.05,5.05a12.561,12.561,0,0,1-2.2,7.1,22.546,22.546,0,0,1-5.9,5.9,36.373,36.373,0,0,1-8.05,4.25,36.1,36.1,0,0,1-8.75,2.15,8.805,8.805,0,0,0-.25,1.55q-.05.75-.05,1.55a14.85,14.85,0,0,0,.25,2.6,7.233,7.233,0,0,0,1.1,2.7,6.172,6.172,0,0,0,2.4,2.1,8.84,8.84,0,0,0,4.05.8,16.967,16.967,0,0,0,8.5-2.4,33.034,33.034,0,0,0,7.85-6.35,40.184,40.184,0,0,0,6.15-8.75l1.5,1.1a37.484,37.484,0,0,1-6.9,10.45,32.291,32.291,0,0,1-9.15,6.9A22.439,22.439,0,0,1,660.3,4.4Zm-4.7-17.2a29.527,29.527,0,0,0,6-2.4,43.782,43.782,0,0,0,6.4-4.05,23.483,23.483,0,0,0,5.1-5.2,10.211,10.211,0,0,0,2-5.95,2.563,2.563,0,0,0-.4-1.6,1.992,1.992,0,0,0-1.6-.5,9.115,9.115,0,0,0-4.95,1.75,24.265,24.265,0,0,0-5.1,4.65,44.02,44.02,0,0,0-4.45,6.35A30.65,30.65,0,0,0,655.6-12.8ZM700.5,2.6A7.974,7.974,0,0,1,694.95.75,6.223,6.223,0,0,1,692.9-4.1a15.775,15.775,0,0,1,1.4-6.25q1.4-3.25,2.75-6.45a14.928,14.928,0,0,0,1.35-5.7,5.717,5.717,0,0,0-1.7-4.45A23.167,23.167,0,0,0,693-29.7q-2.2,5.7-4.8,10.95T684-10.7l-1.1-2.1q1.4-2.6,3.65-7.55T691-31.5a3.392,3.392,0,0,1-1-2.5,7.446,7.446,0,0,1,1.65-4.9q1.65-2,2.65-2a1.313,1.313,0,0,1,1.45,1.05A7.494,7.494,0,0,1,696-38.3a7.132,7.132,0,0,1-.5,1.9q-.5,1.4-.6,1.8a3.511,3.511,0,0,0,1.65,2.45q1.55,1.15,3.6,2.55a14.925,14.925,0,0,1,3.6,3.5,8.686,8.686,0,0,1,1.55,5.3,16,16,0,0,1-1.25,6q-1.25,3.1-2.5,5.8a11.662,11.662,0,0,0-1.25,4.8,2.378,2.378,0,0,0,.85,2.15,3.51,3.51,0,0,0,1.95.55,10,10,0,0,0,4.95-1.45,26.456,26.456,0,0,0,5-3.75,36.884,36.884,0,0,0,4.35-4.85,22.2,22.2,0,0,0,2.8-4.75l1.7,1.3a36.9,36.9,0,0,1-5.3,8.3A31.641,31.641,0,0,1,709.05,0,15.9,15.9,0,0,1,700.5,2.6Zm52.4,2a9.052,9.052,0,0,1-6.85-2.55Q743.6-.5,743.6-5.5a36.08,36.08,0,0,1,.85-7.05q.85-4.15,2.25-8.85t3.1-9.1q-1-.3-1.85-.65t-1.75-.75v-2.2a9.5,9.5,0,0,1,2.15.45,14.344,14.344,0,0,0,2.35.55,126.118,126.118,0,0,1,6-13.25,66.207,66.207,0,0,1,6.1-9.75q2.9-3.7,5-3.7a2.464,2.464,0,0,1,1.65.65,2.2,2.2,0,0,1,.75,1.75,9.042,9.042,0,0,1-.95,3.15q-.95,2.15-2.5,4.95t-3.3,5.9q-1.75,3.1-3.5,6.15A63.273,63.273,0,0,0,757-31.5q2.5.4,4.8.7a36.3,36.3,0,0,0,4.7.3,46.172,46.172,0,0,0,5.9-.4q3.1-.4,7-1.2,2.6-7.1,5.9-14.1t6.65-12.7A54.934,54.934,0,0,1,798.4-68q3.1-3.4,5.4-3.4,1.8,0,2.7,2.2a11.544,11.544,0,0,1,.9,4.4,24.269,24.269,0,0,1-1.75,8.15,58.042,58.042,0,0,1-4.75,9.75,59.329,59.329,0,0,1-7,9.4,37.9,37.9,0,0,1-8.5,7.1,51.951,51.951,0,0,0-2.65,8.3,81.787,81.787,0,0,0-1.7,9.45A36.477,36.477,0,0,0,780.8-5a96.393,96.393,0,0,1,5.4-12.4,34.278,34.278,0,0,1,6.75-9.2,11.742,11.742,0,0,1,8.15-3.5q4.2,0,6.1,2.95a11.512,11.512,0,0,1,1.9,6.35,17.211,17.211,0,0,1-1.05,5.9Q807-12,805.9-9.3a13.541,13.541,0,0,0-1.1,5.1,3.774,3.774,0,0,0,.85,2.75,2.794,2.794,0,0,0,2.05.85,8.679,8.679,0,0,0,5.15-2.25,34.588,34.588,0,0,0,5.7-5.9,37.469,37.469,0,0,0,4.75-7.95l1.5,1.4a40.843,40.843,0,0,1-5.15,9,26.623,26.623,0,0,1-6.7,6.35A13.919,13.919,0,0,1,805.3,2.4,7.244,7.244,0,0,1,799.95.55,6.306,6.306,0,0,1,798.1-4.1a15.662,15.662,0,0,1,.8-4.65q.8-2.55,1.5-5.2a19.78,19.78,0,0,0,.7-5.05,4.912,4.912,0,0,0-1.05-3.55,3.592,3.592,0,0,0-2.65-1.05,6.116,6.116,0,0,0-4.4,2,21.319,21.319,0,0,0-3.65,5.1,66.969,66.969,0,0,0-3.05,6.6q-1.4,3.5-2.75,6.65a29.475,29.475,0,0,1-2.7,5.1Q779.5,3.8,778,3.8a2.6,2.6,0,0,1-2.1-1.2,10.189,10.189,0,0,1-1.5-3.25,18.717,18.717,0,0,1-.7-4.5,39.129,39.129,0,0,1,.1-4.85A35.5,35.5,0,0,1,764.5.5,19.106,19.106,0,0,1,752.9,4.6ZM755.8.5Q761,.5,766-4.05a40.352,40.352,0,0,0,8.8-12.35q.6-3.2,1.35-6.1t1.95-6.4a54.341,54.341,0,0,1-6.2,1q-3,.3-5.7.3a45.808,45.808,0,0,1-5.35-.3q-2.55-.3-5.15-.8a82.338,82.338,0,0,0-3.85,10.6A38.642,38.642,0,0,0,750.3-7.4q0,4.2,1.25,6.05T755.8.5ZM787-35.1a38.824,38.824,0,0,0,6.15-6.4,71.479,71.479,0,0,0,5.1-7.55,55.643,55.643,0,0,0,3.6-7.2,20.926,20.926,0,0,0,1.55-5.35q.1-1-.2-1.2-.7,0-2.65,2.15a48.253,48.253,0,0,0-4.4,5.9,82.157,82.157,0,0,0-4.9,8.75A73.453,73.453,0,0,0,787-35.1ZM826.4,4.7a7.7,7.7,0,0,1-5.45-2.1Q818.7.5,818.7-3.8a21.412,21.412,0,0,1,1.6-7.65,39.307,39.307,0,0,1,4.4-8.2A44.724,44.724,0,0,1,831.05-27a32.321,32.321,0,0,1,7.55-5.3,17.751,17.751,0,0,1,8-2,10.8,10.8,0,0,1,6.75,2.1,6.693,6.693,0,0,1,2.75,5.6,3.842,3.842,0,0,1-1.55,3.5,6.427,6.427,0,0,1-3.85.9q.2-.9.35-1.8a10.927,10.927,0,0,0,.15-1.8,7.282,7.282,0,0,0-1-3.85q-1-1.65-3.7-1.65a10.2,10.2,0,0,0-5.7,1.95,26.469,26.469,0,0,0-5.55,5.15,46.442,46.442,0,0,0-4.75,6.95,42.778,42.778,0,0,0-3.3,7.35A20.782,20.782,0,0,0,826-3.4q0,3.7,2.5,3.7a8.38,8.38,0,0,0,5.05-2.2,41.6,41.6,0,0,0,5.6-5.55Q842-10.8,844.6-14.4t4.6-6.4q.3-.6.6-.6.5.1,1.5.4a5.7,5.7,0,0,1,1.8.9,1.81,1.81,0,0,1,.8,1.5,5.609,5.609,0,0,1-.85,2.45q-.85,1.55-2,3.5a33.8,33.8,0,0,0-2,3.95A9.524,9.524,0,0,0,848.2-5a5.783,5.783,0,0,0,.75,2.85A2.587,2.587,0,0,0,851.4-.8q2.6,0,7-3.85t8.9-11.95l1.3,1.3a38.681,38.681,0,0,1-5.5,9.55A27.5,27.5,0,0,1,856.05.7,14.169,14.169,0,0,1,848.6,3,6.749,6.749,0,0,1,842.95.65,8.012,8.012,0,0,1,841.1-4.4q0-.5.05-1t.15-1.1a49.914,49.914,0,0,1-7.7,8.35A11.316,11.316,0,0,1,826.4,4.7ZM898,2q-3.7,0-5.55-1.85A6.43,6.43,0,0,1,890.6-4.6a13.914,13.914,0,0,1,.75-4.3q.75-2.3,1.45-4.7a16.419,16.419,0,0,0,.7-4.6q0-2.6-1.1-3.6a3.867,3.867,0,0,0-2.7-1,10.277,10.277,0,0,0-6.3,2.5,34.312,34.312,0,0,0-6.15,6.4q-2.95,3.9-5.55,8t-4.6,7.4a8.924,8.924,0,0,1-3.25-.6A5.426,5.426,0,0,1,861.4-.9,14.639,14.639,0,0,1,862.45-4q1.05-2.6,2.45-6.3a76.966,76.966,0,0,0,2.45-7.7,28.657,28.657,0,0,0,1.05-7.2,5.642,5.642,0,0,1,1.95-1.5,6.107,6.107,0,0,1,2.85-.7q3,0,3,2.7a23.865,23.865,0,0,1-.75,4.75q-.75,3.25-1.95,7.05a72.311,72.311,0,0,1,5.9-7.65,36.163,36.163,0,0,1,6.95-6.2,12.956,12.956,0,0,1,7.25-2.45q4.1,0,5.95,2.85a11.248,11.248,0,0,1,1.85,6.25,15.751,15.751,0,0,1-1,5.7q-1,2.6-2.05,5a11.89,11.89,0,0,0-1.05,4.8,3.568,3.568,0,0,0,.85,2.75,2.862,2.862,0,0,0,1.95.75,7.632,7.632,0,0,0,5.05-2.3,29.9,29.9,0,0,0,4.9-5.9,66.882,66.882,0,0,0,4.15-7.3l1.3,1.4a50.418,50.418,0,0,1-4.75,8.75,25.16,25.16,0,0,1-5.8,6.15A11.52,11.52,0,0,1,898,2Zm50.9,3.6a11.146,11.146,0,0,1-8.15-3.2Q937.5-.8,937.5-7.3a26.032,26.032,0,0,1,1.9-9.75,30.355,30.355,0,0,1,5.1-8.5,26.9,26.9,0,0,1,7.15-6,15.758,15.758,0,0,1,7.85-2.25q4.1,0,5.7,2.3a8.578,8.578,0,0,1,1.6,5,10.158,10.158,0,0,1-1.35,5.15A4.086,4.086,0,0,1,961.8-19a3.537,3.537,0,0,1-2.9-1.6,7.16,7.16,0,0,0,2.4-3.05,10.678,10.678,0,0,0,1.1-4.75,2.6,2.6,0,0,0-.45-1.6,1.948,1.948,0,0,0-1.65-.6,8.735,8.735,0,0,0-5.45,2.35,26.3,26.3,0,0,0-5.25,6.05,38.305,38.305,0,0,0-3.9,7.85,22.65,22.65,0,0,0-1.5,7.65,11.037,11.037,0,0,0,1.45,5.55Q947.1,1.4,951.4,1.4a16.866,16.866,0,0,0,8-2.2A26.938,26.938,0,0,0,967-7.05a33.472,33.472,0,0,0,5.7-9.55l1.5,1.2a35.755,35.755,0,0,1-6.4,10.85,32.9,32.9,0,0,1-9,7.45A20.322,20.322,0,0,1,948.9,5.6Zm26.8-.9a7.7,7.7,0,0,1-5.45-2.1Q968,.5,968-3.8a21.412,21.412,0,0,1,1.6-7.65,39.307,39.307,0,0,1,4.4-8.2A44.724,44.724,0,0,1,980.35-27a32.321,32.321,0,0,1,7.55-5.3,17.751,17.751,0,0,1,8-2,10.8,10.8,0,0,1,6.75,2.1,6.693,6.693,0,0,1,2.75,5.6,3.842,3.842,0,0,1-1.55,3.5,6.427,6.427,0,0,1-3.85.9q.2-.9.35-1.8a10.927,10.927,0,0,0,.15-1.8,7.282,7.282,0,0,0-1-3.85q-1-1.65-3.7-1.65a10.2,10.2,0,0,0-5.7,1.95,26.469,26.469,0,0,0-5.55,5.15,46.442,46.442,0,0,0-4.75,6.95,42.778,42.778,0,0,0-3.3,7.35,20.782,20.782,0,0,0-1.2,6.5q0,3.7,2.5,3.7a8.38,8.38,0,0,0,5.05-2.2,41.6,41.6,0,0,0,5.6-5.55q2.85-3.35,5.45-6.95t4.6-6.4q.3-.6.6-.6.5.1,1.5.4a5.7,5.7,0,0,1,1.8.9,1.81,1.81,0,0,1,.8,1.5,5.609,5.609,0,0,1-.85,2.45q-.85,1.55-2,3.5a33.8,33.8,0,0,0-2,3.95A9.524,9.524,0,0,0,997.5-5a5.783,5.783,0,0,0,.75,2.85A2.587,2.587,0,0,0,1000.7-.8q2.6,0,7-3.85t8.9-11.95l1.3,1.3a38.681,38.681,0,0,1-5.5,9.55A27.5,27.5,0,0,1,1005.35.7,14.169,14.169,0,0,1,997.9,3,6.749,6.749,0,0,1,992.25.65,8.012,8.012,0,0,1,990.4-4.4q0-.5.05-1t.15-1.1a49.914,49.914,0,0,1-7.7,8.35A11.316,11.316,0,0,1,975.7,4.7Zm69.2-.9a7.1,7.1,0,0,1-5-1.95A14.166,14.166,0,0,1,1036.55-3a29.068,29.068,0,0,1-1.85-6,28.935,28.935,0,0,1-.6-5.4,20.735,20.735,0,0,0,3.3-.65,20.552,20.552,0,0,0,4.3-1.7,12.331,12.331,0,0,0,3.7-2.9,6.17,6.17,0,0,0,1.5-4.15,3.919,3.919,0,0,0-1.35-3.15,5.134,5.134,0,0,0-3.45-1.15,8.872,8.872,0,0,0-5.6,2.05,22.041,22.041,0,0,0-4.75,5.35,57.212,57.212,0,0,0-3.9,7.05q-1.75,3.75-3,7.2T1022.8-.7a6.53,6.53,0,0,1-1.85,3,3.929,3.929,0,0,1-2.45.8,2.614,2.614,0,0,1-2.2-1.05A7.034,7.034,0,0,1,1015.15-1a27.6,27.6,0,0,1-.35-4.7,53,53,0,0,1,1.7-12.45,118.062,118.062,0,0,1,4.55-14.35q2.85-7.4,6.25-14.3t6.85-12.5a60.87,60.87,0,0,1,6.4-8.85q2.95-3.25,4.85-3.25,1.5,0,2.45,1.95a11.032,11.032,0,0,1,.95,4.85,22.844,22.844,0,0,1-1.5,7.6,42.155,42.155,0,0,1-4.25,8.5,48.113,48.113,0,0,1-6.55,8.1,44.487,44.487,0,0,1-8.2,6.5,83.446,83.446,0,0,0-4.8,14.75,64.732,64.732,0,0,0-1.7,12.35q1.7-4.1,3.95-8.7a71.942,71.942,0,0,1,5.1-8.8,30.373,30.373,0,0,1,6.2-6.85,11.2,11.2,0,0,1,7.05-2.65,9.026,9.026,0,0,1,6.55,2.7,8.781,8.781,0,0,1,2.75,6.5,8.743,8.743,0,0,1-1.65,5.4,13.756,13.756,0,0,1-4,3.6,19.2,19.2,0,0,1-4.7,2.05,20.015,20.015,0,0,1-3.95.75q.2.9.7,3a24.643,24.643,0,0,0,1.45,4.25,13.767,13.767,0,0,0,2.35,3.7A4.414,4.414,0,0,0,1047-.3a8.269,8.269,0,0,0,5.35-2.25,27.017,27.017,0,0,0,5.05-5.95,56.983,56.983,0,0,0,4.4-8.3l1.1,1.2a35.573,35.573,0,0,1-4.4,9.4,30.257,30.257,0,0,1-6.45,7.2A11.514,11.514,0,0,1,1044.9,3.8Zm-14.5-42.7a44.462,44.462,0,0,0,7.2-7.55,48.467,48.467,0,0,0,5.3-8.6,17.57,17.57,0,0,0,2-7.15v-.45q0-.15-.2-.25-1,.2-3.35,3.55a88.476,88.476,0,0,0-5.25,8.75Q1033.2-45.2,1030.4-38.9Zm40.3,43.3q-6.2,0-9.4-3.4a11.789,11.789,0,0,1-3.2-8.4,22.985,22.985,0,0,1,2.25-9.4,39.367,39.367,0,0,1,6-9.4,33.132,33.132,0,0,1,8.3-7.1,17.622,17.622,0,0,1,9.05-2.7,8.392,8.392,0,0,1,4.45,1.25q2.05,1.25,2.05,5.05a12.56,12.56,0,0,1-2.2,7.1,22.546,22.546,0,0,1-5.9,5.9,36.372,36.372,0,0,1-8.05,4.25,36.1,36.1,0,0,1-8.75,2.15,8.811,8.811,0,0,0-.25,1.55Q1065-8,1065-7.2a14.856,14.856,0,0,0,.25,2.6,7.232,7.232,0,0,0,1.1,2.7,6.173,6.173,0,0,0,2.4,2.1,8.84,8.84,0,0,0,4.05.8,16.967,16.967,0,0,0,8.5-2.4,33.034,33.034,0,0,0,7.85-6.35,40.186,40.186,0,0,0,6.15-8.75l1.5,1.1a37.483,37.483,0,0,1-6.9,10.45,32.293,32.293,0,0,1-9.15,6.9A22.439,22.439,0,0,1,1070.7,4.4ZM1066-12.8a29.53,29.53,0,0,0,6-2.4,43.792,43.792,0,0,0,6.4-4.05,23.485,23.485,0,0,0,5.1-5.2,10.21,10.21,0,0,0,2-5.95,2.563,2.563,0,0,0-.4-1.6,1.992,1.992,0,0,0-1.6-.5,9.116,9.116,0,0,0-4.95,1.75,24.267,24.267,0,0,0-5.1,4.65,44.025,44.025,0,0,0-4.45,6.35A30.645,30.645,0,0,0,1066-12.8Z" transform="translate(-6.531 72.6)" fill="none" stroke="#7d613a" stroke-width="1" opacity="0.65"/>
</svg>
