<svg xmlns="http://www.w3.org/2000/svg" width="886.475" height="101.1" viewBox="0 0 886.475 101.1">
  <path id="Path_3704" data-name="Path 3704" d="M2.7,8.7A6.815,6.815,0,0,1-.45,5.75,6.951,6.951,0,0,1-1.1,3.2a20.588,20.588,0,0,1,2-7.5A115.81,115.81,0,0,1,6.3-15.1q3.4-6.1,7.6-12.6-3.5-.3-6.15-.4T2.3-28.2H-.5a7.462,7.462,0,0,1,4.05-4.35A16.712,16.712,0,0,1,10.3-33.8a31.7,31.7,0,0,1,3.5.2q1.8.2,3.7.5,5.1-7.6,10.3-14.55T37.55-60.1a95.033,95.033,0,0,1,7.75-8.5q3.5-3.5,5.5-3.5a5.188,5.188,0,0,1,2.7.95,18.361,18.361,0,0,1,3.1,2.55,12.961,12.961,0,0,0-2.55,4.2q-1.55,3.4-3.3,8.55T47.3-44.6q-1.7,6.1-3.15,12.5t-2.3,12.15A69.871,69.871,0,0,0,41-9.9a16.186,16.186,0,0,0,.85,5.95A2.868,2.868,0,0,0,44.6-1.9q2.5,0,5.85-3.55T57.8-16.7l1.3,1.3A41.64,41.64,0,0,1,51.25-2.2Q46.5,3,41.3,3A6.437,6.437,0,0,1,35.1-.85,23.339,23.339,0,0,1,33.2-11.1a56.739,56.739,0,0,1,.4-6.4q.4-3.5,1.2-7.7-4.4-.7-8-1.15t-6.7-.85q-4.7,8.7-9.15,17.85T2.7,8.7ZM35.6-29.2q1.4-6.3,3.3-12.85T42.95-54.5q2.15-5.9,4.15-10.4a32.839,32.839,0,0,0-7,6.75,131.68,131.68,0,0,0-8.25,11.4Q27.5-40.1,22.9-32.1q3.3.6,6.55,1.4T35.6-29.2ZM63.9,3q-4.4,0-6.25-3A13.85,13.85,0,0,1,55.8-7.4a44.318,44.318,0,0,1,1.8-11.4,125.133,125.133,0,0,1,4.75-13.9Q65.3-40,68.8-46.95t7.05-12.6a74.611,74.611,0,0,1,6.5-9.05Q85.3-72,87.1-72a2.22,2.22,0,0,1,1.95,1.3,12.128,12.128,0,0,1,1.2,3.05,13.1,13.1,0,0,1,.45,3.25,25.066,25.066,0,0,1-1.35,7.05,79.4,79.4,0,0,1-3.8,9.65,103.529,103.529,0,0,1-5.8,10.75,99.069,99.069,0,0,1-7.35,10.4A58.438,58.438,0,0,1,64-18q-.6,2.7-.95,5.2a33.99,33.99,0,0,0-.35,4.7,10.645,10.645,0,0,0,1.15,5.6A3.646,3.646,0,0,0,67.1-.7a8,8,0,0,0,5.25-2.35,29.947,29.947,0,0,0,5.05-6,50.339,50.339,0,0,0,4.1-7.55l1.8.9A49.771,49.771,0,0,1,74.3-2Q69.4,3,63.9,3Zm1.3-25.3a82.994,82.994,0,0,0,6.65-8.05,99.727,99.727,0,0,0,6-9.25q2.75-4.8,4.85-9.25a68.6,68.6,0,0,0,3.25-8A19.426,19.426,0,0,0,87.1-62.4a1.722,1.722,0,0,0-.15-.9.992.992,0,0,0-.35-.3q-.8,0-2.65,2.45t-4.4,6.65Q77-50.3,74.35-45T69.3-33.85Q66.9-28,65.2-22.3ZM107.9,3.9A4.293,4.293,0,0,1,103.55,1a20.074,20.074,0,0,1-1.25-6.9q.1-1.8.25-4.05t.35-4.25q-2.2,4.2-4.7,8.15A31.531,31.531,0,0,1,92.9.45,8.68,8.68,0,0,1,87,3a6.431,6.431,0,0,1-5.5-3,12.236,12.236,0,0,1-2.1-7.2,28.062,28.062,0,0,1,.95-6.7,64.4,64.4,0,0,1,2.35-7.45,35.543,35.543,0,0,1,2.9-6.05q1.5-2.4,2.7-2.4a8.559,8.559,0,0,1,2.15.6q1.65.6,1.85,1.7a37.061,37.061,0,0,0-2.7,5.05,56.843,56.843,0,0,0-2.8,7.4A24.839,24.839,0,0,0,85.6-7.9a19.977,19.977,0,0,0,.2,2.35,7.585,7.585,0,0,0,.95,2.85A2.437,2.437,0,0,0,89-1.4q2.3,0,4.85-2.85a45.7,45.7,0,0,0,5.1-7.15q2.55-4.3,4.85-8.7.8-4.2,1.35-6.1a5.287,5.287,0,0,1,1.2-2.45,2.322,2.322,0,0,1,1.55-.55,3.786,3.786,0,0,1,2.35.65,2.191,2.191,0,0,1,.85,1.85,3.916,3.916,0,0,1-.1.55,7.727,7.727,0,0,1-.2.75q-.6,2.3-1.2,5.7t-1,7.15a67.507,67.507,0,0,0-.4,7.15,11.416,11.416,0,0,0,.45,3.6A1.668,1.668,0,0,0,110.3-.5a5.5,5.5,0,0,0,3.45-1.8,30.721,30.721,0,0,0,4.05-4.75q2.1-2.95,4.1-6.45t3.6-7a32.049,32.049,0,0,1,.75-7.95,7.374,7.374,0,0,1,1.95-3.75,3.865,3.865,0,0,1,2.5-1,3.254,3.254,0,0,1,3,1.45,5.02,5.02,0,0,1,.9,2.55,3.254,3.254,0,0,1-.4,1.55q-.4.75-.8,1.65a24.614,24.614,0,0,0-1.55,3.75,19.715,19.715,0,0,0-.75,6.05,17.847,17.847,0,0,0,.35,3.4,6.489,6.489,0,0,0,1.3,2.95A3.607,3.607,0,0,0,135.7-8.7a6.211,6.211,0,0,0,3.95-1.6,17.082,17.082,0,0,0,3.95-5.8l1.5,1.1q-2.2,5.1-4.9,6.9A9.417,9.417,0,0,1,135-6.3a7.342,7.342,0,0,1-5.4-2.2,13.727,13.727,0,0,1-3.3-6.2,94.7,94.7,0,0,1-5.55,8.8,36.857,36.857,0,0,1-6.35,7.05A10.236,10.236,0,0,1,107.9,3.9Zm38.8.8a7.7,7.7,0,0,1-5.45-2.1Q139,.5,139-3.8a21.412,21.412,0,0,1,1.6-7.65,39.31,39.31,0,0,1,4.4-8.2A44.724,44.724,0,0,1,151.35-27a32.322,32.322,0,0,1,7.55-5.3,17.751,17.751,0,0,1,8-2,10.8,10.8,0,0,1,6.75,2.1,6.693,6.693,0,0,1,2.75,5.6,3.842,3.842,0,0,1-1.55,3.5,6.427,6.427,0,0,1-3.85.9q.2-.9.35-1.8a10.932,10.932,0,0,0,.15-1.8,7.282,7.282,0,0,0-1-3.85q-1-1.65-3.7-1.65a10.2,10.2,0,0,0-5.7,1.95,26.47,26.47,0,0,0-5.55,5.15,46.445,46.445,0,0,0-4.75,6.95,42.782,42.782,0,0,0-3.3,7.35,20.781,20.781,0,0,0-1.2,6.5q0,3.7,2.5,3.7a8.38,8.38,0,0,0,5.05-2.2,41.605,41.605,0,0,0,5.6-5.55q2.85-3.35,5.45-6.95t4.6-6.4q.3-.6.6-.6.5.1,1.5.4a5.7,5.7,0,0,1,1.8.9,1.81,1.81,0,0,1,.8,1.5,5.609,5.609,0,0,1-.85,2.45q-.85,1.55-2,3.5a33.8,33.8,0,0,0-2,3.95A9.524,9.524,0,0,0,168.5-5a5.783,5.783,0,0,0,.75,2.85A2.587,2.587,0,0,0,171.7-.8q2.6,0,7-3.85t8.9-11.95l1.3,1.3a38.681,38.681,0,0,1-5.5,9.55A27.5,27.5,0,0,1,176.35.7,14.169,14.169,0,0,1,168.9,3,6.749,6.749,0,0,1,163.25.65,8.012,8.012,0,0,1,161.4-4.4q0-.5.05-1t.15-1.1a49.914,49.914,0,0,1-7.7,8.35A11.316,11.316,0,0,1,146.7,4.7ZM190,28a7.662,7.662,0,0,1-4.5-1.4,4.891,4.891,0,0,1-2-4.3,9.9,9.9,0,0,1,1.7-5.7,20.348,20.348,0,0,1,4.5-4.65,44.348,44.348,0,0,1,6.3-4q3.5-1.85,7.1-3.55,1.3-3.5,2.7-8t2.6-9.4a52.764,52.764,0,0,1-6.8,8.5,10.8,10.8,0,0,1-7.7,3.6,9.238,9.238,0,0,1-3.8-.85,7.539,7.539,0,0,1-3.15-2.65,8.076,8.076,0,0,1-1.25-4.7,26.3,26.3,0,0,1,.95-6.4A61.291,61.291,0,0,1,189-22.75a30.694,30.694,0,0,1,2.95-5.85q1.55-2.3,2.65-2.3a6.05,6.05,0,0,1,1.6.35,9.908,9.908,0,0,1,2.1.95,1.985,1.985,0,0,1,1.1,1.3,25.964,25.964,0,0,0-2,3.65q-1.1,2.35-2.15,5.25t-1.75,5.6a19.1,19.1,0,0,0-.7,4.7,4.866,4.866,0,0,0,.75,2.8,2.977,2.977,0,0,0,2.65,1.1,7.25,7.25,0,0,0,4.35-1.85,29.6,29.6,0,0,0,4.65-4.7,61.634,61.634,0,0,0,4.3-6.05q.2-.9.45-2.2t.55-2.6a10.773,10.773,0,0,1,1.55-3.2,4.091,4.091,0,0,1,3.65-1.7q.6,0,1.15.05a6.887,6.887,0,0,1,1.25.25,34.014,34.014,0,0,1-.95,5.95q-.95,4.35-2.7,10.1T210.4.6a31.3,31.3,0,0,0,9.05-5.85A28.7,28.7,0,0,0,226.8-16.4l1.4,1.2a23.824,23.824,0,0,1-4.55,8.4A34.444,34.444,0,0,1,216.8-.6a48.738,48.738,0,0,1-7.6,4.3,107.3,107.3,0,0,1-5.7,11.95A40.6,40.6,0,0,1,197,24.6Q193.6,28,190,28Zm-.7-3.4q1.6,0,5.1-3.95T201.8,7.4q-3.8,2-7.25,4.15A23.16,23.16,0,0,0,189,16.2a8.36,8.36,0,0,0-2.1,5.5,3.956,3.956,0,0,0,.55,1.9A1.94,1.94,0,0,0,189.3,24.6ZM235.7,5.1a12.844,12.844,0,0,1-7.65-2.05A11.315,11.315,0,0,1,224-2.05a16.678,16.678,0,0,1-1.2-6.15,10.548,10.548,0,0,1,.8-4.6,5.815,5.815,0,0,1,1.95-2.35,11.681,11.681,0,0,1,2.2-1.15,4.413,4.413,0,0,0,1.55-.9,66.088,66.088,0,0,0,5.35-6.55,46.813,46.813,0,0,0,4.45-7.65v-1.1q0-3.8,1.3-5.4a3.651,3.651,0,0,1,2.8-1.6,1.834,1.834,0,0,1,1.35.45A1.9,1.9,0,0,1,245.1-38a5.907,5.907,0,0,1-.3,1.6,9.277,9.277,0,0,0-.3,2.6,21.472,21.472,0,0,0,1.35,7.05q1.35,3.85,2.7,8.1A29.056,29.056,0,0,1,249.9-9.8a19.33,19.33,0,0,1-.15,2.4q-.15,1.2-.35,2.2a14.992,14.992,0,0,0,6.4-3.25,25.03,25.03,0,0,0,5.9-8.05l1,1a18.463,18.463,0,0,1-5.65,8.55A17.918,17.918,0,0,1,248.7-3.1a11.6,11.6,0,0,1-5.1,6.2A15.637,15.637,0,0,1,235.7,5.1Zm-.1-3.8A8.472,8.472,0,0,0,239,.45a5.894,5.894,0,0,0,2.9-3.75,18.053,18.053,0,0,1-7.4-3.25,20.463,20.463,0,0,1-4.9-4.85q-2,.1-2,3.2a11.108,11.108,0,0,0,2.1,6.5A6.789,6.789,0,0,0,235.6,1.3Zm6.9-6.6a16,16,0,0,0,.3-1.95q.1-1.05.1-2.25a37.806,37.806,0,0,0-1.15-9.2q-1.15-4.6-2.05-8.8-2.1,3.5-4.6,7a46.233,46.233,0,0,1-4.8,5.8A20.363,20.363,0,0,0,235-9,16.907,16.907,0,0,0,242.5-5.3ZM282.4,8.8q.4-3.9,2.7-5.65a12.818,12.818,0,0,1,5.95-2.3A53.492,53.492,0,0,1,299,.3a74.474,74.474,0,0,0,3.55-9.35Q304.3-14.6,305.9-21t3.15-13q1.55-6.6,2.9-12.7t2.6-11.05q1.25-4.95,2.25-7.95-5.1.1-8.85.35t-7.05.65q-3.3.4-7,1.1.9-4.2,5.8-6.2t15.2-2q5.1,0,10.45.4t9.8.85q4.45.45,6.95.85a11.853,11.853,0,0,1-5.55,3.3,23.1,23.1,0,0,1-4.85.6h-5.8q-2.7,0-5,.1-.5,2.5-1.35,7.1t-1.9,10.3q-1.05,5.7-2.2,11.7T313.2-25.3q-1.1,5.3-2,9a64.349,64.349,0,0,1-3.45,10.4A16.138,16.138,0,0,1,303.2.5q5.2.3,10.95,1a108.459,108.459,0,0,0,11.05.8,14.675,14.675,0,0,1-6.6,4,24.182,24.182,0,0,1-5.5.8q-4.9,0-8.95.05t-7.65.15q-3.6.1-7.05.45T282.4,8.8ZM382.6,3.1A6.276,6.276,0,0,1,377.3.9a8.41,8.41,0,0,1-1.7-5.3,16.5,16.5,0,0,1,.75-4.85q.75-2.45,1.45-4.8a14.777,14.777,0,0,0,.7-4.15,3.547,3.547,0,0,0-.8-2.65,2.684,2.684,0,0,0-1.9-.75q-2.4,0-5.4,3.75T362.8-7.1A40.169,40.169,0,0,0,360-2.2q-1.2,2.5-2.2,4.4a13.9,13.9,0,0,1-2.15-.2,7.734,7.734,0,0,1-2.25-.7,1.486,1.486,0,0,1-1-1.3,14.438,14.438,0,0,1,.95-3.35q.95-2.65,2.2-6.15t2.25-7.05a22.942,22.942,0,0,0,1-6.05,5.374,5.374,0,0,0-.55-2.6,1.94,1.94,0,0,0-1.85-1q-2.2,0-5.25,2.6a44.545,44.545,0,0,0-6.3,6.85,90.133,90.133,0,0,0-6.2,9.3A59.2,59.2,0,0,0,333.9,2.7a9.89,9.89,0,0,1-2.3-.35,11.056,11.056,0,0,1-2.45-.9Q328.1.9,328.1.4a22.669,22.669,0,0,1,.95-3.3q.95-2.9,2.15-7.05t2.3-8.45a41.264,41.264,0,0,0,1.3-7.5,4.491,4.491,0,0,1,2-1.65,6.473,6.473,0,0,1,2.9-.75,2.973,2.973,0,0,1,2.2.8,2.839,2.839,0,0,1,.8,2.1,19.067,19.067,0,0,1-.65,3.9q-.65,2.7-1.55,6.1,2-3.1,4.5-6.25a58.142,58.142,0,0,1,5.2-5.75,28.829,28.829,0,0,1,5.45-4.2A10.621,10.621,0,0,1,361-33.2q3.3,0,4.5,2.4a12.137,12.137,0,0,1,1.2,5.5,24.846,24.846,0,0,1-.4,4.35,35.3,35.3,0,0,1-1,4.2q-.6,1.95-1.2,3.45a61.216,61.216,0,0,1,4.45-6.55A24.292,24.292,0,0,1,373.9-25a10.576,10.576,0,0,1,6.1-2q3.4,0,4.75,2.05a8.438,8.438,0,0,1,1.35,4.75,19.554,19.554,0,0,1-.9,5.6q-.9,3-1.8,5.8a16.117,16.117,0,0,0-.9,4.8,4.2,4.2,0,0,0,.6,2.2,2.351,2.351,0,0,0,2.2,1,7.237,7.237,0,0,0,5.25-2.55,33.29,33.29,0,0,0,4.6-6.2,68.16,68.16,0,0,0,3.65-7.05l1.3,1.7A56.246,56.246,0,0,1,396-6.6,26.222,26.222,0,0,1,390.15.35,11.588,11.588,0,0,1,382.6,3.1Zm8,24.9a2.444,2.444,0,0,1-1.6-.7,5.45,5.45,0,0,1-1.25-1.55,9.705,9.705,0,0,1-.55-1.15q1.8-5.7,3.3-10.05t2.8-8.6q1.3-4.25,2.45-9.6t2.4-13q1.25-7.65,2.65-18.75a3.3,3.3,0,0,1,.4-1.45q.3-.45,1.6-.45a4.833,4.833,0,0,1,4,1.5,5.163,5.163,0,0,1,1.2,3.3,35.177,35.177,0,0,1-.5,4.55Q407-24.7,406-20.3a48.447,48.447,0,0,1,4.3-6.35,23.329,23.329,0,0,1,5.7-5.2,12.721,12.721,0,0,1,7-2.05,9.854,9.854,0,0,1,7.5,3.2,11.784,11.784,0,0,1,3,8.4,22.126,22.126,0,0,1-1.75,8.25,30.765,30.765,0,0,1-4.95,8.2A26.191,26.191,0,0,1,419.25.4a19.64,19.64,0,0,1-9.65,2.4,12.859,12.859,0,0,1-4.5-.65Q403.4,1.5,403.4.7q0-.5.75-.55T405.9.1a18.342,18.342,0,0,0,7.95-2,22.62,22.62,0,0,0,6.6-5.05,24.442,24.442,0,0,0,4.45-6.95,19,19,0,0,0,1.6-7.4,10.142,10.142,0,0,0-1.35-5.4,4.717,4.717,0,0,0-4.35-2.2,9.458,9.458,0,0,0-5.05,1.6,22.1,22.1,0,0,0-4.8,4.15,44.628,44.628,0,0,0-4,5.25,32.916,32.916,0,0,0-2.65,4.8Q402.5-5.9,400.8.95T397.5,13.4q-1.6,5.6-2.95,9.3T392,27.4A1.919,1.919,0,0,1,390.6,28ZM454.2,2.6A7.975,7.975,0,0,1,448.65.75,6.223,6.223,0,0,1,446.6-4.1a15.775,15.775,0,0,1,1.4-6.25q1.4-3.25,2.75-6.45a14.928,14.928,0,0,0,1.35-5.7,5.717,5.717,0,0,0-1.7-4.45,23.164,23.164,0,0,0-3.7-2.75q-2.2,5.7-4.8,10.95t-4.2,8.05l-1.1-2.1q1.4-2.6,3.65-7.55T444.7-31.5a3.392,3.392,0,0,1-1-2.5,7.446,7.446,0,0,1,1.65-4.9q1.65-2,2.65-2a1.313,1.313,0,0,1,1.45,1.05,7.5,7.5,0,0,1,.25,1.55,7.131,7.131,0,0,1-.5,1.9q-.5,1.4-.6,1.8a3.51,3.51,0,0,0,1.65,2.45q1.55,1.15,3.6,2.55a14.926,14.926,0,0,1,3.6,3.5A8.686,8.686,0,0,1,459-20.8a16,16,0,0,1-1.25,6q-1.25,3.1-2.5,5.8A11.662,11.662,0,0,0,454-4.2a2.378,2.378,0,0,0,.85,2.15,3.51,3.51,0,0,0,1.95.55,10,10,0,0,0,4.95-1.45,26.456,26.456,0,0,0,5-3.75,36.886,36.886,0,0,0,4.35-4.85,22.2,22.2,0,0,0,2.8-4.75l1.7,1.3a36.9,36.9,0,0,1-5.3,8.3A31.641,31.641,0,0,1,462.75,0,15.9,15.9,0,0,1,454.2,2.6Zm24.4.6q-4.4,0-6.15-2.75A11.755,11.755,0,0,1,470.7-6a22.523,22.523,0,0,1,1-6.45,28.327,28.327,0,0,1,2.7-6.25,17.462,17.462,0,0,1,3.8-4.65,6.577,6.577,0,0,1,4.2-1.75,5.557,5.557,0,0,1,1.25.15,3.943,3.943,0,0,1,1.15.45,19.653,19.653,0,0,0-2.25,3.25,40.269,40.269,0,0,0-2.35,4.8,41.4,41.4,0,0,0-1.8,5.3,18.256,18.256,0,0,0-.7,4.55,7.054,7.054,0,0,0,.95,4.05A3.058,3.058,0,0,0,481.3-1.2q2,0,4.8-2.25a40.258,40.258,0,0,0,5.5-5.45,16.041,16.041,0,0,1-4.4-6.15A20.714,20.714,0,0,1,485.7-23a15.468,15.468,0,0,1,1.1-5.7,11.219,11.219,0,0,1,3.35-4.65,8.6,8.6,0,0,1,5.65-1.85q4.2,0,5.7,2.25A9.786,9.786,0,0,1,503-27.4a23.156,23.156,0,0,1-1.9,8.6,48.723,48.723,0,0,1-4.8,9,7.716,7.716,0,0,0,3.5.8,11.783,11.783,0,0,0,3.6-.65,12.79,12.79,0,0,0,4-2.25,11.087,11.087,0,0,0,3.2-4.4l1.4,1.1a13.83,13.83,0,0,1-5.75,6.95A14.391,14.391,0,0,1,499.2-6.2a12.23,12.23,0,0,1-2.5-.25,16.67,16.67,0,0,1-2.3-.65A37.4,37.4,0,0,1,486.8.2,14.148,14.148,0,0,1,478.6,3.2Zm15.1-14.9a50.234,50.234,0,0,0,4.1-7.7,19.446,19.446,0,0,0,1.7-7.6,7.531,7.531,0,0,0-.8-3.95,2.487,2.487,0,0,0-2.2-1.25q-1.9,0-4,2.85a11.729,11.729,0,0,0-2.1,7.15,20.61,20.61,0,0,0,.85,5.6A13.006,13.006,0,0,0,493.7-11.7ZM515.3,3.9A4.633,4.633,0,0,1,510.7.75a21.612,21.612,0,0,1-1.3-8.15q0-.5.1-3.45t.5-9.25a12.218,12.218,0,0,1,.55-3.85Q511-25,513.4-25q1.9,0,2.35.75a6.451,6.451,0,0,1,.45,2.95q0,3.2-.4,7.3t-.4,7.8a15.057,15.057,0,0,0,.45,4.35A1.735,1.735,0,0,0,517.6-.5a6.124,6.124,0,0,0,3.95-2,32.215,32.215,0,0,0,4.4-5.25,74.094,74.094,0,0,0,4.25-6.95q2-3.7,3.6-7.2.2-6.8,1.5-9.05a3.8,3.8,0,0,1,3.3-2.25,3.134,3.134,0,0,1,2.95,1.45,5.217,5.217,0,0,1,.85,2.55,5.081,5.081,0,0,1-.8,2.7,23.255,23.255,0,0,0-1.7,3.6,19.625,19.625,0,0,0-.9,6.8,19.314,19.314,0,0,0,.3,3.25,6.127,6.127,0,0,0,1.3,2.95,3.682,3.682,0,0,0,3,1.2,6.031,6.031,0,0,0,4-1.65,18.423,18.423,0,0,0,3.9-5.75l1.2.9q-2.2,5.2-4.95,7.05A9.362,9.362,0,0,1,542.6-6.3a6.935,6.935,0,0,1-5.45-2.45,14.863,14.863,0,0,1-3.05-7.05,77.5,77.5,0,0,1-5.55,9.2,41.1,41.1,0,0,1-6.6,7.5Q518.5,3.9,515.3,3.9Zm45.1.5q-6.2,0-9.4-3.4a11.789,11.789,0,0,1-3.2-8.4,22.985,22.985,0,0,1,2.25-9.4,39.367,39.367,0,0,1,6-9.4,33.132,33.132,0,0,1,8.3-7.1A17.622,17.622,0,0,1,573.4-36a8.392,8.392,0,0,1,4.45,1.25q2.05,1.25,2.05,5.05a12.561,12.561,0,0,1-2.2,7.1,22.546,22.546,0,0,1-5.9,5.9,36.373,36.373,0,0,1-8.05,4.25A36.1,36.1,0,0,1,555-10.3a8.805,8.805,0,0,0-.25,1.55q-.05.75-.05,1.55a14.85,14.85,0,0,0,.25,2.6,7.233,7.233,0,0,0,1.1,2.7,6.172,6.172,0,0,0,2.4,2.1,8.84,8.84,0,0,0,4.05.8A16.967,16.967,0,0,0,571-1.4a33.034,33.034,0,0,0,7.85-6.35A40.184,40.184,0,0,0,585-16.5l1.5,1.1a37.484,37.484,0,0,1-6.9,10.45,32.291,32.291,0,0,1-9.15,6.9A22.439,22.439,0,0,1,560.4,4.4Zm-4.7-17.2a29.527,29.527,0,0,0,6-2.4,43.782,43.782,0,0,0,6.4-4.05,23.483,23.483,0,0,0,5.1-5.2,10.211,10.211,0,0,0,2-5.95,2.563,2.563,0,0,0-.4-1.6,1.992,1.992,0,0,0-1.6-.5,9.115,9.115,0,0,0-4.95,1.75,24.265,24.265,0,0,0-5.1,4.65,44.02,44.02,0,0,0-4.45,6.35A30.65,30.65,0,0,0,555.7-12.8ZM661.9,11.9a15.937,15.937,0,0,1-8.6-2.5,68.578,68.578,0,0,1-7.7-5.6,24.666,24.666,0,0,1-4.95,1.85,21.171,21.171,0,0,1-5.25.65,13.919,13.919,0,0,1-5.85-1.05,8.937,8.937,0,0,1-3.4-2.55,9.565,9.565,0,0,1-1.6-2.95,8.222,8.222,0,0,1-.45-2.25,5.654,5.654,0,0,1,1.7-3.7q1.7-1.9,5.9-1.9a18,18,0,0,1,8.05,1.95Q643.7-4.2,647.8-1.7a40.315,40.315,0,0,0,7.85-10.1,73.051,73.051,0,0,0,5.75-13.05,104.422,104.422,0,0,0,3.55-13.65,66.148,66.148,0,0,0,1.25-12q0-8.1-3.15-13.2T652.8-68.8A19.031,19.031,0,0,0,642-65.45a34.672,34.672,0,0,0-9,9.05,65.437,65.437,0,0,0-6.9,12.75,79.04,79.04,0,0,0-4.4,14.5,72.686,72.686,0,0,0-1.5,14.35q0,2,.2,4.25a40.331,40.331,0,0,0,.7,4.65,6.667,6.667,0,0,1-5.15-2,10.915,10.915,0,0,1-2.55-5.2,32.263,32.263,0,0,1-.7-6.9,57.07,57.07,0,0,1,2-14.85A64.336,64.336,0,0,1,620.35-49,53.934,53.934,0,0,1,629-60.85,40.335,40.335,0,0,1,640.05-69a28.333,28.333,0,0,1,12.75-3q9.8,0,15.35,6.55T673.7-47.5a54.523,54.523,0,0,1-1.65,12.95,70.612,70.612,0,0,1-4.7,13.25A72.689,72.689,0,0,1,660.2-9.2,48.16,48.16,0,0,1,651.3.2a48.4,48.4,0,0,0,6.95,3.1,22.629,22.629,0,0,0,7.65,1.3,9.559,9.559,0,0,0,3.4-.45,19.124,19.124,0,0,1,2.8-.85,12.236,12.236,0,0,1-2.85,5.55,9.43,9.43,0,0,1-3.75,2.45A11.966,11.966,0,0,1,661.9,11.9ZM634.8,3.7a14.309,14.309,0,0,0,4.35-.65A26.512,26.512,0,0,0,643,1.5a69.671,69.671,0,0,0-6.1-4.6,11.035,11.035,0,0,0-6.2-2,3.974,3.974,0,0,0-3.05.95,2.918,2.918,0,0,0-.85,1.95,5.472,5.472,0,0,0,.7,2.3,6.55,6.55,0,0,0,2.4,2.5A9.042,9.042,0,0,0,634.8,3.7ZM684.6,3a6.263,6.263,0,0,1-5.45-3.1,12.577,12.577,0,0,1-2.05-7.1,29.522,29.522,0,0,1,.9-6.7,53.631,53.631,0,0,1,2.35-7.45,38.034,38.034,0,0,1,2.95-6.05q1.5-2.4,2.7-2.4a5.381,5.381,0,0,1,1.8.6,6.691,6.691,0,0,1,2.2,1.6,46.075,46.075,0,0,0-2.7,5.1,54.338,54.338,0,0,0-2.8,7.35,25.108,25.108,0,0,0-1.2,7.25,21.123,21.123,0,0,0,.2,2.3,7.632,7.632,0,0,0,.95,2.9,2.437,2.437,0,0,0,2.25,1.3,5.581,5.581,0,0,0,3.85-1.95,33.559,33.559,0,0,0,4-5q2.05-3.05,4-6.55t3.55-6.8q1.6-3.3,2.7-5.5a16.347,16.347,0,0,1,1.95.45,10.567,10.567,0,0,1,2.25.9,1.7,1.7,0,0,1,1,1.55,11.747,11.747,0,0,1-1,2.6q-1,2.2-2.3,5.35t-2.3,6.4a19.867,19.867,0,0,0-1,5.75,4.875,4.875,0,0,0,.7,2.75A2.669,2.669,0,0,0,706.5-.4a9.853,9.853,0,0,0,5.05-1.9,28.866,28.866,0,0,0,6.05-5.5,38.125,38.125,0,0,0,5.5-8.7l1.4,1a34.961,34.961,0,0,1-5.55,9.6,29.392,29.392,0,0,1-7.3,6.55A14.451,14.451,0,0,1,704.1,3a6.992,6.992,0,0,1-4.2-1.1,5.757,5.757,0,0,1-2.1-2.95A15.072,15.072,0,0,1,697.1-5a13.46,13.46,0,0,1,.15-2q.15-1,.35-2a61.166,61.166,0,0,1-3.85,5.85A21.284,21.284,0,0,1,689.4,1.3,7.965,7.965,0,0,1,684.6,3Zm41.5,1.7a7.7,7.7,0,0,1-5.45-2.1Q718.4.5,718.4-3.8a21.412,21.412,0,0,1,1.6-7.65,39.307,39.307,0,0,1,4.4-8.2A44.724,44.724,0,0,1,730.75-27a32.321,32.321,0,0,1,7.55-5.3,17.751,17.751,0,0,1,8-2,10.8,10.8,0,0,1,6.75,2.1,6.693,6.693,0,0,1,2.75,5.6,3.842,3.842,0,0,1-1.55,3.5,6.427,6.427,0,0,1-3.85.9q.2-.9.35-1.8a10.927,10.927,0,0,0,.15-1.8,7.282,7.282,0,0,0-1-3.85q-1-1.65-3.7-1.65a10.2,10.2,0,0,0-5.7,1.95,26.469,26.469,0,0,0-5.55,5.15,46.442,46.442,0,0,0-4.75,6.95,42.778,42.778,0,0,0-3.3,7.35,20.782,20.782,0,0,0-1.2,6.5q0,3.7,2.5,3.7a8.38,8.38,0,0,0,5.05-2.2,41.6,41.6,0,0,0,5.6-5.55q2.85-3.35,5.45-6.95t4.6-6.4q.3-.6.6-.6.5.1,1.5.4a5.7,5.7,0,0,1,1.8.9,1.81,1.81,0,0,1,.8,1.5,5.609,5.609,0,0,1-.85,2.45q-.85,1.55-2,3.5a33.8,33.8,0,0,0-2,3.95A9.524,9.524,0,0,0,747.9-5a5.783,5.783,0,0,0,.75,2.85A2.587,2.587,0,0,0,751.1-.8q2.6,0,7-3.85T767-16.6l1.3,1.3a38.681,38.681,0,0,1-5.5,9.55A27.5,27.5,0,0,1,755.75.7,14.169,14.169,0,0,1,748.3,3,6.749,6.749,0,0,1,742.65.65,8.012,8.012,0,0,1,740.8-4.4q0-.5.05-1T741-6.5a49.914,49.914,0,0,1-7.7,8.35A11.316,11.316,0,0,1,726.1,4.7ZM773.3,3q-4.4,0-6.25-3a13.85,13.85,0,0,1-1.85-7.4A44.318,44.318,0,0,1,767-18.8a125.145,125.145,0,0,1,4.75-13.9q2.95-7.3,6.45-14.25t7.05-12.6a74.62,74.62,0,0,1,6.5-9.05Q794.7-72,796.5-72a2.22,2.22,0,0,1,1.95,1.3,12.128,12.128,0,0,1,1.2,3.05,13.1,13.1,0,0,1,.45,3.25,25.065,25.065,0,0,1-1.35,7.05,79.393,79.393,0,0,1-3.8,9.65,103.531,103.531,0,0,1-5.8,10.75,99.065,99.065,0,0,1-7.35,10.4A58.438,58.438,0,0,1,773.4-18q-.6,2.7-.95,5.2a33.989,33.989,0,0,0-.35,4.7,10.645,10.645,0,0,0,1.15,5.6A3.646,3.646,0,0,0,776.5-.7a8,8,0,0,0,5.25-2.35,29.949,29.949,0,0,0,5.05-6,50.344,50.344,0,0,0,4.1-7.55l1.8.9a49.771,49.771,0,0,1-9,13.7Q778.8,3,773.3,3Zm1.3-25.3a83,83,0,0,0,6.65-8.05,99.717,99.717,0,0,0,6-9.25q2.75-4.8,4.85-9.25a68.607,68.607,0,0,0,3.25-8,19.425,19.425,0,0,0,1.15-5.55,1.722,1.722,0,0,0-.15-.9.992.992,0,0,0-.35-.3q-.8,0-2.65,2.45t-4.4,6.65q-2.55,4.2-5.2,9.5T778.7-33.85Q776.3-28,774.6-22.3Zm21.7,25q-4.1,0-6.1-2.5a9.307,9.307,0,0,1-2-6,25.523,25.523,0,0,1,.85-5.8,69.737,69.737,0,0,1,2.25-7.35,53.138,53.138,0,0,1,3.25-7.25,24.052,24.052,0,0,1,4-5.55,6.157,6.157,0,0,1,4.25-2.15,2.523,2.523,0,0,1,1.7.6,2.241,2.241,0,0,1,.7,1.8,9.513,9.513,0,0,1-1.55,3.9q-1.55,2.7-3.6,6.15a54.363,54.363,0,0,0-3.6,7.25A19.085,19.085,0,0,0,794.9-7q0,3.5,1.15,4.65A4.837,4.837,0,0,0,799.6-1.2q3.4,0,7.3-3.4t8.2-11.9l1.1,1.2Q813.1-6.7,807.7-2T796.3,2.7Zm11.9-45.5a5.6,5.6,0,0,1-3.05-.85,2.907,2.907,0,0,1-1.35-2.65q0-2.2,2.5-3.8a9.215,9.215,0,0,1,5-1.6,4.68,4.68,0,0,1,2.65.7A2.9,2.9,0,0,1,815-48.4a5.116,5.116,0,0,1-2.15,3.75A7,7,0,0,1,808.2-42.8ZM821.7,4.6a8.92,8.92,0,0,1-6.75-2.55Q812.5-.5,812.5-5.5a45.05,45.05,0,0,1,1.6-10.65,124.167,124.167,0,0,1,4.1-13.05q-.9-.2-1.8-.35a11.845,11.845,0,0,1-1.8-.45v-2.2l2.2.2q1.1.1,2.4.2,2.1-5.4,4.5-10.4t4.8-8.95a38.6,38.6,0,0,1,4.55-6.25q2.15-2.3,3.75-2.3a2.458,2.458,0,0,1,1.55.6,2.167,2.167,0,0,1,.75,1.8q0,1.8-2.1,5.6t-5.15,9q-3.05,5.2-5.95,11.2h3.5q3.7,0,7.3-.1t7.3-.5v2.3q-5.5.5-9.9.8t-8.1.4h-1.4a92.139,92.139,0,0,0-3.8,10.55A37.707,37.707,0,0,0,819.2-7.4q0,4.2,1.3,6A4.827,4.827,0,0,0,824.7.4q5.2,0,10.25-4.55A40.871,40.871,0,0,0,843.9-16.6l1.3,1A45.488,45.488,0,0,1,839-5.3a30.635,30.635,0,0,1-8.15,7.25A17.666,17.666,0,0,1,821.7,4.6ZM846.1,28a7.662,7.662,0,0,1-4.5-1.4,4.891,4.891,0,0,1-2-4.3,9.9,9.9,0,0,1,1.7-5.7,20.349,20.349,0,0,1,4.5-4.65,44.347,44.347,0,0,1,6.3-4q3.5-1.85,7.1-3.55,1.3-3.5,2.7-8t2.6-9.4a52.764,52.764,0,0,1-6.8,8.5A10.8,10.8,0,0,1,850-.9a9.238,9.238,0,0,1-3.8-.85,7.539,7.539,0,0,1-3.15-2.65,8.076,8.076,0,0,1-1.25-4.7,26.3,26.3,0,0,1,.95-6.4,61.279,61.279,0,0,1,2.35-7.25,30.7,30.7,0,0,1,2.95-5.85q1.55-2.3,2.65-2.3a6.05,6.05,0,0,1,1.6.35,9.909,9.909,0,0,1,2.1.95,1.985,1.985,0,0,1,1.1,1.3,25.959,25.959,0,0,0-2,3.65q-1.1,2.35-2.15,5.25t-1.75,5.6a19.1,19.1,0,0,0-.7,4.7,4.866,4.866,0,0,0,.75,2.8,2.977,2.977,0,0,0,2.65,1.1,7.25,7.25,0,0,0,4.35-1.85,29.6,29.6,0,0,0,4.65-4.7,61.634,61.634,0,0,0,4.3-6.05q.2-.9.45-2.2t.55-2.6a10.774,10.774,0,0,1,1.55-3.2,4.091,4.091,0,0,1,3.65-1.7q.6,0,1.15.05a6.885,6.885,0,0,1,1.25.25,34.017,34.017,0,0,1-.95,5.95q-.95,4.35-2.7,10.1T866.5.6a31.3,31.3,0,0,0,9.05-5.85A28.7,28.7,0,0,0,882.9-16.4l1.4,1.2a23.824,23.824,0,0,1-4.55,8.4A34.447,34.447,0,0,1,872.9-.6a48.738,48.738,0,0,1-7.6,4.3,107.307,107.307,0,0,1-5.7,11.95,40.6,40.6,0,0,1-6.5,8.95Q849.7,28,846.1,28Zm-.7-3.4q1.6,0,5.1-3.95T857.9,7.4q-3.8,2-7.25,4.15a23.159,23.159,0,0,0-5.55,4.65,8.361,8.361,0,0,0-2.1,5.5,3.956,3.956,0,0,0,.55,1.9A1.94,1.94,0,0,0,845.4,24.6Z" transform="translate(1.6 72.6)" fill="none" stroke="#7d613a" stroke-width="1" opacity="0.65"/>
</svg>
