<svg xmlns="http://www.w3.org/2000/svg" width="919.075" height="81.7" viewBox="0 0 919.075 81.7">
  <path id="Path_3707" data-name="Path 3707" d="M21.3,8.7A28.252,28.252,0,0,1,10.85,6.75,18.416,18.416,0,0,1,2.8.75,16.048,16.048,0,0,1-.3-9.3q0-5.3,2.2-8.25A11.859,11.859,0,0,1,7.3-21.7a17.371,17.371,0,0,1,6.1-1.2,22,22,0,0,0-4.35,6.6,18.166,18.166,0,0,0-1.45,7A14.042,14.042,0,0,0,9.25-2.6a12.3,12.3,0,0,0,5.1,5A17.763,17.763,0,0,0,23,4.3a25.046,25.046,0,0,0,8.8-1.6,17.053,17.053,0,0,0,7.05-4.75A11.508,11.508,0,0,0,41.6-9.9a11.875,11.875,0,0,0-2.25-7.25,23.369,23.369,0,0,0-5.8-5.45Q30-25,26.05-27.2t-7.5-4.65a22.488,22.488,0,0,1-5.8-5.7A13.275,13.275,0,0,1,10.5-45.3a22.061,22.061,0,0,1,2-8.8,31,31,0,0,1,5.8-8.7,29.992,29.992,0,0,1,9.1-6.65A26.863,26.863,0,0,1,39.2-72q6.2,0,8.7,2.85a10.738,10.738,0,0,1,2.5,7.35,26.012,26.012,0,0,1-1.3,7.75A61.464,61.464,0,0,1,46-46.1a67.584,67.584,0,0,1-3.4,6.4,4.36,4.36,0,0,1-2.85-1.6,5.062,5.062,0,0,1-.85-3,14.965,14.965,0,0,1,.9-4.75q.9-2.65,2.05-5.5t2-5.6A16.7,16.7,0,0,0,44.7-65a3.955,3.955,0,0,0-1.15-3q-1.15-1.1-4.35-1.1a18.087,18.087,0,0,0-8.7,2.15,25.573,25.573,0,0,0-7,5.5,25.857,25.857,0,0,0-4.6,7.1,17.453,17.453,0,0,0-1.6,6.75,9.427,9.427,0,0,0,2.2,6.3,23.809,23.809,0,0,0,5.65,4.75q3.45,2.15,7.4,4.25a55.76,55.76,0,0,1,7.4,4.7,22.222,22.222,0,0,1,5.65,6.2,16.375,16.375,0,0,1,2.2,8.7,17.851,17.851,0,0,1-2.3,9.15,21.19,21.19,0,0,1-6.2,6.7A29.353,29.353,0,0,1,30.7,7.3,32.782,32.782,0,0,1,21.3,8.7ZM65.7,4.4q-6.2,0-9.4-3.4a11.789,11.789,0,0,1-3.2-8.4,22.985,22.985,0,0,1,2.25-9.4,39.367,39.367,0,0,1,6-9.4,33.132,33.132,0,0,1,8.3-7.1A17.622,17.622,0,0,1,78.7-36a8.392,8.392,0,0,1,4.45,1.25Q85.2-33.5,85.2-29.7A12.561,12.561,0,0,1,83-22.6a22.546,22.546,0,0,1-5.9,5.9,36.372,36.372,0,0,1-8.05,4.25A36.1,36.1,0,0,1,60.3-10.3a8.808,8.808,0,0,0-.25,1.55Q60-8,60-7.2a14.852,14.852,0,0,0,.25,2.6,7.233,7.233,0,0,0,1.1,2.7A6.173,6.173,0,0,0,63.75.2,8.84,8.84,0,0,0,67.8,1a16.967,16.967,0,0,0,8.5-2.4,33.035,33.035,0,0,0,7.85-6.35A40.184,40.184,0,0,0,90.3-16.5l1.5,1.1A37.484,37.484,0,0,1,84.9-4.95a32.291,32.291,0,0,1-9.15,6.9A22.439,22.439,0,0,1,65.7,4.4ZM61-12.8a29.526,29.526,0,0,0,6-2.4,43.783,43.783,0,0,0,6.4-4.05,23.484,23.484,0,0,0,5.1-5.2,10.21,10.21,0,0,0,2-5.95,2.563,2.563,0,0,0-.4-1.6,1.992,1.992,0,0,0-1.6-.5,9.115,9.115,0,0,0-4.95,1.75,24.263,24.263,0,0,0-5.1,4.65A44.019,44.019,0,0,0,64-19.75,30.648,30.648,0,0,0,61-12.8ZM96.6,3q-4.4,0-6.25-3A13.851,13.851,0,0,1,88.5-7.4a44.318,44.318,0,0,1,1.8-11.4,125.133,125.133,0,0,1,4.75-13.9Q98-40,101.5-46.95t7.05-12.6a74.611,74.611,0,0,1,6.5-9.05Q118-72,119.8-72a2.22,2.22,0,0,1,1.95,1.3,12.129,12.129,0,0,1,1.2,3.05,13.1,13.1,0,0,1,.45,3.25,25.066,25.066,0,0,1-1.35,7.05,79.4,79.4,0,0,1-3.8,9.65,103.529,103.529,0,0,1-5.8,10.75,99.068,99.068,0,0,1-7.35,10.4A58.438,58.438,0,0,1,96.7-18q-.6,2.7-.95,5.2a33.989,33.989,0,0,0-.35,4.7,10.645,10.645,0,0,0,1.15,5.6A3.646,3.646,0,0,0,99.8-.7a8,8,0,0,0,5.25-2.35,29.947,29.947,0,0,0,5.05-6,50.339,50.339,0,0,0,4.1-7.55l1.8.9A49.771,49.771,0,0,1,107-2Q102.1,3,96.6,3Zm1.3-25.3a83,83,0,0,0,6.65-8.05,99.727,99.727,0,0,0,6-9.25q2.75-4.8,4.85-9.25a68.6,68.6,0,0,0,3.25-8,19.426,19.426,0,0,0,1.15-5.55,1.722,1.722,0,0,0-.15-.9.992.992,0,0,0-.35-.3q-.8,0-2.65,2.45t-4.4,6.65q-2.55,4.2-5.2,9.5T102-33.85Q99.6-28,97.9-22.3ZM123.2,4.4q-6.2,0-9.4-3.4a11.789,11.789,0,0,1-3.2-8.4,22.985,22.985,0,0,1,2.25-9.4,39.367,39.367,0,0,1,6-9.4,33.132,33.132,0,0,1,8.3-7.1A17.623,17.623,0,0,1,136.2-36a8.392,8.392,0,0,1,4.45,1.25q2.05,1.25,2.05,5.05a12.56,12.56,0,0,1-2.2,7.1,22.546,22.546,0,0,1-5.9,5.9,36.371,36.371,0,0,1-8.05,4.25,36.1,36.1,0,0,1-8.75,2.15,8.809,8.809,0,0,0-.25,1.55q-.05.75-.05,1.55a14.852,14.852,0,0,0,.25,2.6,7.233,7.233,0,0,0,1.1,2.7,6.173,6.173,0,0,0,2.4,2.1,8.84,8.84,0,0,0,4.05.8,16.967,16.967,0,0,0,8.5-2.4,33.035,33.035,0,0,0,7.85-6.35,40.184,40.184,0,0,0,6.15-8.75l1.5,1.1a37.484,37.484,0,0,1-6.9,10.45,32.291,32.291,0,0,1-9.15,6.9A22.439,22.439,0,0,1,123.2,4.4Zm-4.7-17.2a29.527,29.527,0,0,0,6-2.4,43.783,43.783,0,0,0,6.4-4.05,23.484,23.484,0,0,0,5.1-5.2,10.211,10.211,0,0,0,2-5.95,2.563,2.563,0,0,0-.4-1.6,1.992,1.992,0,0,0-1.6-.5,9.116,9.116,0,0,0-4.95,1.75,24.264,24.264,0,0,0-5.1,4.65,44.02,44.02,0,0,0-4.45,6.35A30.648,30.648,0,0,0,118.5-12.8ZM156.6,5.6a11.145,11.145,0,0,1-8.15-3.2Q145.2-.8,145.2-7.3a26.032,26.032,0,0,1,1.9-9.75,30.357,30.357,0,0,1,5.1-8.5,26.9,26.9,0,0,1,7.15-6,15.758,15.758,0,0,1,7.85-2.25q4.1,0,5.7,2.3a8.578,8.578,0,0,1,1.6,5,10.157,10.157,0,0,1-1.35,5.15A4.086,4.086,0,0,1,169.5-19a3.537,3.537,0,0,1-2.9-1.6,7.16,7.16,0,0,0,2.4-3.05,10.678,10.678,0,0,0,1.1-4.75,2.6,2.6,0,0,0-.45-1.6,1.948,1.948,0,0,0-1.65-.6,8.735,8.735,0,0,0-5.45,2.35,26.3,26.3,0,0,0-5.25,6.05,38.3,38.3,0,0,0-3.9,7.85,22.65,22.65,0,0,0-1.5,7.65,11.037,11.037,0,0,0,1.45,5.55Q154.8,1.4,159.1,1.4a16.866,16.866,0,0,0,8-2.2,26.938,26.938,0,0,0,7.6-6.25,33.471,33.471,0,0,0,5.7-9.55l1.5,1.2a35.756,35.756,0,0,1-6.4,10.85,32.9,32.9,0,0,1-9,7.45A20.322,20.322,0,0,1,156.6,5.6Zm30.4-1a8.919,8.919,0,0,1-6.75-2.55Q177.8-.5,177.8-5.5a45.049,45.049,0,0,1,1.6-10.65,124.159,124.159,0,0,1,4.1-13.05q-.9-.2-1.8-.35a11.845,11.845,0,0,1-1.8-.45v-2.2l2.2.2q1.1.1,2.4.2,2.1-5.4,4.5-10.4t4.8-8.95a38.6,38.6,0,0,1,4.55-6.25q2.15-2.3,3.75-2.3a2.458,2.458,0,0,1,1.55.6,2.167,2.167,0,0,1,.75,1.8q0,1.8-2.1,5.6t-5.15,9q-3.05,5.2-5.95,11.2h3.5q3.7,0,7.3-.1t7.3-.5v2.3q-5.5.5-9.9.8t-8.1.4h-1.4a92.118,92.118,0,0,0-3.8,10.55A37.707,37.707,0,0,0,184.5-7.4q0,4.2,1.3,6A4.827,4.827,0,0,0,190,.4q5.2,0,10.25-4.55A40.87,40.87,0,0,0,209.2-16.6l1.3,1a45.488,45.488,0,0,1-6.2,10.3,30.634,30.634,0,0,1-8.15,7.25A17.667,17.667,0,0,1,187,4.6Zm64.9,4.1a21.7,21.7,0,0,1-10.7-2.5,17.932,17.932,0,0,1-6.95-6.7,17.932,17.932,0,0,1-2.45-9.2,21.782,21.782,0,0,1,1.95-8.9,27.273,27.273,0,0,1,5.45-8,30.985,30.985,0,0,1,8.2-6,29.076,29.076,0,0,1,10.1-3,20.08,20.08,0,0,1-5.6-7.3,20.253,20.253,0,0,1-1.8-8.2,20.6,20.6,0,0,1,2.65-10.1,20.879,20.879,0,0,1,7.4-7.75A20.138,20.138,0,0,1,271-71.9q5.8,0,8.85,2.85t3.05,8.15a20.111,20.111,0,0,1-1.35,7.3,19.25,19.25,0,0,1-3.25,5.7q-1.9,2.2-3.6,2.2a3.318,3.318,0,0,1-2.3-1.05,8.791,8.791,0,0,1-1.8-2.45,34.223,34.223,0,0,0,6.05-6.45,12.329,12.329,0,0,0,2.45-7.25,6.032,6.032,0,0,0-1.85-4.75A7.627,7.627,0,0,0,272-69.3a11.367,11.367,0,0,0-7.75,2.75,16.944,16.944,0,0,0-4.75,7.2,28.319,28.319,0,0,0-1.6,9.65,28.557,28.557,0,0,0,1.25,8.05,15.325,15.325,0,0,0,5.05,7.45,25.819,25.819,0,0,0-11.9,5.05,28.5,28.5,0,0,0-7.9,9.25,22.339,22.339,0,0,0-2.8,10.5,18.265,18.265,0,0,0,1.25,6.5,12.7,12.7,0,0,0,4.1,5.55A11.839,11.839,0,0,0,254.5,4.9a21.251,21.251,0,0,0,10.65-3,38.447,38.447,0,0,0,9.65-7.95,45.808,45.808,0,0,0,7.1-10.55l1.8,1.2a63.127,63.127,0,0,1-8.4,12.25A39.062,39.062,0,0,1,264.6,5.5,26.225,26.225,0,0,1,251.9,8.7Zm32.6-2.8a1.1,1.1,0,0,1-.95-.5,2.039,2.039,0,0,1-.35-1.2q0-1.2,2.1-4.25t5.45-7.2Q294.1-11.4,298-15.7a59,59,0,0,0-1.3-7.9q-.8-3.2-3.1-3.2a5.551,5.551,0,0,0-4.2,2.15,30.38,30.38,0,0,0-3.7,5.4q-1.8,3.25-3.9,6.75l-1.2-2q1.4-2.6,2.65-5.5a41.111,41.111,0,0,1,2.8-5.4,14.33,14.33,0,0,1,3.75-4.1,9.1,9.1,0,0,1,5.5-1.6,6.71,6.71,0,0,1,5.8,2.6,17.631,17.631,0,0,1,2.8,6.6q4.6-4.8,8.35-8.05t5.15-3.25a4.961,4.961,0,0,1,1.55.4q1.05.4,1.15,1.2-1.1,0-3.55,1.9A57.412,57.412,0,0,0,311-24.65q-3.1,3.15-6.5,7.05.3,2.4.55,5.25t.7,5.35a11.072,11.072,0,0,0,1.45,4.05A3.155,3.155,0,0,0,310-1.4a6.64,6.64,0,0,0,3.85-1.5,22.641,22.641,0,0,0,4-3.85,48.117,48.117,0,0,0,3.6-4.95,45.214,45.214,0,0,0,2.65-4.7l1.2,1.1a33.323,33.323,0,0,1-4.4,8.5,29.768,29.768,0,0,1-6.45,6.75A11.9,11.9,0,0,1,307.3,2.6,6.019,6.019,0,0,1,302.65.7,12.325,12.325,0,0,1,300-4.25a47.617,47.617,0,0,1-1.4-6.35q-4.1,4.8-7.55,9.15T285.8,5.1A1.663,1.663,0,0,1,284.5,5.9Zm48.3-.3a11.145,11.145,0,0,1-8.15-3.2Q321.4-.8,321.4-7.3a26.032,26.032,0,0,1,1.9-9.75,30.356,30.356,0,0,1,5.1-8.5,26.9,26.9,0,0,1,7.15-6,15.758,15.758,0,0,1,7.85-2.25q4.1,0,5.7,2.3a8.578,8.578,0,0,1,1.6,5,10.158,10.158,0,0,1-1.35,5.15A4.086,4.086,0,0,1,345.7-19a3.537,3.537,0,0,1-2.9-1.6,7.16,7.16,0,0,0,2.4-3.05,10.678,10.678,0,0,0,1.1-4.75,2.6,2.6,0,0,0-.45-1.6,1.948,1.948,0,0,0-1.65-.6,8.735,8.735,0,0,0-5.45,2.35,26.3,26.3,0,0,0-5.25,6.05,38.3,38.3,0,0,0-3.9,7.85,22.65,22.65,0,0,0-1.5,7.65,11.037,11.037,0,0,0,1.45,5.55Q331,1.4,335.3,1.4a16.866,16.866,0,0,0,8-2.2,26.939,26.939,0,0,0,7.6-6.25,33.471,33.471,0,0,0,5.7-9.55l1.5,1.2a35.756,35.756,0,0,1-6.4,10.85,32.9,32.9,0,0,1-9,7.45A20.322,20.322,0,0,1,332.8,5.6Zm32.8-1.2q-6.2,0-9.4-3.4A11.789,11.789,0,0,1,353-7.4a22.985,22.985,0,0,1,2.25-9.4,39.367,39.367,0,0,1,6-9.4,33.132,33.132,0,0,1,8.3-7.1A17.623,17.623,0,0,1,378.6-36a8.392,8.392,0,0,1,4.45,1.25q2.05,1.25,2.05,5.05a12.56,12.56,0,0,1-2.2,7.1,22.545,22.545,0,0,1-5.9,5.9,36.372,36.372,0,0,1-8.05,4.25,36.1,36.1,0,0,1-8.75,2.15,8.808,8.808,0,0,0-.25,1.55q-.05.75-.05,1.55a14.853,14.853,0,0,0,.25,2.6,7.232,7.232,0,0,0,1.1,2.7,6.173,6.173,0,0,0,2.4,2.1,8.84,8.84,0,0,0,4.05.8,16.967,16.967,0,0,0,8.5-2.4,33.034,33.034,0,0,0,7.85-6.35,40.183,40.183,0,0,0,6.15-8.75l1.5,1.1a37.484,37.484,0,0,1-6.9,10.45,32.291,32.291,0,0,1-9.15,6.9A22.439,22.439,0,0,1,365.6,4.4Zm-4.7-17.2a29.526,29.526,0,0,0,6-2.4,43.782,43.782,0,0,0,6.4-4.05,23.484,23.484,0,0,0,5.1-5.2,10.21,10.21,0,0,0,2-5.95A2.563,2.563,0,0,0,380-32a1.992,1.992,0,0,0-1.6-.5,9.115,9.115,0,0,0-4.95,1.75,24.263,24.263,0,0,0-5.1,4.65,44.02,44.02,0,0,0-4.45,6.35A30.647,30.647,0,0,0,360.9-12.8ZM396.8,3q-4.5,0-6.45-3a13.689,13.689,0,0,1-1.95-7.6,44.065,44.065,0,0,1,1.8-11.3,122.2,122.2,0,0,1,4.75-13.85q2.95-7.25,6.45-14.2t7.05-12.6a74.61,74.61,0,0,1,6.5-9.05Q417.9-72,419.7-72a2.22,2.22,0,0,1,1.95,1.3,12.028,12.028,0,0,1,1.2,3.1,13.694,13.694,0,0,1,.45,3.3,24.914,24.914,0,0,1-1.35,6.95,76.881,76.881,0,0,1-3.8,9.6,102.352,102.352,0,0,1-5.8,10.65A102.025,102.025,0,0,1,405-26.75a58.438,58.438,0,0,1-8.4,8.55q-.6,2.7-.95,5.3a36.167,36.167,0,0,0-.35,4.8q0,7.4,4.4,7.4a7.712,7.712,0,0,0,4.75-1.95,24.038,24.038,0,0,0,4.65-5.1,53.731,53.731,0,0,0,4-6.75,86.42,86.42,0,0,1,3-11.15q2-5.95,4.6-11.9T426.25-49q2.95-5.5,5.75-9.8a42.24,42.24,0,0,1,5.25-6.75Q439.7-68,441.2-68a2.226,2.226,0,0,1,1.95,1.25,11.143,11.143,0,0,1,1.2,3.1,14.3,14.3,0,0,1,.45,3.35,29.047,29.047,0,0,1-1.7,8.45,74.264,74.264,0,0,1-4.85,11.3,85.281,85.281,0,0,1-7.6,11.95A58.327,58.327,0,0,1,420.6-18.2q-.5,2.6-.85,5.15a35.065,35.065,0,0,0-.35,4.75q0,7.6,4.3,7.6a8.09,8.09,0,0,0,5.35-2.35,28.28,28.28,0,0,0,5-6.05,58.712,58.712,0,0,0,4.05-7.5l1.9.9A51.249,51.249,0,0,1,431.1-2q-4.8,5-10.3,5Q416,3,414.1-.4A15.574,15.574,0,0,1,412.5-9a35.78,35.78,0,0,1-7.4,8.8A12.877,12.877,0,0,1,396.8,3Zm1-25.3a70.21,70.21,0,0,0,6.6-7.95q3.2-4.45,6-9.2t4.9-9.15a65.913,65.913,0,0,0,3.25-7.95,19.426,19.426,0,0,0,1.15-5.55,2.75,2.75,0,0,0-.15-1.1q-.15-.3-.35-.3-.8,0-2.7,2.45a70.09,70.09,0,0,0-4.4,6.6q-2.5,4.15-5.15,9.45T401.9-33.85Q399.5-28,397.8-22.3Zm24,0a71.823,71.823,0,0,0,7.75-9.45A96.462,96.462,0,0,0,435.75-42a68.623,68.623,0,0,0,4.1-9.35,22.35,22.35,0,0,0,1.45-6.75,2.132,2.132,0,0,0-.2-1.1q-.2-.3-.3-.3-1,0-3.3,3.1a69.037,69.037,0,0,0-5.15,8.45q-2.85,5.35-5.65,12A135.427,135.427,0,0,0,421.8-22.3ZM447.1,4.4q-6.2,0-9.4-3.4a11.789,11.789,0,0,1-3.2-8.4,22.985,22.985,0,0,1,2.25-9.4,39.367,39.367,0,0,1,6-9.4,33.132,33.132,0,0,1,8.3-7.1A17.623,17.623,0,0,1,460.1-36a8.392,8.392,0,0,1,4.45,1.25q2.05,1.25,2.05,5.05a12.56,12.56,0,0,1-2.2,7.1,22.545,22.545,0,0,1-5.9,5.9,36.372,36.372,0,0,1-8.05,4.25,36.1,36.1,0,0,1-8.75,2.15,8.808,8.808,0,0,0-.25,1.55q-.05.75-.05,1.55a14.853,14.853,0,0,0,.25,2.6,7.232,7.232,0,0,0,1.1,2.7,6.173,6.173,0,0,0,2.4,2.1,8.84,8.84,0,0,0,4.05.8,16.967,16.967,0,0,0,8.5-2.4,33.034,33.034,0,0,0,7.85-6.35,40.183,40.183,0,0,0,6.15-8.75l1.5,1.1a37.484,37.484,0,0,1-6.9,10.45,32.291,32.291,0,0,1-9.15,6.9A22.439,22.439,0,0,1,447.1,4.4Zm-4.7-17.2a29.526,29.526,0,0,0,6-2.4,43.782,43.782,0,0,0,6.4-4.05,23.484,23.484,0,0,0,5.1-5.2,10.21,10.21,0,0,0,2-5.95,2.563,2.563,0,0,0-.4-1.6,1.992,1.992,0,0,0-1.6-.5,9.115,9.115,0,0,0-4.95,1.75,24.263,24.263,0,0,0-5.1,4.65,44.02,44.02,0,0,0-4.45,6.35A30.647,30.647,0,0,0,442.4-12.8ZM502.4,2q-3.7,0-5.55-1.85A6.43,6.43,0,0,1,495-4.6a13.914,13.914,0,0,1,.75-4.3q.75-2.3,1.45-4.7a16.42,16.42,0,0,0,.7-4.6q0-2.6-1.1-3.6a3.867,3.867,0,0,0-2.7-1,10.277,10.277,0,0,0-6.3,2.5,34.313,34.313,0,0,0-6.15,6.4q-2.95,3.9-5.55,8t-4.6,7.4a8.925,8.925,0,0,1-3.25-.6A5.426,5.426,0,0,1,465.8-.9,14.641,14.641,0,0,1,466.85-4q1.05-2.6,2.45-6.3a76.95,76.95,0,0,0,2.45-7.7,28.658,28.658,0,0,0,1.05-7.2,5.643,5.643,0,0,1,1.95-1.5,6.107,6.107,0,0,1,2.85-.7q3,0,3,2.7a23.865,23.865,0,0,1-.75,4.75q-.75,3.25-1.95,7.05a72.311,72.311,0,0,1,5.9-7.65,36.163,36.163,0,0,1,6.95-6.2A12.956,12.956,0,0,1,498-29.2q4.1,0,5.95,2.85a11.248,11.248,0,0,1,1.85,6.25,15.752,15.752,0,0,1-1,5.7q-1,2.6-2.05,5a11.891,11.891,0,0,0-1.05,4.8,3.568,3.568,0,0,0,.85,2.75,2.862,2.862,0,0,0,1.95.75,7.632,7.632,0,0,0,5.05-2.3,29.9,29.9,0,0,0,4.9-5.9,66.882,66.882,0,0,0,4.15-7.3l1.3,1.4a50.418,50.418,0,0,1-4.75,8.75,25.161,25.161,0,0,1-5.8,6.15A11.52,11.52,0,0,1,502.4,2Zm22.7,2.6a8.92,8.92,0,0,1-6.75-2.55Q515.9-.5,515.9-5.5a45.05,45.05,0,0,1,1.6-10.65,124.167,124.167,0,0,1,4.1-13.05q-.9-.2-1.8-.35A11.845,11.845,0,0,1,518-30v-2.2l2.2.2q1.1.1,2.4.2,2.1-5.4,4.5-10.4t4.8-8.95a38.6,38.6,0,0,1,4.55-6.25q2.15-2.3,3.75-2.3a2.458,2.458,0,0,1,1.55.6,2.167,2.167,0,0,1,.75,1.8q0,1.8-2.1,5.6t-5.15,9q-3.05,5.2-5.95,11.2h3.5q3.7,0,7.3-.1t7.3-.5v2.3q-5.5.5-9.9.8t-8.1.4H528a92.139,92.139,0,0,0-3.8,10.55A37.707,37.707,0,0,0,522.6-7.4q0,4.2,1.3,6A4.827,4.827,0,0,0,528.1.4q5.2,0,10.25-4.55A40.871,40.871,0,0,0,547.3-16.6l1.3,1a45.488,45.488,0,0,1-6.2,10.3,30.635,30.635,0,0,1-8.15,7.25A17.666,17.666,0,0,1,525.1,4.6Zm44.6,4.1q.6-1.4,3.2-7.15t6.9-15.1q4.3-9.35,9.8-21.55t11.9-26.4a10.745,10.745,0,0,0,.7-1.85,7.443,7.443,0,0,0,.3-2.05,2.408,2.408,0,0,0-.65-1.7,3.481,3.481,0,0,0-2.55-.7,9.42,9.42,0,0,0-6.95,2.75,16.652,16.652,0,0,0-4.05,6.75,25.754,25.754,0,0,0-1.3,8q0,.9.05,1.8a11.128,11.128,0,0,0,.25,1.8,4.506,4.506,0,0,1-3.4-1.35,8.072,8.072,0,0,1-1.9-3.4,13.448,13.448,0,0,1-.6-3.75,11.9,11.9,0,0,1,1.8-6.2,21.861,21.861,0,0,1,4.7-5.45,22.278,22.278,0,0,1,6.4-3.8A19.081,19.081,0,0,1,601.2-72a9,9,0,0,1,5.85,1.9q2.35,1.9,3.6,6.9a63.059,63.059,0,0,1,1.25,14.4q0,6.3-.45,13.2t-.95,13.35q-.5,6.45-.7,11.55a119.576,119.576,0,0,1,4.75-12.85q2.95-6.85,6.45-13.6t6.9-12.65q3.4-5.9,6.15-10.3t4.15-6.4a24.224,24.224,0,0,1,2.4-3.15,3.552,3.552,0,0,1,2.7-1.05,11.086,11.086,0,0,1,3.6.8q-.7,1.8-1.95,5.55T642.4-55.3q-1.6,6-3.15,13.55T636.4-26.4q-1.3,7.8-2.1,14.65A103.514,103.514,0,0,0,633.5,0a25.025,25.025,0,0,0,.2,3.6,11.522,11.522,0,0,0,.6,2.35q.4,1.05.9,2.75a11.266,11.266,0,0,1-5.65-1.15,5.72,5.72,0,0,1-2.6-3.75,29.466,29.466,0,0,1-.65-6.9,117.793,117.793,0,0,1,2.85-24.8Q632-41.1,635.8-55.2a77.437,77.437,0,0,0-6,9.4q-3.1,5.6-6.15,12T617.8-21.05Q615-14.7,612.9-9.3t-3.3,9q-.7.2-.95.3a2.131,2.131,0,0,1-.75.1q-3,0-3.85-3.55a44.436,44.436,0,0,1-.85-9.85q0-4,.2-9.25t.45-10.8q.25-5.55.45-10.8t.2-9.35q0-1.8-.05-3.15t-.15-2.55q-7.8,18.3-13.15,31.25T582.1-6.9a63.521,63.521,0,0,1-6.6,11.85Q572.6,8.7,569.7,8.7Zm81.8-4a7.7,7.7,0,0,1-5.45-2.1Q643.8.5,643.8-3.8a21.412,21.412,0,0,1,1.6-7.65,39.307,39.307,0,0,1,4.4-8.2A44.724,44.724,0,0,1,656.15-27a32.321,32.321,0,0,1,7.55-5.3,17.751,17.751,0,0,1,8-2,10.8,10.8,0,0,1,6.75,2.1,6.693,6.693,0,0,1,2.75,5.6,3.842,3.842,0,0,1-1.55,3.5,6.427,6.427,0,0,1-3.85.9q.2-.9.35-1.8a10.927,10.927,0,0,0,.15-1.8,7.282,7.282,0,0,0-1-3.85q-1-1.65-3.7-1.65a10.2,10.2,0,0,0-5.7,1.95,26.469,26.469,0,0,0-5.55,5.15,46.442,46.442,0,0,0-4.75,6.95,42.778,42.778,0,0,0-3.3,7.35,20.782,20.782,0,0,0-1.2,6.5q0,3.7,2.5,3.7a8.38,8.38,0,0,0,5.05-2.2,41.6,41.6,0,0,0,5.6-5.55q2.85-3.35,5.45-6.95t4.6-6.4q.3-.6.6-.6.5.1,1.5.4a5.7,5.7,0,0,1,1.8.9,1.81,1.81,0,0,1,.8,1.5,5.609,5.609,0,0,1-.85,2.45q-.85,1.55-2,3.5a33.8,33.8,0,0,0-2,3.95A9.524,9.524,0,0,0,673.3-5a5.783,5.783,0,0,0,.75,2.85A2.587,2.587,0,0,0,676.5-.8q2.6,0,7-3.85t8.9-11.95l1.3,1.3a38.681,38.681,0,0,1-5.5,9.55A27.5,27.5,0,0,1,681.15.7,14.169,14.169,0,0,1,673.7,3,6.749,6.749,0,0,1,668.05.65,8.012,8.012,0,0,1,666.2-4.4q0-.5.05-1t.15-1.1a49.914,49.914,0,0,1-7.7,8.35A11.316,11.316,0,0,1,651.5,4.7ZM699,4.6a8.92,8.92,0,0,1-6.75-2.55Q689.8-.5,689.8-5.5a45.05,45.05,0,0,1,1.6-10.65,124.167,124.167,0,0,1,4.1-13.05q-.9-.2-1.8-.35a11.845,11.845,0,0,1-1.8-.45v-2.2l2.2.2q1.1.1,2.4.2,2.1-5.4,4.5-10.4t4.8-8.95a38.6,38.6,0,0,1,4.55-6.25q2.15-2.3,3.75-2.3a2.458,2.458,0,0,1,1.55.6,2.167,2.167,0,0,1,.75,1.8q0,1.8-2.1,5.6t-5.15,9q-3.05,5.2-5.95,11.2h3.5q3.7,0,7.3-.1t7.3-.5v2.3q-5.5.5-9.9.8t-8.1.4h-1.4a92.139,92.139,0,0,0-3.8,10.55A37.707,37.707,0,0,0,696.5-7.4q0,4.2,1.3,6A4.827,4.827,0,0,0,702,.4q5.2,0,10.25-4.55A40.871,40.871,0,0,0,721.2-16.6l1.3,1a45.488,45.488,0,0,1-6.2,10.3,30.635,30.635,0,0,1-8.15,7.25A17.666,17.666,0,0,1,699,4.6Zm31-.2q-6.2,0-9.4-3.4a11.789,11.789,0,0,1-3.2-8.4,22.985,22.985,0,0,1,2.25-9.4,39.367,39.367,0,0,1,6-9.4,33.132,33.132,0,0,1,8.3-7.1A17.622,17.622,0,0,1,743-36a8.392,8.392,0,0,1,4.45,1.25q2.05,1.25,2.05,5.05a12.561,12.561,0,0,1-2.2,7.1,22.546,22.546,0,0,1-5.9,5.9,36.373,36.373,0,0,1-8.05,4.25,36.1,36.1,0,0,1-8.75,2.15,8.805,8.805,0,0,0-.25,1.55q-.05.75-.05,1.55a14.85,14.85,0,0,0,.25,2.6,7.233,7.233,0,0,0,1.1,2.7,6.172,6.172,0,0,0,2.4,2.1,8.84,8.84,0,0,0,4.05.8,16.967,16.967,0,0,0,8.5-2.4,33.034,33.034,0,0,0,7.85-6.35,40.184,40.184,0,0,0,6.15-8.75l1.5,1.1a37.484,37.484,0,0,1-6.9,10.45,32.291,32.291,0,0,1-9.15,6.9A22.439,22.439,0,0,1,730,4.4Zm-4.7-17.2a29.527,29.527,0,0,0,6-2.4,43.782,43.782,0,0,0,6.4-4.05,23.483,23.483,0,0,0,5.1-5.2,10.211,10.211,0,0,0,2-5.95,2.563,2.563,0,0,0-.4-1.6,1.992,1.992,0,0,0-1.6-.5,9.115,9.115,0,0,0-4.95,1.75,24.265,24.265,0,0,0-5.1,4.65,44.02,44.02,0,0,0-4.45,6.35A30.65,30.65,0,0,0,725.3-12.8ZM770.2,2.6A7.974,7.974,0,0,1,764.65.75,6.223,6.223,0,0,1,762.6-4.1a15.775,15.775,0,0,1,1.4-6.25q1.4-3.25,2.75-6.45a14.928,14.928,0,0,0,1.35-5.7,5.717,5.717,0,0,0-1.7-4.45,23.167,23.167,0,0,0-3.7-2.75q-2.2,5.7-4.8,10.95t-4.2,8.05l-1.1-2.1q1.4-2.6,3.65-7.55T760.7-31.5a3.392,3.392,0,0,1-1-2.5,7.446,7.446,0,0,1,1.65-4.9q1.65-2,2.65-2a1.313,1.313,0,0,1,1.45,1.05,7.494,7.494,0,0,1,.25,1.55,7.132,7.132,0,0,1-.5,1.9q-.5,1.4-.6,1.8a3.511,3.511,0,0,0,1.65,2.45q1.55,1.15,3.6,2.55a14.925,14.925,0,0,1,3.6,3.5A8.686,8.686,0,0,1,775-20.8a16,16,0,0,1-1.25,6q-1.25,3.1-2.5,5.8A11.662,11.662,0,0,0,770-4.2a2.378,2.378,0,0,0,.85,2.15,3.51,3.51,0,0,0,1.95.55,10,10,0,0,0,4.95-1.45,26.456,26.456,0,0,0,5-3.75,36.884,36.884,0,0,0,4.35-4.85,22.2,22.2,0,0,0,2.8-4.75l1.7,1.3a36.9,36.9,0,0,1-5.3,8.3A31.641,31.641,0,0,1,778.75,0,15.9,15.9,0,0,1,770.2,2.6Zm25.1.1q-4.1,0-6.1-2.5a9.307,9.307,0,0,1-2-6,25.523,25.523,0,0,1,.85-5.8,69.737,69.737,0,0,1,2.25-7.35,53.138,53.138,0,0,1,3.25-7.25,24.052,24.052,0,0,1,4-5.55,6.157,6.157,0,0,1,4.25-2.15,2.523,2.523,0,0,1,1.7.6,2.241,2.241,0,0,1,.7,1.8,9.513,9.513,0,0,1-1.55,3.9q-1.55,2.7-3.6,6.15a54.363,54.363,0,0,0-3.6,7.25A19.085,19.085,0,0,0,793.9-7q0,3.5,1.15,4.65A4.837,4.837,0,0,0,798.6-1.2q3.4,0,7.3-3.4t8.2-11.9l1.1,1.2Q812.1-6.7,806.7-2T795.3,2.7Zm11.9-45.5a5.6,5.6,0,0,1-3.05-.85,2.907,2.907,0,0,1-1.35-2.65q0-2.2,2.5-3.8a9.215,9.215,0,0,1,5-1.6,4.68,4.68,0,0,1,2.65.7A2.9,2.9,0,0,1,814-48.4a5.116,5.116,0,0,1-2.15,3.75A7,7,0,0,1,807.2-42.8Zm9.9,47.5a7.7,7.7,0,0,1-5.45-2.1Q809.4.5,809.4-3.8a21.412,21.412,0,0,1,1.6-7.65,39.307,39.307,0,0,1,4.4-8.2A44.724,44.724,0,0,1,821.75-27a32.321,32.321,0,0,1,7.55-5.3,17.751,17.751,0,0,1,8-2,10.8,10.8,0,0,1,6.75,2.1,6.693,6.693,0,0,1,2.75,5.6,3.842,3.842,0,0,1-1.55,3.5,6.427,6.427,0,0,1-3.85.9q.2-.9.35-1.8a10.927,10.927,0,0,0,.15-1.8,7.282,7.282,0,0,0-1-3.85q-1-1.65-3.7-1.65a10.2,10.2,0,0,0-5.7,1.95,26.469,26.469,0,0,0-5.55,5.15,46.442,46.442,0,0,0-4.75,6.95,42.778,42.778,0,0,0-3.3,7.35,20.782,20.782,0,0,0-1.2,6.5q0,3.7,2.5,3.7a8.38,8.38,0,0,0,5.05-2.2,41.6,41.6,0,0,0,5.6-5.55q2.85-3.35,5.45-6.95t4.6-6.4q.3-.6.6-.6.5.1,1.5.4a5.7,5.7,0,0,1,1.8.9,1.81,1.81,0,0,1,.8,1.5,5.609,5.609,0,0,1-.85,2.45q-.85,1.55-2,3.5a33.8,33.8,0,0,0-2,3.95A9.524,9.524,0,0,0,838.9-5a5.783,5.783,0,0,0,.75,2.85A2.587,2.587,0,0,0,842.1-.8q2.6,0,7-3.85T858-16.6l1.3,1.3a38.681,38.681,0,0,1-5.5,9.55A27.5,27.5,0,0,1,846.75.7,14.169,14.169,0,0,1,839.3,3,6.749,6.749,0,0,1,833.65.65,8.012,8.012,0,0,1,831.8-4.4q0-.5.05-1T832-6.5a49.914,49.914,0,0,1-7.7,8.35A11.316,11.316,0,0,1,817.1,4.7ZM864.3,3q-4.4,0-6.25-3a13.85,13.85,0,0,1-1.85-7.4A44.318,44.318,0,0,1,858-18.8a125.145,125.145,0,0,1,4.75-13.9q2.95-7.3,6.45-14.25t7.05-12.6a74.62,74.62,0,0,1,6.5-9.05Q885.7-72,887.5-72a2.22,2.22,0,0,1,1.95,1.3,12.128,12.128,0,0,1,1.2,3.05,13.1,13.1,0,0,1,.45,3.25,25.065,25.065,0,0,1-1.35,7.05,79.393,79.393,0,0,1-3.8,9.65,103.531,103.531,0,0,1-5.8,10.75,99.065,99.065,0,0,1-7.35,10.4A58.438,58.438,0,0,1,864.4-18q-.6,2.7-.95,5.2a33.989,33.989,0,0,0-.35,4.7,10.645,10.645,0,0,0,1.15,5.6A3.646,3.646,0,0,0,867.5-.7a8,8,0,0,0,5.25-2.35,29.949,29.949,0,0,0,5.05-6,50.344,50.344,0,0,0,4.1-7.55l1.8.9a49.771,49.771,0,0,1-9,13.7Q869.8,3,864.3,3Zm1.3-25.3a83,83,0,0,0,6.65-8.05,99.717,99.717,0,0,0,6-9.25q2.75-4.8,4.85-9.25a68.607,68.607,0,0,0,3.25-8,19.425,19.425,0,0,0,1.15-5.55,1.722,1.722,0,0,0-.15-.9.992.992,0,0,0-.35-.3q-.8,0-2.65,2.45t-4.4,6.65q-2.55,4.2-5.2,9.5T869.7-33.85Q867.3-28,865.6-22.3ZM890.7,5.1a12.844,12.844,0,0,1-7.65-2.05A11.315,11.315,0,0,1,879-2.05a16.679,16.679,0,0,1-1.2-6.15,10.548,10.548,0,0,1,.8-4.6,5.815,5.815,0,0,1,1.95-2.35,11.681,11.681,0,0,1,2.2-1.15,4.413,4.413,0,0,0,1.55-.9,66.094,66.094,0,0,0,5.35-6.55,46.811,46.811,0,0,0,4.45-7.65v-1.1q0-3.8,1.3-5.4a3.651,3.651,0,0,1,2.8-1.6,1.833,1.833,0,0,1,1.35.45A1.9,1.9,0,0,1,900.1-38a5.906,5.906,0,0,1-.3,1.6,9.277,9.277,0,0,0-.3,2.6,21.473,21.473,0,0,0,1.35,7.05q1.35,3.85,2.7,8.1A29.057,29.057,0,0,1,904.9-9.8a19.336,19.336,0,0,1-.15,2.4q-.15,1.2-.35,2.2a14.992,14.992,0,0,0,6.4-3.25,25.03,25.03,0,0,0,5.9-8.05l1,1a18.462,18.462,0,0,1-5.65,8.55A17.918,17.918,0,0,1,903.7-3.1a11.6,11.6,0,0,1-5.1,6.2A15.636,15.636,0,0,1,890.7,5.1Zm-.1-3.8A8.472,8.472,0,0,0,894,.45a5.894,5.894,0,0,0,2.9-3.75,18.053,18.053,0,0,1-7.4-3.25,20.463,20.463,0,0,1-4.9-4.85q-2,.1-2,3.2a11.108,11.108,0,0,0,2.1,6.5A6.789,6.789,0,0,0,890.6,1.3Zm6.9-6.6a15.988,15.988,0,0,0,.3-1.95q.1-1.05.1-2.25a37.806,37.806,0,0,0-1.15-9.2q-1.15-4.6-2.05-8.8-2.1,3.5-4.6,7a46.236,46.236,0,0,1-4.8,5.8A20.362,20.362,0,0,0,890-9,16.907,16.907,0,0,0,897.5-5.3Z" transform="translate(0.8 72.5)" fill="none" stroke="#9a7141" stroke-width="1" opacity="0.65"/>
</svg>
