<svg xmlns="http://www.w3.org/2000/svg" width="872.951" height="81.08" viewBox="0 0 872.951 81.08">
  <path id="Path_3706" data-name="Path 3706" d="M16.16,6.96q-3.84,0-5.32-1.64a6.03,6.03,0,0,1-1.48-4.2,19.677,19.677,0,0,1,.96-5.52q.96-3.2,1.92-6.16,1.6-4.56,3.56-9.92t4.12-10.88q2.16-5.52,4.36-10.8t4.2-9.68q-5.52.08-9.32.28t-6.88.52q-3.08.32-6.6.96a5.836,5.836,0,0,1,2.96-4.56,19.325,19.325,0,0,1,7.04-2.28,66.6,66.6,0,0,1,10.08-.68q4.72,0,8.56.32t7.24.68q3.4.36,6.76.52a2.352,2.352,0,0,1-1.48,2.24,10.7,10.7,0,0,1-3.56.48,8.891,8.891,0,0,1-3.2,1.08,34.759,34.759,0,0,1-3.84.36q-2,.08-3.84.08-2.96,7.44-6.24,17.32t-6.4,21.4q-1.12,4.08-1.96,7.2T16.52-.2a31.348,31.348,0,0,0-.44,5.24q0,.4,0,.88A7.385,7.385,0,0,0,16.16,6.96Zm24.8-3.92q-1.6,0-2.44-2.6a19.378,19.378,0,0,1-.84-5.96,40.523,40.523,0,0,1,1.24-9.04,96.953,96.953,0,0,1,3.36-11.08Q44.4-31.44,47-37a114.278,114.278,0,0,1,5.32-10.12,47.34,47.34,0,0,1,5.16-7.28q2.44-2.72,4.28-2.72a2.317,2.317,0,0,1,2.2,1.76,9.706,9.706,0,0,1,.68,3.52,18.634,18.634,0,0,1-1,5.36,50.316,50.316,0,0,1-2.76,6.84,59.615,59.615,0,0,1-4.08,7.12,48.268,48.268,0,0,1-5.08,6.4,26.593,26.593,0,0,1-5.56,4.6,32.912,32.912,0,0,0-1.68,5.2,44.239,44.239,0,0,0-.92,5.24,41.944,41.944,0,0,0-.28,4.6q0,.72.04,1.32t.04,1.08q.88-2.32,2-5.04a54.617,54.617,0,0,1,2.56-5.36,31.3,31.3,0,0,1,3.2-4.8,16.126,16.126,0,0,1,3.84-3.48,8.48,8.48,0,0,1,4.64-1.32,5.613,5.613,0,0,1,3.76,1.16,6.9,6.9,0,0,1,2,2.84A9.588,9.588,0,0,1,66-16.64a13.888,13.888,0,0,1-.84,4.84q-.84,2.28-1.72,4.36a10.251,10.251,0,0,0-.88,4,3,3,0,0,0,.68,2.24,2.307,2.307,0,0,0,1.64.64A7.024,7.024,0,0,0,69-2.32,26.366,26.366,0,0,0,73.56-7a35.885,35.885,0,0,0,3.96-6.36l1.12,1.12a37.131,37.131,0,0,1-4.2,7.16A21.336,21.336,0,0,1,69.12.04a11.069,11.069,0,0,1-6.16,1.88A5.8,5.8,0,0,1,58.68.44,5.045,5.045,0,0,1,57.2-3.28a12.916,12.916,0,0,1,.64-3.76q.64-2.08,1.24-4.2a14.588,14.588,0,0,0,.6-3.96,3.794,3.794,0,0,0-.88-2.88,3.094,3.094,0,0,0-2.16-.8,5.034,5.034,0,0,0-3.6,1.56,15.348,15.348,0,0,0-2.88,4.08q-1.28,2.52-2.44,5.32T45.48-2.64a25.749,25.749,0,0,1-2.16,4.08A2.968,2.968,0,0,1,40.96,3.04Zm6.4-28.32a24.357,24.357,0,0,0,4.28-4.44,59.546,59.546,0,0,0,3.8-5.64q1.76-2.96,3.16-5.8a40.04,40.04,0,0,0,2.16-5.16,12.445,12.445,0,0,0,.76-3.44,1.17,1.17,0,0,0-.04-.4.627.627,0,0,0-.12-.16q-.56,0-2.24,2.12a56.885,56.885,0,0,0-3.84,5.68A88.6,88.6,0,0,0,51-34.48,75.822,75.822,0,0,0,47.36-25.28ZM84.64,3.52q-4.96,0-7.52-2.72a9.431,9.431,0,0,1-2.56-6.72,18.388,18.388,0,0,1,1.8-7.52,31.494,31.494,0,0,1,4.8-7.52,26.505,26.505,0,0,1,6.64-5.68,14.1,14.1,0,0,1,7.24-2.16,6.713,6.713,0,0,1,3.56,1q1.64,1,1.64,4.04a10.048,10.048,0,0,1-1.76,5.68,18.037,18.037,0,0,1-4.72,4.72,29.1,29.1,0,0,1-6.44,3.4,28.879,28.879,0,0,1-7,1.72A7.047,7.047,0,0,0,80.12-7q-.04.6-.04,1.24a11.881,11.881,0,0,0,.2,2.08,5.786,5.786,0,0,0,.88,2.16A4.938,4.938,0,0,0,83.08.16,7.072,7.072,0,0,0,86.32.8a13.574,13.574,0,0,0,6.8-1.92A26.428,26.428,0,0,0,99.4-6.2a32.147,32.147,0,0,0,4.92-7l1.2.88A29.987,29.987,0,0,1,100-3.96a25.833,25.833,0,0,1-7.32,5.52A17.951,17.951,0,0,1,84.64,3.52ZM80.88-10.24a23.621,23.621,0,0,0,4.8-1.92A35.027,35.027,0,0,0,90.8-15.4a18.787,18.787,0,0,0,4.08-4.16,8.168,8.168,0,0,0,1.6-4.76,2.051,2.051,0,0,0-.32-1.28,1.594,1.594,0,0,0-1.28-.4,7.292,7.292,0,0,0-3.96,1.4,19.411,19.411,0,0,0-4.08,3.72,35.215,35.215,0,0,0-3.56,5.08A24.518,24.518,0,0,0,80.88-10.24ZM116.8,2.08A6.38,6.38,0,0,1,112.36.6a4.978,4.978,0,0,1-1.64-3.88,12.62,12.62,0,0,1,1.12-5q1.12-2.6,2.2-5.16A11.942,11.942,0,0,0,115.12-18a4.574,4.574,0,0,0-1.36-3.56,18.532,18.532,0,0,0-2.96-2.2q-1.76,4.56-3.84,8.76T103.6-8.56l-.88-1.68q1.12-2.08,2.92-6.04t3.56-8.92a2.714,2.714,0,0,1-.8-2,5.957,5.957,0,0,1,1.32-3.92q1.32-1.6,2.12-1.6a1.05,1.05,0,0,1,1.16.84,6,6,0,0,1,.2,1.24,5.7,5.7,0,0,1-.4,1.52q-.4,1.12-.48,1.44a2.808,2.808,0,0,0,1.32,1.96q1.24.92,2.88,2.04a11.941,11.941,0,0,1,2.88,2.8,6.949,6.949,0,0,1,1.24,4.24,12.8,12.8,0,0,1-1,4.8q-1,2.48-2,4.64a9.329,9.329,0,0,0-1,3.84,1.9,1.9,0,0,0,.68,1.72,2.808,2.808,0,0,0,1.56.44,8,8,0,0,0,3.96-1.16,21.164,21.164,0,0,0,4-3,29.51,29.51,0,0,0,3.48-3.88,17.759,17.759,0,0,0,2.24-3.8L133.92-12a29.524,29.524,0,0,1-4.24,6.64A25.313,25.313,0,0,1,123.64,0,12.723,12.723,0,0,1,116.8,2.08Zm22.96,1.44q-4.96,0-7.52-2.72a9.431,9.431,0,0,1-2.56-6.72,18.388,18.388,0,0,1,1.8-7.52,31.494,31.494,0,0,1,4.8-7.52,26.505,26.505,0,0,1,6.64-5.68,14.1,14.1,0,0,1,7.24-2.16,6.713,6.713,0,0,1,3.56,1q1.64,1,1.64,4.04a10.048,10.048,0,0,1-1.76,5.68,18.036,18.036,0,0,1-4.72,4.72,29.1,29.1,0,0,1-6.44,3.4,28.879,28.879,0,0,1-7,1.72,7.045,7.045,0,0,0-.2,1.24q-.04.6-.04,1.24a11.879,11.879,0,0,0,.2,2.08,5.786,5.786,0,0,0,.88,2.16A4.938,4.938,0,0,0,138.2.16a7.072,7.072,0,0,0,3.24.64,13.574,13.574,0,0,0,6.8-1.92,26.428,26.428,0,0,0,6.28-5.08,32.147,32.147,0,0,0,4.92-7l1.2.88a29.987,29.987,0,0,1-5.52,8.36,25.833,25.833,0,0,1-7.32,5.52A17.951,17.951,0,0,1,139.76,3.52ZM136-10.24a23.621,23.621,0,0,0,4.8-1.92,35.027,35.027,0,0,0,5.12-3.24A18.787,18.787,0,0,0,150-19.56a8.168,8.168,0,0,0,1.6-4.76,2.051,2.051,0,0,0-.32-1.28A1.594,1.594,0,0,0,150-26a7.292,7.292,0,0,0-3.96,1.4,19.41,19.41,0,0,0-4.08,3.72,35.215,35.215,0,0,0-3.56,5.08A24.519,24.519,0,0,0,136-10.24Zm34.08-35.68a10.072,10.072,0,0,1-1.28-1.16,2.123,2.123,0,0,1-.64-1.48,4.8,4.8,0,0,1,1.16-2.68q1.16-1.56,2.4-3.28a12.109,12.109,0,0,0,1.72-3.16,2.167,2.167,0,0,1,1.6.76,2.436,2.436,0,0,1,.72,1.72,5.374,5.374,0,0,1-1,2.64q-1,1.6-2.32,3.36T170.08-45.92Zm6.08,50a10.275,10.275,0,0,1-6.12-1.64,9.052,9.052,0,0,1-3.24-4.08,13.343,13.343,0,0,1-.96-4.92,8.438,8.438,0,0,1,.64-3.68,4.652,4.652,0,0,1,1.56-1.88,9.345,9.345,0,0,1,1.76-.92,3.531,3.531,0,0,0,1.24-.72A52.871,52.871,0,0,0,175.32-19a37.45,37.45,0,0,0,3.56-6.12V-26a6.936,6.936,0,0,1,1.04-4.32,2.921,2.921,0,0,1,2.24-1.28,1.467,1.467,0,0,1,1.08.36,1.518,1.518,0,0,1,.44.84,4.725,4.725,0,0,1-.24,1.28,7.421,7.421,0,0,0-.24,2.08,17.178,17.178,0,0,0,1.08,5.64q1.08,3.08,2.16,6.48a23.245,23.245,0,0,1,1.08,7.08,15.465,15.465,0,0,1-.12,1.92q-.12.96-.28,1.76a11.994,11.994,0,0,0,5.12-2.6,20.024,20.024,0,0,0,4.72-6.44l.8.8a14.77,14.77,0,0,1-4.52,6.84,14.334,14.334,0,0,1-6.68,3.08,9.277,9.277,0,0,1-4.08,4.96A12.509,12.509,0,0,1,176.16,4.08Zm-.08-3.04A6.778,6.778,0,0,0,178.8.36a4.715,4.715,0,0,0,2.32-3,14.442,14.442,0,0,1-5.92-2.6,16.37,16.37,0,0,1-3.92-3.88q-1.6.08-1.6,2.56a8.887,8.887,0,0,0,1.68,5.2A5.431,5.431,0,0,0,176.08,1.04Zm5.52-5.28a12.8,12.8,0,0,0,.24-1.56q.08-.84.08-1.8a30.245,30.245,0,0,0-.92-7.36q-.92-3.68-1.64-7.04-1.68,2.8-3.68,5.6a36.986,36.986,0,0,1-3.84,4.64A16.291,16.291,0,0,0,175.6-7.2,13.526,13.526,0,0,0,181.6-4.24ZM242.24,1.6A6.03,6.03,0,0,1,237.8.12a5.144,5.144,0,0,1-1.48-3.8,11.131,11.131,0,0,1,.6-3.44q.6-1.84,1.16-3.76a13.135,13.135,0,0,0,.56-3.68,3.794,3.794,0,0,0-.88-2.88,3.093,3.093,0,0,0-2.16-.8,8.222,8.222,0,0,0-5.04,2,27.45,27.45,0,0,0-4.92,5.12Q223.28-8,221.2-4.72T217.52,1.2a7.14,7.14,0,0,1-2.6-.48,4.341,4.341,0,0,1-1.96-1.44,11.712,11.712,0,0,1,.84-2.48q.84-2.08,1.96-5.04a61.559,61.559,0,0,0,1.96-6.16,22.927,22.927,0,0,0,.84-5.76,4.514,4.514,0,0,1,1.56-1.2,4.886,4.886,0,0,1,2.28-.56q2.4,0,2.4,2.16a19.091,19.091,0,0,1-.6,3.8q-.6,2.6-1.56,5.64a57.851,57.851,0,0,1,4.72-6.12,28.93,28.93,0,0,1,5.56-4.96,10.365,10.365,0,0,1,5.8-1.96,5.254,5.254,0,0,1,4.76,2.28,9,9,0,0,1,1.48,5,12.6,12.6,0,0,1-.8,4.56q-.8,2.08-1.64,4a9.512,9.512,0,0,0-.84,3.84,2.855,2.855,0,0,0,.68,2.2,2.29,2.29,0,0,0,1.56.6,6.106,6.106,0,0,0,4.04-1.84,23.922,23.922,0,0,0,3.92-4.72,53.512,53.512,0,0,0,3.32-5.84l1.04,1.12a40.337,40.337,0,0,1-3.8,7A20.129,20.129,0,0,1,247.8-.24,9.216,9.216,0,0,1,242.24,1.6Zm16.64.96q-3.52,0-4.92-2.2a9.4,9.4,0,0,1-1.4-5.16,18.018,18.018,0,0,1,.8-5.16,22.662,22.662,0,0,1,2.16-5,13.969,13.969,0,0,1,3.04-3.72,5.262,5.262,0,0,1,3.36-1.4,4.445,4.445,0,0,1,1,.12,3.154,3.154,0,0,1,.92.36,15.72,15.72,0,0,0-1.8,2.6,32.218,32.218,0,0,0-1.88,3.84,33.123,33.123,0,0,0-1.44,4.24,14.6,14.6,0,0,0-.56,3.64,5.643,5.643,0,0,0,.76,3.24,2.447,2.447,0,0,0,2.12,1.08,6.633,6.633,0,0,0,3.84-1.8,32.207,32.207,0,0,0,4.4-4.36,12.833,12.833,0,0,1-3.52-4.92,16.571,16.571,0,0,1-1.2-6.36,12.374,12.374,0,0,1,.88-4.56,8.975,8.975,0,0,1,2.68-3.72,6.881,6.881,0,0,1,4.52-1.48q3.36,0,4.56,1.8a7.828,7.828,0,0,1,1.2,4.44,18.525,18.525,0,0,1-1.52,6.88,38.978,38.978,0,0,1-3.84,7.2,6.173,6.173,0,0,0,2.8.64,9.427,9.427,0,0,0,2.88-.52,10.232,10.232,0,0,0,3.2-1.8,8.869,8.869,0,0,0,2.56-3.52l1.12.88A11.064,11.064,0,0,1,281-6.6a11.513,11.513,0,0,1-5.64,1.64,9.784,9.784,0,0,1-2-.2,13.336,13.336,0,0,1-1.84-.52A29.919,29.919,0,0,1,265.44.16,11.318,11.318,0,0,1,258.88,2.56ZM270.96-9.36a40.189,40.189,0,0,0,3.28-6.16,15.557,15.557,0,0,0,1.36-6.08,6.025,6.025,0,0,0-.64-3.16,1.989,1.989,0,0,0-1.76-1q-1.52,0-3.2,2.28a9.383,9.383,0,0,0-1.68,5.72,16.488,16.488,0,0,0,.68,4.48A10.406,10.406,0,0,0,270.96-9.36Zm18.8,13.04a7.136,7.136,0,0,1-5.4-2.04Q282.4-.4,282.4-4.4a36.039,36.039,0,0,1,1.28-8.52,99.326,99.326,0,0,1,3.28-10.44q-.72-.16-1.44-.28a9.476,9.476,0,0,1-1.44-.36v-1.76l1.76.16q.88.08,1.92.16,1.68-4.32,3.6-8.32t3.84-7.16a30.88,30.88,0,0,1,3.64-5q1.72-1.84,3-1.84a1.966,1.966,0,0,1,1.24.48,1.733,1.733,0,0,1,.6,1.44A10.919,10.919,0,0,1,302-41.36q-1.68,3.04-4.12,7.2t-4.76,8.96h2.8q2.96,0,5.84-.08t5.84-.4v1.84q-4.4.4-7.92.64t-6.48.32h-1.12a73.695,73.695,0,0,0-3.04,8.44,30.165,30.165,0,0,0-1.28,8.52q0,3.36,1.04,4.8A3.862,3.862,0,0,0,292.16.32q4.16,0,8.2-3.64a32.7,32.7,0,0,0,7.16-9.96l1.04.8a36.389,36.389,0,0,1-4.96,8.24,24.508,24.508,0,0,1-6.52,5.8A14.133,14.133,0,0,1,289.76,3.68Zm21.92-1.52a5.873,5.873,0,0,1-4.88-2,7.445,7.445,0,0,1-1.6-4.8,20.418,20.418,0,0,1,.68-4.64,55.8,55.8,0,0,1,1.8-5.88,42.511,42.511,0,0,1,2.6-5.8,19.242,19.242,0,0,1,3.2-4.44,4.926,4.926,0,0,1,3.4-1.72,2.019,2.019,0,0,1,1.36.48,1.793,1.793,0,0,1,.56,1.44,7.61,7.61,0,0,1-1.24,3.12q-1.24,2.16-2.88,4.92a43.485,43.485,0,0,0-2.88,5.8,15.269,15.269,0,0,0-1.24,5.76q0,2.8.92,3.72a3.87,3.87,0,0,0,2.84.92q2.72,0,5.84-2.72t6.56-9.52l.88.96A24.982,24.982,0,0,1,320.8-1.6,13.723,13.723,0,0,1,311.68,2.16Zm9.52-36.4a4.483,4.483,0,0,1-2.44-.68,2.326,2.326,0,0,1-1.08-2.12,3.637,3.637,0,0,1,2-3.04,7.372,7.372,0,0,1,4-1.28,3.744,3.744,0,0,1,2.12.56,2.321,2.321,0,0,1,.84,2.08,4.093,4.093,0,0,1-1.72,3A5.6,5.6,0,0,1,321.2-34.24ZM351.28,1.6A6.03,6.03,0,0,1,346.84.12a5.144,5.144,0,0,1-1.48-3.8,11.131,11.131,0,0,1,.6-3.44q.6-1.84,1.16-3.76a13.136,13.136,0,0,0,.56-3.68,3.794,3.794,0,0,0-.88-2.88,3.094,3.094,0,0,0-2.16-.8,8.222,8.222,0,0,0-5.04,2,27.45,27.45,0,0,0-4.92,5.12q-2.36,3.12-4.44,6.4T326.56,1.2a7.139,7.139,0,0,1-2.6-.48A4.341,4.341,0,0,1,322-.72a11.712,11.712,0,0,1,.84-2.48q.84-2.08,1.96-5.04a61.559,61.559,0,0,0,1.96-6.16,22.927,22.927,0,0,0,.84-5.76,4.514,4.514,0,0,1,1.56-1.2,4.886,4.886,0,0,1,2.28-.56q2.4,0,2.4,2.16a19.092,19.092,0,0,1-.6,3.8q-.6,2.6-1.56,5.64a57.851,57.851,0,0,1,4.72-6.12,28.93,28.93,0,0,1,5.56-4.96,10.365,10.365,0,0,1,5.8-1.96,5.254,5.254,0,0,1,4.76,2.28,9,9,0,0,1,1.48,5,12.6,12.6,0,0,1-.8,4.56q-.8,2.08-1.64,4a9.512,9.512,0,0,0-.84,3.84,2.855,2.855,0,0,0,.68,2.2,2.29,2.29,0,0,0,1.56.6A6.106,6.106,0,0,0,357-2.72a23.921,23.921,0,0,0,3.92-4.72,53.509,53.509,0,0,0,3.32-5.84l1.04,1.12a40.336,40.336,0,0,1-3.8,7,20.128,20.128,0,0,1-4.64,4.92A9.216,9.216,0,0,1,351.28,1.6Zm14.56,20.8a5.535,5.535,0,0,1-3.36-1.12,4.268,4.268,0,0,1-1.52-3.68,7.521,7.521,0,0,1,1.48-4.52,17.186,17.186,0,0,1,3.84-3.76,40.416,40.416,0,0,1,5.12-3.16q2.76-1.44,5.32-2.72,1.04-2.56,1.96-5.56t1.8-6.52a37.762,37.762,0,0,1-6.2,6.8A10.148,10.148,0,0,1,367.76.88a5.488,5.488,0,0,1-4.68-2.2,9.326,9.326,0,0,1-1.64-5.72,16.374,16.374,0,0,1,2.04-7.92,23.7,23.7,0,0,1,5.36-6.64,27.931,27.931,0,0,1,7.04-4.52,17.562,17.562,0,0,1,7.08-1.64,5.927,5.927,0,0,1,3.48.8,2.34,2.34,0,0,1,1.08,1.92,1.677,1.677,0,0,1-.44,1.24,3.286,3.286,0,0,1-.6.52,2.93,2.93,0,0,0-1.36-1,6.123,6.123,0,0,0-2-.28,11.181,11.181,0,0,0-6.04,1.84,19.808,19.808,0,0,0-5.12,4.68,27.472,27.472,0,0,0-3.52,5.88,14.03,14.03,0,0,0-1.32,5.52,4.26,4.26,0,0,0,.76,2.76,2.426,2.426,0,0,0,1.96.92q2.24,0,5.48-3a46.024,46.024,0,0,0,6.28-7.32q.16-.96.36-1.72t.44-1.88a9.924,9.924,0,0,1,1.4-3.28,3.352,3.352,0,0,1,3-1.52,4.7,4.7,0,0,1,.84.08q.44.08,1,.24a25.339,25.339,0,0,1-.76,4.64q-.76,3.36-2.16,7.84T382.56.32a28.037,28.037,0,0,0,5.12-3.16,26.1,26.1,0,0,0,4.64-4.6,22.043,22.043,0,0,0,3.28-5.76l1.2,1.04a20.147,20.147,0,0,1-3.92,6.6A33.157,33.157,0,0,1,387.2-.4a36.9,36.9,0,0,1-5.6,3.36,79.2,79.2,0,0,1-4.68,9.76,31.773,31.773,0,0,1-5.24,7.04A8.288,8.288,0,0,1,365.84,22.4Zm-.24-2.96q1.52,0,4.2-3t5.8-10.28a62.225,62.225,0,0,0-5.8,3.2,20.879,20.879,0,0,0-4.36,3.52,5.826,5.826,0,0,0-1.68,4,3.029,3.029,0,0,0,.52,1.88A1.6,1.6,0,0,0,365.6,19.44Zm56.96-13.6q-4.32,0-6.44-2.76A11.984,11.984,0,0,1,414-4.4a39.249,39.249,0,0,1,1.36-9.4,105.994,105.994,0,0,1,3.6-11.36q2.24-5.96,5-11.6T429.52-47a48.162,48.162,0,0,1,5.32-7.36q2.52-2.76,4.2-2.76a2.267,2.267,0,0,1,2.12,1.72,9.4,9.4,0,0,1,.68,3.48,19.5,19.5,0,0,1-.96,5.44,46.613,46.613,0,0,1-2.72,6.84,62.258,62.258,0,0,1-4.08,7.16,46.8,46.8,0,0,1-5.04,6.4,26.318,26.318,0,0,1-5.52,4.56,21.807,21.807,0,0,0-1.44,3.64,56.75,56.75,0,0,0-1.6,6.16,33.7,33.7,0,0,0-.72,6.84,13.494,13.494,0,0,0,.96,5.4,3.4,3.4,0,0,0,3.36,2.2A7.679,7.679,0,0,0,428.76.8,14.824,14.824,0,0,0,432.72-4a9.935,9.935,0,0,1-4.44-4.44,13.047,13.047,0,0,1-1.48-5.96,9.145,9.145,0,0,1,2.04-6.2,6.285,6.285,0,0,1,4.92-2.36,4.562,4.562,0,0,1,3.84,1.92,9.39,9.39,0,0,1,1.44,5.68,21.738,21.738,0,0,1-.68,5.28,27.628,27.628,0,0,1-1.96,5.36,5.136,5.136,0,0,1,.92.08,5.136,5.136,0,0,0,.92.08A7.951,7.951,0,0,0,443.08-6a13.144,13.144,0,0,0,3.28-3.48,34.981,34.981,0,0,0,2.2-3.88l1.04,1.28q-2.16,5.28-5.2,7.28a11.839,11.839,0,0,1-6.64,2q-.56,0-1.12-.04t-1.12-.12a23.654,23.654,0,0,1-5.44,6.24A11.678,11.678,0,0,1,422.56,5.84ZM433.68-5.92A16.382,16.382,0,0,0,435-9.6a17.854,17.854,0,0,0,.44-4,9.875,9.875,0,0,0-.76-4.32q-.76-1.52-1.8-1.52-1.12,0-2,1.56A7.8,7.8,0,0,0,430-14a13.079,13.079,0,0,0,.84,4.36A7.354,7.354,0,0,0,433.68-5.92Zm-9.12-19.36a26.672,26.672,0,0,0,4.2-4.4,64.054,64.054,0,0,0,3.84-5.56A62.151,62.151,0,0,0,435.76-41a49.39,49.39,0,0,0,2.16-5.16,15.009,15.009,0,0,0,.88-3.52.853.853,0,0,0-.08-.44,1.313,1.313,0,0,0-.16-.2q-.64.08-2.4,2.32a55.784,55.784,0,0,0-3.92,5.88q-2.16,3.64-4.24,8.04A66.629,66.629,0,0,0,424.56-25.28ZM455.6,3.52q-4.96,0-7.52-2.72a9.431,9.431,0,0,1-2.56-6.72,18.388,18.388,0,0,1,1.8-7.52,31.493,31.493,0,0,1,4.8-7.52,26.505,26.505,0,0,1,6.64-5.68A14.1,14.1,0,0,1,466-28.8a6.713,6.713,0,0,1,3.56,1q1.64,1,1.64,4.04a10.048,10.048,0,0,1-1.76,5.68,18.037,18.037,0,0,1-4.72,4.72,29.1,29.1,0,0,1-6.44,3.4,28.879,28.879,0,0,1-7,1.72,7.048,7.048,0,0,0-.2,1.24q-.04.6-.04,1.24a11.882,11.882,0,0,0,.2,2.08,5.786,5.786,0,0,0,.88,2.16A4.938,4.938,0,0,0,454.04.16a7.072,7.072,0,0,0,3.24.64,13.574,13.574,0,0,0,6.8-1.92,26.428,26.428,0,0,0,6.28-5.08,32.148,32.148,0,0,0,4.92-7l1.2.88a29.987,29.987,0,0,1-5.52,8.36,25.833,25.833,0,0,1-7.32,5.52A17.951,17.951,0,0,1,455.6,3.52Zm-3.76-13.76a23.621,23.621,0,0,0,4.8-1.92,35.029,35.029,0,0,0,5.12-3.24,18.788,18.788,0,0,0,4.08-4.16,8.168,8.168,0,0,0,1.6-4.76,2.051,2.051,0,0,0-.32-1.28,1.594,1.594,0,0,0-1.28-.4,7.292,7.292,0,0,0-3.96,1.4,19.411,19.411,0,0,0-4.08,3.72,35.216,35.216,0,0,0-3.56,5.08A24.52,24.52,0,0,0,451.84-10.24ZM480.56,3.68a7.136,7.136,0,0,1-5.4-2.04Q473.2-.4,473.2-4.4a36.039,36.039,0,0,1,1.28-8.52,99.326,99.326,0,0,1,3.28-10.44q-.72-.16-1.44-.28a9.476,9.476,0,0,1-1.44-.36v-1.76l1.76.16q.88.08,1.92.16,1.68-4.32,3.6-8.32T486-40.92a30.88,30.88,0,0,1,3.64-5q1.72-1.84,3-1.84a1.966,1.966,0,0,1,1.24.48,1.733,1.733,0,0,1,.6,1.44,10.919,10.919,0,0,1-1.68,4.48q-1.68,3.04-4.12,7.2t-4.76,8.96h2.8q2.96,0,5.84-.08t5.84-.4v1.84q-4.4.4-7.92.64t-6.48.32h-1.12a73.695,73.695,0,0,0-3.04,8.44,30.165,30.165,0,0,0-1.28,8.52q0,3.36,1.04,4.8A3.862,3.862,0,0,0,482.96.32q4.16,0,8.2-3.64a32.7,32.7,0,0,0,7.16-9.96l1.04.8a36.389,36.389,0,0,1-4.96,8.24,24.508,24.508,0,0,1-6.52,5.8A14.133,14.133,0,0,1,480.56,3.68Zm22.88,0a7.136,7.136,0,0,1-5.4-2.04Q496.08-.4,496.08-4.4a36.039,36.039,0,0,1,1.28-8.52,99.326,99.326,0,0,1,3.28-10.44q-.72-.16-1.44-.28a9.476,9.476,0,0,1-1.44-.36v-1.76l1.76.16q.88.08,1.92.16,1.68-4.32,3.6-8.32t3.84-7.16a30.882,30.882,0,0,1,3.64-5q1.72-1.84,3-1.84a1.966,1.966,0,0,1,1.24.48,1.733,1.733,0,0,1,.6,1.44,10.919,10.919,0,0,1-1.68,4.48q-1.68,3.04-4.12,7.2T506.8-25.2h2.8q2.96,0,5.84-.08t5.84-.4v1.84q-4.4.4-7.92.64t-6.48.32h-1.12a73.695,73.695,0,0,0-3.04,8.44,30.165,30.165,0,0,0-1.28,8.52q0,3.36,1.04,4.8A3.862,3.862,0,0,0,505.84.32q4.16,0,8.2-3.64a32.7,32.7,0,0,0,7.16-9.96l1.04.8a36.389,36.389,0,0,1-4.96,8.24,24.508,24.508,0,0,1-6.52,5.8A14.133,14.133,0,0,1,503.44,3.68Zm24.8-.16q-4.96,0-7.52-2.72a9.431,9.431,0,0,1-2.56-6.72,18.388,18.388,0,0,1,1.8-7.52,31.494,31.494,0,0,1,4.8-7.52,26.506,26.506,0,0,1,6.64-5.68,14.1,14.1,0,0,1,7.24-2.16,6.713,6.713,0,0,1,3.56,1q1.64,1,1.64,4.04a10.048,10.048,0,0,1-1.76,5.68,18.036,18.036,0,0,1-4.72,4.72,29.1,29.1,0,0,1-6.44,3.4,28.879,28.879,0,0,1-7,1.72,7.051,7.051,0,0,0-.2,1.24q-.04.6-.04,1.24a11.879,11.879,0,0,0,.2,2.08,5.785,5.785,0,0,0,.88,2.16A4.938,4.938,0,0,0,526.68.16a7.072,7.072,0,0,0,3.24.64,13.574,13.574,0,0,0,6.8-1.92A26.429,26.429,0,0,0,543-6.2a32.147,32.147,0,0,0,4.92-7l1.2.88a29.987,29.987,0,0,1-5.52,8.36,25.833,25.833,0,0,1-7.32,5.52A17.951,17.951,0,0,1,528.24,3.52Zm-3.76-13.76a23.62,23.62,0,0,0,4.8-1.92,35.026,35.026,0,0,0,5.12-3.24,18.786,18.786,0,0,0,4.08-4.16,8.168,8.168,0,0,0,1.6-4.76,2.051,2.051,0,0,0-.32-1.28,1.594,1.594,0,0,0-1.28-.4,7.293,7.293,0,0,0-3.96,1.4,19.41,19.41,0,0,0-4.08,3.72,35.212,35.212,0,0,0-3.56,5.08A24.516,24.516,0,0,0,524.48-10.24ZM560.4,2.08A6.38,6.38,0,0,1,555.96.6a4.978,4.978,0,0,1-1.64-3.88,12.621,12.621,0,0,1,1.12-5q1.12-2.6,2.2-5.16A11.942,11.942,0,0,0,558.72-18a4.574,4.574,0,0,0-1.36-3.56,18.53,18.53,0,0,0-2.96-2.2q-1.76,4.56-3.84,8.76T547.2-8.56l-.88-1.68q1.12-2.08,2.92-6.04t3.56-8.92a2.714,2.714,0,0,1-.8-2,5.957,5.957,0,0,1,1.32-3.92q1.32-1.6,2.12-1.6a1.05,1.05,0,0,1,1.16.84,5.994,5.994,0,0,1,.2,1.24,5.705,5.705,0,0,1-.4,1.52q-.4,1.12-.48,1.44a2.808,2.808,0,0,0,1.32,1.96q1.24.92,2.88,2.04a11.941,11.941,0,0,1,2.88,2.8,6.949,6.949,0,0,1,1.24,4.24,12.8,12.8,0,0,1-1,4.8q-1,2.48-2,4.64a9.329,9.329,0,0,0-1,3.84,1.9,1.9,0,0,0,.68,1.72,2.808,2.808,0,0,0,1.56.44,8,8,0,0,0,3.96-1.16,21.166,21.166,0,0,0,4-3,29.513,29.513,0,0,0,3.48-3.88,17.757,17.757,0,0,0,2.24-3.8L577.52-12a29.524,29.524,0,0,1-4.24,6.64A25.312,25.312,0,0,1,567.24,0,12.723,12.723,0,0,1,560.4,2.08Zm41.92,1.6a7.242,7.242,0,0,1-5.48-2.04Q594.88-.4,594.88-4.4a28.861,28.861,0,0,1,.68-5.64q.68-3.32,1.8-7.08t2.48-7.28q-.8-.24-1.48-.52t-1.4-.6v-1.76a7.6,7.6,0,0,1,1.72.36,11.474,11.474,0,0,0,1.88.44,100.887,100.887,0,0,1,4.8-10.6,52.963,52.963,0,0,1,4.88-7.8q2.32-2.96,4-2.96a1.971,1.971,0,0,1,1.32.52,1.758,1.758,0,0,1,.6,1.4,7.234,7.234,0,0,1-.76,2.52q-.76,1.72-2,3.96t-2.64,4.72q-1.4,2.48-2.8,4.92a50.64,50.64,0,0,0-2.36,4.6q2,.32,3.84.56a29.044,29.044,0,0,0,3.76.24,36.939,36.939,0,0,0,4.72-.32q2.48-.32,5.6-.96,2.08-5.68,4.72-11.28t5.32-10.16a43.948,43.948,0,0,1,5.16-7.28q2.48-2.72,4.32-2.72a2.344,2.344,0,0,1,2.16,1.76,9.234,9.234,0,0,1,.72,3.52,19.415,19.415,0,0,1-1.4,6.52,46.426,46.426,0,0,1-3.8,7.8,47.468,47.468,0,0,1-5.6,7.52,30.321,30.321,0,0,1-6.8,5.68,41.563,41.563,0,0,0-2.12,6.64,65.432,65.432,0,0,0-1.36,7.56,29.182,29.182,0,0,0-.2,6.12,77.125,77.125,0,0,1,4.32-9.92,27.423,27.423,0,0,1,5.4-7.36,9.393,9.393,0,0,1,6.52-2.8,5.373,5.373,0,0,1,4.88,2.36,9.209,9.209,0,0,1,1.52,5.08,13.769,13.769,0,0,1-.84,4.72q-.84,2.32-1.72,4.48a10.833,10.833,0,0,0-.88,4.08,3.019,3.019,0,0,0,.68,2.2,2.235,2.235,0,0,0,1.64.68,6.943,6.943,0,0,0,4.12-1.8A27.671,27.671,0,0,0,654.84-7a29.972,29.972,0,0,0,3.8-6.36l1.2,1.12a32.674,32.674,0,0,1-4.12,7.2A21.3,21.3,0,0,1,650.36.04a11.135,11.135,0,0,1-6.12,1.88A5.8,5.8,0,0,1,639.96.44a5.045,5.045,0,0,1-1.48-3.72A12.529,12.529,0,0,1,639.12-7q.64-2.04,1.2-4.16a15.823,15.823,0,0,0,.56-4.04,3.929,3.929,0,0,0-.84-2.84,2.874,2.874,0,0,0-2.12-.84,4.893,4.893,0,0,0-3.52,1.6,17.054,17.054,0,0,0-2.92,4.08,53.583,53.583,0,0,0-2.44,5.28q-1.12,2.8-2.2,5.32a23.581,23.581,0,0,1-2.16,4.08,2.935,2.935,0,0,1-2.28,1.56,2.076,2.076,0,0,1-1.68-.96,8.151,8.151,0,0,1-1.2-2.6,14.971,14.971,0,0,1-.56-3.6A31.3,31.3,0,0,1,619.04-8,28.4,28.4,0,0,1,611.6.4,15.284,15.284,0,0,1,602.32,3.68ZM604.64.4q4.16,0,8.16-3.64a32.281,32.281,0,0,0,7.04-9.88q.48-2.56,1.08-4.88t1.56-5.12a43.471,43.471,0,0,1-4.96.8q-2.4.24-4.56.24a36.645,36.645,0,0,1-4.28-.24q-2.04-.24-4.12-.64a65.867,65.867,0,0,0-3.08,8.48,30.914,30.914,0,0,0-1.24,8.56,8.914,8.914,0,0,0,1,4.84A3.8,3.8,0,0,0,604.64.4ZM629.6-28.08a31.059,31.059,0,0,0,4.92-5.12,57.186,57.186,0,0,0,4.08-6.04A44.521,44.521,0,0,0,641.48-45a16.74,16.74,0,0,0,1.24-4.28q.08-.8-.16-.96-.56,0-2.12,1.72a38.6,38.6,0,0,0-3.52,4.72,65.724,65.724,0,0,0-3.92,7A58.763,58.763,0,0,0,629.6-28.08ZM661.12,3.76a6.159,6.159,0,0,1-4.36-1.68,6.683,6.683,0,0,1-1.8-5.12,17.129,17.129,0,0,1,1.28-6.12,31.447,31.447,0,0,1,3.52-6.56,35.781,35.781,0,0,1,5.08-5.88,25.858,25.858,0,0,1,6.04-4.24,14.2,14.2,0,0,1,6.4-1.6,8.636,8.636,0,0,1,5.4,1.68,5.354,5.354,0,0,1,2.2,4.48,3.073,3.073,0,0,1-1.24,2.8,5.142,5.142,0,0,1-3.08.72q.16-.72.28-1.44a8.743,8.743,0,0,0,.12-1.44,5.825,5.825,0,0,0-.8-3.08,3.175,3.175,0,0,0-2.96-1.32,8.162,8.162,0,0,0-4.56,1.56,21.175,21.175,0,0,0-4.44,4.12,37.155,37.155,0,0,0-3.8,5.56,34.226,34.226,0,0,0-2.64,5.88,16.626,16.626,0,0,0-.96,5.2q0,2.96,2,2.96a6.7,6.7,0,0,0,4.04-1.76,33.284,33.284,0,0,0,4.48-4.44q2.28-2.68,4.36-5.56t3.68-5.12q.24-.48.48-.48.4.08,1.2.32a4.564,4.564,0,0,1,1.44.72,1.448,1.448,0,0,1,.64,1.2,4.487,4.487,0,0,1-.68,1.96q-.68,1.24-1.6,2.8a27.037,27.037,0,0,0-1.6,3.16A7.62,7.62,0,0,0,678.56-4a4.627,4.627,0,0,0,.6,2.28,2.07,2.07,0,0,0,1.96,1.08q2.08,0,5.6-3.08a35.886,35.886,0,0,0,7.12-9.56l1.04,1.04a30.945,30.945,0,0,1-4.4,7.64A22,22,0,0,1,684.84.56a11.335,11.335,0,0,1-5.96,1.84A5.4,5.4,0,0,1,674.36.52a6.41,6.41,0,0,1-1.48-4.04q0-.4.04-.8t.12-.88a39.932,39.932,0,0,1-6.16,6.68A9.053,9.053,0,0,1,661.12,3.76ZM718.4,1.6A6.03,6.03,0,0,1,713.96.12a5.144,5.144,0,0,1-1.48-3.8,11.132,11.132,0,0,1,.6-3.44q.6-1.84,1.16-3.76a13.134,13.134,0,0,0,.56-3.68,3.794,3.794,0,0,0-.88-2.88,3.094,3.094,0,0,0-2.16-.8,8.222,8.222,0,0,0-5.04,2,27.449,27.449,0,0,0-4.92,5.12q-2.36,3.12-4.44,6.4T693.68,1.2a7.14,7.14,0,0,1-2.6-.48,4.341,4.341,0,0,1-1.96-1.44,11.711,11.711,0,0,1,.84-2.48q.84-2.08,1.96-5.04a61.566,61.566,0,0,0,1.96-6.16,22.927,22.927,0,0,0,.84-5.76,4.514,4.514,0,0,1,1.56-1.2,4.886,4.886,0,0,1,2.28-.56q2.4,0,2.4,2.16a19.094,19.094,0,0,1-.6,3.8q-.6,2.6-1.56,5.64a57.847,57.847,0,0,1,4.72-6.12,28.931,28.931,0,0,1,5.56-4.96,10.365,10.365,0,0,1,5.8-1.96,5.253,5.253,0,0,1,4.76,2.28,9,9,0,0,1,1.48,5,12.6,12.6,0,0,1-.8,4.56q-.8,2.08-1.64,4a9.512,9.512,0,0,0-.84,3.84,2.855,2.855,0,0,0,.68,2.2,2.29,2.29,0,0,0,1.56.6,6.106,6.106,0,0,0,4.04-1.84,23.923,23.923,0,0,0,3.92-4.72,53.509,53.509,0,0,0,3.32-5.84l1.04,1.12a40.336,40.336,0,0,1-3.8,7,20.129,20.129,0,0,1-4.64,4.92A9.216,9.216,0,0,1,718.4,1.6Zm40.72,2.88a8.916,8.916,0,0,1-6.52-2.56Q750-.64,750-5.84a20.825,20.825,0,0,1,1.52-7.8,24.286,24.286,0,0,1,4.08-6.8,21.519,21.519,0,0,1,5.72-4.8,12.607,12.607,0,0,1,6.28-1.8q3.28,0,4.56,1.84a6.862,6.862,0,0,1,1.28,4,8.126,8.126,0,0,1-1.08,4.12,3.269,3.269,0,0,1-2.92,1.88,2.83,2.83,0,0,1-2.32-1.28,5.728,5.728,0,0,0,1.92-2.44,8.542,8.542,0,0,0,.88-3.8,2.082,2.082,0,0,0-.36-1.28,1.558,1.558,0,0,0-1.32-.48,6.988,6.988,0,0,0-4.36,1.88,21.038,21.038,0,0,0-4.2,4.84,30.642,30.642,0,0,0-3.12,6.28,18.12,18.12,0,0,0-1.2,6.12,8.83,8.83,0,0,0,1.16,4.44q1.16,2.04,4.6,2.04a13.492,13.492,0,0,0,6.4-1.76,21.55,21.55,0,0,0,6.08-5,26.778,26.778,0,0,0,4.56-7.64l1.2.96a28.605,28.605,0,0,1-5.12,8.68,26.321,26.321,0,0,1-7.2,5.96A16.257,16.257,0,0,1,759.12,4.48Zm21.44-.72a6.159,6.159,0,0,1-4.36-1.68,6.683,6.683,0,0,1-1.8-5.12,17.129,17.129,0,0,1,1.28-6.12,31.447,31.447,0,0,1,3.52-6.56,35.781,35.781,0,0,1,5.08-5.88,25.858,25.858,0,0,1,6.04-4.24,14.2,14.2,0,0,1,6.4-1.6,8.636,8.636,0,0,1,5.4,1.68,5.354,5.354,0,0,1,2.2,4.48,3.073,3.073,0,0,1-1.24,2.8,5.142,5.142,0,0,1-3.08.72q.16-.72.28-1.44a8.743,8.743,0,0,0,.12-1.44,5.825,5.825,0,0,0-.8-3.08,3.175,3.175,0,0,0-2.96-1.32,8.162,8.162,0,0,0-4.56,1.56,21.178,21.178,0,0,0-4.44,4.12,37.155,37.155,0,0,0-3.8,5.56,34.226,34.226,0,0,0-2.64,5.88,16.626,16.626,0,0,0-.96,5.2q0,2.96,2,2.96a6.7,6.7,0,0,0,4.04-1.76,33.284,33.284,0,0,0,4.48-4.44q2.28-2.68,4.36-5.56t3.68-5.12q.24-.48.48-.48.4.08,1.2.32a4.564,4.564,0,0,1,1.44.72,1.448,1.448,0,0,1,.64,1.2,4.487,4.487,0,0,1-.68,1.96q-.68,1.24-1.6,2.8a27.037,27.037,0,0,0-1.6,3.16A7.62,7.62,0,0,0,798-4a4.627,4.627,0,0,0,.6,2.28,2.07,2.07,0,0,0,1.96,1.08q2.08,0,5.6-3.08a35.886,35.886,0,0,0,7.12-9.56l1.04,1.04a30.945,30.945,0,0,1-4.4,7.64A22,22,0,0,1,804.28.56a11.335,11.335,0,0,1-5.96,1.84A5.4,5.4,0,0,1,793.8.52a6.41,6.41,0,0,1-1.48-4.04q0-.4.04-.8t.12-.88a39.932,39.932,0,0,1-6.16,6.68A9.053,9.053,0,0,1,780.56,3.76Zm55.36-.72a5.678,5.678,0,0,1-4-1.56,11.331,11.331,0,0,1-2.68-3.88,23.255,23.255,0,0,1-1.48-4.8,23.149,23.149,0,0,1-.48-4.32,16.586,16.586,0,0,0,2.64-.52,16.442,16.442,0,0,0,3.44-1.36,9.865,9.865,0,0,0,2.96-2.32,4.936,4.936,0,0,0,1.2-3.32,3.136,3.136,0,0,0-1.08-2.52,4.107,4.107,0,0,0-2.76-.92,7.1,7.1,0,0,0-4.48,1.64,17.635,17.635,0,0,0-3.8,4.28,45.778,45.778,0,0,0-3.12,5.64q-1.4,3-2.4,5.76t-1.64,4.6a5.224,5.224,0,0,1-1.48,2.4,3.143,3.143,0,0,1-1.96.64,2.091,2.091,0,0,1-1.76-.84,5.626,5.626,0,0,1-.92-2.44,22.08,22.08,0,0,1-.28-3.76,42.4,42.4,0,0,1,1.36-9.96A94.45,94.45,0,0,1,816.84-26q2.28-5.92,5-11.44t5.48-10a48.693,48.693,0,0,1,5.12-7.08q2.36-2.6,3.88-2.6,1.2,0,1.96,1.56a8.826,8.826,0,0,1,.76,3.88,18.276,18.276,0,0,1-1.2,6.08,33.728,33.728,0,0,1-3.4,6.8,38.49,38.49,0,0,1-5.24,6.48,35.59,35.59,0,0,1-6.56,5.2,66.752,66.752,0,0,0-3.84,11.8,51.777,51.777,0,0,0-1.36,9.88q1.36-3.28,3.16-6.96a57.568,57.568,0,0,1,4.08-7.04,24.3,24.3,0,0,1,4.96-5.48,8.962,8.962,0,0,1,5.64-2.12,7.221,7.221,0,0,1,5.24,2.16,7.025,7.025,0,0,1,2.2,5.2,7,7,0,0,1-1.32,4.32,11,11,0,0,1-3.2,2.88,15.355,15.355,0,0,1-3.76,1.64,16.013,16.013,0,0,1-3.16.6q.16.72.56,2.4A19.718,19.718,0,0,0,833-4.44a11.013,11.013,0,0,0,1.88,2.96A3.531,3.531,0,0,0,837.6-.24a6.615,6.615,0,0,0,4.28-1.8,21.615,21.615,0,0,0,4.04-4.76,45.589,45.589,0,0,0,3.52-6.64l.88.96a28.455,28.455,0,0,1-3.52,7.52A24.206,24.206,0,0,1,841.64.8,9.212,9.212,0,0,1,835.92,3.04Zm-11.6-34.16a35.564,35.564,0,0,0,5.76-6.04,38.768,38.768,0,0,0,4.24-6.88,14.056,14.056,0,0,0,1.6-5.72v-.36q0-.12-.16-.2-.8.16-2.68,2.84a70.765,70.765,0,0,0-4.2,7Q826.56-36.16,824.32-31.12ZM856.56,3.52q-4.96,0-7.52-2.72a9.431,9.431,0,0,1-2.56-6.72,18.388,18.388,0,0,1,1.8-7.52,31.494,31.494,0,0,1,4.8-7.52,26.506,26.506,0,0,1,6.64-5.68,14.1,14.1,0,0,1,7.24-2.16,6.713,6.713,0,0,1,3.56,1q1.64,1,1.64,4.04a10.049,10.049,0,0,1-1.76,5.68,18.037,18.037,0,0,1-4.72,4.72,29.1,29.1,0,0,1-6.44,3.4,28.879,28.879,0,0,1-7,1.72,7.051,7.051,0,0,0-.2,1.24q-.04.6-.04,1.24a11.879,11.879,0,0,0,.2,2.08,5.785,5.785,0,0,0,.88,2.16A4.938,4.938,0,0,0,855,.16a7.072,7.072,0,0,0,3.24.64,13.574,13.574,0,0,0,6.8-1.92,26.429,26.429,0,0,0,6.28-5.08,32.147,32.147,0,0,0,4.92-7l1.2.88a29.987,29.987,0,0,1-5.52,8.36,25.833,25.833,0,0,1-7.32,5.52A17.951,17.951,0,0,1,856.56,3.52ZM852.8-10.24a23.62,23.62,0,0,0,4.8-1.92,35.026,35.026,0,0,0,5.12-3.24,18.786,18.786,0,0,0,4.08-4.16,8.168,8.168,0,0,0,1.6-4.76,2.051,2.051,0,0,0-.32-1.28,1.594,1.594,0,0,0-1.28-.4,7.292,7.292,0,0,0-3.96,1.4,19.41,19.41,0,0,0-4.08,3.72,35.212,35.212,0,0,0-3.56,5.08A24.516,24.516,0,0,0,852.8-10.24Z" transform="translate(-5.111 58.18)" fill="none" stroke="#9a7141" stroke-width="1"/>
</svg>
