<svg xmlns="http://www.w3.org/2000/svg" width="782.208" height="81" viewBox="0 0 782.208 81">
  <path id="Path_3704" data-name="Path 3704" d="M15.2,6.96a17.361,17.361,0,0,1-8.56-2A14.346,14.346,0,0,1,1.08-.4,14.346,14.346,0,0,1-.88-7.76,17.426,17.426,0,0,1,.68-14.88a21.818,21.818,0,0,1,4.36-6.4,24.788,24.788,0,0,1,6.56-4.8,23.26,23.26,0,0,1,8.08-2.4,16.064,16.064,0,0,1-4.48-5.84,16.2,16.2,0,0,1-1.44-6.56,16.48,16.48,0,0,1,2.12-8.08,16.7,16.7,0,0,1,5.92-6.2,16.111,16.111,0,0,1,8.68-2.36q4.64,0,7.08,2.28A8.488,8.488,0,0,1,40-48.72a16.089,16.089,0,0,1-1.08,5.84,15.4,15.4,0,0,1-2.6,4.56,4.1,4.1,0,0,1-2.88,1.76,2.654,2.654,0,0,1-1.84-.84,7.033,7.033,0,0,1-1.44-1.96A27.378,27.378,0,0,0,35-44.52a9.863,9.863,0,0,0,1.96-5.8,4.826,4.826,0,0,0-1.48-3.8,6.1,6.1,0,0,0-4.2-1.32,9.094,9.094,0,0,0-6.2,2.2,13.555,13.555,0,0,0-3.8,5.76A22.655,22.655,0,0,0,20-39.76a22.846,22.846,0,0,0,1,6.44,12.26,12.26,0,0,0,4.04,5.96,20.655,20.655,0,0,0-9.52,4.04,22.8,22.8,0,0,0-6.32,7.4,17.871,17.871,0,0,0-2.24,8.4,14.612,14.612,0,0,0,1,5.2,10.157,10.157,0,0,0,3.28,4.44,9.471,9.471,0,0,0,6.04,1.8,17,17,0,0,0,8.52-2.4,30.758,30.758,0,0,0,7.72-6.36,36.646,36.646,0,0,0,5.68-8.44l1.44.96a50.5,50.5,0,0,1-6.72,9.8A31.25,31.25,0,0,1,25.36,4.4,20.98,20.98,0,0,1,15.2,6.96ZM42.88,3.12A3.707,3.707,0,0,1,39.2.6a17.29,17.29,0,0,1-1.04-6.52q0-.4.08-2.76t.4-7.4a9.774,9.774,0,0,1,.44-3.08q.36-.84,2.28-.84,1.52,0,1.88.6a5.161,5.161,0,0,1,.36,2.36q0,2.56-.32,5.84t-.32,6.24a12.045,12.045,0,0,0,.36,3.48A1.388,1.388,0,0,0,44.72-.4,4.9,4.9,0,0,0,47.88-2,25.772,25.772,0,0,0,51.4-6.2a59.279,59.279,0,0,0,3.4-5.56q1.6-2.96,2.88-5.76.16-5.44,1.2-7.24a3.039,3.039,0,0,1,2.64-1.8,2.507,2.507,0,0,1,2.36,1.16,4.174,4.174,0,0,1,.68,2.04,4.065,4.065,0,0,1-.64,2.16,18.6,18.6,0,0,0-1.36,2.88,15.7,15.7,0,0,0-.72,5.44,15.452,15.452,0,0,0,.24,2.6,4.9,4.9,0,0,0,1.04,2.36,2.946,2.946,0,0,0,2.4.96,4.825,4.825,0,0,0,3.2-1.32,14.739,14.739,0,0,0,3.12-4.6l.96.72Q71.04-8,68.84-6.52a7.49,7.49,0,0,1-4.12,1.48A5.548,5.548,0,0,1,60.36-7a11.89,11.89,0,0,1-2.44-5.64,62.009,62.009,0,0,1-4.44,7.36,32.879,32.879,0,0,1-5.28,6A8.276,8.276,0,0,1,42.88,3.12Zm36.08.4Q74,3.52,71.44.8a9.431,9.431,0,0,1-2.56-6.72,18.388,18.388,0,0,1,1.8-7.52,31.494,31.494,0,0,1,4.8-7.52,26.505,26.505,0,0,1,6.64-5.68,14.1,14.1,0,0,1,7.24-2.16,6.713,6.713,0,0,1,3.56,1q1.64,1,1.64,4.04a10.048,10.048,0,0,1-1.76,5.68,18.037,18.037,0,0,1-4.72,4.72,29.1,29.1,0,0,1-6.44,3.4,28.879,28.879,0,0,1-7,1.72A7.047,7.047,0,0,0,74.44-7q-.04.6-.04,1.24a11.881,11.881,0,0,0,.2,2.08,5.786,5.786,0,0,0,.88,2.16A4.938,4.938,0,0,0,77.4.16,7.072,7.072,0,0,0,80.64.8a13.574,13.574,0,0,0,6.8-1.92A26.428,26.428,0,0,0,93.72-6.2a32.147,32.147,0,0,0,4.92-7l1.2.88a29.987,29.987,0,0,1-5.52,8.36A25.833,25.833,0,0,1,87,1.56,17.951,17.951,0,0,1,78.96,3.52ZM75.2-10.24A23.621,23.621,0,0,0,80-12.16a35.027,35.027,0,0,0,5.12-3.24,18.787,18.787,0,0,0,4.08-4.16,8.168,8.168,0,0,0,1.6-4.76,2.051,2.051,0,0,0-.32-1.28A1.594,1.594,0,0,0,89.2-26a7.292,7.292,0,0,0-3.96,1.4,19.411,19.411,0,0,0-4.08,3.72A35.215,35.215,0,0,0,77.6-15.8,24.518,24.518,0,0,0,75.2-10.24ZM111.12,2.08A6.38,6.38,0,0,1,106.68.6a4.978,4.978,0,0,1-1.64-3.88,12.62,12.62,0,0,1,1.12-5q1.12-2.6,2.2-5.16A11.942,11.942,0,0,0,109.44-18a4.574,4.574,0,0,0-1.36-3.56,18.532,18.532,0,0,0-2.96-2.2q-1.76,4.56-3.84,8.76T97.92-8.56l-.88-1.68q1.12-2.08,2.92-6.04t3.56-8.92a2.714,2.714,0,0,1-.8-2,5.957,5.957,0,0,1,1.32-3.92q1.32-1.6,2.12-1.6a1.05,1.05,0,0,1,1.16.84,6,6,0,0,1,.2,1.24,5.7,5.7,0,0,1-.4,1.52q-.4,1.12-.48,1.44a2.808,2.808,0,0,0,1.32,1.96q1.24.92,2.88,2.04a11.941,11.941,0,0,1,2.88,2.8,6.949,6.949,0,0,1,1.24,4.24,12.8,12.8,0,0,1-1,4.8q-1,2.48-2,4.64a9.329,9.329,0,0,0-1,3.84,1.9,1.9,0,0,0,.68,1.72,2.808,2.808,0,0,0,1.56.44,8,8,0,0,0,3.96-1.16,21.164,21.164,0,0,0,4-3,29.509,29.509,0,0,0,3.48-3.88,17.76,17.76,0,0,0,2.24-3.8L128.24-12A29.524,29.524,0,0,1,124-5.36,25.313,25.313,0,0,1,117.96,0,12.723,12.723,0,0,1,111.12,2.08ZM128.8,22.4a6.129,6.129,0,0,1-3.6-1.12,3.913,3.913,0,0,1-1.6-3.44,7.918,7.918,0,0,1,1.36-4.56,16.279,16.279,0,0,1,3.6-3.72,35.479,35.479,0,0,1,5.04-3.2q2.8-1.48,5.68-2.84,1.04-2.8,2.16-6.4t2.08-7.52a42.212,42.212,0,0,1-5.44,6.8,8.638,8.638,0,0,1-6.16,2.88,7.39,7.39,0,0,1-3.04-.68,6.031,6.031,0,0,1-2.52-2.12,6.46,6.46,0,0,1-1-3.76,21.039,21.039,0,0,1,.76-5.12A49.031,49.031,0,0,1,128-18.2a24.554,24.554,0,0,1,2.36-4.68q1.24-1.84,2.12-1.84a4.84,4.84,0,0,1,1.28.28,7.927,7.927,0,0,1,1.68.76,1.588,1.588,0,0,1,.88,1.04,20.769,20.769,0,0,0-1.6,2.92q-.88,1.88-1.72,4.2t-1.4,4.48a15.28,15.28,0,0,0-.56,3.76,3.892,3.892,0,0,0,.6,2.24,2.381,2.381,0,0,0,2.12.88,5.8,5.8,0,0,0,3.48-1.48,23.677,23.677,0,0,0,3.72-3.76,49.309,49.309,0,0,0,3.44-4.84q.16-.72.36-1.76t.44-2.08a8.619,8.619,0,0,1,1.24-2.56A3.273,3.273,0,0,1,149.36-22q.48,0,.92.04a5.51,5.51,0,0,1,1,.2,27.212,27.212,0,0,1-.76,4.76q-.76,3.48-2.16,8.08T145.12.48a25.042,25.042,0,0,0,7.24-4.68,22.957,22.957,0,0,0,5.88-8.92l1.12.96a19.06,19.06,0,0,1-3.64,6.72,27.556,27.556,0,0,1-5.48,4.96,38.99,38.99,0,0,1-6.08,3.44,85.843,85.843,0,0,1-4.56,9.56,32.484,32.484,0,0,1-5.2,7.16A7.965,7.965,0,0,1,128.8,22.4Zm-.56-2.72q1.28,0,4.08-3.16t5.92-10.6q-3.04,1.6-5.8,3.32A18.527,18.527,0,0,0,128,12.96a6.688,6.688,0,0,0-1.68,4.4,3.165,3.165,0,0,0,.44,1.52A1.552,1.552,0,0,0,128.24,19.68ZM161.6,2.4a6.489,6.489,0,0,1-2.84-.72,5.944,5.944,0,0,1-2.44-2.24,7.234,7.234,0,0,1-.96-3.92,16.489,16.489,0,0,1,1.28-5.92,34.171,34.171,0,0,1,3.44-6.52,36.865,36.865,0,0,1,5-6,25.82,25.82,0,0,1,5.96-4.4,13.307,13.307,0,0,1,6.24-1.64,5.143,5.143,0,0,1,2.72.6,2.057,2.057,0,0,1,.96,1.88,3.14,3.14,0,0,1-.08.68,1.394,1.394,0,0,1-.4.68,1.967,1.967,0,0,0-1.12-.84,5.559,5.559,0,0,0-1.84-.28,9.176,9.176,0,0,0-5,1.56,18.94,18.94,0,0,0-4.44,4,32.486,32.486,0,0,0-3.52,5.28,33.288,33.288,0,0,0-2.36,5.44,14.863,14.863,0,0,0-.84,4.44,4.321,4.321,0,0,0,.76,2.68,2.431,2.431,0,0,0,2.04,1q2.16,0,5.2-2.64A36.37,36.37,0,0,0,175.6-12a61.028,61.028,0,0,0,5.76-11.52q1.76-4.64,3.64-9.44t3.8-9.2q1.92-4.4,3.76-7.88a33.27,33.27,0,0,1,3.52-5.52q1.68-2.04,2.96-2.04a1.762,1.762,0,0,1,1.28.56,1.949,1.949,0,0,1,.56,1.44,12.975,12.975,0,0,1-1.32,4.4q-1.32,3.04-3.4,7.28t-4.44,9.2q-2.36,4.96-4.44,10.12a89.2,89.2,0,0,0-3.4,10.04,34.532,34.532,0,0,0-1.32,8.96,12.315,12.315,0,0,0,.28,3.12,1.35,1.35,0,0,0,1.48.96,7.7,7.7,0,0,0,3.92-1.4,19.782,19.782,0,0,0,4.48-4.04,26.587,26.587,0,0,0,3.92-6.4l1.2.96a26.958,26.958,0,0,1-4.28,7.44A23.286,23.286,0,0,1,187.84.2,11.136,11.136,0,0,1,182,2.08q-3.12,0-4.32-2a8.249,8.249,0,0,1-1.2-4.32,18.233,18.233,0,0,1,.36-3.28q.36-1.92.92-4.16a60.137,60.137,0,0,1-5.4,7.24A28.531,28.531,0,0,1,166.8.6,9.485,9.485,0,0,1,161.6,2.4Zm37.44,1.36a6.159,6.159,0,0,1-4.36-1.68,6.683,6.683,0,0,1-1.8-5.12,17.129,17.129,0,0,1,1.28-6.12,31.448,31.448,0,0,1,3.52-6.56,35.78,35.78,0,0,1,5.08-5.88,25.857,25.857,0,0,1,6.04-4.24,14.2,14.2,0,0,1,6.4-1.6,8.636,8.636,0,0,1,5.4,1.68,5.354,5.354,0,0,1,2.2,4.48,3.074,3.074,0,0,1-1.24,2.8,5.142,5.142,0,0,1-3.08.72q.16-.72.28-1.44a8.745,8.745,0,0,0,.12-1.44,5.825,5.825,0,0,0-.8-3.08,3.175,3.175,0,0,0-2.96-1.32,8.162,8.162,0,0,0-4.56,1.56,21.176,21.176,0,0,0-4.44,4.12,37.156,37.156,0,0,0-3.8,5.56,34.224,34.224,0,0,0-2.64,5.88,16.625,16.625,0,0,0-.96,5.2q0,2.96,2,2.96a6.7,6.7,0,0,0,4.04-1.76,33.284,33.284,0,0,0,4.48-4.44q2.28-2.68,4.36-5.56t3.68-5.12q.24-.48.48-.48.4.08,1.2.32a4.563,4.563,0,0,1,1.44.72,1.448,1.448,0,0,1,.64,1.2,4.487,4.487,0,0,1-.68,1.96q-.68,1.24-1.6,2.8a27.044,27.044,0,0,0-1.6,3.16A7.619,7.619,0,0,0,216.48-4a4.626,4.626,0,0,0,.6,2.28,2.07,2.07,0,0,0,1.96,1.08q2.08,0,5.6-3.08a35.887,35.887,0,0,0,7.12-9.56l1.04,1.04a30.945,30.945,0,0,1-4.4,7.64A22,22,0,0,1,222.76.56,11.335,11.335,0,0,1,216.8,2.4,5.4,5.4,0,0,1,212.28.52a6.41,6.41,0,0,1-1.48-4.04q0-.4.04-.8t.12-.88a39.931,39.931,0,0,1-6.16,6.68A9.053,9.053,0,0,1,199.04,3.76ZM233.68,22.4a6.13,6.13,0,0,1-3.6-1.12,3.913,3.913,0,0,1-1.6-3.44,7.918,7.918,0,0,1,1.36-4.56,16.279,16.279,0,0,1,3.6-3.72,35.479,35.479,0,0,1,5.04-3.2q2.8-1.48,5.68-2.84,1.04-2.8,2.16-6.4t2.08-7.52a42.212,42.212,0,0,1-5.44,6.8A8.638,8.638,0,0,1,236.8-.72a7.391,7.391,0,0,1-3.04-.68,6.031,6.031,0,0,1-2.52-2.12,6.46,6.46,0,0,1-1-3.76A21.039,21.039,0,0,1,231-12.4a49.03,49.03,0,0,1,1.88-5.8,24.554,24.554,0,0,1,2.36-4.68q1.24-1.84,2.12-1.84a4.84,4.84,0,0,1,1.28.28,7.927,7.927,0,0,1,1.68.76,1.588,1.588,0,0,1,.88,1.04,20.769,20.769,0,0,0-1.6,2.92q-.88,1.88-1.72,4.2t-1.4,4.48a15.28,15.28,0,0,0-.56,3.76,3.892,3.892,0,0,0,.6,2.24,2.381,2.381,0,0,0,2.12.88,5.8,5.8,0,0,0,3.48-1.48,23.678,23.678,0,0,0,3.72-3.76,49.309,49.309,0,0,0,3.44-4.84q.16-.72.36-1.76t.44-2.08a8.619,8.619,0,0,1,1.24-2.56A3.273,3.273,0,0,1,254.24-22q.48,0,.92.04a5.509,5.509,0,0,1,1,.2A27.213,27.213,0,0,1,255.4-17q-.76,3.48-2.16,8.08T250,.48a25.042,25.042,0,0,0,7.24-4.68,22.957,22.957,0,0,0,5.88-8.92l1.12.96a19.06,19.06,0,0,1-3.64,6.72,27.557,27.557,0,0,1-5.48,4.96,38.991,38.991,0,0,1-6.08,3.44,85.843,85.843,0,0,1-4.56,9.56,32.484,32.484,0,0,1-5.2,7.16A7.965,7.965,0,0,1,233.68,22.4Zm-.56-2.72q1.28,0,4.08-3.16t5.92-10.6q-3.04,1.6-5.8,3.32a18.527,18.527,0,0,0-4.44,3.72,6.688,6.688,0,0,0-1.68,4.4,3.165,3.165,0,0,0,.44,1.52A1.552,1.552,0,0,0,233.12,19.68ZM295.44,6.96q-3.84-.32-4.88-2.04A8.311,8.311,0,0,1,289.52.56a27.455,27.455,0,0,1,1.16-7.08q1.16-4.2,2.92-9.08t3.6-9.68l-2.24.2q-1.36.12-3.08.32t-3.8.52a4.679,4.679,0,0,1,1.64-3.4,9.564,9.564,0,0,1,3.88-1.84,24.916,24.916,0,0,1,5.36-.68q2.16-6,4.48-11.76t4.64-10.56q-.72-.08-1.44-.12t-1.6-.04a22.99,22.99,0,0,0-7.8,1.04,6.587,6.587,0,0,0-3.8,3.12,11.783,11.783,0,0,0-1.04,5.28,18.6,18.6,0,0,0,.28,3.36,20.575,20.575,0,0,0,.92,3.28,7.267,7.267,0,0,1-4.44-2.24,6.4,6.4,0,0,1-1.4-4.24,10.448,10.448,0,0,1,3-7.36,19.985,19.985,0,0,1,8.08-5,33.717,33.717,0,0,1,11.32-1.8,57.112,57.112,0,0,1,8.32.6,53.409,53.409,0,0,0,7.76.6,21.629,21.629,0,0,0,3.36-.24,30.781,30.781,0,0,0,3.28-.72,22.668,22.668,0,0,1-5.36,4.88,8.827,8.827,0,0,1-4.32,1.2,29.027,29.027,0,0,1-4.8-.52,61.909,61.909,0,0,0-6.64-.76q-1.04,2.56-2.28,6.16t-2.56,7.68q-1.32,4.08-2.68,8.24,4.08.24,7.56.72a60.234,60.234,0,0,0,6.76.56,6.264,6.264,0,0,1-1.6,1.64,6.328,6.328,0,0,1-2.44.88,34.253,34.253,0,0,1-4.32.4q-2.76.12-7.24.2-.56,1.92-1.28,4.32T300.44-17a27.27,27.27,0,0,1-.84,2.76q-1.92,6.64-3,11.84A51.366,51.366,0,0,0,295.44,6.96Zm38.64-4.88A6.38,6.38,0,0,1,329.64.6,4.978,4.978,0,0,1,328-3.28a12.62,12.62,0,0,1,1.12-5q1.12-2.6,2.2-5.16A11.942,11.942,0,0,0,332.4-18a4.574,4.574,0,0,0-1.36-3.56,18.53,18.53,0,0,0-2.96-2.2q-1.76,4.56-3.84,8.76t-3.36,6.44L320-10.24q1.12-2.08,2.92-6.04t3.56-8.92a2.714,2.714,0,0,1-.8-2A5.957,5.957,0,0,1,327-31.12q1.32-1.6,2.12-1.6a1.05,1.05,0,0,1,1.16.84,6,6,0,0,1,.2,1.24,5.7,5.7,0,0,1-.4,1.52q-.4,1.12-.48,1.44a2.808,2.808,0,0,0,1.32,1.96q1.24.92,2.88,2.04a11.941,11.941,0,0,1,2.88,2.8,6.949,6.949,0,0,1,1.24,4.24,12.8,12.8,0,0,1-1,4.8q-1,2.48-2,4.64a9.33,9.33,0,0,0-1,3.84,1.9,1.9,0,0,0,.68,1.72,2.808,2.808,0,0,0,1.56.44,8,8,0,0,0,3.96-1.16,21.165,21.165,0,0,0,4-3,29.509,29.509,0,0,0,3.48-3.88,17.76,17.76,0,0,0,2.24-3.8L351.2-12a29.524,29.524,0,0,1-4.24,6.64A25.313,25.313,0,0,1,340.92,0,12.723,12.723,0,0,1,334.08,2.08Zm22.96,1.44q-4.96,0-7.52-2.72a9.431,9.431,0,0,1-2.56-6.72,18.388,18.388,0,0,1,1.8-7.52,31.493,31.493,0,0,1,4.8-7.52,26.505,26.505,0,0,1,6.64-5.68,14.1,14.1,0,0,1,7.24-2.16,6.713,6.713,0,0,1,3.56,1q1.64,1,1.64,4.04a10.048,10.048,0,0,1-1.76,5.68,18.037,18.037,0,0,1-4.72,4.72,29.1,29.1,0,0,1-6.44,3.4,28.879,28.879,0,0,1-7,1.72,7.048,7.048,0,0,0-.2,1.24q-.04.6-.04,1.24a11.882,11.882,0,0,0,.2,2.08,5.786,5.786,0,0,0,.88,2.16A4.938,4.938,0,0,0,355.48.16a7.072,7.072,0,0,0,3.24.64,13.574,13.574,0,0,0,6.8-1.92A26.428,26.428,0,0,0,371.8-6.2a32.148,32.148,0,0,0,4.92-7l1.2.88a29.987,29.987,0,0,1-5.52,8.36,25.833,25.833,0,0,1-7.32,5.52A17.951,17.951,0,0,1,357.04,3.52Zm-3.76-13.76a23.621,23.621,0,0,0,4.8-1.92,35.029,35.029,0,0,0,5.12-3.24,18.788,18.788,0,0,0,4.08-4.16,8.168,8.168,0,0,0,1.6-4.76,2.051,2.051,0,0,0-.32-1.28,1.594,1.594,0,0,0-1.28-.4,7.292,7.292,0,0,0-3.96,1.4,19.411,19.411,0,0,0-4.08,3.72,35.216,35.216,0,0,0-3.56,5.08A24.52,24.52,0,0,0,353.28-10.24ZM383.76,4.08a10.275,10.275,0,0,1-6.12-1.64,9.052,9.052,0,0,1-3.24-4.08,13.343,13.343,0,0,1-.96-4.92,8.438,8.438,0,0,1,.64-3.68,4.652,4.652,0,0,1,1.56-1.88,9.344,9.344,0,0,1,1.76-.92,3.531,3.531,0,0,0,1.24-.72A52.876,52.876,0,0,0,382.92-19a37.449,37.449,0,0,0,3.56-6.12V-26a6.936,6.936,0,0,1,1.04-4.32,2.92,2.92,0,0,1,2.24-1.28,1.467,1.467,0,0,1,1.08.36,1.518,1.518,0,0,1,.44.84,4.725,4.725,0,0,1-.24,1.28,7.422,7.422,0,0,0-.24,2.08,17.178,17.178,0,0,0,1.08,5.64q1.08,3.08,2.16,6.48a23.245,23.245,0,0,1,1.08,7.08A15.462,15.462,0,0,1,395-5.92q-.12.96-.28,1.76a11.993,11.993,0,0,0,5.12-2.6,20.023,20.023,0,0,0,4.72-6.44l.8.8a14.77,14.77,0,0,1-4.52,6.84,14.334,14.334,0,0,1-6.68,3.08,9.277,9.277,0,0,1-4.08,4.96A12.509,12.509,0,0,1,383.76,4.08Zm-.08-3.04A6.777,6.777,0,0,0,386.4.36a4.715,4.715,0,0,0,2.32-3,14.442,14.442,0,0,1-5.92-2.6,16.37,16.37,0,0,1-3.92-3.88q-1.6.08-1.6,2.56a8.887,8.887,0,0,0,1.68,5.2A5.431,5.431,0,0,0,383.68,1.04Zm5.52-5.28a12.8,12.8,0,0,0,.24-1.56q.08-.84.08-1.8a30.245,30.245,0,0,0-.92-7.36q-.92-3.68-1.64-7.04-1.68,2.8-3.68,5.6a36.989,36.989,0,0,1-3.84,4.64A16.29,16.29,0,0,0,383.2-7.2,13.526,13.526,0,0,0,389.2-4.24Zm17.36,7.28q-1.6,0-2.44-2.6a19.378,19.378,0,0,1-.84-5.96,40.523,40.523,0,0,1,1.24-9.04,96.953,96.953,0,0,1,3.36-11.08Q410-31.44,412.6-37a114.282,114.282,0,0,1,5.32-10.12,47.338,47.338,0,0,1,5.16-7.28q2.44-2.72,4.28-2.72a2.317,2.317,0,0,1,2.2,1.76,9.706,9.706,0,0,1,.68,3.52,18.634,18.634,0,0,1-1,5.36,50.315,50.315,0,0,1-2.76,6.84,59.616,59.616,0,0,1-4.08,7.12,48.268,48.268,0,0,1-5.08,6.4,26.593,26.593,0,0,1-5.56,4.6,32.913,32.913,0,0,0-1.68,5.2,44.242,44.242,0,0,0-.92,5.24,41.941,41.941,0,0,0-.28,4.6q0,.72.04,1.32t.04,1.08q.88-2.32,2-5.04a54.621,54.621,0,0,1,2.56-5.36,31.3,31.3,0,0,1,3.2-4.8,16.125,16.125,0,0,1,3.84-3.48,8.48,8.48,0,0,1,4.64-1.32,5.613,5.613,0,0,1,3.76,1.16,6.9,6.9,0,0,1,2,2.84,9.588,9.588,0,0,1,.64,3.44,13.888,13.888,0,0,1-.84,4.84q-.84,2.28-1.72,4.36a10.251,10.251,0,0,0-.88,4,3,3,0,0,0,.68,2.24,2.307,2.307,0,0,0,1.64.64,7.024,7.024,0,0,0,4.12-1.76A26.365,26.365,0,0,0,439.16-7a35.884,35.884,0,0,0,3.96-6.36l1.12,1.12a37.131,37.131,0,0,1-4.2,7.16A21.336,21.336,0,0,1,434.72.04a11.069,11.069,0,0,1-6.16,1.88A5.8,5.8,0,0,1,424.28.44a5.045,5.045,0,0,1-1.48-3.72,12.916,12.916,0,0,1,.64-3.76q.64-2.08,1.24-4.2a14.588,14.588,0,0,0,.6-3.96,3.794,3.794,0,0,0-.88-2.88,3.094,3.094,0,0,0-2.16-.8,5.034,5.034,0,0,0-3.6,1.56,15.347,15.347,0,0,0-2.88,4.08q-1.28,2.52-2.44,5.32t-2.24,5.28a25.749,25.749,0,0,1-2.16,4.08A2.968,2.968,0,0,1,406.56,3.04Zm6.4-28.32a24.357,24.357,0,0,0,4.28-4.44,59.537,59.537,0,0,0,3.8-5.64q1.76-2.96,3.16-5.8a40.045,40.045,0,0,0,2.16-5.16,12.445,12.445,0,0,0,.76-3.44,1.17,1.17,0,0,0-.04-.4.627.627,0,0,0-.12-.16q-.56,0-2.24,2.12a56.876,56.876,0,0,0-3.84,5.68,88.6,88.6,0,0,0-4.28,8.04A75.823,75.823,0,0,0,412.96-25.28ZM475.28,6.96q-3.84-.32-4.88-2.04A8.311,8.311,0,0,1,469.36.56a27.456,27.456,0,0,1,1.16-7.08q1.16-4.2,2.92-9.08t3.6-9.68l-2.24.2q-1.36.12-3.08.32t-3.8.52a4.679,4.679,0,0,1,1.64-3.4,9.564,9.564,0,0,1,3.88-1.84,24.916,24.916,0,0,1,5.36-.68q2.16-6,4.48-11.76t4.64-10.56q-.72-.08-1.44-.12t-1.6-.04a22.99,22.99,0,0,0-7.8,1.04,6.587,6.587,0,0,0-3.8,3.12,11.783,11.783,0,0,0-1.04,5.28,18.6,18.6,0,0,0,.28,3.36,20.579,20.579,0,0,0,.92,3.28A7.267,7.267,0,0,1,469-38.8a6.4,6.4,0,0,1-1.4-4.24,10.448,10.448,0,0,1,3-7.36,19.985,19.985,0,0,1,8.08-5A33.717,33.717,0,0,1,490-57.2a57.112,57.112,0,0,1,8.32.6,53.409,53.409,0,0,0,7.76.6,21.629,21.629,0,0,0,3.36-.24,30.783,30.783,0,0,0,3.28-.72,22.669,22.669,0,0,1-5.36,4.88,8.827,8.827,0,0,1-4.32,1.2,29.026,29.026,0,0,1-4.8-.52,61.91,61.91,0,0,0-6.64-.76q-1.04,2.56-2.28,6.16t-2.56,7.68q-1.32,4.08-2.68,8.24,4.08.24,7.56.72a60.234,60.234,0,0,0,6.76.56,6.263,6.263,0,0,1-1.6,1.64,6.328,6.328,0,0,1-2.44.88,34.253,34.253,0,0,1-4.32.4q-2.76.12-7.24.2-.56,1.92-1.28,4.32T480.28-17a27.27,27.27,0,0,1-.84,2.76q-1.92,6.64-3,11.84A51.366,51.366,0,0,0,475.28,6.96Zm38.64-4.88A6.38,6.38,0,0,1,509.48.6a4.978,4.978,0,0,1-1.64-3.88,12.62,12.62,0,0,1,1.12-5q1.12-2.6,2.2-5.16A11.942,11.942,0,0,0,512.24-18a4.574,4.574,0,0,0-1.36-3.56,18.53,18.53,0,0,0-2.96-2.2q-1.76,4.56-3.84,8.76t-3.36,6.44l-.88-1.68q1.12-2.08,2.92-6.04t3.56-8.92a2.714,2.714,0,0,1-.8-2,5.957,5.957,0,0,1,1.32-3.92q1.32-1.6,2.12-1.6a1.05,1.05,0,0,1,1.16.84,6,6,0,0,1,.2,1.24,5.7,5.7,0,0,1-.4,1.52q-.4,1.12-.48,1.44a2.808,2.808,0,0,0,1.32,1.96q1.24.92,2.88,2.04a11.941,11.941,0,0,1,2.88,2.8,6.948,6.948,0,0,1,1.24,4.24,12.8,12.8,0,0,1-1,4.8q-1,2.48-2,4.64a9.329,9.329,0,0,0-1,3.84,1.9,1.9,0,0,0,.68,1.72A2.808,2.808,0,0,0,516-1.2a8,8,0,0,0,3.96-1.16,21.162,21.162,0,0,0,4-3,29.509,29.509,0,0,0,3.48-3.88,17.762,17.762,0,0,0,2.24-3.8L531.04-12a29.526,29.526,0,0,1-4.24,6.64A25.314,25.314,0,0,1,520.76,0,12.723,12.723,0,0,1,513.92,2.08Zm19.52.48q-3.52,0-4.92-2.2a9.4,9.4,0,0,1-1.4-5.16,18.018,18.018,0,0,1,.8-5.16,22.661,22.661,0,0,1,2.16-5,13.97,13.97,0,0,1,3.04-3.72,5.262,5.262,0,0,1,3.36-1.4,4.445,4.445,0,0,1,1,.12,3.155,3.155,0,0,1,.92.36,15.719,15.719,0,0,0-1.8,2.6,32.213,32.213,0,0,0-1.88,3.84,33.133,33.133,0,0,0-1.44,4.24,14.6,14.6,0,0,0-.56,3.64,5.643,5.643,0,0,0,.76,3.24A2.447,2.447,0,0,0,535.6-.96a6.633,6.633,0,0,0,3.84-1.8,32.207,32.207,0,0,0,4.4-4.36,12.832,12.832,0,0,1-3.52-4.92,16.571,16.571,0,0,1-1.2-6.36,12.374,12.374,0,0,1,.88-4.56,8.975,8.975,0,0,1,2.68-3.72,6.881,6.881,0,0,1,4.52-1.48q3.36,0,4.56,1.8a7.829,7.829,0,0,1,1.2,4.44,18.525,18.525,0,0,1-1.52,6.88,38.978,38.978,0,0,1-3.84,7.2,6.173,6.173,0,0,0,2.8.64,9.427,9.427,0,0,0,2.88-.52,10.232,10.232,0,0,0,3.2-1.8,8.869,8.869,0,0,0,2.56-3.52l1.12.88a11.064,11.064,0,0,1-4.6,5.56,11.513,11.513,0,0,1-5.64,1.64,9.784,9.784,0,0,1-2-.2,13.337,13.337,0,0,1-1.84-.52A29.92,29.92,0,0,1,540,.16,11.318,11.318,0,0,1,533.44,2.56ZM545.52-9.36a40.191,40.191,0,0,0,3.28-6.16,15.556,15.556,0,0,0,1.36-6.08,6.025,6.025,0,0,0-.64-3.16,1.989,1.989,0,0,0-1.76-1q-1.52,0-3.2,2.28a9.383,9.383,0,0,0-1.68,5.72,16.49,16.49,0,0,0,.68,4.48A10.405,10.405,0,0,0,545.52-9.36ZM598.16,2.48A5.021,5.021,0,0,1,593.92.72a6.728,6.728,0,0,1-1.36-4.24,13.2,13.2,0,0,1,.6-3.88q.6-1.96,1.16-3.84a11.82,11.82,0,0,0,.56-3.32,2.837,2.837,0,0,0-.64-2.12,2.147,2.147,0,0,0-1.52-.6q-1.92,0-4.32,3t-6.08,8.6a32.137,32.137,0,0,0-2.24,3.92q-.96,2-1.76,3.52a11.123,11.123,0,0,1-1.72-.16,6.187,6.187,0,0,1-1.8-.56A1.189,1.189,0,0,1,574,0a11.551,11.551,0,0,1,.76-2.68q.76-2.12,1.76-4.92t1.8-5.64a18.354,18.354,0,0,0,.8-4.84,4.3,4.3,0,0,0-.44-2.08,1.552,1.552,0,0,0-1.48-.8q-1.76,0-4.2,2.08a35.637,35.637,0,0,0-5.04,5.48A72.1,72.1,0,0,0,563-5.96a47.358,47.358,0,0,0-3.8,8.12,7.912,7.912,0,0,1-1.84-.28,8.845,8.845,0,0,1-1.96-.72q-.84-.44-.84-.84a18.128,18.128,0,0,1,.76-2.64q.76-2.32,1.72-5.64t1.84-6.76a33.008,33.008,0,0,0,1.04-6,3.592,3.592,0,0,1,1.6-1.32,5.178,5.178,0,0,1,2.32-.6,2.378,2.378,0,0,1,1.76.64,2.272,2.272,0,0,1,.64,1.68,15.252,15.252,0,0,1-.52,3.12q-.52,2.16-1.24,4.88,1.6-2.48,3.6-5a46.514,46.514,0,0,1,4.16-4.6,23.064,23.064,0,0,1,4.36-3.36,8.5,8.5,0,0,1,4.28-1.28,3.646,3.646,0,0,1,3.6,1.92,9.71,9.71,0,0,1,.96,4.4,19.878,19.878,0,0,1-.32,3.48,28.236,28.236,0,0,1-.8,3.36q-.48,1.56-.96,2.76a48.964,48.964,0,0,1,3.56-5.24A19.434,19.434,0,0,1,591.2-20a8.461,8.461,0,0,1,4.88-1.6,4.206,4.206,0,0,1,3.8,1.64,6.751,6.751,0,0,1,1.08,3.8,15.644,15.644,0,0,1-.72,4.48q-.72,2.4-1.44,4.64a12.893,12.893,0,0,0-.72,3.84,3.357,3.357,0,0,0,.48,1.76,1.881,1.881,0,0,0,1.76.8,5.79,5.79,0,0,0,4.2-2.04,26.63,26.63,0,0,0,3.68-4.96,54.518,54.518,0,0,0,2.92-5.64l1.04,1.36a45,45,0,0,1-3.28,6.64A20.977,20.977,0,0,1,604.2.28,9.27,9.27,0,0,1,598.16,2.48Zm49.92,4.48a14.153,14.153,0,0,1-8.2-2.44,16.364,16.364,0,0,1-5.6-6.92,25.291,25.291,0,0,1-2.04-10.56,42.776,42.776,0,0,1,1.92-12.48,55.6,55.6,0,0,1,5.28-12.04,55.227,55.227,0,0,1,7.68-10.24,37.705,37.705,0,0,1,9.16-7.16A20.128,20.128,0,0,1,666-57.52a12.506,12.506,0,0,1,2.6.28,5.788,5.788,0,0,1,2.36,1.08H669.6a15.649,15.649,0,0,0-8.4,2.68,35.049,35.049,0,0,0-8.08,7.28,59.909,59.909,0,0,0-6.88,10.32A60.9,60.9,0,0,0,641.44-24a43.319,43.319,0,0,0-1.76,11.92,27.591,27.591,0,0,0,1.08,7.88,12.4,12.4,0,0,0,3.52,5.84,9.02,9.02,0,0,0,6.28,2.2,14.283,14.283,0,0,0,8.36-2.72,28.481,28.481,0,0,0,7.04-7.32,52.445,52.445,0,0,0,5.44-10.32,66.908,66.908,0,0,0,3.48-11.76,59.72,59.72,0,0,0,1.2-11.64,39.782,39.782,0,0,0-.32-4.84,17.8,17.8,0,0,0-1.08-4.48q-.76-1.88-2.2-1.88a4.558,4.558,0,0,0-3.04,1.8,23.624,23.624,0,0,0-3.2,4.48,49.389,49.389,0,0,0-2.72,5.6,30.919,30.919,0,0,0-1.68,5.16,5.882,5.882,0,0,1-3.24-1.6,3.735,3.735,0,0,1-1-2.56A9.777,9.777,0,0,1,659.08-43a25.262,25.262,0,0,1,3.84-5.04,25.524,25.524,0,0,1,4.88-4,9.016,9.016,0,0,1,4.68-1.56A4.453,4.453,0,0,1,676-52.04,11.388,11.388,0,0,1,678.16-48a25.413,25.413,0,0,1,1.08,5.32q.28,2.84.28,5.24a57.645,57.645,0,0,1-1.96,15.56,46.99,46.99,0,0,1-5.32,12.36,41.712,41.712,0,0,1-7.48,9.04,31.81,31.81,0,0,1-8.44,5.56A20.652,20.652,0,0,1,648.08,6.96Zm37.84-3.84A3.707,3.707,0,0,1,682.24.6a17.289,17.289,0,0,1-1.04-6.52q0-.4.08-2.76t.4-7.4a9.775,9.775,0,0,1,.44-3.08q.36-.84,2.28-.84,1.52,0,1.88.6a5.161,5.161,0,0,1,.36,2.36q0,2.56-.32,5.84T686-4.96a12.045,12.045,0,0,0,.36,3.48,1.388,1.388,0,0,0,1.4,1.08A4.9,4.9,0,0,0,690.92-2a25.773,25.773,0,0,0,3.52-4.2,59.272,59.272,0,0,0,3.4-5.56q1.6-2.96,2.88-5.76.16-5.44,1.2-7.24a3.039,3.039,0,0,1,2.64-1.8,2.507,2.507,0,0,1,2.36,1.16,4.174,4.174,0,0,1,.68,2.04,4.065,4.065,0,0,1-.64,2.16,18.611,18.611,0,0,0-1.36,2.88,15.7,15.7,0,0,0-.72,5.44,15.455,15.455,0,0,0,.24,2.6,4.9,4.9,0,0,0,1.04,2.36,2.945,2.945,0,0,0,2.4.96,4.825,4.825,0,0,0,3.2-1.32,14.74,14.74,0,0,0,3.12-4.6l.96.72Q714.08-8,711.88-6.52a7.49,7.49,0,0,1-4.12,1.48A5.548,5.548,0,0,1,703.4-7a11.891,11.891,0,0,1-2.44-5.64,62.006,62.006,0,0,1-4.44,7.36,32.878,32.878,0,0,1-5.28,6A8.276,8.276,0,0,1,685.92,3.12Zm36.08.4q-4.96,0-7.52-2.72a9.431,9.431,0,0,1-2.56-6.72,18.388,18.388,0,0,1,1.8-7.52,31.494,31.494,0,0,1,4.8-7.52,26.506,26.506,0,0,1,6.64-5.68,14.1,14.1,0,0,1,7.24-2.16,6.713,6.713,0,0,1,3.56,1q1.64,1,1.64,4.04a10.048,10.048,0,0,1-1.76,5.68,18.036,18.036,0,0,1-4.72,4.72,29.1,29.1,0,0,1-6.44,3.4,28.879,28.879,0,0,1-7,1.72,7.051,7.051,0,0,0-.2,1.24q-.04.6-.04,1.24a11.879,11.879,0,0,0,.2,2.08,5.785,5.785,0,0,0,.88,2.16A4.938,4.938,0,0,0,720.44.16a7.072,7.072,0,0,0,3.24.64,13.574,13.574,0,0,0,6.8-1.92,26.429,26.429,0,0,0,6.28-5.08,32.147,32.147,0,0,0,4.92-7l1.2.88a29.987,29.987,0,0,1-5.52,8.36,25.833,25.833,0,0,1-7.32,5.52A17.951,17.951,0,0,1,722,3.52Zm-3.76-13.76a23.62,23.62,0,0,0,4.8-1.92,35.026,35.026,0,0,0,5.12-3.24,18.786,18.786,0,0,0,4.08-4.16,8.168,8.168,0,0,0,1.6-4.76,2.051,2.051,0,0,0-.32-1.28,1.594,1.594,0,0,0-1.28-.4,7.293,7.293,0,0,0-3.96,1.4,19.41,19.41,0,0,0-4.08,3.72,35.212,35.212,0,0,0-3.56,5.08A24.516,24.516,0,0,0,718.24-10.24Zm48,11.84A6.03,6.03,0,0,1,761.8.12a5.144,5.144,0,0,1-1.48-3.8,11.132,11.132,0,0,1,.6-3.44q.6-1.84,1.16-3.76a13.134,13.134,0,0,0,.56-3.68,3.794,3.794,0,0,0-.88-2.88,3.094,3.094,0,0,0-2.16-.8,8.222,8.222,0,0,0-5.04,2,27.449,27.449,0,0,0-4.92,5.12Q747.28-8,745.2-4.72T741.52,1.2a7.14,7.14,0,0,1-2.6-.48,4.341,4.341,0,0,1-1.96-1.44,11.711,11.711,0,0,1,.84-2.48q.84-2.08,1.96-5.04a61.566,61.566,0,0,0,1.96-6.16,22.927,22.927,0,0,0,.84-5.76,4.514,4.514,0,0,1,1.56-1.2,4.886,4.886,0,0,1,2.28-.56q2.4,0,2.4,2.16a19.094,19.094,0,0,1-.6,3.8q-.6,2.6-1.56,5.64a57.847,57.847,0,0,1,4.72-6.12,28.931,28.931,0,0,1,5.56-4.96,10.365,10.365,0,0,1,5.8-1.96,5.253,5.253,0,0,1,4.76,2.28,9,9,0,0,1,1.48,5,12.6,12.6,0,0,1-.8,4.56q-.8,2.08-1.64,4a9.512,9.512,0,0,0-.84,3.84,2.855,2.855,0,0,0,.68,2.2,2.29,2.29,0,0,0,1.56.6,6.106,6.106,0,0,0,4.04-1.84,23.923,23.923,0,0,0,3.92-4.72,53.509,53.509,0,0,0,3.32-5.84l1.04,1.12a40.336,40.336,0,0,1-3.8,7A20.129,20.129,0,0,1,771.8-.24,9.216,9.216,0,0,1,766.24,1.6Z" transform="translate(1.38 58.1)" fill="none" stroke="#9a7141" stroke-width="1"/>
</svg>
