<svg xmlns="http://www.w3.org/2000/svg" width="709.395" height="81.08" viewBox="0 0 709.395 81.08">
  <path id="Path_3707" data-name="Path 3707" d="M2.16,6.96A5.452,5.452,0,0,1-.36,4.6,5.561,5.561,0,0,1-.88,2.56a16.47,16.47,0,0,1,1.6-6,92.648,92.648,0,0,1,4.32-8.64q2.72-4.88,6.08-10.08-2.8-.24-4.92-.32t-4.36-.08H-.4a5.97,5.97,0,0,1,3.24-3.48,13.369,13.369,0,0,1,5.4-1,25.358,25.358,0,0,1,2.8.16q1.44.16,2.96.4,4.08-6.08,8.24-11.64t7.8-9.96a76.027,76.027,0,0,1,6.2-6.8q2.8-2.8,4.4-2.8a4.15,4.15,0,0,1,2.16.76,14.689,14.689,0,0,1,2.48,2.04,10.369,10.369,0,0,0-2.04,3.36Q42-48.8,40.6-44.68t-2.76,9q-1.36,4.88-2.52,10t-1.84,9.72a55.9,55.9,0,0,0-.68,8.04,12.949,12.949,0,0,0,.68,4.76,2.294,2.294,0,0,0,2.2,1.64q2,0,4.68-2.84a41.188,41.188,0,0,0,5.88-9l1.04,1.04A33.312,33.312,0,0,1,41-1.76Q37.2,2.4,33.04,2.4A5.15,5.15,0,0,1,28.08-.68a18.671,18.671,0,0,1-1.52-8.2A45.391,45.391,0,0,1,26.88-14q.32-2.8.96-6.16-3.52-.56-6.4-.92t-5.36-.68Q12.32-14.8,8.76-7.48T2.16,6.96ZM28.48-23.36q1.12-5.04,2.64-10.28t3.24-9.96q1.72-4.72,3.32-8.32a26.272,26.272,0,0,0-5.6,5.4,105.344,105.344,0,0,0-6.6,9.12Q22-32.08,18.32-25.68q2.64.48,5.24,1.12T28.48-23.36ZM51.12,2.4q-3.52,0-5-2.4a11.08,11.08,0,0,1-1.48-5.92,35.455,35.455,0,0,1,1.44-9.12,100.105,100.105,0,0,1,3.8-11.12q2.36-5.84,5.16-11.4t5.64-10.08a59.689,59.689,0,0,1,5.2-7.24q2.36-2.72,3.8-2.72a1.776,1.776,0,0,1,1.56,1.04,9.7,9.7,0,0,1,.96,2.44,10.483,10.483,0,0,1,.36,2.6,20.053,20.053,0,0,1-1.08,5.64,63.522,63.522,0,0,1-3.04,7.72,82.823,82.823,0,0,1-4.64,8.6,79.255,79.255,0,0,1-5.88,8.32A46.75,46.75,0,0,1,51.2-14.4q-.48,2.16-.76,4.16a27.192,27.192,0,0,0-.28,3.76A8.516,8.516,0,0,0,51.08-2a2.917,2.917,0,0,0,2.6,1.44,6.4,6.4,0,0,0,4.2-1.88,23.958,23.958,0,0,0,4.04-4.8,40.272,40.272,0,0,0,3.28-6.04l1.44.72A39.817,39.817,0,0,1,59.44-1.6Q55.52,2.4,51.12,2.4Zm1.04-20.24a66.4,66.4,0,0,0,5.32-6.44,79.782,79.782,0,0,0,4.8-7.4q2.2-3.84,3.88-7.4a54.882,54.882,0,0,0,2.6-6.4,15.541,15.541,0,0,0,.92-4.44,1.378,1.378,0,0,0-.12-.72.794.794,0,0,0-.28-.24q-.64,0-2.12,1.96T63.64-43.6Q61.6-40.24,59.48-36t-4.04,8.92Q53.52-22.4,52.16-17.84ZM86.32,3.12A3.434,3.434,0,0,1,82.84.8a16.059,16.059,0,0,1-1-5.52q.08-1.44.2-3.24t.28-3.4Q80.56-8,78.56-4.84A25.225,25.225,0,0,1,74.32.36,6.944,6.944,0,0,1,69.6,2.4,5.145,5.145,0,0,1,65.2,0a9.789,9.789,0,0,1-1.68-5.76,22.449,22.449,0,0,1,.76-5.36,51.514,51.514,0,0,1,1.88-5.96,28.435,28.435,0,0,1,2.32-4.84q1.2-1.92,2.16-1.92a6.847,6.847,0,0,1,1.72.48q1.32.48,1.48,1.36a29.649,29.649,0,0,0-2.16,4.04,45.474,45.474,0,0,0-2.24,5.92,19.872,19.872,0,0,0-.96,5.72,15.983,15.983,0,0,0,.16,1.88,6.068,6.068,0,0,0,.76,2.28,1.95,1.95,0,0,0,1.8,1.04q1.84,0,3.88-2.28a36.561,36.561,0,0,0,4.08-5.72q2.04-3.44,3.88-6.96.64-3.36,1.08-4.88a4.23,4.23,0,0,1,.96-1.96,1.857,1.857,0,0,1,1.24-.44,3.029,3.029,0,0,1,1.88.52,1.753,1.753,0,0,1,.68,1.48,3.133,3.133,0,0,1-.08.44,6.183,6.183,0,0,1-.16.6q-.48,1.84-.96,4.56t-.8,5.72a54.008,54.008,0,0,0-.32,5.72,9.133,9.133,0,0,0,.36,2.88A1.334,1.334,0,0,0,88.24-.4,4.4,4.4,0,0,0,91-1.84a24.576,24.576,0,0,0,3.24-3.8Q95.92-8,97.52-10.8t2.88-5.6a25.639,25.639,0,0,1,.6-6.36,5.9,5.9,0,0,1,1.56-3,3.092,3.092,0,0,1,2-.8,2.6,2.6,0,0,1,2.4,1.16,4.016,4.016,0,0,1,.72,2.04,2.6,2.6,0,0,1-.32,1.24q-.32.6-.64,1.32a19.692,19.692,0,0,0-1.24,3,15.772,15.772,0,0,0-.6,4.84,14.277,14.277,0,0,0,.28,2.72,5.191,5.191,0,0,0,1.04,2.36,2.886,2.886,0,0,0,2.36.92,4.969,4.969,0,0,0,3.16-1.28,13.666,13.666,0,0,0,3.16-4.64l1.2.88q-1.76,4.08-3.92,5.52A7.534,7.534,0,0,1,108-5.04a5.873,5.873,0,0,1-4.32-1.76,10.982,10.982,0,0,1-2.64-4.96A75.763,75.763,0,0,1,96.6-4.72,29.485,29.485,0,0,1,91.52.92,8.189,8.189,0,0,1,86.32,3.12Zm31.04.64A6.159,6.159,0,0,1,113,2.08a6.683,6.683,0,0,1-1.8-5.12,17.129,17.129,0,0,1,1.28-6.12A31.448,31.448,0,0,1,116-15.72a35.78,35.78,0,0,1,5.08-5.88,25.857,25.857,0,0,1,6.04-4.24,14.2,14.2,0,0,1,6.4-1.6,8.636,8.636,0,0,1,5.4,1.68,5.354,5.354,0,0,1,2.2,4.48,3.074,3.074,0,0,1-1.24,2.8,5.142,5.142,0,0,1-3.08.72q.16-.72.28-1.44a8.745,8.745,0,0,0,.12-1.44,5.825,5.825,0,0,0-.8-3.08,3.175,3.175,0,0,0-2.96-1.32,8.162,8.162,0,0,0-4.56,1.56,21.176,21.176,0,0,0-4.44,4.12,37.155,37.155,0,0,0-3.8,5.56A34.225,34.225,0,0,0,118-7.92a16.625,16.625,0,0,0-.96,5.2q0,2.96,2,2.96a6.7,6.7,0,0,0,4.04-1.76,33.283,33.283,0,0,0,4.48-4.44q2.28-2.68,4.36-5.56t3.68-5.12q.24-.48.48-.48.4.08,1.2.32a4.563,4.563,0,0,1,1.44.72,1.448,1.448,0,0,1,.64,1.2,4.487,4.487,0,0,1-.68,1.96q-.68,1.24-1.6,2.8a27.044,27.044,0,0,0-1.6,3.16A7.619,7.619,0,0,0,134.8-4a4.626,4.626,0,0,0,.6,2.28,2.07,2.07,0,0,0,1.96,1.08q2.08,0,5.6-3.08a35.887,35.887,0,0,0,7.12-9.56l1.04,1.04a30.945,30.945,0,0,1-4.4,7.64A22,22,0,0,1,141.08.56a11.335,11.335,0,0,1-5.96,1.84A5.4,5.4,0,0,1,130.6.52a6.41,6.41,0,0,1-1.48-4.04q0-.4.04-.8t.12-.88a39.931,39.931,0,0,1-6.16,6.68A9.053,9.053,0,0,1,117.36,3.76ZM152,22.4a6.13,6.13,0,0,1-3.6-1.12,3.913,3.913,0,0,1-1.6-3.44,7.918,7.918,0,0,1,1.36-4.56,16.279,16.279,0,0,1,3.6-3.72,35.479,35.479,0,0,1,5.04-3.2q2.8-1.48,5.68-2.84,1.04-2.8,2.16-6.4t2.08-7.52a42.212,42.212,0,0,1-5.44,6.8,8.638,8.638,0,0,1-6.16,2.88,7.391,7.391,0,0,1-3.04-.68,6.031,6.031,0,0,1-2.52-2.12,6.46,6.46,0,0,1-1-3.76,21.039,21.039,0,0,1,.76-5.12,49.03,49.03,0,0,1,1.88-5.8,24.554,24.554,0,0,1,2.36-4.68q1.24-1.84,2.12-1.84a4.84,4.84,0,0,1,1.28.28,7.927,7.927,0,0,1,1.68.76,1.588,1.588,0,0,1,.88,1.04,20.769,20.769,0,0,0-1.6,2.92q-.88,1.88-1.72,4.2t-1.4,4.48a15.28,15.28,0,0,0-.56,3.76,3.892,3.892,0,0,0,.6,2.24,2.381,2.381,0,0,0,2.12.88,5.8,5.8,0,0,0,3.48-1.48,23.678,23.678,0,0,0,3.72-3.76,49.309,49.309,0,0,0,3.44-4.84q.16-.72.36-1.76t.44-2.08a8.619,8.619,0,0,1,1.24-2.56A3.273,3.273,0,0,1,172.56-22q.48,0,.92.04a5.51,5.51,0,0,1,1,.2,27.212,27.212,0,0,1-.76,4.76q-.76,3.48-2.16,8.08T168.32.48a25.042,25.042,0,0,0,7.24-4.68,22.957,22.957,0,0,0,5.88-8.92l1.12.96a19.06,19.06,0,0,1-3.64,6.72,27.556,27.556,0,0,1-5.48,4.96,38.991,38.991,0,0,1-6.08,3.44,85.843,85.843,0,0,1-4.56,9.56,32.484,32.484,0,0,1-5.2,7.16A7.965,7.965,0,0,1,152,22.4Zm-.56-2.72q1.28,0,4.08-3.16t5.92-10.6q-3.04,1.6-5.8,3.32a18.527,18.527,0,0,0-4.44,3.72,6.688,6.688,0,0,0-1.68,4.4,3.165,3.165,0,0,0,.44,1.52A1.552,1.552,0,0,0,151.44,19.68Zm37.12-15.6a10.275,10.275,0,0,1-6.12-1.64,9.052,9.052,0,0,1-3.24-4.08,13.343,13.343,0,0,1-.96-4.92,8.438,8.438,0,0,1,.64-3.68,4.652,4.652,0,0,1,1.56-1.88,9.345,9.345,0,0,1,1.76-.92,3.531,3.531,0,0,0,1.24-.72A52.871,52.871,0,0,0,187.72-19a37.45,37.45,0,0,0,3.56-6.12V-26a6.936,6.936,0,0,1,1.04-4.32,2.921,2.921,0,0,1,2.24-1.28,1.467,1.467,0,0,1,1.08.36,1.518,1.518,0,0,1,.44.84,4.725,4.725,0,0,1-.24,1.28,7.423,7.423,0,0,0-.24,2.08,17.178,17.178,0,0,0,1.08,5.64q1.08,3.08,2.16,6.48a23.245,23.245,0,0,1,1.08,7.08,15.465,15.465,0,0,1-.12,1.92q-.12.96-.28,1.76a11.994,11.994,0,0,0,5.12-2.6,20.024,20.024,0,0,0,4.72-6.44l.8.8a14.77,14.77,0,0,1-4.52,6.84,14.334,14.334,0,0,1-6.68,3.08,9.277,9.277,0,0,1-4.08,4.96A12.509,12.509,0,0,1,188.56,4.08Zm-.08-3.04A6.778,6.778,0,0,0,191.2.36a4.715,4.715,0,0,0,2.32-3,14.442,14.442,0,0,1-5.92-2.6,16.37,16.37,0,0,1-3.92-3.88q-1.6.08-1.6,2.56a8.887,8.887,0,0,0,1.68,5.2A5.431,5.431,0,0,0,188.48,1.04ZM194-4.24a12.8,12.8,0,0,0,.24-1.56q.08-.84.08-1.8a30.245,30.245,0,0,0-.92-7.36q-.92-3.68-1.64-7.04-1.68,2.8-3.68,5.6a36.986,36.986,0,0,1-3.84,4.64A16.291,16.291,0,0,0,188-7.2,13.526,13.526,0,0,0,194-4.24ZM225.92,7.04a6.159,6.159,0,0,1,2.16-4.52A10.254,10.254,0,0,1,232.84.68,42.793,42.793,0,0,1,239.2.24a59.577,59.577,0,0,0,2.84-7.48q1.4-4.44,2.68-9.56t2.52-10.4q1.24-5.28,2.32-10.16t2.08-8.84q1-3.96,1.8-6.36-4.08.08-7.08.28t-5.64.52q-2.64.32-5.6.88.72-3.36,4.64-4.96t12.16-1.6q4.08,0,8.36.32t7.84.68q3.56.36,5.56.68a9.482,9.482,0,0,1-4.44,2.64,18.477,18.477,0,0,1-3.88.48h-4.64q-2.16,0-4,.08-.4,2-1.08,5.68t-1.52,8.24q-.84,4.56-1.76,9.36t-1.8,9.04q-.88,4.24-1.6,7.2a51.482,51.482,0,0,1-2.76,8.32A12.91,12.91,0,0,1,242.56.4q4.16.24,8.76.8a86.767,86.767,0,0,0,8.84.64,11.74,11.74,0,0,1-5.28,3.2,19.346,19.346,0,0,1-4.4.64q-3.92,0-7.16.04t-6.12.12q-2.88.08-5.64.36T225.92,7.04Zm80.16-4.56A5.021,5.021,0,0,1,301.84.72a6.728,6.728,0,0,1-1.36-4.24,13.2,13.2,0,0,1,.6-3.88q.6-1.96,1.16-3.84a11.821,11.821,0,0,0,.56-3.32,2.837,2.837,0,0,0-.64-2.12,2.147,2.147,0,0,0-1.52-.6q-1.92,0-4.32,3t-6.08,8.6A32.132,32.132,0,0,0,288-1.76q-.96,2-1.76,3.52a11.122,11.122,0,0,1-1.72-.16,6.187,6.187,0,0,1-1.8-.56,1.189,1.189,0,0,1-.8-1.04,11.55,11.55,0,0,1,.76-2.68q.76-2.12,1.76-4.92t1.8-5.64a18.353,18.353,0,0,0,.8-4.84,4.3,4.3,0,0,0-.44-2.08,1.552,1.552,0,0,0-1.48-.8q-1.76,0-4.2,2.08a35.636,35.636,0,0,0-5.04,5.48,72.1,72.1,0,0,0-4.96,7.44,47.354,47.354,0,0,0-3.8,8.12,7.912,7.912,0,0,1-1.84-.28,8.844,8.844,0,0,1-1.96-.72q-.84-.44-.84-.84a18.134,18.134,0,0,1,.76-2.64q.76-2.32,1.72-5.64t1.84-6.76a33.011,33.011,0,0,0,1.04-6,3.592,3.592,0,0,1,1.6-1.32,5.178,5.178,0,0,1,2.32-.6,2.378,2.378,0,0,1,1.76.64,2.272,2.272,0,0,1,.64,1.68,15.254,15.254,0,0,1-.52,3.12q-.52,2.16-1.24,4.88,1.6-2.48,3.6-5a46.517,46.517,0,0,1,4.16-4.6,23.065,23.065,0,0,1,4.36-3.36,8.5,8.5,0,0,1,4.28-1.28,3.646,3.646,0,0,1,3.6,1.92,9.71,9.71,0,0,1,.96,4.4,19.878,19.878,0,0,1-.32,3.48,28.242,28.242,0,0,1-.8,3.36q-.48,1.56-.96,2.76a48.973,48.973,0,0,1,3.56-5.24A19.434,19.434,0,0,1,299.12-20,8.461,8.461,0,0,1,304-21.6a4.206,4.206,0,0,1,3.8,1.64,6.751,6.751,0,0,1,1.08,3.8,15.643,15.643,0,0,1-.72,4.48q-.72,2.4-1.44,4.64A12.893,12.893,0,0,0,306-3.2a3.357,3.357,0,0,0,.48,1.76,1.88,1.88,0,0,0,1.76.8,5.79,5.79,0,0,0,4.2-2.04,26.631,26.631,0,0,0,3.68-4.96,54.525,54.525,0,0,0,2.92-5.64l1.04,1.36a45,45,0,0,1-3.28,6.64A20.978,20.978,0,0,1,312.12.28,9.27,9.27,0,0,1,306.08,2.48Zm6.4,19.92a1.955,1.955,0,0,1-1.28-.56,4.36,4.36,0,0,1-1-1.24,7.765,7.765,0,0,1-.44-.92q1.44-4.56,2.64-8.04t2.24-6.88q1.04-3.4,1.96-7.68t1.92-10.4q1-6.12,2.12-15a2.637,2.637,0,0,1,.32-1.16q.24-.36,1.28-.36a3.866,3.866,0,0,1,3.2,1.2A4.131,4.131,0,0,1,326.4-26a28.143,28.143,0,0,1-.4,3.64q-.4,2.6-1.2,6.12a38.754,38.754,0,0,1,3.44-5.08,18.664,18.664,0,0,1,4.56-4.16,10.177,10.177,0,0,1,5.6-1.64,7.883,7.883,0,0,1,6,2.56,9.428,9.428,0,0,1,2.4,6.72,17.7,17.7,0,0,1-1.4,6.6,24.611,24.611,0,0,1-3.96,6.56,20.953,20.953,0,0,1-6.04,5,15.712,15.712,0,0,1-7.72,1.92,10.287,10.287,0,0,1-3.6-.52q-1.36-.52-1.36-1.16,0-.4.6-.44t1.4-.04a14.674,14.674,0,0,0,6.36-1.6,18.1,18.1,0,0,0,5.28-4.04,19.554,19.554,0,0,0,3.56-5.56,15.2,15.2,0,0,0,1.28-5.92,8.114,8.114,0,0,0-1.08-4.32,3.774,3.774,0,0,0-3.48-1.76,7.566,7.566,0,0,0-4.04,1.28,17.679,17.679,0,0,0-3.84,3.32,35.7,35.7,0,0,0-3.2,4.2,26.332,26.332,0,0,0-2.12,3.84Q322-4.72,320.64.76T318,10.72q-1.28,4.48-2.36,7.44a9.507,9.507,0,0,1-2.04,3.76A1.535,1.535,0,0,1,312.48,22.4ZM363.36,2.08A6.38,6.38,0,0,1,358.92.6a4.978,4.978,0,0,1-1.64-3.88,12.62,12.62,0,0,1,1.12-5q1.12-2.6,2.2-5.16A11.942,11.942,0,0,0,361.68-18a4.574,4.574,0,0,0-1.36-3.56,18.53,18.53,0,0,0-2.96-2.2Q355.6-19.2,353.52-15t-3.36,6.44l-.88-1.68q1.12-2.08,2.92-6.04t3.56-8.92a2.714,2.714,0,0,1-.8-2,5.957,5.957,0,0,1,1.32-3.92q1.32-1.6,2.12-1.6a1.05,1.05,0,0,1,1.16.84,6,6,0,0,1,.2,1.24,5.7,5.7,0,0,1-.4,1.52q-.4,1.12-.48,1.44a2.808,2.808,0,0,0,1.32,1.96q1.24.92,2.88,2.04a11.941,11.941,0,0,1,2.88,2.8,6.949,6.949,0,0,1,1.24,4.24,12.8,12.8,0,0,1-1,4.8q-1,2.48-2,4.64a9.33,9.33,0,0,0-1,3.84,1.9,1.9,0,0,0,.68,1.72,2.808,2.808,0,0,0,1.56.44,8,8,0,0,0,3.96-1.16,21.165,21.165,0,0,0,4-3,29.509,29.509,0,0,0,3.48-3.88,17.76,17.76,0,0,0,2.24-3.8L380.48-12a29.524,29.524,0,0,1-4.24,6.64A25.313,25.313,0,0,1,370.2,0,12.723,12.723,0,0,1,363.36,2.08Zm19.52.48q-3.52,0-4.92-2.2a9.4,9.4,0,0,1-1.4-5.16,18.018,18.018,0,0,1,.8-5.16,22.662,22.662,0,0,1,2.16-5,13.97,13.97,0,0,1,3.04-3.72,5.262,5.262,0,0,1,3.36-1.4,4.446,4.446,0,0,1,1,.12,3.155,3.155,0,0,1,.92.36,15.722,15.722,0,0,0-1.8,2.6,32.218,32.218,0,0,0-1.88,3.84,33.119,33.119,0,0,0-1.44,4.24,14.606,14.606,0,0,0-.56,3.64,5.643,5.643,0,0,0,.76,3.24,2.447,2.447,0,0,0,2.12,1.08,6.633,6.633,0,0,0,3.84-1.8,32.208,32.208,0,0,0,4.4-4.36,12.833,12.833,0,0,1-3.52-4.92,16.571,16.571,0,0,1-1.2-6.36,12.374,12.374,0,0,1,.88-4.56,8.975,8.975,0,0,1,2.68-3.72,6.881,6.881,0,0,1,4.52-1.48q3.36,0,4.56,1.8a7.829,7.829,0,0,1,1.2,4.44,18.525,18.525,0,0,1-1.52,6.88,38.978,38.978,0,0,1-3.84,7.2,6.172,6.172,0,0,0,2.8.64,9.427,9.427,0,0,0,2.88-.52,10.232,10.232,0,0,0,3.2-1.8,8.87,8.87,0,0,0,2.56-3.52l1.12.88A11.064,11.064,0,0,1,405-6.6a11.513,11.513,0,0,1-5.64,1.64,9.784,9.784,0,0,1-2-.2,13.336,13.336,0,0,1-1.84-.52A29.919,29.919,0,0,1,389.44.16,11.318,11.318,0,0,1,382.88,2.56ZM394.96-9.36a40.186,40.186,0,0,0,3.28-6.16,15.557,15.557,0,0,0,1.36-6.08,6.025,6.025,0,0,0-.64-3.16,1.989,1.989,0,0,0-1.76-1q-1.52,0-3.2,2.28a9.383,9.383,0,0,0-1.68,5.72,16.488,16.488,0,0,0,.68,4.48A10.406,10.406,0,0,0,394.96-9.36ZM412.24,3.12A3.707,3.707,0,0,1,408.56.6a17.29,17.29,0,0,1-1.04-6.52q0-.4.08-2.76t.4-7.4a9.773,9.773,0,0,1,.44-3.08q.36-.84,2.28-.84,1.52,0,1.88.6a5.161,5.161,0,0,1,.36,2.36q0,2.56-.32,5.84t-.32,6.24a12.044,12.044,0,0,0,.36,3.48,1.388,1.388,0,0,0,1.4,1.08A4.9,4.9,0,0,0,417.24-2a25.771,25.771,0,0,0,3.52-4.2,59.279,59.279,0,0,0,3.4-5.56q1.6-2.96,2.88-5.76.16-5.44,1.2-7.24a3.039,3.039,0,0,1,2.64-1.8,2.507,2.507,0,0,1,2.36,1.16,4.173,4.173,0,0,1,.68,2.04,4.065,4.065,0,0,1-.64,2.16,18.605,18.605,0,0,0-1.36,2.88,15.7,15.7,0,0,0-.72,5.44,15.452,15.452,0,0,0,.24,2.6,4.9,4.9,0,0,0,1.04,2.36,2.946,2.946,0,0,0,2.4.96,4.825,4.825,0,0,0,3.2-1.32,14.739,14.739,0,0,0,3.12-4.6l.96.72Q440.4-8,438.2-6.52a7.49,7.49,0,0,1-4.12,1.48A5.548,5.548,0,0,1,429.72-7a11.89,11.89,0,0,1-2.44-5.64,62.01,62.01,0,0,1-4.44,7.36,32.88,32.88,0,0,1-5.28,6A8.276,8.276,0,0,1,412.24,3.12Zm36.08.4q-4.96,0-7.52-2.72a9.431,9.431,0,0,1-2.56-6.72,18.388,18.388,0,0,1,1.8-7.52,31.493,31.493,0,0,1,4.8-7.52,26.505,26.505,0,0,1,6.64-5.68,14.1,14.1,0,0,1,7.24-2.16,6.713,6.713,0,0,1,3.56,1q1.64,1,1.64,4.04a10.048,10.048,0,0,1-1.76,5.68,18.037,18.037,0,0,1-4.72,4.72A29.1,29.1,0,0,1,451-9.96a28.879,28.879,0,0,1-7,1.72A7.048,7.048,0,0,0,443.8-7q-.04.6-.04,1.24a11.882,11.882,0,0,0,.2,2.08,5.786,5.786,0,0,0,.88,2.16A4.938,4.938,0,0,0,446.76.16,7.072,7.072,0,0,0,450,.8a13.574,13.574,0,0,0,6.8-1.92,26.428,26.428,0,0,0,6.28-5.08,32.148,32.148,0,0,0,4.92-7l1.2.88a29.987,29.987,0,0,1-5.52,8.36,25.833,25.833,0,0,1-7.32,5.52A17.951,17.951,0,0,1,448.32,3.52Zm-3.76-13.76a23.621,23.621,0,0,0,4.8-1.92,35.029,35.029,0,0,0,5.12-3.24,18.788,18.788,0,0,0,4.08-4.16,8.168,8.168,0,0,0,1.6-4.76,2.051,2.051,0,0,0-.32-1.28,1.594,1.594,0,0,0-1.28-.4,7.292,7.292,0,0,0-3.96,1.4,19.411,19.411,0,0,0-4.08,3.72,35.216,35.216,0,0,0-3.56,5.08A24.52,24.52,0,0,0,444.56-10.24ZM529.52,9.52a12.75,12.75,0,0,1-6.88-2,54.861,54.861,0,0,1-6.16-4.48,19.731,19.731,0,0,1-3.96,1.48,16.937,16.937,0,0,1-4.2.52,11.136,11.136,0,0,1-4.68-.84,7.15,7.15,0,0,1-2.72-2.04A7.653,7.653,0,0,1,499.64-.2a6.577,6.577,0,0,1-.36-1.8,4.523,4.523,0,0,1,1.36-2.96q1.36-1.52,4.72-1.52a14.4,14.4,0,0,1,6.44,1.56q3.16,1.56,6.44,3.56a32.252,32.252,0,0,0,6.28-8.08,58.444,58.444,0,0,0,4.6-10.44,83.539,83.539,0,0,0,2.84-10.92,52.915,52.915,0,0,0,1-9.6q0-6.48-2.52-10.56t-8.2-4.08a15.225,15.225,0,0,0-8.64,2.68,27.737,27.737,0,0,0-7.2,7.24,52.352,52.352,0,0,0-5.52,10.2,63.235,63.235,0,0,0-3.52,11.6,58.15,58.15,0,0,0-1.2,11.48q0,1.6.16,3.4a32.249,32.249,0,0,0,.56,3.72,5.334,5.334,0,0,1-4.12-1.6,8.732,8.732,0,0,1-2.04-4.16,25.811,25.811,0,0,1-.56-5.52,45.655,45.655,0,0,1,1.6-11.88,51.468,51.468,0,0,1,4.52-11.32,43.148,43.148,0,0,1,6.92-9.48,32.269,32.269,0,0,1,8.84-6.52,22.667,22.667,0,0,1,10.2-2.4q7.84,0,12.28,5.24T538.96-38a43.617,43.617,0,0,1-1.32,10.36,56.489,56.489,0,0,1-3.76,10.6,58.148,58.148,0,0,1-5.72,9.68A38.528,38.528,0,0,1,521.04.16a38.718,38.718,0,0,0,5.56,2.48,18.1,18.1,0,0,0,6.12,1.04,7.647,7.647,0,0,0,2.72-.36,15.3,15.3,0,0,1,2.24-.68,9.788,9.788,0,0,1-2.28,4.44,7.544,7.544,0,0,1-3,1.96A9.573,9.573,0,0,1,529.52,9.52ZM507.84,2.96a11.447,11.447,0,0,0,3.48-.52A21.21,21.21,0,0,0,514.4,1.2a55.746,55.746,0,0,0-4.88-3.68,8.828,8.828,0,0,0-4.96-1.6,3.179,3.179,0,0,0-2.44.76,2.335,2.335,0,0,0-.68,1.56A4.377,4.377,0,0,0,502,.08a5.24,5.24,0,0,0,1.92,2A7.234,7.234,0,0,0,507.84,2.96Zm39.84-.56a5.01,5.01,0,0,1-4.36-2.48,10.062,10.062,0,0,1-1.64-5.68,23.62,23.62,0,0,1,.72-5.36,42.916,42.916,0,0,1,1.88-5.96,30.431,30.431,0,0,1,2.36-4.84q1.2-1.92,2.16-1.92a4.3,4.3,0,0,1,1.44.48A5.353,5.353,0,0,1,552-22.08,36.861,36.861,0,0,0,549.84-18a43.478,43.478,0,0,0-2.24,5.88,20.088,20.088,0,0,0-.96,5.8,16.911,16.911,0,0,0,.16,1.84,6.107,6.107,0,0,0,.76,2.32,1.95,1.95,0,0,0,1.8,1.04,4.465,4.465,0,0,0,3.08-1.56,26.849,26.849,0,0,0,3.2-4q1.64-2.44,3.2-5.24t2.84-5.44q1.28-2.64,2.16-4.4a13.079,13.079,0,0,1,1.56.36,8.454,8.454,0,0,1,1.8.72,1.362,1.362,0,0,1,.8,1.24,9.4,9.4,0,0,1-.8,2.08q-.8,1.76-1.84,4.28t-1.84,5.12a15.892,15.892,0,0,0-.8,4.6,3.9,3.9,0,0,0,.56,2.2,2.135,2.135,0,0,0,1.92.84,7.882,7.882,0,0,0,4.04-1.52,23.1,23.1,0,0,0,4.84-4.4,30.5,30.5,0,0,0,4.4-6.96l1.12.8a27.967,27.967,0,0,1-4.44,7.68A23.516,23.516,0,0,1,569.32.52a11.561,11.561,0,0,1-6.04,1.88,5.594,5.594,0,0,1-3.36-.88,4.606,4.606,0,0,1-1.68-2.36A12.059,12.059,0,0,1,557.68-4a10.769,10.769,0,0,1,.12-1.6q.12-.8.28-1.6A48.933,48.933,0,0,1,555-2.52a17.027,17.027,0,0,1-3.48,3.56A6.373,6.373,0,0,1,547.68,2.4Zm33.2,1.36a6.159,6.159,0,0,1-4.36-1.68,6.683,6.683,0,0,1-1.8-5.12A17.129,17.129,0,0,1,576-9.16a31.447,31.447,0,0,1,3.52-6.56,35.781,35.781,0,0,1,5.08-5.88,25.858,25.858,0,0,1,6.04-4.24,14.2,14.2,0,0,1,6.4-1.6,8.636,8.636,0,0,1,5.4,1.68,5.354,5.354,0,0,1,2.2,4.48,3.073,3.073,0,0,1-1.24,2.8,5.142,5.142,0,0,1-3.08.72q.16-.72.28-1.44a8.743,8.743,0,0,0,.12-1.44,5.825,5.825,0,0,0-.8-3.08,3.175,3.175,0,0,0-2.96-1.32,8.162,8.162,0,0,0-4.56,1.56,21.178,21.178,0,0,0-4.44,4.12,37.155,37.155,0,0,0-3.8,5.56,34.226,34.226,0,0,0-2.64,5.88,16.626,16.626,0,0,0-.96,5.2q0,2.96,2,2.96a6.7,6.7,0,0,0,4.04-1.76,33.284,33.284,0,0,0,4.48-4.44q2.28-2.68,4.36-5.56t3.68-5.12q.24-.48.48-.48.4.08,1.2.32a4.564,4.564,0,0,1,1.44.72,1.448,1.448,0,0,1,.64,1.2,4.487,4.487,0,0,1-.68,1.96q-.68,1.24-1.6,2.8A27.037,27.037,0,0,0,599-6.96,7.62,7.62,0,0,0,598.32-4a4.627,4.627,0,0,0,.6,2.28,2.07,2.07,0,0,0,1.96,1.08q2.08,0,5.6-3.08a35.886,35.886,0,0,0,7.12-9.56l1.04,1.04a30.945,30.945,0,0,1-4.4,7.64A22,22,0,0,1,604.6.56a11.335,11.335,0,0,1-5.96,1.84A5.4,5.4,0,0,1,594.12.52a6.41,6.41,0,0,1-1.48-4.04q0-.4.04-.8t.12-.88a39.932,39.932,0,0,1-6.16,6.68A9.053,9.053,0,0,1,580.88,3.76ZM618.64,2.4q-3.52,0-5-2.4a11.081,11.081,0,0,1-1.48-5.92,35.454,35.454,0,0,1,1.44-9.12,100.116,100.116,0,0,1,3.8-11.12q2.36-5.84,5.16-11.4t5.64-10.08a59.69,59.69,0,0,1,5.2-7.24q2.36-2.72,3.8-2.72a1.776,1.776,0,0,1,1.56,1.04,9.7,9.7,0,0,1,.96,2.44,10.484,10.484,0,0,1,.36,2.6A20.053,20.053,0,0,1,639-45.88a63.523,63.523,0,0,1-3.04,7.72,82.813,82.813,0,0,1-4.64,8.6,79.262,79.262,0,0,1-5.88,8.32,46.751,46.751,0,0,1-6.72,6.84q-.48,2.16-.76,4.16a27.2,27.2,0,0,0-.28,3.76A8.516,8.516,0,0,0,618.6-2a2.917,2.917,0,0,0,2.6,1.44,6.4,6.4,0,0,0,4.2-1.88,23.959,23.959,0,0,0,4.04-4.8,40.275,40.275,0,0,0,3.28-6.04l1.44.72a39.816,39.816,0,0,1-7.2,10.96Q623.04,2.4,618.64,2.4Zm1.04-20.24A66.4,66.4,0,0,0,625-24.28a79.781,79.781,0,0,0,4.8-7.4q2.2-3.84,3.88-7.4a54.883,54.883,0,0,0,2.6-6.4,15.54,15.54,0,0,0,.92-4.44,1.377,1.377,0,0,0-.12-.72.794.794,0,0,0-.28-.24q-.64,0-2.12,1.96t-3.52,5.32Q629.12-40.24,627-36t-4.04,8.92Q621.04-22.4,619.68-17.84Zm17.36,20a5.873,5.873,0,0,1-4.88-2,7.445,7.445,0,0,1-1.6-4.8,20.419,20.419,0,0,1,.68-4.64,55.8,55.8,0,0,1,1.8-5.88,42.51,42.51,0,0,1,2.6-5.8,19.243,19.243,0,0,1,3.2-4.44,4.926,4.926,0,0,1,3.4-1.72,2.019,2.019,0,0,1,1.36.48,1.792,1.792,0,0,1,.56,1.44,7.61,7.61,0,0,1-1.24,3.12q-1.24,2.16-2.88,4.92a43.489,43.489,0,0,0-2.88,5.8,15.269,15.269,0,0,0-1.24,5.76q0,2.8.92,3.72a3.87,3.87,0,0,0,2.84.92q2.72,0,5.84-2.72t6.56-9.52l.88.96a24.981,24.981,0,0,1-6.8,10.64A13.723,13.723,0,0,1,637.04,2.16Zm9.52-36.4a4.483,4.483,0,0,1-2.44-.68,2.326,2.326,0,0,1-1.08-2.12,3.637,3.637,0,0,1,2-3.04,7.372,7.372,0,0,1,4-1.28,3.744,3.744,0,0,1,2.12.56,2.321,2.321,0,0,1,.84,2.08,4.093,4.093,0,0,1-1.72,3A5.6,5.6,0,0,1,646.56-34.24Zm10.8,37.92a7.136,7.136,0,0,1-5.4-2.04Q650-.4,650-4.4a36.04,36.04,0,0,1,1.28-8.52,99.333,99.333,0,0,1,3.28-10.44q-.72-.16-1.44-.28a9.475,9.475,0,0,1-1.44-.36v-1.76l1.76.16q.88.08,1.92.16,1.68-4.32,3.6-8.32t3.84-7.16a30.878,30.878,0,0,1,3.64-5q1.72-1.84,3-1.84a1.966,1.966,0,0,1,1.24.48,1.733,1.733,0,0,1,.6,1.44,10.919,10.919,0,0,1-1.68,4.48q-1.68,3.04-4.12,7.2t-4.76,8.96h2.8q2.96,0,5.84-.08t5.84-.4v1.84q-4.4.4-7.92.64t-6.48.32h-1.12a73.695,73.695,0,0,0-3.04,8.44,30.165,30.165,0,0,0-1.28,8.52q0,3.36,1.04,4.8A3.862,3.862,0,0,0,659.76.32q4.16,0,8.2-3.64a32.7,32.7,0,0,0,7.16-9.96l1.04.8a36.389,36.389,0,0,1-4.96,8.24,24.507,24.507,0,0,1-6.52,5.8A14.133,14.133,0,0,1,657.36,3.68ZM676.88,22.4a6.129,6.129,0,0,1-3.6-1.12,3.913,3.913,0,0,1-1.6-3.44,7.918,7.918,0,0,1,1.36-4.56,16.278,16.278,0,0,1,3.6-3.72,35.478,35.478,0,0,1,5.04-3.2q2.8-1.48,5.68-2.84,1.04-2.8,2.16-6.4t2.08-7.52a42.212,42.212,0,0,1-5.44,6.8A8.638,8.638,0,0,1,680-.72a7.391,7.391,0,0,1-3.04-.68,6.031,6.031,0,0,1-2.52-2.12,6.46,6.46,0,0,1-1-3.76,21.04,21.04,0,0,1,.76-5.12,49.032,49.032,0,0,1,1.88-5.8,24.554,24.554,0,0,1,2.36-4.68q1.24-1.84,2.12-1.84a4.84,4.84,0,0,1,1.28.28,7.926,7.926,0,0,1,1.68.76,1.588,1.588,0,0,1,.88,1.04,20.773,20.773,0,0,0-1.6,2.92q-.88,1.88-1.72,4.2t-1.4,4.48a15.28,15.28,0,0,0-.56,3.76,3.893,3.893,0,0,0,.6,2.24,2.381,2.381,0,0,0,2.12.88,5.8,5.8,0,0,0,3.48-1.48,23.677,23.677,0,0,0,3.72-3.76,49.324,49.324,0,0,0,3.44-4.84q.16-.72.36-1.76t.44-2.08a8.618,8.618,0,0,1,1.24-2.56A3.273,3.273,0,0,1,697.44-22q.48,0,.92.04a5.51,5.51,0,0,1,1,.2A27.214,27.214,0,0,1,698.6-17q-.76,3.48-2.16,8.08T693.2.48a25.041,25.041,0,0,0,7.24-4.68,22.957,22.957,0,0,0,5.88-8.92l1.12.96a19.059,19.059,0,0,1-3.64,6.72,27.555,27.555,0,0,1-5.48,4.96,38.99,38.99,0,0,1-6.08,3.44,85.843,85.843,0,0,1-4.56,9.56,32.487,32.487,0,0,1-5.2,7.16A7.965,7.965,0,0,1,676.88,22.4Zm-.56-2.72q1.28,0,4.08-3.16t5.92-10.6q-3.04,1.6-5.8,3.32a18.527,18.527,0,0,0-4.44,3.72,6.688,6.688,0,0,0-1.68,4.4,3.165,3.165,0,0,0,.44,1.52A1.552,1.552,0,0,0,676.32,19.68Z" transform="translate(1.38 58.18)" fill="none" stroke="#9a7141" stroke-width="1"/>
</svg>
