<svg xmlns="http://www.w3.org/2000/svg" width="781.104" height="81" viewBox="0 0 781.104 81">
  <path id="Path_4132" data-name="Path 4132" d="M16.16,6.96q-3.84,0-5.32-1.64a6.03,6.03,0,0,1-1.48-4.2,19.677,19.677,0,0,1,.96-5.52q.96-3.2,1.92-6.16,1.6-4.56,3.56-9.92t4.12-10.88q2.16-5.52,4.36-10.8t4.2-9.68q-5.52.08-9.32.28t-6.88.52q-3.08.32-6.6.96a5.836,5.836,0,0,1,2.96-4.56,19.325,19.325,0,0,1,7.04-2.28,66.6,66.6,0,0,1,10.08-.68q4.72,0,8.56.32t7.24.68q3.4.36,6.76.52a2.352,2.352,0,0,1-1.48,2.24,10.7,10.7,0,0,1-3.56.48,8.891,8.891,0,0,1-3.2,1.08,34.759,34.759,0,0,1-3.84.36q-2,.08-3.84.08-2.96,7.44-6.24,17.32t-6.4,21.4q-1.12,4.08-1.96,7.2T16.52-.2a31.348,31.348,0,0,0-.44,5.24q0,.4,0,.88A7.385,7.385,0,0,0,16.16,6.96Zm24.8-3.92q-1.6,0-2.44-2.6a19.378,19.378,0,0,1-.84-5.96,40.523,40.523,0,0,1,1.24-9.04,96.953,96.953,0,0,1,3.36-11.08Q44.4-31.44,47-37a114.278,114.278,0,0,1,5.32-10.12,47.34,47.34,0,0,1,5.16-7.28q2.44-2.72,4.28-2.72a2.317,2.317,0,0,1,2.2,1.76,9.706,9.706,0,0,1,.68,3.52,18.634,18.634,0,0,1-1,5.36,50.316,50.316,0,0,1-2.76,6.84,59.615,59.615,0,0,1-4.08,7.12,48.268,48.268,0,0,1-5.08,6.4,26.593,26.593,0,0,1-5.56,4.6,32.912,32.912,0,0,0-1.68,5.2,44.239,44.239,0,0,0-.92,5.24,41.944,41.944,0,0,0-.28,4.6q0,.72.04,1.32t.04,1.08q.88-2.32,2-5.04a54.617,54.617,0,0,1,2.56-5.36,31.3,31.3,0,0,1,3.2-4.8,16.126,16.126,0,0,1,3.84-3.48,8.48,8.48,0,0,1,4.64-1.32,5.613,5.613,0,0,1,3.76,1.16,6.9,6.9,0,0,1,2,2.84A9.588,9.588,0,0,1,66-16.64a13.888,13.888,0,0,1-.84,4.84q-.84,2.28-1.72,4.36a10.251,10.251,0,0,0-.88,4,3,3,0,0,0,.68,2.24,2.307,2.307,0,0,0,1.64.64A7.024,7.024,0,0,0,69-2.32,26.366,26.366,0,0,0,73.56-7a35.885,35.885,0,0,0,3.96-6.36l1.12,1.12a37.131,37.131,0,0,1-4.2,7.16A21.336,21.336,0,0,1,69.12.04a11.069,11.069,0,0,1-6.16,1.88A5.8,5.8,0,0,1,58.68.44,5.045,5.045,0,0,1,57.2-3.28a12.916,12.916,0,0,1,.64-3.76q.64-2.08,1.24-4.2a14.588,14.588,0,0,0,.6-3.96,3.794,3.794,0,0,0-.88-2.88,3.094,3.094,0,0,0-2.16-.8,5.034,5.034,0,0,0-3.6,1.56,15.348,15.348,0,0,0-2.88,4.08q-1.28,2.52-2.44,5.32T45.48-2.64a25.749,25.749,0,0,1-2.16,4.08A2.968,2.968,0,0,1,40.96,3.04Zm6.4-28.32a24.357,24.357,0,0,0,4.28-4.44,59.546,59.546,0,0,0,3.8-5.64q1.76-2.96,3.16-5.8a40.04,40.04,0,0,0,2.16-5.16,12.445,12.445,0,0,0,.76-3.44,1.17,1.17,0,0,0-.04-.4.627.627,0,0,0-.12-.16q-.56,0-2.24,2.12a56.885,56.885,0,0,0-3.84,5.68A88.6,88.6,0,0,0,51-34.48,75.822,75.822,0,0,0,47.36-25.28ZM79.84,3.76a6.159,6.159,0,0,1-4.36-1.68,6.683,6.683,0,0,1-1.8-5.12,17.129,17.129,0,0,1,1.28-6.12,31.448,31.448,0,0,1,3.52-6.56,35.78,35.78,0,0,1,5.08-5.88,25.857,25.857,0,0,1,6.04-4.24,14.2,14.2,0,0,1,6.4-1.6,8.636,8.636,0,0,1,5.4,1.68,5.354,5.354,0,0,1,2.2,4.48,3.074,3.074,0,0,1-1.24,2.8,5.142,5.142,0,0,1-3.08.72q.16-.72.28-1.44a8.746,8.746,0,0,0,.12-1.44,5.825,5.825,0,0,0-.8-3.08,3.175,3.175,0,0,0-2.96-1.32,8.162,8.162,0,0,0-4.56,1.56,21.176,21.176,0,0,0-4.44,4.12,37.155,37.155,0,0,0-3.8,5.56,34.225,34.225,0,0,0-2.64,5.88,16.625,16.625,0,0,0-.96,5.2q0,2.96,2,2.96a6.7,6.7,0,0,0,4.04-1.76,33.283,33.283,0,0,0,4.48-4.44q2.28-2.68,4.36-5.56t3.68-5.12q.24-.48.48-.48.4.08,1.2.32a4.563,4.563,0,0,1,1.44.72,1.448,1.448,0,0,1,.64,1.2,4.487,4.487,0,0,1-.68,1.96q-.68,1.24-1.6,2.8a27.043,27.043,0,0,0-1.6,3.16A7.619,7.619,0,0,0,97.28-4a4.626,4.626,0,0,0,.6,2.28A2.07,2.07,0,0,0,99.84-.64q2.08,0,5.6-3.08a35.887,35.887,0,0,0,7.12-9.56l1.04,1.04a30.945,30.945,0,0,1-4.4,7.64A22,22,0,0,1,103.56.56,11.335,11.335,0,0,1,97.6,2.4,5.4,5.4,0,0,1,93.08.52,6.41,6.41,0,0,1,91.6-3.52q0-.4.04-.8t.12-.88A39.931,39.931,0,0,1,85.6,1.48,9.053,9.053,0,0,1,79.84,3.76ZM137.12,1.6A6.03,6.03,0,0,1,132.68.12a5.144,5.144,0,0,1-1.48-3.8,11.131,11.131,0,0,1,.6-3.44q.6-1.84,1.16-3.76a13.135,13.135,0,0,0,.56-3.68,3.794,3.794,0,0,0-.88-2.88,3.093,3.093,0,0,0-2.16-.8,8.222,8.222,0,0,0-5.04,2,27.45,27.45,0,0,0-4.92,5.12q-2.36,3.12-4.44,6.4T112.4,1.2a7.14,7.14,0,0,1-2.6-.48,4.341,4.341,0,0,1-1.96-1.44,11.712,11.712,0,0,1,.84-2.48q.84-2.08,1.96-5.04a61.563,61.563,0,0,0,1.96-6.16,22.927,22.927,0,0,0,.84-5.76,4.514,4.514,0,0,1,1.56-1.2,4.886,4.886,0,0,1,2.28-.56q2.4,0,2.4,2.16a19.092,19.092,0,0,1-.6,3.8q-.6,2.6-1.56,5.64a57.849,57.849,0,0,1,4.72-6.12,28.93,28.93,0,0,1,5.56-4.96,10.365,10.365,0,0,1,5.8-1.96,5.254,5.254,0,0,1,4.76,2.28,9,9,0,0,1,1.48,5,12.6,12.6,0,0,1-.8,4.56q-.8,2.08-1.64,4a9.512,9.512,0,0,0-.84,3.84,2.855,2.855,0,0,0,.68,2.2,2.29,2.29,0,0,0,1.56.6,6.106,6.106,0,0,0,4.04-1.84,23.922,23.922,0,0,0,3.92-4.72,53.512,53.512,0,0,0,3.32-5.84l1.04,1.12a40.337,40.337,0,0,1-3.8,7,20.129,20.129,0,0,1-4.64,4.92A9.216,9.216,0,0,1,137.12,1.6Zm35.52,1.44a5.678,5.678,0,0,1-4-1.56,11.331,11.331,0,0,1-2.68-3.88,23.254,23.254,0,0,1-1.48-4.8,23.148,23.148,0,0,1-.48-4.32,16.587,16.587,0,0,0,2.64-.52,16.441,16.441,0,0,0,3.44-1.36,9.865,9.865,0,0,0,2.96-2.32,4.936,4.936,0,0,0,1.2-3.32,3.136,3.136,0,0,0-1.08-2.52,4.107,4.107,0,0,0-2.76-.92,7.1,7.1,0,0,0-4.48,1.64,17.635,17.635,0,0,0-3.8,4.28A45.776,45.776,0,0,0,159-10.92q-1.4,3-2.4,5.76t-1.64,4.6a5.224,5.224,0,0,1-1.48,2.4,3.143,3.143,0,0,1-1.96.64,2.091,2.091,0,0,1-1.76-.84,5.627,5.627,0,0,1-.92-2.44,22.085,22.085,0,0,1-.28-3.76,42.4,42.4,0,0,1,1.36-9.96A94.439,94.439,0,0,1,153.56-26q2.28-5.92,5-11.44t5.48-10a48.693,48.693,0,0,1,5.12-7.08q2.36-2.6,3.88-2.6,1.2,0,1.96,1.56a8.825,8.825,0,0,1,.76,3.88,18.275,18.275,0,0,1-1.2,6.08,33.726,33.726,0,0,1-3.4,6.8,38.489,38.489,0,0,1-5.24,6.48,35.59,35.59,0,0,1-6.56,5.2,66.752,66.752,0,0,0-3.84,11.8,51.781,51.781,0,0,0-1.36,9.88q1.36-3.28,3.16-6.96a57.568,57.568,0,0,1,4.08-7.04,24.3,24.3,0,0,1,4.96-5.48A8.962,8.962,0,0,1,172-27.04a7.221,7.221,0,0,1,5.24,2.16,7.025,7.025,0,0,1,2.2,5.2,7,7,0,0,1-1.32,4.32,11,11,0,0,1-3.2,2.88,15.354,15.354,0,0,1-3.76,1.64,16.012,16.012,0,0,1-3.16.6q.16.72.56,2.4a19.717,19.717,0,0,0,1.16,3.4,11.015,11.015,0,0,0,1.88,2.96,3.531,3.531,0,0,0,2.72,1.24,6.615,6.615,0,0,0,4.28-1.8,21.615,21.615,0,0,0,4.04-4.76,45.58,45.58,0,0,0,3.52-6.64l.88.96a28.456,28.456,0,0,1-3.52,7.52A24.206,24.206,0,0,1,178.36.8,9.212,9.212,0,0,1,172.64,3.04Zm-11.6-34.16a35.566,35.566,0,0,0,5.76-6.04,38.77,38.77,0,0,0,4.24-6.88,14.057,14.057,0,0,0,1.6-5.72v-.36q0-.12-.16-.2-.8.16-2.68,2.84a70.779,70.779,0,0,0-4.2,7Q163.28-36.16,161.04-31.12ZM208.8,22.4a6.13,6.13,0,0,1-3.6-1.12,3.913,3.913,0,0,1-1.6-3.44,7.918,7.918,0,0,1,1.36-4.56,16.279,16.279,0,0,1,3.6-3.72,35.479,35.479,0,0,1,5.04-3.2q2.8-1.48,5.68-2.84,1.04-2.8,2.16-6.4t2.08-7.52a42.212,42.212,0,0,1-5.44,6.8,8.638,8.638,0,0,1-6.16,2.88,7.39,7.39,0,0,1-3.04-.68,6.031,6.031,0,0,1-2.52-2.12,6.46,6.46,0,0,1-1-3.76,21.039,21.039,0,0,1,.76-5.12A49.03,49.03,0,0,1,208-18.2a24.554,24.554,0,0,1,2.36-4.68q1.24-1.84,2.12-1.84a4.84,4.84,0,0,1,1.28.28,7.927,7.927,0,0,1,1.68.76,1.588,1.588,0,0,1,.88,1.04,20.769,20.769,0,0,0-1.6,2.92q-.88,1.88-1.72,4.2t-1.4,4.48a15.28,15.28,0,0,0-.56,3.76,3.892,3.892,0,0,0,.6,2.24,2.381,2.381,0,0,0,2.12.88,5.8,5.8,0,0,0,3.48-1.48,23.677,23.677,0,0,0,3.72-3.76,49.309,49.309,0,0,0,3.44-4.84q.16-.72.36-1.76t.44-2.08a8.619,8.619,0,0,1,1.24-2.56A3.273,3.273,0,0,1,229.36-22q.48,0,.92.04a5.51,5.51,0,0,1,1,.2,27.212,27.212,0,0,1-.76,4.76q-.76,3.48-2.16,8.08T225.12.48a25.042,25.042,0,0,0,7.24-4.68,22.957,22.957,0,0,0,5.88-8.92l1.12.96a19.06,19.06,0,0,1-3.64,6.72,27.556,27.556,0,0,1-5.48,4.96,38.99,38.99,0,0,1-6.08,3.44,85.843,85.843,0,0,1-4.56,9.56,32.484,32.484,0,0,1-5.2,7.16A7.965,7.965,0,0,1,208.8,22.4Zm-.56-2.72q1.28,0,4.08-3.16t5.92-10.6q-3.04,1.6-5.8,3.32A18.527,18.527,0,0,0,208,12.96a6.688,6.688,0,0,0-1.68,4.4,3.165,3.165,0,0,0,.44,1.52A1.552,1.552,0,0,0,208.24,19.68ZM242.08,2.56q-3.52,0-4.92-2.2a9.4,9.4,0,0,1-1.4-5.16,18.018,18.018,0,0,1,.8-5.16,22.662,22.662,0,0,1,2.16-5,13.97,13.97,0,0,1,3.04-3.72,5.262,5.262,0,0,1,3.36-1.4,4.445,4.445,0,0,1,1,.12,3.154,3.154,0,0,1,.92.36,15.722,15.722,0,0,0-1.8,2.6,32.215,32.215,0,0,0-1.88,3.84,33.121,33.121,0,0,0-1.44,4.24,14.6,14.6,0,0,0-.56,3.64,5.643,5.643,0,0,0,.76,3.24,2.447,2.447,0,0,0,2.12,1.08,6.633,6.633,0,0,0,3.84-1.8,32.208,32.208,0,0,0,4.4-4.36,12.833,12.833,0,0,1-3.52-4.92,16.571,16.571,0,0,1-1.2-6.36,12.374,12.374,0,0,1,.88-4.56,8.975,8.975,0,0,1,2.68-3.72,6.881,6.881,0,0,1,4.52-1.48q3.36,0,4.56,1.8a7.828,7.828,0,0,1,1.2,4.44,18.525,18.525,0,0,1-1.52,6.88,38.978,38.978,0,0,1-3.84,7.2,6.173,6.173,0,0,0,2.8.64,9.427,9.427,0,0,0,2.88-.52,10.232,10.232,0,0,0,3.2-1.8,8.869,8.869,0,0,0,2.56-3.52l1.12.88a11.064,11.064,0,0,1-4.6,5.56,11.513,11.513,0,0,1-5.64,1.64,9.784,9.784,0,0,1-2-.2,13.336,13.336,0,0,1-1.84-.52A29.92,29.92,0,0,1,248.64.16,11.318,11.318,0,0,1,242.08,2.56ZM254.16-9.36a40.19,40.19,0,0,0,3.28-6.16,15.557,15.557,0,0,0,1.36-6.08,6.025,6.025,0,0,0-.64-3.16,1.989,1.989,0,0,0-1.76-1q-1.52,0-3.2,2.28a9.383,9.383,0,0,0-1.68,5.72,16.489,16.489,0,0,0,.68,4.48A10.406,10.406,0,0,0,254.16-9.36ZM272,2.4a5.01,5.01,0,0,1-4.36-2.48A10.062,10.062,0,0,1,266-5.76a23.618,23.618,0,0,1,.72-5.36,42.908,42.908,0,0,1,1.88-5.96,30.429,30.429,0,0,1,2.36-4.84q1.2-1.92,2.16-1.92a4.3,4.3,0,0,1,1.44.48,5.352,5.352,0,0,1,1.76,1.28A36.862,36.862,0,0,0,274.16-18a43.474,43.474,0,0,0-2.24,5.88,20.086,20.086,0,0,0-.96,5.8,16.906,16.906,0,0,0,.16,1.84,6.106,6.106,0,0,0,.76,2.32,1.95,1.95,0,0,0,1.8,1.04,4.465,4.465,0,0,0,3.08-1.56,26.847,26.847,0,0,0,3.2-4q1.64-2.44,3.2-5.24T286-17.36q1.28-2.64,2.16-4.4a13.079,13.079,0,0,1,1.56.36,8.452,8.452,0,0,1,1.8.72,1.362,1.362,0,0,1,.8,1.24,9.4,9.4,0,0,1-.8,2.08q-.8,1.76-1.84,4.28t-1.84,5.12a15.894,15.894,0,0,0-.8,4.6,3.9,3.9,0,0,0,.56,2.2,2.135,2.135,0,0,0,1.92.84,7.882,7.882,0,0,0,4.04-1.52,23.093,23.093,0,0,0,4.84-4.4,30.5,30.5,0,0,0,4.4-6.96l1.12.8a27.969,27.969,0,0,1-4.44,7.68A23.515,23.515,0,0,1,293.64.52,11.561,11.561,0,0,1,287.6,2.4a5.594,5.594,0,0,1-3.36-.88,4.606,4.606,0,0,1-1.68-2.36A12.058,12.058,0,0,1,282-4a10.773,10.773,0,0,1,.12-1.6q.12-.8.28-1.6a48.927,48.927,0,0,1-3.08,4.68,17.027,17.027,0,0,1-3.48,3.56A6.372,6.372,0,0,1,272,2.4Zm49.2,20a4.725,4.725,0,0,1-1.92-.52,4.339,4.339,0,0,1-1.92-2.08,10.623,10.623,0,0,1-.8-4.68,47.39,47.39,0,0,1,1.16-9.08q1.16-5.64,3.24-12.4t4.8-13.92q2.72-7.16,5.88-13.8a114.831,114.831,0,0,1,6.52-11.96,45.365,45.365,0,0,1,6.6-8.44q3.24-3.12,6.2-3.12a2.416,2.416,0,0,1,2.4,1.12,5.649,5.649,0,0,1,.56,2.56,18.128,18.128,0,0,1-1.88,7.52,44.511,44.511,0,0,1-5,8.2,70.687,70.687,0,0,1-6.92,7.84A55.048,55.048,0,0,1,332.4-24a18.832,18.832,0,0,0-.72,1.84q-.32.96-.72,1.92a2.061,2.061,0,0,1,1.4.96,3.66,3.66,0,0,1,.6,1.68q.56,3.52,1.2,6.32a10.186,10.186,0,0,0,1.96,4.36,4.7,4.7,0,0,0,3.8,1.56,6.483,6.483,0,0,0,4.8-2.04,31.172,31.172,0,0,0,4.24-5.8l1.44.96a17.49,17.49,0,0,1-5.36,7.12,9.906,9.906,0,0,1-5.52,2.24,7.338,7.338,0,0,1-2.92-.68,12.328,12.328,0,0,1-2.92-1.8,45.953,45.953,0,0,1-1.08,9.88,46.456,46.456,0,0,1-2.88,8.96,24.564,24.564,0,0,1-4,6.48A6.2,6.2,0,0,1,321.2,22.4Zm2.16-4.24q.88,0,1.96-1.56a21.639,21.639,0,0,0,2.12-4.12,49.876,49.876,0,0,0,1.88-5.64q.84-3.08,1.36-6.12a33,33,0,0,0,.52-5.52,14.858,14.858,0,0,0-.6-4.36,28.7,28.7,0,0,0-1.96-4.6q-1.92,5.84-3.48,11.28t-2.4,9.84a39.792,39.792,0,0,0-.84,7.12Q321.92,18.16,323.36,18.16ZM334-28.08a82.981,82.981,0,0,0,8.8-9.36,61.123,61.123,0,0,0,5.68-8.28q2-3.64,2-5.16a.849.849,0,0,0-.96-.96q-2.08,0-4.64,3.24a55.564,55.564,0,0,0-5.36,8.6Q336.72-34.64,334-28.08ZM353.12,2.56a6.173,6.173,0,0,1-5-2.04,7.729,7.729,0,0,1-1.72-5.16A18.161,18.161,0,0,1,347.64-11a31.58,31.58,0,0,1,3.28-6.4,34.207,34.207,0,0,1,4.52-5.52,23.8,23.8,0,0,1,5.16-3.92,10.552,10.552,0,0,1,5.08-1.48,4.655,4.655,0,0,1,1.92.36,2.116,2.116,0,0,1,1.12,1.08,1.563,1.563,0,0,1,.32-.12,1.683,1.683,0,0,1,.4-.04,2.449,2.449,0,0,1,2.4,1.24,4.916,4.916,0,0,1,.64,2.2,6.347,6.347,0,0,1-.8,2.72q-.8,1.6-1.56,3.6a12.061,12.061,0,0,0-.76,4.32A3.843,3.843,0,0,0,370.4-10a4.331,4.331,0,0,0,3.04.96,6.309,6.309,0,0,0,3.96-1.48,16.575,16.575,0,0,0,3.48-3.88,33.812,33.812,0,0,0,2.84-5.24,38.6,38.6,0,0,0,1.96-5.56,2.618,2.618,0,0,1-.8-1.92,5.981,5.981,0,0,1,.68-2.92A6.572,6.572,0,0,1,387.12-32a2.616,2.616,0,0,1,1.28-.72q1.04,0,1.2.84a7.394,7.394,0,0,1,.16,1.24,5.288,5.288,0,0,1-.44,1.52,5.556,5.556,0,0,0-.44,1.44,2.42,2.42,0,0,0,1.28,1.92q1.28.88,2.88,2.04a14.29,14.29,0,0,1,2.88,2.8,6.624,6.624,0,0,1,1.28,4.2,12.987,12.987,0,0,1-1,4.88q-1,2.48-1.96,4.64a9.641,9.641,0,0,0-.96,3.84,2,2,0,0,0,.68,1.8,2.808,2.808,0,0,0,1.56.44,7.8,7.8,0,0,0,3.96-1.2,21.512,21.512,0,0,0,3.96-3.04,31.172,31.172,0,0,0,3.44-3.88,17.76,17.76,0,0,0,2.24-3.8l1.2.96a31.047,31.047,0,0,1-4.16,6.64,25.07,25.07,0,0,1-5.92,5.4,12.359,12.359,0,0,1-6.8,2.12A6.38,6.38,0,0,1,389,.6a4.978,4.978,0,0,1-1.64-3.88,13.138,13.138,0,0,1,1.08-4.96q1.08-2.64,2.16-5.16a11.657,11.657,0,0,0,1.08-4.52,4.665,4.665,0,0,0-1.44-3.68,22.735,22.735,0,0,0-2.96-2.24q-.96,2.8-2.32,5.8a34.157,34.157,0,0,1-3.16,5.56,17.184,17.184,0,0,1-4.04,4.16,8.588,8.588,0,0,1-5.12,1.6,8.562,8.562,0,0,1-3.48-.72,5.58,5.58,0,0,1-2.52-2.08,26.607,26.607,0,0,1-6,8.72A10.963,10.963,0,0,1,353.12,2.56Zm1.68-3.6a5.984,5.984,0,0,0,3.44-1.44A19.4,19.4,0,0,0,362-6.36a26.191,26.191,0,0,0,3.12-5.4,13.277,13.277,0,0,1-.88-5.28,17.977,17.977,0,0,1,.24-2.96,20.3,20.3,0,0,1,.64-2.72A9.734,9.734,0,0,1,366-24.8a11.064,11.064,0,0,0-4.44,2.08,20.553,20.553,0,0,0-3.88,3.88,31.2,31.2,0,0,0-3.04,4.76,29.1,29.1,0,0,0-2,4.84,14.6,14.6,0,0,0-.72,4.2,4.954,4.954,0,0,0,.76,2.96A2.476,2.476,0,0,0,354.8-1.04ZM431.84,22.4a6.13,6.13,0,0,1-3.6-1.12,3.913,3.913,0,0,1-1.6-3.44A7.918,7.918,0,0,1,428,13.28a16.278,16.278,0,0,1,3.6-3.72,35.479,35.479,0,0,1,5.04-3.2q2.8-1.48,5.68-2.84,1.04-2.8,2.16-6.4t2.08-7.52a42.21,42.21,0,0,1-5.44,6.8,8.638,8.638,0,0,1-6.16,2.88,7.391,7.391,0,0,1-3.04-.68,6.031,6.031,0,0,1-2.52-2.12,6.46,6.46,0,0,1-1-3.76,21.038,21.038,0,0,1,.76-5.12,49.027,49.027,0,0,1,1.88-5.8,24.556,24.556,0,0,1,2.36-4.68q1.24-1.84,2.12-1.84a4.84,4.84,0,0,1,1.28.28,7.926,7.926,0,0,1,1.68.76,1.588,1.588,0,0,1,.88,1.04,20.769,20.769,0,0,0-1.6,2.92q-.88,1.88-1.72,4.2t-1.4,4.48a15.281,15.281,0,0,0-.56,3.76,3.892,3.892,0,0,0,.6,2.24,2.381,2.381,0,0,0,2.12.88,5.8,5.8,0,0,0,3.48-1.48A23.677,23.677,0,0,0,444-9.4a49.314,49.314,0,0,0,3.44-4.84q.16-.72.36-1.76t.44-2.08a8.62,8.62,0,0,1,1.24-2.56A3.273,3.273,0,0,1,452.4-22q.48,0,.92.04a5.509,5.509,0,0,1,1,.2,27.213,27.213,0,0,1-.76,4.76q-.76,3.48-2.16,8.08T448.16.48A25.042,25.042,0,0,0,455.4-4.2a22.957,22.957,0,0,0,5.88-8.92l1.12.96a19.06,19.06,0,0,1-3.64,6.72,27.557,27.557,0,0,1-5.48,4.96,38.991,38.991,0,0,1-6.08,3.44,85.838,85.838,0,0,1-4.56,9.56,32.484,32.484,0,0,1-5.2,7.16A7.965,7.965,0,0,1,431.84,22.4Zm-.56-2.72q1.28,0,4.08-3.16t5.92-10.6q-3.04,1.6-5.8,3.32a18.528,18.528,0,0,0-4.44,3.72,6.688,6.688,0,0,0-1.68,4.4,3.165,3.165,0,0,0,.44,1.52A1.552,1.552,0,0,0,431.28,19.68ZM465.12,2.56q-3.52,0-4.92-2.2a9.4,9.4,0,0,1-1.4-5.16,18.018,18.018,0,0,1,.8-5.16,22.662,22.662,0,0,1,2.16-5,13.97,13.97,0,0,1,3.04-3.72,5.262,5.262,0,0,1,3.36-1.4,4.446,4.446,0,0,1,1,.12,3.155,3.155,0,0,1,.92.36,15.722,15.722,0,0,0-1.8,2.6,32.218,32.218,0,0,0-1.88,3.84,33.119,33.119,0,0,0-1.44,4.24,14.606,14.606,0,0,0-.56,3.64,5.643,5.643,0,0,0,.76,3.24,2.447,2.447,0,0,0,2.12,1.08,6.633,6.633,0,0,0,3.84-1.8,32.208,32.208,0,0,0,4.4-4.36A12.833,12.833,0,0,1,472-12.04a16.571,16.571,0,0,1-1.2-6.36,12.374,12.374,0,0,1,.88-4.56,8.975,8.975,0,0,1,2.68-3.72,6.881,6.881,0,0,1,4.52-1.48q3.36,0,4.56,1.8a7.829,7.829,0,0,1,1.2,4.44,18.525,18.525,0,0,1-1.52,6.88,38.978,38.978,0,0,1-3.84,7.2,6.172,6.172,0,0,0,2.8.64,9.427,9.427,0,0,0,2.88-.52,10.232,10.232,0,0,0,3.2-1.8,8.87,8.87,0,0,0,2.56-3.52l1.12.88a11.064,11.064,0,0,1-4.6,5.56,11.513,11.513,0,0,1-5.64,1.64,9.784,9.784,0,0,1-2-.2,13.336,13.336,0,0,1-1.84-.52A29.919,29.919,0,0,1,471.68.16,11.318,11.318,0,0,1,465.12,2.56ZM477.2-9.36a40.186,40.186,0,0,0,3.28-6.16,15.557,15.557,0,0,0,1.36-6.08,6.025,6.025,0,0,0-.64-3.16,1.989,1.989,0,0,0-1.76-1q-1.52,0-3.2,2.28a9.383,9.383,0,0,0-1.68,5.72,16.488,16.488,0,0,0,.68,4.48A10.406,10.406,0,0,0,477.2-9.36ZM495.04,2.4a5.01,5.01,0,0,1-4.36-2.48,10.062,10.062,0,0,1-1.64-5.68,23.618,23.618,0,0,1,.72-5.36,42.908,42.908,0,0,1,1.88-5.96A30.429,30.429,0,0,1,494-21.92q1.2-1.92,2.16-1.92a4.3,4.3,0,0,1,1.44.48,5.352,5.352,0,0,1,1.76,1.28A36.862,36.862,0,0,0,497.2-18a43.474,43.474,0,0,0-2.24,5.88,20.086,20.086,0,0,0-.96,5.8,16.906,16.906,0,0,0,.16,1.84,6.106,6.106,0,0,0,.76,2.32,1.95,1.95,0,0,0,1.8,1.04,4.465,4.465,0,0,0,3.08-1.56,26.847,26.847,0,0,0,3.2-4q1.64-2.44,3.2-5.24t2.84-5.44q1.28-2.64,2.16-4.4a13.08,13.08,0,0,1,1.56.36,8.452,8.452,0,0,1,1.8.72,1.362,1.362,0,0,1,.8,1.24,9.4,9.4,0,0,1-.8,2.08q-.8,1.76-1.84,4.28t-1.84,5.12a15.894,15.894,0,0,0-.8,4.6,3.9,3.9,0,0,0,.56,2.2,2.135,2.135,0,0,0,1.92.84,7.882,7.882,0,0,0,4.04-1.52,23.094,23.094,0,0,0,4.84-4.4,30.5,30.5,0,0,0,4.4-6.96l1.12.8a27.967,27.967,0,0,1-4.44,7.68A23.515,23.515,0,0,1,516.68.52a11.561,11.561,0,0,1-6.04,1.88,5.594,5.594,0,0,1-3.36-.88A4.606,4.606,0,0,1,505.6-.84,12.058,12.058,0,0,1,505.04-4a10.773,10.773,0,0,1,.12-1.6q.12-.8.28-1.6a48.927,48.927,0,0,1-3.08,4.68,17.027,17.027,0,0,1-3.48,3.56A6.372,6.372,0,0,1,495.04,2.4Zm43.28-.32A6.38,6.38,0,0,1,533.88.6a4.978,4.978,0,0,1-1.64-3.88,12.621,12.621,0,0,1,1.12-5q1.12-2.6,2.2-5.16A11.942,11.942,0,0,0,536.64-18a4.574,4.574,0,0,0-1.36-3.56,18.53,18.53,0,0,0-2.96-2.2q-1.76,4.56-3.84,8.76t-3.36,6.44l-.88-1.68q1.12-2.08,2.92-6.04t3.56-8.92a2.714,2.714,0,0,1-.8-2,5.957,5.957,0,0,1,1.32-3.92q1.32-1.6,2.12-1.6a1.05,1.05,0,0,1,1.16.84,5.994,5.994,0,0,1,.2,1.24,5.705,5.705,0,0,1-.4,1.52q-.4,1.12-.48,1.44a2.808,2.808,0,0,0,1.32,1.96q1.24.92,2.88,2.04a11.941,11.941,0,0,1,2.88,2.8,6.949,6.949,0,0,1,1.24,4.24,12.8,12.8,0,0,1-1,4.8q-1,2.48-2,4.64a9.329,9.329,0,0,0-1,3.84,1.9,1.9,0,0,0,.68,1.72,2.808,2.808,0,0,0,1.56.44,8,8,0,0,0,3.96-1.16,21.166,21.166,0,0,0,4-3,29.513,29.513,0,0,0,3.48-3.88,17.757,17.757,0,0,0,2.24-3.8L555.44-12a29.524,29.524,0,0,1-4.24,6.64A25.312,25.312,0,0,1,545.16,0,12.723,12.723,0,0,1,538.32,2.08Zm43.6,2a10.276,10.276,0,0,1-6.12-1.64,9.052,9.052,0,0,1-3.24-4.08,13.344,13.344,0,0,1-.96-4.92,8.439,8.439,0,0,1,.64-3.68,4.652,4.652,0,0,1,1.56-1.88,9.345,9.345,0,0,1,1.76-.92,3.531,3.531,0,0,0,1.24-.72A52.867,52.867,0,0,0,581.08-19a37.453,37.453,0,0,0,3.56-6.12V-26a6.936,6.936,0,0,1,1.04-4.32,2.921,2.921,0,0,1,2.24-1.28,1.467,1.467,0,0,1,1.08.36,1.518,1.518,0,0,1,.44.84,4.726,4.726,0,0,1-.24,1.28,7.423,7.423,0,0,0-.24,2.08,17.177,17.177,0,0,0,1.08,5.64q1.08,3.08,2.16,6.48a23.244,23.244,0,0,1,1.08,7.08,15.462,15.462,0,0,1-.12,1.92q-.12.96-.28,1.76A11.993,11.993,0,0,0,598-6.76a20.023,20.023,0,0,0,4.72-6.44l.8.8A14.77,14.77,0,0,1,599-5.56a14.335,14.335,0,0,1-6.68,3.08,9.277,9.277,0,0,1-4.08,4.96A12.509,12.509,0,0,1,581.92,4.08Zm-.08-3.04a6.777,6.777,0,0,0,2.72-.68,4.715,4.715,0,0,0,2.32-3,14.442,14.442,0,0,1-5.92-2.6,16.37,16.37,0,0,1-3.92-3.88q-1.6.08-1.6,2.56a8.887,8.887,0,0,0,1.68,5.2A5.431,5.431,0,0,0,581.84,1.04Zm5.52-5.28a12.8,12.8,0,0,0,.24-1.56q.08-.84.08-1.8a30.245,30.245,0,0,0-.92-7.36q-.92-3.68-1.64-7.04-1.68,2.8-3.68,5.6a36.989,36.989,0,0,1-3.84,4.64,16.291,16.291,0,0,0,3.76,4.56A13.526,13.526,0,0,0,587.36-4.24Zm19.6,6.64A5.01,5.01,0,0,1,602.6-.08a10.062,10.062,0,0,1-1.64-5.68,23.62,23.62,0,0,1,.72-5.36,42.916,42.916,0,0,1,1.88-5.96,30.431,30.431,0,0,1,2.36-4.84q1.2-1.92,2.16-1.92a4.3,4.3,0,0,1,1.44.48,5.353,5.353,0,0,1,1.76,1.28A36.861,36.861,0,0,0,609.12-18a43.478,43.478,0,0,0-2.24,5.88,20.088,20.088,0,0,0-.96,5.8,16.911,16.911,0,0,0,.16,1.84,6.107,6.107,0,0,0,.76,2.32,1.95,1.95,0,0,0,1.8,1.04,4.465,4.465,0,0,0,3.08-1.56,26.849,26.849,0,0,0,3.2-4q1.64-2.44,3.2-5.24t2.84-5.44q1.28-2.64,2.16-4.4a13.079,13.079,0,0,1,1.56.36,8.454,8.454,0,0,1,1.8.72,1.362,1.362,0,0,1,.8,1.24,9.4,9.4,0,0,1-.8,2.08q-.8,1.76-1.84,4.28T622.8-7.96a15.892,15.892,0,0,0-.8,4.6,3.9,3.9,0,0,0,.56,2.2,2.135,2.135,0,0,0,1.92.84,7.882,7.882,0,0,0,4.04-1.52,23.1,23.1,0,0,0,4.84-4.4,30.5,30.5,0,0,0,4.4-6.96l1.12.8a27.967,27.967,0,0,1-4.44,7.68A23.516,23.516,0,0,1,628.6.52a11.561,11.561,0,0,1-6.04,1.88,5.594,5.594,0,0,1-3.36-.88,4.606,4.606,0,0,1-1.68-2.36A12.059,12.059,0,0,1,616.96-4a10.769,10.769,0,0,1,.12-1.6q.12-.8.28-1.6a48.933,48.933,0,0,1-3.08,4.68,17.027,17.027,0,0,1-3.48,3.56A6.373,6.373,0,0,1,606.96,2.4Zm24.24,20a1.955,1.955,0,0,1-1.28-.56,4.359,4.359,0,0,1-1-1.24,7.745,7.745,0,0,1-.44-.92q1.44-4.56,2.64-8.04t2.24-6.88q1.04-3.4,1.96-7.68t1.92-10.4q1-6.12,2.12-15a2.637,2.637,0,0,1,.32-1.16q.24-.36,1.28-.36a3.866,3.866,0,0,1,3.2,1.2,4.131,4.131,0,0,1,.96,2.64,28.141,28.141,0,0,1-.4,3.64q-.4,2.6-1.2,6.12a38.76,38.76,0,0,1,3.44-5.08,18.663,18.663,0,0,1,4.56-4.16,10.177,10.177,0,0,1,5.6-1.64,7.883,7.883,0,0,1,6,2.56,9.427,9.427,0,0,1,2.4,6.72,17.7,17.7,0,0,1-1.4,6.6,24.611,24.611,0,0,1-3.96,6.56,20.953,20.953,0,0,1-6.04,5,15.712,15.712,0,0,1-7.72,1.92,10.287,10.287,0,0,1-3.6-.52q-1.36-.52-1.36-1.16,0-.4.6-.44t1.4-.04a14.674,14.674,0,0,0,6.36-1.6,18.1,18.1,0,0,0,5.28-4.04,19.553,19.553,0,0,0,3.56-5.56,15.2,15.2,0,0,0,1.28-5.92,8.113,8.113,0,0,0-1.08-4.32,3.774,3.774,0,0,0-3.48-1.76,7.566,7.566,0,0,0-4.04,1.28,17.679,17.679,0,0,0-3.84,3.32,35.7,35.7,0,0,0-3.2,4.2,26.328,26.328,0,0,0-2.12,3.84q-1.44,5.76-2.8,11.24t-2.64,9.96q-1.28,4.48-2.36,7.44a9.507,9.507,0,0,1-2.04,3.76A1.535,1.535,0,0,1,631.2,22.4Zm31.84,0a1.955,1.955,0,0,1-1.28-.56,4.359,4.359,0,0,1-1-1.24,7.745,7.745,0,0,1-.44-.92q1.44-4.56,2.64-8.04t2.24-6.88q1.04-3.4,1.96-7.68t1.92-10.4q1-6.12,2.12-15a2.637,2.637,0,0,1,.32-1.16q.24-.36,1.28-.36a3.866,3.866,0,0,1,3.2,1.2,4.131,4.131,0,0,1,.96,2.64,28.141,28.141,0,0,1-.4,3.64q-.4,2.6-1.2,6.12a38.76,38.76,0,0,1,3.44-5.08,18.663,18.663,0,0,1,4.56-4.16,10.177,10.177,0,0,1,5.6-1.64,7.883,7.883,0,0,1,6,2.56,9.427,9.427,0,0,1,2.4,6.72,17.7,17.7,0,0,1-1.4,6.6A24.611,24.611,0,0,1,692-4.68a20.953,20.953,0,0,1-6.04,5,15.712,15.712,0,0,1-7.72,1.92,10.287,10.287,0,0,1-3.6-.52q-1.36-.52-1.36-1.16,0-.4.6-.44t1.4-.04a14.674,14.674,0,0,0,6.36-1.6,18.1,18.1,0,0,0,5.28-4.04,19.553,19.553,0,0,0,3.56-5.56,15.2,15.2,0,0,0,1.28-5.92,8.113,8.113,0,0,0-1.08-4.32,3.774,3.774,0,0,0-3.48-1.76,7.566,7.566,0,0,0-4.04,1.28,17.679,17.679,0,0,0-3.84,3.32,35.7,35.7,0,0,0-3.2,4.2A26.328,26.328,0,0,0,674-10.48Q672.56-4.72,671.2.76t-2.64,9.96q-1.28,4.48-2.36,7.44a9.507,9.507,0,0,1-2.04,3.76A1.535,1.535,0,0,1,663.04,22.4ZM705.52,2.56a6.173,6.173,0,0,1-5-2.04,7.729,7.729,0,0,1-1.72-5.16A18.16,18.16,0,0,1,700.04-11a31.581,31.581,0,0,1,3.28-6.4,34.2,34.2,0,0,1,4.52-5.52A23.8,23.8,0,0,1,713-26.84a10.552,10.552,0,0,1,5.08-1.48,4.655,4.655,0,0,1,1.92.36,2.116,2.116,0,0,1,1.12,1.08,1.565,1.565,0,0,1,.32-.12,1.683,1.683,0,0,1,.4-.04,2.448,2.448,0,0,1,2.4,1.24,4.915,4.915,0,0,1,.64,2.2,6.347,6.347,0,0,1-.8,2.72q-.8,1.6-1.56,3.6a12.062,12.062,0,0,0-.76,4.32A3.843,3.843,0,0,0,722.8-10a4.332,4.332,0,0,0,3.04.96,6.309,6.309,0,0,0,3.96-1.48,16.575,16.575,0,0,0,3.48-3.88,33.812,33.812,0,0,0,2.84-5.24,38.612,38.612,0,0,0,1.96-5.56,2.619,2.619,0,0,1-.8-1.92,5.981,5.981,0,0,1,.68-2.92A6.572,6.572,0,0,1,739.52-32a2.616,2.616,0,0,1,1.28-.72q1.04,0,1.2.84a7.392,7.392,0,0,1,.16,1.24,5.288,5.288,0,0,1-.44,1.52,5.555,5.555,0,0,0-.44,1.44,2.42,2.42,0,0,0,1.28,1.92q1.28.88,2.88,2.04a14.29,14.29,0,0,1,2.88,2.8,6.624,6.624,0,0,1,1.28,4.2,12.986,12.986,0,0,1-1,4.88q-1,2.48-1.96,4.64a9.641,9.641,0,0,0-.96,3.84,2,2,0,0,0,.68,1.8,2.808,2.808,0,0,0,1.56.44,7.8,7.8,0,0,0,3.96-1.2,21.51,21.51,0,0,0,3.96-3.04,31.177,31.177,0,0,0,3.44-3.88,17.762,17.762,0,0,0,2.24-3.8l1.2.96a31.048,31.048,0,0,1-4.16,6.64,25.069,25.069,0,0,1-5.92,5.4,12.359,12.359,0,0,1-6.8,2.12A6.38,6.38,0,0,1,741.4.6a4.978,4.978,0,0,1-1.64-3.88,13.137,13.137,0,0,1,1.08-4.96q1.08-2.64,2.16-5.16a11.657,11.657,0,0,0,1.08-4.52,4.665,4.665,0,0,0-1.44-3.68,22.735,22.735,0,0,0-2.96-2.24q-.96,2.8-2.32,5.8a34.155,34.155,0,0,1-3.16,5.56,17.184,17.184,0,0,1-4.04,4.16,8.588,8.588,0,0,1-5.12,1.6,8.562,8.562,0,0,1-3.48-.72,5.58,5.58,0,0,1-2.52-2.08,26.608,26.608,0,0,1-6,8.72A10.964,10.964,0,0,1,705.52,2.56Zm1.68-3.6a5.984,5.984,0,0,0,3.44-1.44,19.4,19.4,0,0,0,3.76-3.88,26.193,26.193,0,0,0,3.12-5.4,13.277,13.277,0,0,1-.88-5.28,17.98,17.98,0,0,1,.24-2.96,20.3,20.3,0,0,1,.64-2.72,9.734,9.734,0,0,1,.88-2.08,11.064,11.064,0,0,0-4.44,2.08,20.555,20.555,0,0,0-3.88,3.88,31.2,31.2,0,0,0-3.04,4.76,29.1,29.1,0,0,0-2,4.84,14.6,14.6,0,0,0-.72,4.2,4.954,4.954,0,0,0,.76,2.96A2.476,2.476,0,0,0,707.2-1.04Zm59.6,4.72a7.136,7.136,0,0,1-5.4-2.04Q759.44-.4,759.44-4.4a36.04,36.04,0,0,1,1.28-8.52A99.333,99.333,0,0,1,764-23.36q-.72-.16-1.44-.28a9.475,9.475,0,0,1-1.44-.36v-1.76l1.76.16q.88.08,1.92.16,1.68-4.32,3.6-8.32t3.84-7.16a30.878,30.878,0,0,1,3.64-5q1.72-1.84,3-1.84a1.966,1.966,0,0,1,1.24.48,1.733,1.733,0,0,1,.6,1.44,10.919,10.919,0,0,1-1.68,4.48q-1.68,3.04-4.12,7.2t-4.76,8.96h2.8q2.96,0,5.84-.08t5.84-.4v1.84q-4.4.4-7.92.64t-6.48.32h-1.12a73.695,73.695,0,0,0-3.04,8.44,30.165,30.165,0,0,0-1.28,8.52q0,3.36,1.04,4.8A3.862,3.862,0,0,0,769.2.32q4.16,0,8.2-3.64a32.7,32.7,0,0,0,7.16-9.96l1.04.8a36.389,36.389,0,0,1-4.96,8.24,24.507,24.507,0,0,1-6.52,5.8A14.133,14.133,0,0,1,766.8,3.68Z" transform="translate(-5.111 58.1)" fill="none" stroke="#9a7141" stroke-width="1" opacity="0.65"/>
</svg>
