<svg width="27" height="27" viewBox="0 0 27 27" fill="none" xmlns="http://www.w3.org/2000/svg">
<g clip-path="url(#clip0_402_505)">
<path d="M17.6922 8.41211C17.1843 8.41211 16.7688 8.82764 16.7688 9.34474C16.7688 9.86184 17.1843 10.2774 17.6922 10.2774C18.2001 10.2774 18.6248 9.86184 18.6248 9.34474C18.6248 8.82764 18.2093 8.41211 17.6922 8.41211Z" fill="white"/>
<path d="M13.5644 9.60327C11.4129 9.60327 9.66772 11.3485 9.66772 13.5C9.66772 15.6515 11.4129 17.3967 13.5644 17.3967C15.7159 17.3967 17.4612 15.6515 17.4612 13.5C17.4612 11.3485 15.7159 9.60327 13.5644 9.60327ZM13.5644 16.0024C12.1886 16.0024 11.0713 14.8851 11.0713 13.5092C11.0713 12.1334 12.1886 11.0161 13.5644 11.0161C14.9403 11.0161 16.0576 12.1334 16.0576 13.5092C16.0576 14.8851 14.9403 16.0024 13.5644 16.0024Z" fill="white"/>
<path d="M16.6579 21.4134H10.3419C7.71946 21.4134 5.58643 19.2803 5.58643 16.6579V10.3419C5.58643 7.71946 7.71946 5.58643 10.3419 5.58643H16.6579C19.2803 5.58643 21.4134 7.71946 21.4134 10.3419V16.6579C21.4134 19.2803 19.2803 21.4134 16.6579 21.4134ZM10.3419 7.07309C8.54128 7.07309 7.07309 8.54128 7.07309 10.3419V16.6579C7.07309 18.4585 8.54128 19.9267 10.3419 19.9267H16.6579C18.4585 19.9267 19.9267 18.4585 19.9267 16.6579V10.3419C19.9267 8.54128 18.4585 7.07309 16.6579 7.07309H10.3419Z" fill="white"/>
</g>
<defs>
<clipPath id="clip0_402_505">
<rect width="27" height="27" fill="white"/>
</clipPath>
</defs>
</svg>
