<svg width="29" height="29" viewBox="0 0 29 29" fill="none" xmlns="http://www.w3.org/2000/svg">
<g clip-path="url(#clip0_402_511)">
<path d="M8.11287 14.5099C8.11287 18.1299 11.0486 21.0557 14.6587 21.0557C15.0752 21.0557 15.4918 21.016 15.8885 20.9367C16.4638 21.2838 17.1382 21.4822 17.8622 21.4822C19.9747 21.4822 21.6806 19.7664 21.6806 17.6538C21.6806 16.91 21.4723 16.2257 21.1053 15.6405C21.1748 15.2735 21.2045 14.8867 21.2045 14.4999C21.2045 10.8799 18.2688 7.95412 14.6587 7.95412C14.2421 7.95412 13.8454 7.99379 13.4487 8.06322C12.8735 7.70617 12.1891 7.50781 11.4651 7.50781C9.35261 7.50781 7.64673 9.22361 7.64673 11.3262C7.64673 12.0601 7.855 12.7445 8.21205 13.3296C8.14262 13.7065 8.10295 14.0933 8.10295 14.49L8.11287 14.5099ZM14.738 9.85836C16.8506 9.97737 18.0903 10.9097 18.2093 11.7824C18.2688 12.3478 17.8919 12.7941 17.2374 12.7941C16.2852 12.7941 16.1861 11.5246 14.5397 11.5246C13.7958 11.5246 13.171 11.832 13.171 12.5064C13.171 13.9049 18.4473 13.0916 18.4473 16.1761C18.4473 17.9514 17.0291 19.1118 14.9066 19.1118C13.0421 19.1118 11.1676 18.2688 11.1775 16.8108C11.1775 16.3744 11.5048 15.9678 11.9412 15.9678C13.0421 15.9678 13.0322 17.6043 14.7777 17.6043C16.0075 17.6043 16.4241 16.9398 16.4241 16.4637C16.4241 14.7777 11.118 15.8091 11.118 12.6453C11.118 10.9295 12.5263 9.74926 14.738 9.8782V9.85836Z" fill="white"/>
</g>
<defs>
<clipPath id="clip0_402_511">
<rect width="29" height="29" fill="white"/>
</clipPath>
</defs>
</svg>
