<svg width="83" height="27" viewBox="0 0 83 27" fill="none" xmlns="http://www.w3.org/2000/svg">
<mask id="mask0_2409_216" style="mask-type:alpha" maskUnits="userSpaceOnUse" x="0" y="0" width="83" height="27">
<rect x="0.5" y="0.5" width="82" height="26" fill="#D9D9D9" stroke="black"/>
</mask>
<g mask="url(#mask0_2409_216)">
<rect x="38" width="44" height="13" fill="black"/>
<path d="M34.944 15.088V25.936H35.94V15.088H34.944ZM35.7 19.54V20.38H37.716V19.54H35.7ZM27.54 16.816V17.632H33.936V16.816H27.54ZM30.78 18.532C29.256 18.532 28.14 19.564 28.14 21.028C28.14 22.492 29.256 23.524 30.78 23.524C32.316 23.524 33.42 22.492 33.42 21.028C33.42 19.564 32.316 18.532 30.78 18.532ZM30.78 19.36C31.764 19.36 32.472 20.044 32.472 21.028C32.472 22 31.764 22.696 30.78 22.696C29.796 22.696 29.088 22 29.088 21.028C29.088 20.044 29.796 19.36 30.78 19.36ZM30.264 15.22V17.188H31.26V15.22H30.264ZM46.5111 15.076V25.948H47.5071V15.076H46.5111ZM41.7831 15.916C40.1871 15.916 39.0351 17.392 39.0351 19.696C39.0351 22.012 40.1871 23.488 41.7831 23.488C43.3911 23.488 44.5431 22.012 44.5431 19.696C44.5431 17.392 43.3911 15.916 41.7831 15.916ZM41.7831 16.816C42.8511 16.816 43.5831 17.944 43.5831 19.696C43.5831 21.46 42.8511 22.612 41.7831 22.612C40.7271 22.612 39.9831 21.46 39.9831 19.696C39.9831 17.944 40.7271 16.816 41.7831 16.816ZM57.0221 15.076V25.948H58.0181V15.076H57.0221ZM57.7781 19.396V20.236H59.7941V19.396H57.7781ZM50.1101 22.504V23.332H50.9741C53.0501 23.332 54.4901 23.248 56.1821 22.948L56.0741 22.12C54.4301 22.432 53.0141 22.504 50.9741 22.504H50.1101ZM50.0861 16.096V16.912H54.0101V19.168H50.1101V22.84H51.0941V19.984H54.9941V16.096H50.0861ZM68.5892 15.076V25.948H69.5852V15.076H68.5892ZM63.8612 15.916C62.2652 15.916 61.1132 17.392 61.1132 19.696C61.1132 22.012 62.2652 23.488 63.8612 23.488C65.4692 23.488 66.6212 22.012 66.6212 19.696C66.6212 17.392 65.4692 15.916 63.8612 15.916ZM63.8612 16.816C64.9292 16.816 65.6612 17.944 65.6612 19.696C65.6612 21.46 64.9292 22.612 63.8612 22.612C62.8052 22.612 62.0612 21.46 62.0612 19.696C62.0612 17.944 62.8052 16.816 63.8612 16.816ZM73.0163 20.932V21.736H80.4683V20.932H73.0163ZM71.7563 23.716V24.544H81.5843V23.716H71.7563ZM73.0163 16.012V21.184H74.0243V16.828H80.3483V16.012H73.0163ZM73.7003 18.436V19.228H80.1203V18.436H73.7003Z" fill="black"/>
<path d="M10.3402 12H8.05234L8.18692 8.77009L8.16449 7.51402L5.71963 7.46916L3.5215 7.51402L3.49907 8.56822L3.58879 12H1.30093L1.43551 8.77009L1.30093 1.18878H3.63365L3.54393 5.62991L5.85421 5.6972L8.14206 5.62991L8.05234 1.18878H10.385L10.2505 8.56822L10.3402 12ZM15.2607 12H12.9728L13.1074 8.77009L12.9728 1.18878H15.3055L15.1709 8.56822L15.2607 12ZM25.2078 3.79065C24.1761 3.19252 23.1966 2.89346 22.2695 2.89346C21.3424 2.89346 20.6396 3.19252 20.1611 3.79065C19.6976 4.37383 19.4658 5.34579 19.4658 6.70654C19.4658 8.42617 19.8695 9.51776 20.677 9.98131C21.0957 10.2206 21.5817 10.3402 22.1349 10.3402C22.7032 10.3402 23.2415 10.2654 23.7499 10.1159L23.7948 9.19626L23.7499 7.51402L25.8583 7.37944L25.8134 8.83738L25.8583 11.4841C24.5125 11.9327 23.2714 12.157 22.1349 12.157C20.4602 12.157 19.1966 11.7009 18.3443 10.7888C17.5069 9.86168 17.0882 8.50093 17.0882 6.70654C17.0882 4.91215 17.5742 3.52149 18.5462 2.53458C19.5331 1.53271 20.9237 1.03178 22.7181 1.03178C23.8994 1.04673 24.9611 1.27103 25.9032 1.70467L25.4321 3.74579L25.2078 3.79065ZM36.9886 12H34.7008L34.8354 8.77009L34.8129 7.51402L32.3681 7.46916L30.1699 7.51402L30.1475 8.56822L30.2372 12H27.9494L28.084 8.77009L27.9494 1.18878H30.2821L30.1924 5.62991L32.5026 5.6972L34.7905 5.62991L34.7008 1.18878H37.0335L36.8989 8.56822L36.9886 12Z" fill="black"/>
<path d="M45.4082 12H39.554L39.6885 8.77009L39.554 1.18878H41.8867L41.7521 8.56822L41.7969 10.1159H45.4306L45.5652 10.2953L45.4082 12ZM49.1747 12H46.8869L47.0215 8.77009L46.8869 1.18878H49.2196L49.085 8.56822L49.1747 12ZM59.1219 3.79065C58.0901 3.19252 57.1107 2.89346 56.1836 2.89346C55.2565 2.89346 54.5537 3.19252 54.0752 3.79065C53.6116 4.37383 53.3798 5.34579 53.3798 6.70654C53.3798 8.42617 53.7836 9.51776 54.5911 9.98131C55.0098 10.2206 55.4957 10.3402 56.049 10.3402C56.6172 10.3402 57.1555 10.2654 57.664 10.1159L57.7088 9.19626L57.664 7.51402L59.7724 7.37944L59.7275 8.83738L59.7724 11.4841C58.4266 11.9327 57.1855 12.157 56.049 12.157C54.3742 12.157 53.1107 11.7009 52.2584 10.7888C51.421 9.86168 51.0023 8.50093 51.0023 6.70654C51.0023 4.91215 51.4883 3.52149 52.4602 2.53458C53.4471 1.53271 54.8378 1.03178 56.6322 1.03178C57.8135 1.04673 58.8752 1.27103 59.8172 1.70467L59.3462 3.74579L59.1219 3.79065ZM70.9027 12H68.6148L68.7494 8.77009L68.727 7.51402L66.2821 7.46916L64.084 7.51402L64.0616 8.56822L64.1513 12H61.8634L61.998 8.77009L61.8634 1.18878H64.1961L64.1064 5.62991L66.4167 5.6972L68.7046 5.62991L68.6148 1.18878H70.9475L70.813 8.56822L70.9027 12ZM80.3091 3.0729L78.2904 2.96075H77.5951L77.5278 8.56822L77.6176 12H75.3521L75.4643 8.77009L75.3746 2.96075H74.7017L72.6381 3.0729L72.4811 2.87103L72.6381 1.18878H80.3091L80.4437 1.36822L80.3091 3.0729Z" fill="white"/>
</g>
</svg>
