<svg xmlns="http://www.w3.org/2000/svg" width="211" height="211" viewBox="0 0 211 211">
  <g id="Group_4835" data-name="Group 4835" transform="translate(8737 -307)">
    <circle id="Ellipse_392" data-name="Ellipse 392" cx="105.5" cy="105.5" r="105.5" transform="translate(-8737 307)" fill="#fff"/>
    <g id="Group_4834" data-name="Group 4834" transform="translate(-9576 114)">
      <circle id="Ellipse_388" data-name="Ellipse 388" cx="89.5" cy="89.5" r="89.5" transform="translate(855 209)" fill="#fff4f4" opacity="0.995"/>
      <g id="Group_4744" data-name="Group 4744">
        <circle id="Ellipse_387" data-name="Ellipse 387" cx="77.5" cy="77.5" r="77.5" transform="translate(867 221)" fill="#fee9e9"/>
        <g id="mail" transform="translate(903.812 204.359)">
          <g id="Group_2872" data-name="Group 2872" transform="translate(0 64)">
            <path id="Path_1351" data-name="Path 1351" d="M73.678,64H6.7A6.7,6.7,0,0,0,0,70.7v46.886a6.7,6.7,0,0,0,6.7,6.7h66.98a6.7,6.7,0,0,0,6.7-6.7V70.7A6.7,6.7,0,0,0,73.678,64ZM6.7,67.349h66.98a3.187,3.187,0,0,1,.7.141c-5.8,5.307-25.027,22.9-31.756,28.96a3.359,3.359,0,0,1-4.862,0C31.028,90.387,11.8,72.8,6,67.49A3.2,3.2,0,0,1,6.7,67.349ZM3.349,117.584V70.7a3.235,3.235,0,0,1,.187-.926c4.438,4.062,17.855,16.336,26.554,24.247C21.419,101.468,8,114.191,3.526,118.457A3.227,3.227,0,0,1,3.349,117.584Zm70.329,3.349H6.7a3.2,3.2,0,0,1-.755-.153c4.623-4.407,18.128-17.2,26.647-24.491,1.111,1.007,2.125,1.926,2.925,2.646a6.689,6.689,0,0,0,9.345,0c.8-.721,1.815-1.64,2.926-2.648,8.519,7.287,22.023,20.082,26.647,24.491A3.2,3.2,0,0,1,73.678,120.933Zm3.349-3.349a3.234,3.234,0,0,1-.177.873c-4.475-4.268-17.894-16.99-26.565-24.437,8.7-7.911,22.114-20.183,26.554-24.247a3.236,3.236,0,0,1,.187.926Z" transform="translate(0 -64)" fill="#8f1616"/>
          </g>
        </g>
      </g>
    </g>
  </g>
</svg>
