<svg xmlns="http://www.w3.org/2000/svg" width="27.065" height="25.925" viewBox="0 0 27.065 25.925">
  <g id="Icon_feather-shopping-cart" data-name="Icon feather-shopping-cart" transform="translate(-0.5 -0.5)">
    <path id="Path_1989" data-name="Path 1989" d="M14.279,31.139A1.139,1.139,0,1,1,13.139,30,1.139,1.139,0,0,1,14.279,31.139Z" transform="translate(-2.525 -6.853)" fill="none" stroke="#404040" stroke-linecap="round" stroke-linejoin="round" stroke-width="2"/>
    <path id="Path_1990" data-name="Path 1990" d="M30.779,31.139A1.139,1.139,0,1,1,29.639,30,1.139,1.139,0,0,1,30.779,31.139Z" transform="translate(-6.493 -6.853)" fill="none" stroke="#404040" stroke-linecap="round" stroke-linejoin="round" stroke-width="2"/>
    <path id="Path_1991" data-name="Path 1991" d="M1.5,1.5H6.057L9.111,16.755a2.279,2.279,0,0,0,2.279,1.834H22.463a2.279,2.279,0,0,0,2.279-1.834L26.565,7.2H7.2" fill="none" stroke="#404040" stroke-linecap="round" stroke-linejoin="round" stroke-width="2"/>
  </g>
</svg>
