<svg xmlns="http://www.w3.org/2000/svg" width="1924.533" height="795.345" viewBox="0 0 1924.533 795.345">
  <g id="Group_4453" data-name="Group 4453" transform="translate(705.24 -8.788)" opacity="0.145">
    <circle id="Ellipse_334" data-name="Ellipse 334" cx="8.59" cy="8.59" r="8.59" transform="translate(544.416 689.347) rotate(-74.973)" fill="none" stroke="#0086e3" stroke-linecap="round" stroke-linejoin="round" stroke-width="4"/>
    <g id="Group_4454" data-name="Group 4454" transform="translate(0 -166)">
      <circle id="Ellipse_319" data-name="Ellipse 319" cx="21.478" cy="21.478" r="21.478" transform="translate(-347.856 590.754)" fill="none" stroke="#0086e3" stroke-linecap="round" stroke-linejoin="round" stroke-width="4"/>
      <circle id="Ellipse_320" data-name="Ellipse 320" cx="21.478" cy="21.478" r="21.478" transform="translate(-654.77 543.216)" fill="none" stroke="#0086e3" stroke-linecap="round" stroke-linejoin="round" stroke-width="4"/>
      <circle id="Ellipse_322" data-name="Ellipse 322" cx="21.478" cy="21.478" r="21.478" transform="translate(-459.053 707.155)" fill="none" stroke="#0086e3" stroke-linecap="round" stroke-linejoin="round" stroke-width="4"/>
      <circle id="Ellipse_324" data-name="Ellipse 324" cx="17.42" cy="17.42" r="17.42" transform="translate(-599.966 685.31)" fill="none" stroke="#0086e3" stroke-linecap="round" stroke-linejoin="round" stroke-width="4"/>
      <path id="Path_1725" data-name="Path 1725" d="M764.36,293.745a8.59,8.59,0,1,1-8.59-8.59A8.59,8.59,0,0,1,764.36,293.745Z" transform="translate(-1270.915 209.411)" fill="none" stroke="#0086e3" stroke-linecap="round" stroke-linejoin="round" stroke-width="4"/>
      <circle id="Ellipse_330" data-name="Ellipse 330" cx="8.59" cy="8.59" r="8.59" transform="translate(-172.926 630.396)" fill="none" stroke="#0086e3" stroke-linecap="round" stroke-linejoin="round" stroke-width="4"/>
      <circle id="Ellipse_335" data-name="Ellipse 335" cx="8.59" cy="8.59" r="8.59" transform="translate(-398.457 813.736) rotate(-45)" fill="none" stroke="#0086e3" stroke-linecap="round" stroke-linejoin="round" stroke-width="4"/>
      <circle id="Ellipse_336" data-name="Ellipse 336" cx="8.59" cy="8.59" r="8.59" transform="matrix(0.951, -0.308, 0.308, 0.951, -504.09, 921.932)" fill="none" stroke="#0086e3" stroke-linecap="round" stroke-linejoin="round" stroke-width="4"/>
      <g id="Group_4433" data-name="Group 4433" transform="translate(-1270.915 209.411)">
        <path id="Path_1726" data-name="Path 1726" d="M628.655,584.989a8.59,8.59,0,1,1-8.59-8.59A8.59,8.59,0,0,1,628.655,584.989Z" fill="none" stroke="#0086e3" stroke-linecap="round" stroke-linejoin="round" stroke-width="4"/>
        <circle id="Ellipse_342" data-name="Ellipse 342" cx="8.59" cy="8.59" r="8.59" transform="translate(703.415 642.314)" fill="none" stroke="#0086e3" stroke-linecap="round" stroke-linejoin="round" stroke-width="4"/>
        <circle id="Ellipse_343" data-name="Ellipse 343" cx="18.317" cy="18.317" r="18.317" transform="translate(661.341 596.599)" fill="none" stroke="#0086e3" stroke-linecap="round" stroke-linejoin="round" stroke-width="4"/>
        <g id="Group_4432" data-name="Group 4432">
          <path id="Path_1727" data-name="Path 1727" d="M711.583,614.915,705.465,625.6l-3.233,11.886-11.886,3.233-10.689,6.118-10.689-6.118-11.886-3.233L653.849,625.6l-6.118-10.689,6.118-10.689,3.233-11.886,11.886-3.233,10.689-6.118,10.689,6.118,11.886,3.233,3.233,11.886Z" fill="none" stroke="#0086e3" stroke-linecap="round" stroke-linejoin="round" stroke-width="4"/>
        </g>
        <path id="Path_1728" data-name="Path 1728" d="M703.415,650.9a8.582,8.582,0,0,1,15.021-5.682A49.194,49.194,0,1,0,705.678,656.7,8.548,8.548,0,0,1,703.415,650.9Z" fill="none" stroke="#0086e3" stroke-linecap="round" stroke-linejoin="round" stroke-width="4"/>
        <path id="Path_1729" data-name="Path 1729" d="M679.657,548.295a66.55,66.55,0,0,0-55.2,29.319,8.586,8.586,0,0,1-7.682,15.308,66.621,66.621,0,1,0,62.886-44.627Z" fill="none" stroke="#0086e3" stroke-linecap="round" stroke-linejoin="round" stroke-width="4"/>
      </g>
      <g id="Group_4445" data-name="Group 4445" transform="translate(-1270.915 209.411)">
        <rect id="Rectangle_2058" data-name="Rectangle 2058" width="155.539" height="114.757" rx="16.209" transform="translate(601.006 109.266) rotate(16.63)" fill="none" stroke="#0086e3" stroke-linecap="round" stroke-miterlimit="10" stroke-width="4"/>
        <line id="Line_716" data-name="Line 716" x2="149.033" y2="44.513" transform="translate(575.589 194.365)" fill="none" stroke="#0086e3" stroke-linecap="round" stroke-miterlimit="10" stroke-width="4"/>
        <path id="Path_1741" data-name="Path 1741" d="M650.472,229.555a4.052,4.052,0,1,1-2.723-5.042A4.053,4.053,0,0,1,650.472,229.555Z" fill="#fff" stroke="#0086e3" stroke-width="1"/>
        <rect id="Rectangle_2059" data-name="Rectangle 2059" width="34.87" height="15.725" transform="translate(625.975 236.491) rotate(16.63)" fill="none" stroke="#0086e3" stroke-linecap="round" stroke-miterlimit="10" stroke-width="4"/>
        <line id="Line_717" data-name="Line 717" x2="57.675" y2="17.226" transform="translate(609.102 248.744)" fill="none" stroke="#0086e3" stroke-linecap="round" stroke-miterlimit="10" stroke-width="4"/>
      </g>
      <g id="Group_4449" data-name="Group 4449" transform="translate(-1270.915 209.411)">
        <g id="Group_4446" data-name="Group 4446">
          <rect id="Rectangle_2060" data-name="Rectangle 2060" width="31.957" height="131.746" transform="translate(807.723 298.594) rotate(-25.804)" fill="none" stroke="#0086e3" stroke-linecap="round" stroke-linejoin="round" stroke-width="4"/>
          <line id="Line_718" data-name="Line 718" x1="14.385" y2="6.955" transform="translate(828.986 298.909)" fill="none" stroke="#0086e3" stroke-linecap="round" stroke-linejoin="round" stroke-width="4"/>
          <line id="Line_719" data-name="Line 719" x1="14.385" y2="6.955" transform="translate(842.273 326.391)" fill="none" stroke="#0086e3" stroke-linecap="round" stroke-linejoin="round" stroke-width="4"/>
          <line id="Line_720" data-name="Line 720" x1="14.385" y2="6.955" transform="translate(855.561 353.873)" fill="none" stroke="#0086e3" stroke-linecap="round" stroke-linejoin="round" stroke-width="4"/>
          <line id="Line_721" data-name="Line 721" x1="14.385" y2="6.955" transform="translate(868.849 381.355)" fill="none" stroke="#0086e3" stroke-linecap="round" stroke-linejoin="round" stroke-width="4"/>
          <line id="Line_722" data-name="Line 722" x1="7.193" y2="3.478" transform="translate(840.577 308.006)" fill="none" stroke="#0086e3" stroke-linecap="round" stroke-linejoin="round" stroke-width="4"/>
          <line id="Line_723" data-name="Line 723" x1="7.192" y2="3.477" transform="translate(845.022 317.198)" fill="none" stroke="#0086e3" stroke-linecap="round" stroke-linejoin="round" stroke-width="4"/>
          <line id="Line_724" data-name="Line 724" x1="7.192" y2="3.478" transform="translate(853.888 335.536)" fill="none" stroke="#0086e3" stroke-linecap="round" stroke-linejoin="round" stroke-width="4"/>
          <line id="Line_725" data-name="Line 725" x1="7.192" y2="3.477" transform="translate(858.332 344.728)" fill="none" stroke="#0086e3" stroke-linecap="round" stroke-linejoin="round" stroke-width="4"/>
          <line id="Line_726" data-name="Line 726" x1="7.192" y2="3.478" transform="translate(867.198 363.065)" fill="none" stroke="#0086e3" stroke-linecap="round" stroke-linejoin="round" stroke-width="4"/>
          <line id="Line_727" data-name="Line 727" x1="7.192" y2="3.478" transform="translate(871.643 372.258)" fill="none" stroke="#0086e3" stroke-linecap="round" stroke-linejoin="round" stroke-width="4"/>
        </g>
        <g id="Group_4448" data-name="Group 4448">
          <g id="Group_4447" data-name="Group 4447">
            <line id="Line_728" data-name="Line 728" x1="8.628" y2="4.172" transform="translate(792.587 353.198)" fill="none" stroke="#0086e3" stroke-linecap="round" stroke-linejoin="round" stroke-width="4"/>
            <line id="Line_729" data-name="Line 729" x1="8.628" y2="4.172" transform="translate(805.875 380.68)" fill="none" stroke="#0086e3" stroke-linecap="round" stroke-linejoin="round" stroke-width="4"/>
            <line id="Line_730" data-name="Line 730" x1="8.628" y2="4.172" transform="translate(819.162 408.162)" fill="none" stroke="#0086e3" stroke-linecap="round" stroke-linejoin="round" stroke-width="4"/>
            <line id="Line_731" data-name="Line 731" x1="4.314" y2="2.086" transform="translate(788.012 334.813)" fill="none" stroke="#0086e3" stroke-linecap="round" stroke-linejoin="round" stroke-width="4"/>
            <line id="Line_732" data-name="Line 732" x1="4.314" y2="2.086" transform="translate(792.457 344.005)" fill="none" stroke="#0086e3" stroke-linecap="round" stroke-linejoin="round" stroke-width="4"/>
            <line id="Line_733" data-name="Line 733" x1="4.314" y2="2.086" transform="translate(801.323 362.342)" fill="none" stroke="#0086e3" stroke-linecap="round" stroke-linejoin="round" stroke-width="4"/>
            <line id="Line_734" data-name="Line 734" x1="4.314" y2="2.086" transform="translate(805.767 371.535)" fill="none" stroke="#0086e3" stroke-linecap="round" stroke-linejoin="round" stroke-width="4"/>
            <line id="Line_735" data-name="Line 735" x1="4.314" y2="2.086" transform="translate(814.633 389.872)" fill="none" stroke="#0086e3" stroke-linecap="round" stroke-linejoin="round" stroke-width="4"/>
            <line id="Line_736" data-name="Line 736" x1="4.314" y2="2.086" transform="translate(828.138 417.804)" fill="none" stroke="#0086e3" stroke-linecap="round" stroke-linejoin="round" stroke-width="4"/>
            <line id="Line_737" data-name="Line 737" x1="4.314" y2="2.086" transform="translate(819.078 399.064)" fill="none" stroke="#0086e3" stroke-linecap="round" stroke-linejoin="round" stroke-width="4"/>
          </g>
          <path id="Path_1742" data-name="Path 1742" d="M774.8,460.847,781.05,311.49,838.4,430.1Z" fill="none" stroke="#0086e3" stroke-linecap="round" stroke-linejoin="round" stroke-width="4"/>
          <path id="Path_1743" data-name="Path 1743" d="M795.343,429.575l1.708-40.854,15.686,32.443Z" fill="none" stroke="#0086e3" stroke-linecap="round" stroke-linejoin="round" stroke-width="4"/>
        </g>
      </g>
      <g id="Group_4452" data-name="Group 4452" transform="translate(-1270.915 209.411)">
        <g id="Group_4451" data-name="Group 4451">
          <g id="Group_4450" data-name="Group 4450">
            <rect id="Rectangle_2061" data-name="Rectangle 2061" width="32.133" height="89.031" transform="translate(915.01 710.911) rotate(135)" fill="none" stroke="#0086e3" stroke-linecap="round" stroke-linejoin="round" stroke-width="4"/>
          </g>
        </g>
        <path id="Path_1744" data-name="Path 1744" d="M921.162,739.784l-6.151-28.873-22.721,22.721Z" fill="none" stroke="#0086e3" stroke-linecap="round" stroke-linejoin="round" stroke-width="4"/>
        <line id="Line_738" data-name="Line 738" x1="10.607" y2="10.607" transform="translate(907.683 726.305)" fill="none" stroke="#0086e3" stroke-linecap="round" stroke-linejoin="round" stroke-width="4"/>
        <path id="Rectangle_2062" data-name="Rectangle 2062" d="M0,0H32.132a0,0,0,0,1,0,0V9.45a7.524,7.524,0,0,1-7.524,7.524H7.524A7.524,7.524,0,0,1,0,9.45V0A0,0,0,0,1,0,0Z" transform="matrix(-0.707, 0.707, -0.707, -0.707, 852.056, 647.957)" fill="none" stroke="#0086e3" stroke-linecap="round" stroke-linejoin="round" stroke-width="4"/>
        <line id="Line_739" data-name="Line 739" x1="22.721" y2="22.721" transform="translate(835.472 654.095)" fill="none" stroke="#0086e3" stroke-linecap="round" stroke-linejoin="round" stroke-width="4"/>
        <line id="Line_740" data-name="Line 740" x1="56.817" y1="56.817" transform="translate(846.833 665.455)" fill="none" stroke="#0086e3" stroke-linecap="round" stroke-linejoin="round" stroke-width="4"/>
      </g>
    </g>
    <g id="Group_4455" data-name="Group 4455">
      <g id="Group_4430" data-name="Group 4430">
        <g id="Group_4427" data-name="Group 4427">
          <path id="Path_1719" data-name="Path 1719" d="M1004.138,581.294l-34.915-11.855a7.052,7.052,0,0,1-4.41-8.945h0a7.053,7.053,0,0,1,8.945-4.411l34.915,11.855a7.052,7.052,0,0,1,4.41,8.945h0A7.053,7.053,0,0,1,1004.138,581.294Z" fill="none" stroke="#0086e3" stroke-miterlimit="10" stroke-width="4"/>
          <path id="Path_1720" data-name="Path 1720" d="M999.549,594.809l-34.915-11.855a7.052,7.052,0,0,1-4.411-8.945h0a7.053,7.053,0,0,1,8.946-4.41l34.915,11.855a7.052,7.052,0,0,1,4.41,8.945h0A7.052,7.052,0,0,1,999.549,594.809Z" fill="none" stroke="#0086e3" stroke-miterlimit="10" stroke-width="4"/>
          <path id="Path_1721" data-name="Path 1721" d="M968.508,519.6h0c.037.115.072.231.11.345a95.561,95.561,0,0,1,3.462,35.776l37.458,12.365a95.561,95.561,0,0,1,24.081-26.685c.1-.069.195-.141.293-.212h0c1.021-.734,2.014-1.512,2.97-2.336a42.561,42.561,0,1,0-69.371-22.9C967.789,517.184,968.124,518.4,968.508,519.6Z" fill="none" stroke="#0086e3" stroke-miterlimit="10" stroke-width="4"/>
          <path id="Path_1722" data-name="Path 1722" d="M966.542,583.766a16.81,16.81,0,0,0,30.663,10.412Z" fill="none" stroke="#0086e3" stroke-miterlimit="10" stroke-width="4"/>
          <path id="Path_1723" data-name="Path 1723" d="M983.806,559.4l11.133-33.729a6.332,6.332,0,1,0-8,4.028l13.358,4.409" fill="none" stroke="#0086e3" stroke-miterlimit="10" stroke-width="4"/>
          <path id="Path_1724" data-name="Path 1724" d="M998.494,564.248l11.134-33.728a6.332,6.332,0,1,1,4.028,8l-13.357-4.409" fill="none" stroke="#0086e3" stroke-miterlimit="10" stroke-width="4"/>
        </g>
        <g id="Group_4428" data-name="Group 4428">
          <line id="Line_706" data-name="Line 706" x2="11.28" y2="3.723" transform="translate(1057.37 531.623)" fill="none" stroke="#0086e3" stroke-linecap="round" stroke-miterlimit="10" stroke-width="4"/>
          <line id="Line_707" data-name="Line 707" y1="1.773" x2="11.746" transform="translate(1062.542 515.636)" fill="none" stroke="#0086e3" stroke-linecap="round" stroke-miterlimit="10" stroke-width="4"/>
          <line id="Line_708" data-name="Line 708" x2="8.382" y2="8.417" transform="translate(1049.477 543.809)" fill="none" stroke="#0086e3" stroke-linecap="round" stroke-miterlimit="10" stroke-width="4"/>
        </g>
        <g id="Group_4429" data-name="Group 4429">
          <line id="Line_709" data-name="Line 709" x1="11.28" y1="3.724" transform="translate(941.324 493.318)" fill="none" stroke="#0086e3" stroke-linecap="round" stroke-miterlimit="10" stroke-width="4"/>
          <line id="Line_710" data-name="Line 710" x1="8.382" y1="8.417" transform="translate(948.528 474.124)" fill="none" stroke="#0086e3" stroke-linecap="round" stroke-miterlimit="10" stroke-width="4"/>
          <line id="Line_711" data-name="Line 711" x1="11.746" y2="1.773" transform="translate(939.946 511.532)" fill="none" stroke="#0086e3" stroke-linecap="round" stroke-miterlimit="10" stroke-width="4"/>
        </g>
      </g>
      <circle id="Ellipse_321" data-name="Ellipse 321" cx="21.478" cy="21.478" r="21.478" transform="translate(1122.475 478.009)" fill="none" stroke="#0086e3" stroke-linecap="round" stroke-linejoin="round" stroke-width="4"/>
      <circle id="Ellipse_323" data-name="Ellipse 323" cx="21.478" cy="21.478" r="21.478" transform="translate(952.72 95.804)" fill="none" stroke="#0086e3" stroke-linecap="round" stroke-linejoin="round" stroke-width="4"/>
      <circle id="Ellipse_325" data-name="Ellipse 325" cx="17.42" cy="17.42" r="17.42" transform="translate(1090.309 586.905)" fill="none" stroke="#0086e3" stroke-linecap="round" stroke-linejoin="round" stroke-width="4"/>
      <circle id="Ellipse_326" data-name="Ellipse 326" cx="17.42" cy="17.42" r="17.42" transform="translate(904.053 267.735)" fill="none" stroke="#0086e3" stroke-linecap="round" stroke-linejoin="round" stroke-width="4"/>
      <circle id="Ellipse_327" data-name="Ellipse 327" cx="17.42" cy="17.42" r="17.42" transform="translate(1035.485 10.788)" fill="none" stroke="#0086e3" stroke-linecap="round" stroke-linejoin="round" stroke-width="4"/>
      <circle id="Ellipse_329" data-name="Ellipse 329" cx="8.59" cy="8.59" r="8.59" transform="translate(1158.089 339.752)" fill="none" stroke="#0086e3" stroke-linecap="round" stroke-linejoin="round" stroke-width="4"/>
      <circle id="Ellipse_331" data-name="Ellipse 331" cx="8.59" cy="8.59" r="8.59" transform="translate(888.435 43.473) rotate(-78.327)" fill="none" stroke="#0086e3" stroke-linecap="round" stroke-linejoin="round" stroke-width="4"/>
      <circle id="Ellipse_332" data-name="Ellipse 332" cx="8.59" cy="8.59" r="8.59" transform="translate(965.607 193.454)" fill="none" stroke="#0086e3" stroke-linecap="round" stroke-linejoin="round" stroke-width="4"/>
      <circle id="Ellipse_333" data-name="Ellipse 333" cx="8.59" cy="8.59" r="8.59" transform="translate(674.085 43.897) rotate(-80.758)" fill="none" stroke="#0086e3" stroke-linecap="round" stroke-linejoin="round" stroke-width="4"/>
      <circle id="Ellipse_337" data-name="Ellipse 337" cx="8.59" cy="8.59" r="8.59" transform="translate(981.256 701.253) rotate(-77.99)" fill="none" stroke="#0086e3" stroke-linecap="round" stroke-linejoin="round" stroke-width="4"/>
      <g id="Group_4431" data-name="Group 4431">
        <ellipse id="Ellipse_338" data-name="Ellipse 338" cx="62.717" cy="29.727" rx="62.717" ry="29.727" transform="translate(771.017 81.751)" fill="none" stroke="#0086e3" stroke-linecap="round" stroke-linejoin="round" stroke-width="4"/>
        <ellipse id="Ellipse_339" data-name="Ellipse 339" cx="62.718" cy="29.727" rx="62.718" ry="29.727" transform="translate(775.728 149.588) rotate(-58.666)" fill="none" stroke="#0086e3" stroke-linecap="round" stroke-linejoin="round" stroke-width="4"/>
        <ellipse id="Ellipse_340" data-name="Ellipse 340" cx="29.727" cy="62.718" rx="29.727" ry="62.718" transform="translate(775.728 73.367) rotate(-31.334)" fill="none" stroke="#0086e3" stroke-linecap="round" stroke-linejoin="round" stroke-width="4"/>
        <circle id="Ellipse_341" data-name="Ellipse 341" cx="7.867" cy="7.867" r="7.867" transform="translate(825.867 103.61)" fill="none" stroke="#0086e3" stroke-linecap="round" stroke-linejoin="round" stroke-width="4"/>
      </g>
      <g id="Group_4436" data-name="Group 4436">
        <g id="Group_4435" data-name="Group 4435">
          <g id="Group_4434" data-name="Group 4434">
            <path id="Path_1730" data-name="Path 1730" d="M1028.392,334.971l-30.408,29.9a8.157,8.157,0,0,1-11.533-.1h0a8.156,8.156,0,0,1,.1-11.534l30.408-29.895a8.155,8.155,0,0,1,11.533.1h0A8.155,8.155,0,0,1,1028.392,334.971Z" fill="none" stroke="#0086e3" stroke-linecap="round" stroke-miterlimit="10" stroke-width="4"/>
          </g>
        </g>
        <circle id="Ellipse_344" data-name="Ellipse 344" cx="35.042" cy="35.042" r="35.042" transform="translate(1029.207 252.283)" fill="none" stroke="#0086e3" stroke-linecap="round" stroke-miterlimit="10" stroke-width="4"/>
        <circle id="Ellipse_345" data-name="Ellipse 345" cx="25.283" cy="25.283" r="25.283" transform="translate(1038.965 262.041)" fill="none" stroke="#0086e3" stroke-linecap="round" stroke-miterlimit="10" stroke-width="4"/>
        <line id="Line_712" data-name="Line 712" x1="9.832" y2="9.832" transform="translate(1029.639 312.103)" fill="none" stroke="#0086e3" stroke-linecap="round" stroke-miterlimit="10" stroke-width="4"/>
      </g>
      <g id="Group_4439" data-name="Group 4439">
        <g id="Group_4438" data-name="Group 4438">
          <g id="Group_4437" data-name="Group 4437">
            <path id="Rectangle_2055" data-name="Rectangle 2055" d="M3.9,0H43.8a3.9,3.9,0,0,1,3.9,3.9v9.3a0,0,0,0,1,0,0H0a0,0,0,0,1,0,0V3.9A3.9,3.9,0,0,1,3.9,0Z" transform="translate(1102.369 786.951) rotate(-13)" fill="none" stroke="#0086e3" stroke-linecap="round" stroke-miterlimit="10" stroke-width="4"/>
          </g>
        </g>
        <circle id="Ellipse_346" data-name="Ellipse 346" cx="47.649" cy="47.649" r="47.649" transform="matrix(0.778, -0.628, 0.628, 0.778, 1039.578, 696.088)" fill="none" stroke="#0086e3" stroke-miterlimit="10" stroke-width="4"/>
        <path id="Path_1731" data-name="Path 1731" d="M1128.8,745.424l-44.443-84.3-5.551-10.234a59.291,59.291,0,1,0,55.3,104.9l-5.429-10.3" fill="none" stroke="#0086e3" stroke-linecap="round" stroke-linejoin="round" stroke-width="4"/>
        <ellipse id="Ellipse_347" data-name="Ellipse 347" cx="29.784" cy="10.468" rx="29.784" ry="10.468" transform="translate(1058.011 675.013) rotate(-27.798)" fill="none" stroke="#0086e3" stroke-miterlimit="10" stroke-width="4"/>
        <path id="Path_1732" data-name="Path 1732" d="M1097.572,750.054a47.605,47.605,0,0,0,52.694-27.78,47.605,47.605,0,0,0-52.694,27.78Z" fill="none" stroke="#0086e3" stroke-miterlimit="10" stroke-width="4"/>
        <ellipse id="Ellipse_348" data-name="Ellipse 348" cx="23.824" cy="47.649" rx="23.824" ry="47.649" transform="translate(1063.283 672.234) rotate(-27.798)" fill="none" stroke="#0086e3" stroke-miterlimit="10" stroke-width="4"/>
        <line id="Line_713" data-name="Line 713" y1="44.443" x2="84.3" transform="translate(1064.429 681.052)" fill="none" stroke="#0086e3" stroke-miterlimit="10" stroke-width="4"/>
        <line id="Line_714" data-name="Line 714" x2="4.922" y2="20.523" transform="translate(1120.419 760.977)" fill="none" stroke="#0086e3" stroke-miterlimit="10" stroke-width="4"/>
        <line id="Line_715" data-name="Line 715" y1="14.21" x2="59.25" transform="translate(1099.75 787.512)" fill="none" stroke="#0086e3" stroke-linecap="round" stroke-miterlimit="10" stroke-width="4"/>
      </g>
      <g id="Group_4444" data-name="Group 4444">
        <path id="Path_1733" data-name="Path 1733" d="M1081.554,95.065a5.861,5.861,0,1,1-7.821-2.746A5.861,5.861,0,0,1,1081.554,95.065Z" fill="none" stroke="#0086e3" stroke-linecap="round" stroke-linejoin="round" stroke-width="4"/>
        <path id="Path_1734" data-name="Path 1734" d="M1092.2,67.09a5.861,5.861,0,1,1-7.82-2.746A5.861,5.861,0,0,1,1092.2,67.09Z" fill="none" stroke="#0086e3" stroke-linecap="round" stroke-linejoin="round" stroke-width="4"/>
        <path id="Path_1735" data-name="Path 1735" d="M1165.378,61.312a5.861,5.861,0,1,1-7.821-2.746A5.861,5.861,0,0,1,1165.378,61.312Z" fill="none" stroke="#0086e3" stroke-linecap="round" stroke-linejoin="round" stroke-width="4"/>
        <g id="Group_4441" data-name="Group 4441">
          <g id="Group_4440" data-name="Group 4440">
            <rect id="Rectangle_2056" data-name="Rectangle 2056" width="41.192" height="11.397" rx="3.343" transform="translate(1078.611 120.882) rotate(-25.165)" fill="none" stroke="#0086e3" stroke-linecap="round" stroke-miterlimit="10" stroke-width="4"/>
          </g>
          <path id="Path_1736" data-name="Path 1736" d="M1129.842,148.42,1114.559,116.6l-24.725,11.874,15.283,31.823,9.637,53.24a13.267,13.267,0,0,0,17.7,6.216l26.694-12.819a13.268,13.268,0,0,0,6.217-17.7Z" fill="none" stroke="#0086e3" stroke-linecap="round" stroke-miterlimit="10" stroke-width="4"/>
          <path id="Path_1737" data-name="Path 1737" d="M1109.462,184.3s5.1-8.26,18.656-7.793,15.835-11.881,15.835-11.881" fill="none" stroke="#0086e3" stroke-linecap="round" stroke-miterlimit="10" stroke-width="4"/>
        </g>
        <g id="Group_4443" data-name="Group 4443">
          <g id="Group_4442" data-name="Group 4442">
            <rect id="Rectangle_2057" data-name="Rectangle 2057" width="41.192" height="11.397" rx="3.343" transform="matrix(0.905, -0.425, 0.425, 0.905, 1142.116, 90.385)" fill="none" stroke="#0086e3" stroke-linecap="round" stroke-miterlimit="10" stroke-width="4"/>
          </g>
          <path id="Path_1738" data-name="Path 1738" d="M1191.169,176.746a13.714,13.714,0,1,0,24.725-11.873L1178.064,86.1,1153.34,97.972Z" fill="none" stroke="#0086e3" stroke-linecap="round" stroke-miterlimit="10" stroke-width="4"/>
          <path id="Path_1739" data-name="Path 1739" d="M1191.169,176.746a13.714,13.714,0,1,0,24.725-11.873L1178.064,86.1,1153.34,97.972Z" fill="none" stroke="#0086e3" stroke-linecap="round" stroke-miterlimit="10" stroke-width="4"/>
          <path id="Path_1740" data-name="Path 1740" d="M1177.983,149.288a23.9,23.9,0,0,1,13.988-3.443c6.2.213,10.045-2.256,12.388-5" fill="none" stroke="#0086e3" stroke-linecap="round" stroke-miterlimit="10" stroke-width="4"/>
        </g>
      </g>
      <path id="Path_1745" data-name="Path 1745" d="M679.778,800" fill="#223982" stroke="#0086e3" stroke-width="1"/>
    </g>
  </g>
</svg>
