<svg xmlns="http://www.w3.org/2000/svg" xmlns:xlink="http://www.w3.org/1999/xlink" width="198" height="69" viewBox="0 0 198 69">
  <defs>
    <clipPath id="clip-path">
      <rect id="Rectangle_2163" data-name="Rectangle 2163" width="198" height="69" transform="translate(-17030 9484)" fill="#fff" stroke="#707070" stroke-width="1"/>
    </clipPath>
  </defs>
  <g id="Mask_Group_158" data-name="Mask Group 158" transform="translate(17030 -9484)" clip-path="url(#clip-path)">
    <g id="Group_3590" data-name="Group 3590" transform="translate(-17447 8884)">
      <g id="Rectangle_1817" data-name="Rectangle 1817" transform="translate(416 599)" fill="#f5f5f5" stroke="#d3d6d8" stroke-width="1">
        <rect width="200" height="71" stroke="none"/>
        <rect x="0.5" y="0.5" width="199" height="70" fill="none"/>
      </g>
      <line id="Line_668" data-name="Line 668" x1="20" y2="21" transform="translate(416.5 600.5)" fill="none" stroke="#d3d6d8" stroke-width="1"/>
      <line id="Line_669" data-name="Line 669" x1="35" y2="36" transform="translate(416.5 600.5)" fill="none" stroke="#d3d6d8" stroke-width="1"/>
      <line id="Line_670" data-name="Line 670" x1="51" y2="51" transform="translate(416.5 600.5)" fill="none" stroke="#d3d6d8" stroke-width="1"/>
      <line id="Line_671" data-name="Line 671" x1="69" y2="70" transform="translate(416.5 600.5)" fill="none" stroke="#d3d6d8" stroke-width="1"/>
      <line id="Line_672" data-name="Line 672" x1="69" y2="70" transform="translate(433.5 600.5)" fill="none" stroke="#d3d6d8" stroke-width="1"/>
      <line id="Line_673" data-name="Line 673" x1="69" y2="70" transform="translate(447.5 600.5)" fill="none" stroke="#d3d6d8" stroke-width="1"/>
      <line id="Line_674" data-name="Line 674" x1="69" y2="70" transform="translate(466.5 600.5)" fill="none" stroke="#d3d6d8" stroke-width="1"/>
      <line id="Line_675" data-name="Line 675" x1="69" y2="70" transform="translate(483.5 600.5)" fill="none" stroke="#d3d6d8" stroke-width="1"/>
      <line id="Line_676" data-name="Line 676" x1="68" y2="69" transform="translate(501.5 600.5)" fill="none" stroke="#d3d6d8" stroke-width="1"/>
      <line id="Line_677" data-name="Line 677" x1="69" y2="69" transform="translate(519.5 600.5)" fill="none" stroke="#d3d6d8" stroke-width="1"/>
      <line id="Line_678" data-name="Line 678" x1="69" y2="69" transform="translate(537.5 600.5)" fill="none" stroke="#d3d6d8" stroke-width="1"/>
      <line id="Line_679" data-name="Line 679" x1="60" y2="61" transform="translate(555.5 609.5)" fill="none" stroke="#d3d6d8" stroke-width="1"/>
      <line id="Line_680" data-name="Line 680" x1="41" y2="41" transform="translate(574.5 628.5)" fill="none" stroke="#d3d6d8" stroke-width="1"/>
      <line id="Line_681" data-name="Line 681" x1="24" y2="24" transform="translate(591.5 645.5)" fill="none" stroke="#d3d6d8" stroke-width="1"/>
    </g>
  </g>
</svg>
